<?xml version="1.0" standalone="no"?>
<!DOCTYPE svg PUBLIC "-//W3C//DTD SVG 1.1//EN" "http://www.w3.org/Graphics/SVG/1.1/DTD/svg11.dtd" >
<svg xmlns="http://www.w3.org/2000/svg" xmlns:xlink="http://www.w3.org/1999/xlink" version="1.1">
<metadata>
Created by FontForge 20190801 at Tue Jun 18 00:54:39 2019
 By www-data
Copyright (c) 2018-2019 by TypeType. Designers Ivan Gladkikh, Pavel Emelyanov. Technical designers Marina Khodak, Vika Usmanova, Nadyr Rakhimov, Antonina Zhulkova. All rights reserved. |DCNT
</metadata>
<defs>
<font id="TTCommonsDemiBold" horiz-adv-x="510" >
  <font-face 
    font-family="TTCommonsDemiBold"
    font-weight="600"
    font-stretch="normal"
    units-per-em="1000"
    panose-1="2 0 5 6 3 0 0 2 0 4"
    ascent="789"
    descent="-211"
    x-height="460"
    cap-height="630"
    bbox="-410 -270 1438 950"
    underline-thickness="50"
    underline-position="-100"
    unicode-range="U+000D-FB06"
  />
<missing-glyph horiz-adv-x="0" 
 />
    <glyph glyph-name="ff" unicode="ff" horiz-adv-x="570" 
d="M75 0v345h-55v105h55q0 74 43 119.5t112 45.5q21 0 39 -5q13 -4 16 -5v-100l-8 2q-15 3 -22 3q-37 0 -55 -30q-9 -16 -10 -30h150v20q0 74 43 119.5t112 45.5q21 0 39 -5q14 -4 16 -5v-100l-8 2q-15 3 -22 3q-30 0 -47.5 -17.5t-17.5 -47.5v-15h95v-105h-95v-345h-115
v345h-150v-345h-115z" />
    <glyph glyph-name="uniFB01" unicode="fi" 
d="M75 0v345h-55v105h55v20q0 74 43 119.5t112 45.5q21 0 39 -5q13 -4 16 -5v-100l-8 2q-15 3 -22 3q-30 0 -47.5 -17.5t-17.5 -47.5v-15h265v-450h-115v345h-150v-345h-115zM400 495q-26 0 -45.5 19.5t-19.5 45.5t19.5 45.5t45.5 19.5t45.5 -19.5t19.5 -45.5t-19.5 -45.5
t-45.5 -19.5z" />
    <glyph glyph-name="uniFB02" unicode="fl" 
d="M75 0v345h-55v105h55q0 89 51 142t134 53q25 0 55 -8l25 -7h115v-630h-115v525q-6 5 -16 10q-22 10 -49 10q-39 0 -64.5 -26.5t-25.5 -68.5h100v-105h-95v-345h-115z" />
    <glyph glyph-name="ffi" unicode="ffi" horiz-adv-x="775" 
d="M75 0v345h-55v105h55q0 74 43 119.5t112 45.5q21 0 39 -5q13 -4 16 -5v-100l-8 2q-15 3 -22 3q-37 0 -55 -30q-9 -16 -10 -30h150v20q0 74 43 119.5t112 45.5q21 0 39 -5q14 -4 16 -5v-100l-8 2q-15 3 -22 3q-30 0 -47.5 -17.5t-17.5 -47.5v-15h265v-450h-115v345h-150
v-345h-115v345h-150v-345h-115zM665 495q-26 0 -45.5 19.5t-19.5 45.5t19.5 45.5t45.5 19.5t45.5 -19.5t19.5 -45.5t-19.5 -45.5t-45.5 -19.5z" />
    <glyph glyph-name="ffl" unicode="ffl" horiz-adv-x="775" 
d="M75 0v345h-55v105h55q0 74 43 119.5t112 45.5q21 0 39 -5q13 -4 16 -5v-100l-8 2q-15 3 -22 3q-37 0 -55 -30q-9 -16 -10 -30h150q0 89 51 142t134 53q25 0 55 -8l25 -7h115v-630h-115v525q-5 5 -16 10q-22 10 -49 10q-39 0 -64.5 -26.5t-25.5 -68.5h100v-105h-95v-345
h-115v345h-150v-345h-115z" />
    <glyph glyph-name="f_f_j" unicode="ffj" horiz-adv-x="775" 
d="M75 0v345h-55v105h55q0 74 43 119.5t112 45.5q21 0 39 -5q13 -4 16 -5v-100l-8 2q-15 3 -22 3q-37 0 -55 -30q-9 -16 -10 -30h150v20q0 74 43 119.5t112 45.5q21 0 39 -5q14 -4 16 -5v-100l-8 2q-15 3 -22 3q-30 0 -47.5 -17.5t-17.5 -47.5v-15h265v-450
q0 -74 -43 -119.5t-112 -45.5q-21 0 -39 5q-6 1 -16 5v100l7 -3q14 -2 23 -2q30 0 47.5 17.5t17.5 47.5v340h-150v-345h-115v345h-150v-345h-115zM665 495q-26 0 -45.5 19.5t-19.5 45.5t19.5 45.5t45.5 19.5t45.5 -19.5t19.5 -45.5t-19.5 -45.5t-45.5 -19.5z" />
    <glyph glyph-name="f_j" unicode="fj" 
d="M75 0v345h-55v105h55v20q0 74 43 119.5t112 45.5q21 0 39 -5q13 -4 16 -5v-100l-8 2q-15 3 -22 3q-30 0 -47.5 -17.5t-17.5 -47.5v-15h265v-450q0 -74 -43 -119.5t-112 -45.5q-21 0 -39 5q-6 1 -16 5v100l7 -3q14 -2 23 -2q30 0 47.5 17.5t17.5 47.5v340h-150v-345h-115z
M400 495q-26 0 -45.5 19.5t-19.5 45.5t19.5 45.5t45.5 19.5t45.5 -19.5t19.5 -45.5t-19.5 -45.5t-45.5 -19.5z" />
    <glyph glyph-name=".notdef" horiz-adv-x="0" 
 />
    <glyph glyph-name=".null" horiz-adv-x="0" 
 />
    <glyph glyph-name="nonmarkingreturn" horiz-adv-x="333" 
 />
    <glyph glyph-name="NULL" horiz-adv-x="0" 
 />
    <glyph glyph-name="NULL" horiz-adv-x="0" 
 />
    <glyph glyph-name="CR" unicode="&#xd;" horiz-adv-x="0" 
 />
    <glyph glyph-name="space" unicode=" " horiz-adv-x="225" 
 />
    <glyph glyph-name="exclam" unicode="!" horiz-adv-x="260" 
d="M65 60q0 26 19.5 45.5t45.5 19.5t45.5 -19.5t19.5 -45.5t-19.5 -45.5t-45.5 -19.5t-45.5 19.5t-19.5 45.5zM80 175l-15 455h130l-15 -455h-100z" />
    <glyph glyph-name="quotedbl" unicode="&#x22;" horiz-adv-x="365" 
d="M45 435v195h110v-195h-110zM210 435v195h110v-195h-110z" />
    <glyph glyph-name="numbersign" unicode="#" horiz-adv-x="625" 
d="M95 0l35 165h-120l20 90h115l25 120h-120l20 90h115l35 165h90l-35 -165h130l35 165h90l-35 -165h120l-20 -90h-115l-25 -120h120l-20 -90h-115l-35 -165h-90l35 165h-130l-35 -165h-90zM235 255h130l25 120h-130z" />
    <glyph glyph-name="dollar" unicode="$" horiz-adv-x="520" 
d="M210 -85v85q-77 12 -126 66t-49 134h120q0 -43 28.5 -69t76.5 -26q51 0 78 21.5t27 53.5q0 27 -24 45.5t-60 28t-78.5 24.5t-78.5 33t-60 55t-24 88q0 68 47 116t123 60v85h110v-85q67 -19 108.5 -69.5t41.5 -125.5h-115q0 42 -25 66t-70 24q-43 0 -69 -21t-26 -49
q0 -25 24 -43t60 -27t78.5 -25t78.5 -35t60 -57.5t24 -92.5q0 -60 -49 -110.5t-121 -64.5v-85h-110z" />
    <glyph glyph-name="percent" unicode="%" horiz-adv-x="640" 
d="M80 0l385 630h95l-385 -630h-95zM165 435q23 0 39 17t16 43t-16 43t-39 17t-39 -17t-16 -43t16 -43t39 -17zM30 495q0 56 39.5 95.5t95.5 39.5t95.5 -39.5t39.5 -95.5t-39.5 -95.5t-95.5 -39.5t-95.5 39.5t-39.5 95.5zM475 75q23 0 39 17t16 43t-16 43t-39 17t-39 -17
t-16 -43t16 -43t39 -17zM340 135q0 56 39.5 95.5t95.5 39.5t95.5 -39.5t39.5 -95.5t-39.5 -95.5t-95.5 -39.5t-95.5 39.5t-39.5 95.5z" />
    <glyph glyph-name="ampersand" unicode="&#x26;" horiz-adv-x="560" 
d="M140 320l-30 35q-17 18 -26 30.5t-19 38.5t-10 56q0 64 47.5 109.5t117.5 45.5t117.5 -45.5t47.5 -109.5q0 -74 -65 -125q-8 -6 -20.5 -18t-19.5 -17l95 -95l55 80h130l-105 -155l150 -150h-140l-75 75q-18 -21 -47 -40q-62 -40 -133 -40q-85 0 -132.5 42.5t-47.5 112.5
q0 69 55 126q26 27 55 44zM215 385l25 20q40 32 40 70q0 26 -17 43t-43 17t-43 -17t-17 -43q0 -41 35 -70zM315 145l-110 110q-16 -10 -29 -25q-29 -31 -29 -68q0 -25 22 -46t51 -21q39 0 70 25q14 11 25 25z" />
    <glyph glyph-name="quotesingle" unicode="'" horiz-adv-x="200" 
d="M45 435v195h110v-195h-110z" />
    <glyph glyph-name="parenleft" unicode="(" horiz-adv-x="295" 
d="M275 -145l-85 -60q-44 58 -73 121q-72 152 -72 309t72 309q29 63 73 121l85 -60q-35 -54 -58 -106q-57 -132 -57 -264t57 -264q23 -52 58 -106z" />
    <glyph glyph-name="parenright" unicode=")" horiz-adv-x="295" 
d="M105 -205l-85 60q32 49 57 106q58 134 58 264t-58 264q-25 57 -57 106l85 60q41 -55 72 -121q73 -154 73 -309t-73 -309q-31 -66 -72 -121z" />
    <glyph glyph-name="asterisk" unicode="*" horiz-adv-x="350" 
d="M50 385l70 80l-100 25l25 75l95 -35l-5 105h80l-5 -105l95 35l25 -75l-100 -25l70 -80l-65 -50l-60 90l-60 -90z" />
    <glyph glyph-name="plus" unicode="+" horiz-adv-x="465" 
d="M180 50v155h-150v100h150v155h105v-155h150v-100h-150v-155h-105z" />
    <glyph glyph-name="comma" unicode="," horiz-adv-x="200" 
d="M75 -100l-20 25q11 7 21 18q20 22 24 52q-26 0 -45.5 19.5t-19.5 45.5t19.5 45.5t45.5 19.5q27 0 46 -20t19 -50q0 -74 -45 -121q-19 -20 -45 -34z" />
    <glyph glyph-name="hyphen" unicode="-" horiz-adv-x="370" 
d="M35 205v100h300v-100h-300z" />
    <glyph glyph-name="period" unicode="." horiz-adv-x="200" 
d="M35 60q0 26 19.5 45.5t45.5 19.5t45.5 -19.5t19.5 -45.5t-19.5 -45.5t-45.5 -19.5t-45.5 19.5t-19.5 45.5z" />
    <glyph glyph-name="slash" unicode="/" horiz-adv-x="370" 
d="M0 -180l260 810h110l-260 -810h-110z" />
    <glyph glyph-name="zero" unicode="0" horiz-adv-x="600" 
d="M300 520q-57 0 -98.5 -54.5t-41.5 -150.5t41.5 -150.5t98.5 -54.5t98.5 54.5t41.5 150.5t-41.5 150.5t-98.5 54.5zM300 635q109 0 184.5 -87.5t75.5 -232.5t-75.5 -232.5t-184.5 -87.5t-184.5 87.5t-75.5 232.5t75.5 232.5t184.5 87.5z" />
    <glyph glyph-name="one" unicode="1" horiz-adv-x="335" 
d="M150 0v475l-75 -50l-60 90l165 115h90v-630h-120z" />
    <glyph glyph-name="two" unicode="2" horiz-adv-x="505" 
d="M40 0v85l230 240q13 13 35 39q35 47 35 81q0 80 -90 80q-45 0 -70 -24t-25 -66h-120q0 87 59.5 143.5t155.5 56.5q99 0 157 -52t58 -133q0 -59 -58 -133q-27 -35 -57 -62l-135 -140h245v-115h-420z" />
    <glyph glyph-name="three" unicode="3" 
d="M30 180h120q4 -28 32 -51.5t68 -23.5q44 0 72 25t28 60t-26.5 57.5t-73.5 22.5h-55v100h50q47 0 71 20t24 55t-24.5 57.5t-65.5 22.5q-40 0 -65.5 -21t-29.5 -49h-120q4 74 64 127t151 53t150.5 -52t59.5 -123q0 -57 -40 -99q-18 -18 -40 -31q28 -15 47 -34
q48 -48 48 -121q0 -71 -62.5 -125.5t-157.5 -54.5q-103 0 -162 51.5t-63 133.5z" />
    <glyph glyph-name="four" unicode="4" horiz-adv-x="505" 
d="M20 115v105l260 410h140v-400h65v-115h-65v-115h-120v115h-280zM150 230h150v235z" />
    <glyph glyph-name="five" unicode="5" 
d="M30 175h120q4 -25 32.5 -47.5t67.5 -22.5q49 0 79.5 30.5t30.5 79.5t-30.5 79.5t-79.5 30.5q-44 0 -77 -33q-14 -14 -23 -32h-105l40 370h350v-115h-250l-15 -115q18 10 29 15q36 15 66 15q94 0 154.5 -60.5t60.5 -154.5t-65 -157t-165 -63q-91 0 -151 52.5t-69 127.5z
" />
    <glyph glyph-name="six" unicode="6" horiz-adv-x="520" 
d="M265 630h125l-135 -200q96 12 165.5 -54t69.5 -161q0 -94 -65 -157t-165 -63t-165 63t-65 157q0 54 30 112q14 25 30 48q42 64 108 159zM260 100q45 0 77.5 33.5t32.5 81.5t-32.5 81.5t-77.5 33.5q-46 0 -78 -33.5t-32 -81.5t32 -81.5t78 -33.5z" />
    <glyph glyph-name="seven" unicode="7" horiz-adv-x="460" 
d="M60 0l240 515h-270v115h405v-90l-250 -540h-125z" />
    <glyph glyph-name="eight" unicode="8" 
d="M30 185q0 73 50 121q22 21 50 34q-23 15 -38 31q-37 41 -37 94q0 70 56 120t144 50t144 -50t56 -120q0 -52 -38 -94q-14 -15 -37 -31q28 -13 50 -34q50 -48 50 -121q0 -78 -63 -134t-162 -56t-162 56t-63 134zM150 190q0 -39 28.5 -64.5t76.5 -25.5t76.5 25.5t28.5 64.5
t-28.5 64.5t-76.5 25.5t-76.5 -25.5t-28.5 -64.5zM170 455q0 -31 24 -53t61 -22t61 22t24 53t-24 53t-61 22t-61 -22t-24 -53z" />
    <glyph glyph-name="nine" unicode="9" horiz-adv-x="520" 
d="M130 0l135 200q-96 -12 -165.5 54t-69.5 161q0 94 65 157t165 63t165 -63t65 -157q0 -54 -30 -112q-14 -25 -30 -48q-57 -84 -109 -159q-33 -46 -66 -96h-125zM260 300q45 0 77.5 33.5t32.5 81.5t-32.5 81.5t-77.5 33.5q-46 0 -78 -33.5t-32 -81.5t32 -81.5t78 -33.5z
" />
    <glyph glyph-name="colon" unicode=":" horiz-adv-x="200" 
d="M35 60q0 26 19.5 45.5t45.5 19.5t45.5 -19.5t19.5 -45.5t-19.5 -45.5t-45.5 -19.5t-45.5 19.5t-19.5 45.5zM35 395q0 26 19.5 45.5t45.5 19.5t45.5 -19.5t19.5 -45.5t-19.5 -45.5t-45.5 -19.5t-45.5 19.5t-19.5 45.5z" />
    <glyph glyph-name="semicolon" unicode=";" horiz-adv-x="200" 
d="M35 395q0 26 19.5 45.5t45.5 19.5t45.5 -19.5t19.5 -45.5t-19.5 -45.5t-45.5 -19.5t-45.5 19.5t-19.5 45.5zM75 -100l-20 25q11 7 21 18q20 22 24 52q-26 0 -45.5 19.5t-19.5 45.5t19.5 45.5t45.5 19.5q27 0 46 -20t19 -50q0 -74 -45 -121q-19 -20 -45 -34z" />
    <glyph glyph-name="less" unicode="&#x3c;" horiz-adv-x="455" 
d="M40 180v90l375 175v-110l-245 -110l245 -110v-110z" />
    <glyph glyph-name="equal" unicode="=" horiz-adv-x="460" 
d="M35 300v105h390v-105h-390zM35 105v105h390v-105h-390z" />
    <glyph glyph-name="greater" unicode="&#x3e;" horiz-adv-x="455" 
d="M40 5v110l245 110l-245 110v110l375 -175v-90z" />
    <glyph glyph-name="question" unicode="?" horiz-adv-x="450" 
d="M275 175h-115q0 51 14.5 90t35 61.5t41 40.5t35 38.5t14.5 44.5q0 34 -21 54.5t-59 20.5q-35 0 -57.5 -25.5t-22.5 -69.5h-120q4 94 58.5 149.5t141.5 55.5q92 0 146 -49t54 -126q0 -38 -15 -68.5t-36 -51.5t-42.5 -42t-36.5 -52t-15 -71zM155 60q0 26 19.5 45.5
t45.5 19.5t45.5 -19.5t19.5 -45.5t-19.5 -45.5t-45.5 -19.5t-45.5 19.5t-19.5 45.5z" />
    <glyph glyph-name="at" unicode="@" horiz-adv-x="755" 
d="M525 10l45 -65q-20 -15 -53 -28q-63 -27 -137 -27q-141 0 -240.5 98.5t-99.5 236.5t99.5 236.5t240.5 98.5q145 0 245 -96t100 -229q0 -87 -41 -136t-104 -49q-45 0 -83 30q-17 14 -27 30q-11 -15 -29 -30q-38 -30 -84 -30q-67 0 -112 49t-45 126t45 126t110 49
q37 0 70 -25q14 -11 25 -25l15 40h65v-185q0 -75 50 -75q25 0 42.5 26t17.5 79q0 102 -76 176t-184 74q-105 0 -180 -76t-75 -184t75 -184t180 -76q50 0 104 22q27 13 41 23zM370 130q35 0 60 27t25 68t-25 68t-60 27t-60 -27t-25 -68t25 -68t60 -27z" />
    <glyph glyph-name="A" unicode="A" horiz-adv-x="570" 
d="M-5 0l235 630h110l235 -630h-125l-45 130h-240l-45 -130h-125zM205 240h160l-80 230z" />
    <glyph glyph-name="B" unicode="B" horiz-adv-x="570" 
d="M65 0v630h260q81 0 135.5 -51.5t54.5 -123.5q0 -54 -38 -92q-17 -18 -37 -28q28 -13 50 -34q50 -48 50 -121t-58.5 -126.5t-146.5 -53.5h-270zM185 375h130q33 0 56.5 22.5t23.5 52.5t-23.5 52.5t-56.5 22.5h-130v-150zM185 105h140q42 0 68.5 25.5t26.5 64.5t-26.5 64.5
t-68.5 25.5h-140v-180z" />
    <glyph glyph-name="C" unicode="C" horiz-adv-x="645" 
d="M495 220h125q-23 -95 -100.5 -160t-184.5 -65q-125 0 -215 93t-90 227t90 227t215 93q104 0 180.5 -65.5t99.5 -159.5h-125q-13 45 -54 77.5t-101 32.5q-76 0 -130.5 -58.5t-54.5 -146.5t54.5 -146.5t130.5 -58.5q60 0 101 32t59 78z" />
    <glyph glyph-name="D" unicode="D" horiz-adv-x="605" 
d="M185 115h80q76 0 133 59.5t57 140.5t-57 140.5t-133 59.5h-80v-400zM65 0v630h200q124 0 217 -94t93 -221t-93 -221t-217 -94h-200z" />
    <glyph glyph-name="E" unicode="E" horiz-adv-x="545" 
d="M65 0v630h435v-115h-315v-135h290v-115h-290v-150h325v-115h-445z" />
    <glyph glyph-name="F" unicode="F" 
d="M65 0v630h420v-115h-300v-155h245v-115h-245v-245h-120z" />
    <glyph glyph-name="G" unicode="G" horiz-adv-x="680" 
d="M540 0l-25 60q-23 -20 -49 -33q-62 -32 -131 -32q-125 0 -215 93t-90 227t90 227t215 93q104 0 180.5 -65.5t99.5 -159.5h-125q-13 45 -54 77.5t-101 32.5q-76 0 -130.5 -58.5t-54.5 -146.5t54.5 -146.5t130.5 -58.5q80 0 127 57q20 25 33 58h-165v105h295v-330h-85z" />
    <glyph glyph-name="H" unicode="H" horiz-adv-x="635" 
d="M65 0v630h120v-250h265v250h120v-630h-120v265h-265v-265h-120z" />
    <glyph glyph-name="I" unicode="I" horiz-adv-x="250" 
d="M65 0v630h120v-630h-120z" />
    <glyph glyph-name="J" unicode="J" horiz-adv-x="485" 
d="M10 195h120q0 -38 23.5 -61.5t61.5 -23.5t61.5 23.5t23.5 61.5v435h120v-435q0 -90 -56 -145t-149 -55t-149 55t-56 145z" />
    <glyph glyph-name="K" unicode="K" horiz-adv-x="540" 
d="M65 0v630h120v-280l210 280h140l-235 -310l250 -320h-140l-225 285v-285h-120z" />
    <glyph glyph-name="L" unicode="L" horiz-adv-x="495" 
d="M65 0v630h120v-515h295v-115h-415z" />
    <glyph glyph-name="M" unicode="M" horiz-adv-x="770" 
d="M65 0v630h105l215 -465l215 465h105v-630h-120v350l-160 -350h-80l-160 350v-350h-120z" />
    <glyph glyph-name="N" unicode="N" horiz-adv-x="635" 
d="M65 0v630h105l280 -410v410h120v-630h-105l-280 410v-410h-120z" />
    <glyph glyph-name="O" unicode="O" horiz-adv-x="670" 
d="M335 520q-76 0 -130.5 -58.5t-54.5 -146.5t54.5 -146.5t130.5 -58.5t130.5 58.5t54.5 146.5t-54.5 146.5t-130.5 58.5zM335 635q125 0 215 -93t90 -227t-90 -227t-215 -93t-215 93t-90 227t90 227t215 93z" />
    <glyph glyph-name="P" unicode="P" horiz-adv-x="545" 
d="M65 0v630h235q90 0 152.5 -61.5t62.5 -148.5t-62.5 -148.5t-152.5 -61.5h-115v-210h-120zM185 325h115q38 0 66.5 28.5t28.5 66.5t-28.5 66.5t-66.5 28.5h-115v-190z" />
    <glyph glyph-name="Q" unicode="Q" horiz-adv-x="670" 
d="M570 -15l-65 65q-17 -14 -46 -28q-52 -27 -124 -27q-125 0 -215 93t-90 227t90 227t215 93t215 -93t90 -227q0 -73 -33 -145q-12 -29 -32 -55l60 -60zM355 195l65 70l70 -65q8 15 15 31q15 43 15 84q0 88 -54.5 146.5t-130.5 58.5t-130.5 -58.5t-54.5 -146.5t54.5 -146.5
t130.5 -58.5q33 0 63 10q13 5 22 10z" />
    <glyph glyph-name="R" unicode="R" horiz-adv-x="560" 
d="M65 0v630h250q89 0 149.5 -57.5t60.5 -137.5q0 -89 -68 -145q-32 -28 -67 -40l150 -250h-135l-130 230h-90v-230h-120zM185 345h130q38 0 64 25.5t26 59.5t-26 59.5t-64 25.5h-130v-170z" />
    <glyph glyph-name="S" unicode="S" horiz-adv-x="520" 
d="M35 200h120q0 -43 28.5 -69t76.5 -26q51 0 78 21.5t27 53.5q0 27 -24 45.5t-60 28t-78.5 24.5t-78.5 33t-60 55t-24 88q0 75 61 128t159 53q93 0 151.5 -56.5t58.5 -143.5h-115q0 42 -25 66t-70 24q-43 0 -69 -21t-26 -49q0 -25 24 -43t60 -27t78.5 -25t78.5 -35
t60 -57.5t24 -92.5q0 -71 -65 -125.5t-165 -54.5q-104 0 -164.5 57t-60.5 148z" />
    <glyph glyph-name="T" unicode="T" horiz-adv-x="520" 
d="M200 0v515h-185v115h490v-115h-185v-515h-120z" />
    <glyph glyph-name="U" unicode="U" horiz-adv-x="620" 
d="M60 240v390h120v-390q0 -60 35 -95t95 -35t95 35t35 95v390h120v-390q0 -105 -71 -175t-179 -70t-179 70t-71 175z" />
    <glyph glyph-name="V" unicode="V" horiz-adv-x="580" 
d="M230 0l-225 630h125l160 -460l160 460h125l-225 -630h-120z" />
    <glyph glyph-name="W" unicode="W" horiz-adv-x="830" 
d="M205 0l-200 630h120l125 -410l130 410h70l130 -410l125 410h120l-200 -630h-85l-125 395l-125 -395h-85z" />
    <glyph glyph-name="X" unicode="X" horiz-adv-x="560" 
d="M5 0l205 320l-195 310h135l130 -220l130 220h135l-195 -310l205 -320h-135l-140 229l-140 -229h-135z" />
    <glyph glyph-name="Y" unicode="Y" horiz-adv-x="540" 
d="M210 0v240l-205 390h130l135 -270l135 270h130l-205 -390v-240h-120z" />
    <glyph glyph-name="Z" unicode="Z" horiz-adv-x="515" 
d="M30 0v95l285 420h-275v115h430v-95l-285 -420h300v-115h-455z" />
    <glyph glyph-name="bracketleft" unicode="[" horiz-adv-x="310" 
d="M65 -180v810h225v-110h-110v-590h110v-110h-225z" />
    <glyph glyph-name="backslash" unicode="\" horiz-adv-x="370" 
d="M260 -180l-260 810h110l260 -810h-110z" />
    <glyph glyph-name="bracketright" unicode="]" horiz-adv-x="310" 
d="M20 -180v110h110v590h-110v110h225v-810h-225z" />
    <glyph glyph-name="asciicircum" unicode="^" horiz-adv-x="410" 
d="M30 335l145 295h60l145 -295h-100l-75 160l-75 -160h-100z" />
    <glyph glyph-name="underscore" unicode="_" horiz-adv-x="285" 
d="M-20 -185v100h325v-100h-325z" />
    <glyph glyph-name="grave" unicode="`" horiz-adv-x="235" 
d="M120 505l-90 125h110l65 -125h-85z" />
    <glyph glyph-name="a" unicode="a" horiz-adv-x="475" 
d="M340 0l-20 45q-22 -18 -35 -25q-44 -25 -95 -25q-73 0 -114 36t-41 94q0 74 63 114.5t212 40.5q0 38 -20.5 59t-54.5 21q-35 0 -58 -25q-9 -10 -12 -25h-115q9 66 60.5 110.5t134.5 44.5q78 0 129 -51t51 -129v-285h-85zM310 180v20q-95 0 -127.5 -16t-32.5 -49
q0 -19 17.5 -34.5t42.5 -15.5q45 0 72.5 26.5t27.5 68.5z" />
    <glyph glyph-name="b" unicode="b" horiz-adv-x="535" 
d="M55 0v630h115v-210q11 10 32 22q44 23 88 23q88 0 151.5 -67.5t63.5 -167.5t-63.5 -167.5t-151.5 -67.5q-51 0 -95 25q-18 10 -35 25l-20 -45h-85zM275 105q50 0 82.5 34.5t32.5 90.5t-32.5 90.5t-82.5 34.5t-82.5 -34.5t-32.5 -90.5t32.5 -90.5t82.5 -34.5z" />
    <glyph glyph-name="c" unicode="c" horiz-adv-x="500" 
d="M360 170h115q-17 -72 -76.5 -123.5t-138.5 -51.5q-94 0 -162 69t-68 166t68 166t162 69q79 0 138.5 -51.5t76.5 -123.5h-115q-7 17 -22 32q-33 33 -78 33q-50 0 -82.5 -34.5t-32.5 -90.5t32.5 -90.5t82.5 -34.5q46 0 78 32q15 15 22 33z" />
    <glyph glyph-name="d" unicode="d" horiz-adv-x="535" 
d="M395 0l-20 45q-22 -18 -35 -25q-44 -25 -95 -25q-88 0 -151.5 67.5t-63.5 167.5t63.5 167.5t151.5 67.5q44 0 88 -23q21 -12 32 -22v210h115v-630h-85zM260 105q50 0 82.5 34.5t32.5 90.5t-32.5 90.5t-82.5 34.5t-82.5 -34.5t-32.5 -90.5t32.5 -90.5t82.5 -34.5z" />
    <glyph glyph-name="e" unicode="e" 
d="M345 140h120q-20 -57 -76 -101t-129 -44q-94 0 -162 69t-68 166t68 166t162 69q92 0 156 -66t64 -169q0 -3 -3 -30l-2 -15h-320q20 -80 105 -80q37 0 65 17q13 8 20 18zM150 265h220q-9 40 -38 65t-72 25t-72 -25t-38 -65z" />
    <glyph glyph-name="f" unicode="f" horiz-adv-x="305" 
d="M75 0v345h-55v105h55v20q0 74 43 119.5t112 45.5q21 0 39 -5q13 -4 16 -5v-100l-8 2q-15 3 -22 3q-30 0 -47.5 -17.5t-17.5 -47.5v-15h95v-105h-95v-345h-115z" />
    <glyph glyph-name="g" unicode="g" horiz-adv-x="530" 
d="M50 -20h115q7 -12 19 -23q30 -22 71 -22q48 0 76.5 26t28.5 69v35q-15 -15 -32 -25q-40 -25 -88 -25q-88 0 -149 64t-61 161t61 161t149 64q47 0 95 -25q13 -7 35 -25l20 45h85v-430q0 -91 -58 -145.5t-162 -54.5q-106 0 -166 75q-25 33 -39 75zM255 125q45 0 77.5 33.5
t32.5 81.5t-32.5 81.5t-77.5 33.5q-46 0 -78 -33.5t-32 -81.5t32 -81.5t78 -33.5z" />
    <glyph glyph-name="h" unicode="h" horiz-adv-x="525" 
d="M55 0v630h115v-215q17 17 31 25q44 25 99 25q76 0 125.5 -53.5t49.5 -141.5v-270h-115v255q0 45 -26.5 72.5t-68.5 27.5t-68.5 -27.5t-26.5 -72.5v-255h-115z" />
    <glyph glyph-name="i" unicode="i" horiz-adv-x="225" 
d="M55 0v460h115v-460h-115zM115 515q-26 0 -45.5 19.5t-19.5 45.5t19.5 45.5t45.5 19.5t45.5 -19.5t19.5 -45.5t-19.5 -45.5t-45.5 -19.5z" />
    <glyph glyph-name="j" unicode="j" horiz-adv-x="225" 
d="M-40 -155v100l7 -3q14 -2 23 -2q30 0 47.5 17.5t17.5 47.5v455h115v-460q0 -74 -43 -119.5t-112 -45.5q-21 0 -39 5q-6 1 -16 5zM115 515q-26 0 -45.5 19.5t-19.5 45.5t19.5 45.5t45.5 19.5t45.5 -19.5t19.5 -45.5t-19.5 -45.5t-45.5 -19.5z" />
    <glyph glyph-name="k" unicode="k" horiz-adv-x="450" 
d="M55 0v630h115v-360l140 190h130l-165 -220l185 -240h-130l-160 210v-210h-115z" />
    <glyph glyph-name="l" unicode="l" horiz-adv-x="225" 
d="M55 0v630h115v-630h-115z" />
    <glyph glyph-name="m" unicode="m" horiz-adv-x="750" 
d="M55 0v460h85l20 -45q14 15 31 25q40 25 79 25q59 0 101 -30q19 -14 29 -30q17 17 37 30q48 30 98 30q77 0 121 -49t44 -141v-275h-115v265q0 41 -22 65.5t-53 24.5t-53 -24.5t-22 -65.5v-265h-115v265q0 41 -22 65.5t-53 24.5t-53 -24.5t-22 -65.5v-265h-115z" />
    <glyph glyph-name="n" unicode="n" horiz-adv-x="525" 
d="M55 0v460h85l20 -45q18 15 37 25q48 25 93 25q83 0 134 -53t51 -142v-270h-115v255q0 45 -26.5 72.5t-68.5 27.5t-68.5 -27.5t-26.5 -72.5v-255h-115z" />
    <glyph glyph-name="o" unicode="o" horiz-adv-x="520" 
d="M260 355q-50 0 -82.5 -34.5t-32.5 -90.5t32.5 -90.5t82.5 -34.5t82.5 34.5t32.5 90.5t-32.5 90.5t-82.5 34.5zM260 465q94 0 162 -69t68 -166t-68 -166t-162 -69t-162 69t-68 166t68 166t162 69z" />
    <glyph glyph-name="p" unicode="p" horiz-adv-x="535" 
d="M55 -160v620h85l20 -45q17 15 35 25q48 25 95 25q88 0 151.5 -67.5t63.5 -167.5t-63.5 -167.5t-151.5 -67.5q-46 0 -88 22q-22 13 -32 23v-200h-115zM275 105q50 0 82.5 34.5t32.5 90.5t-32.5 90.5t-82.5 34.5t-82.5 -34.5t-32.5 -90.5t32.5 -90.5t82.5 -34.5z" />
    <glyph glyph-name="q" unicode="q" horiz-adv-x="535" 
d="M365 -160v200q-10 -10 -32 -23q-42 -22 -88 -22q-88 0 -151.5 67.5t-63.5 167.5t63.5 167.5t151.5 67.5q47 0 95 -25q13 -7 35 -25l20 45h85v-620h-115zM260 105q50 0 82.5 34.5t32.5 90.5t-32.5 90.5t-82.5 34.5t-82.5 -34.5t-32.5 -90.5t32.5 -90.5t82.5 -34.5z" />
    <glyph glyph-name="r" unicode="r" horiz-adv-x="325" 
d="M55 0v460h85l20 -50q11 14 29 27q35 28 81 28q4 0 25 -3l10 -2v-120l-11 2q-21 3 -29 3q-42 0 -68.5 -27.5t-26.5 -72.5v-245h-115z" />
    <glyph glyph-name="s" unicode="s" horiz-adv-x="420" 
d="M30 145h110q4 -24 22.5 -39.5t47.5 -15.5t47 15t18 35q0 15 -17.5 25.5t-43.5 16t-56.5 16t-56.5 23.5t-43.5 40t-17.5 64q0 58 46 99t119 41q80 0 125.5 -38.5t54.5 -101.5h-110q-4 17 -22.5 31t-42.5 14q-25 0 -40 -13t-15 -32q0 -17 24 -28t58.5 -20t69.5 -22.5
t59 -43.5t24 -76q0 -58 -47 -99t-123 -41q-88 0 -135.5 40t-54.5 110z" />
    <glyph glyph-name="t" unicode="t" horiz-adv-x="345" 
d="M90 160v195h-70v95h30q55 0 55 55v65h100v-110h100v-105h-100v-190q0 -30 17.5 -47.5t47.5 -17.5q12 0 22 2l8 3v-100q-10 -4 -16 -5q-18 -5 -39 -5q-69 0 -112 45.5t-43 119.5z" />
    <glyph glyph-name="u" unicode="u" horiz-adv-x="530" 
d="M55 190v270h115v-255q0 -45 26.5 -72.5t68.5 -27.5t68.5 27.5t26.5 72.5v255h115v-460h-85l-20 45q-18 -15 -37 -25q-44 -25 -93 -25q-83 0 -134 53t-51 142z" />
    <glyph glyph-name="v" unicode="v" horiz-adv-x="470" 
d="M180 0l-175 460h120l110 -320l110 320h120l-175 -460h-110z" />
    <glyph glyph-name="w" unicode="w" horiz-adv-x="680" 
d="M155 0l-150 460h115l90 -295l95 295h70l95 -295l90 295h115l-150 -460h-100l-85 275l-85 -275h-100z" />
    <glyph glyph-name="x" unicode="x" horiz-adv-x="450" 
d="M0 0l155 235l-145 225h125l90 -145l90 145h125l-145 -225l155 -235h-125l-100 155l-100 -155h-125z" />
    <glyph glyph-name="y" unicode="y" horiz-adv-x="470" 
d="M80 -160v95q64 0 90 60l10 25l-175 440h120l115 -300l105 300h120l-89 -228q-95 -246 -96 -247q-34 -83 -69 -116.5t-91 -33.5q-14 0 -28 2z" />
    <glyph glyph-name="z" unicode="z" horiz-adv-x="415" 
d="M30 0v95l200 255h-200v110h345v-95l-200 -255h210v-110h-355z" />
    <glyph glyph-name="braceleft" unicode="{" horiz-adv-x="325" 
d="M90 -35v160q0 26 -13.5 40.5t-36.5 14.5v90q23 0 36.5 14.5t13.5 40.5v160q0 145 155 145h60v-105h-50q-55 0 -55 -55v-155q0 -47 -30 -73q-15 -11 -30 -17q15 -6 30 -17q30 -26 30 -73v-155q0 -55 55 -55h50v-105h-60q-155 0 -155 145z" />
    <glyph glyph-name="bar" unicode="|" horiz-adv-x="355" 
d="M120 -160v790h115v-790h-115z" />
    <glyph glyph-name="braceright" unicode="}" horiz-adv-x="325" 
d="M20 -180v105h50q55 0 55 55v155q0 47 30 73q15 11 30 17q-15 6 -30 17q-30 26 -30 73v155q0 55 -55 55h-50v105h60q155 0 155 -145v-160q0 -26 13.5 -40.5t36.5 -14.5v-90q-23 0 -36.5 -14.5t-13.5 -40.5v-160q0 -145 -155 -145h-60z" />
    <glyph glyph-name="asciitilde" unicode="~" horiz-adv-x="450" 
d="M90 195h-90q0 77 33 116t92 39q34 0 102 -27.5t88 -27.5q19 0 32 13.5t13 36.5h90q0 -77 -33 -116t-92 -39q-34 0 -102 27.5t-88 27.5q-19 0 -32 -13.5t-13 -36.5z" />
    <glyph glyph-name="nbspace" unicode="&#xa0;" horiz-adv-x="225" 
 />
    <glyph glyph-name="exclamdown" unicode="&#xa1;" horiz-adv-x="260" 
d="M65 395q0 26 19.5 45.5t45.5 19.5t45.5 -19.5t19.5 -45.5t-19.5 -45.5t-45.5 -19.5t-45.5 19.5t-19.5 45.5zM65 -160l15 440h100l15 -440h-130z" />
    <glyph glyph-name="cent" unicode="&#xa2;" horiz-adv-x="500" 
d="M205 -90v90q-76 18 -125.5 83.5t-49.5 146.5t49 144.5t126 85.5v80h110v-80q61 -18 104.5 -65.5t55.5 -104.5h-115q-7 17 -22 32q-33 33 -78 33q-50 0 -82.5 -34.5t-32.5 -90.5t32.5 -90.5t82.5 -34.5q46 0 78 32q15 15 22 33h115q-12 -56 -56.5 -104t-103.5 -66v-90
h-110z" />
    <glyph glyph-name="sterling" unicode="&#xa3;" horiz-adv-x="530" 
d="M30 0v115q26 0 43 17t17 43v65h-53v105h53v95q0 83 58 139t147 56q85 0 143 -54t62 -131h-120q-8 80 -85 80q-39 0 -62 -24t-23 -66v-95h155v-105h-155v-65q0 -28 -15 -47q-10 -10 -15 -13h310v-115h-460z" />
    <glyph glyph-name="currency" unicode="&#xa4;" horiz-adv-x="570" 
d="M90 0v90h-65v100h65v55h-65v100h65v285h235q96 0 155.5 -56t59.5 -139q0 -81 -59.5 -135.5t-155.5 -54.5h-115v-55h185v-100h-185v-90h-120zM210 345h115q42 0 68.5 25.5t26.5 64.5t-26.5 64.5t-68.5 25.5h-115v-180z" />
    <glyph glyph-name="yen" unicode="&#xa5;" horiz-adv-x="550" 
d="M85 90v95h130v45h-130v95h85l-165 305h130l140 -270l140 270h130l-165 -305h85v-95h-130v-45h130v-95h-130v-90h-120v90h-130z" />
    <glyph glyph-name="brokenbar" unicode="&#xa6;" horiz-adv-x="355" 
d="M120 320v310h115v-310h-115zM120 -160v310h115v-310h-115z" />
    <glyph glyph-name="section" unicode="&#xa7;" horiz-adv-x="480" 
d="M65 35h100q3 -20 13 -33q22 -32 62 -32q25 0 42.5 15.5t17.5 34.5q0 23 -27 40t-65 31t-76 32.5t-65 54.5t-27 87q0 58 45 99q18 17 45 31q-17 11 -28 26q-27 31 -27 79q0 58 43.5 96.5t116.5 38.5q152 0 170 -145h-100q-1 13 -10 27q-17 28 -55 28q-23 0 -39 -15.5
t-16 -34.5q0 -23 26.5 -40.5t63.5 -32t74.5 -33t64 -54t26.5 -85.5q0 -58 -45 -99q-18 -17 -45 -31q15 -10 30 -26q30 -38 30 -79q0 -58 -44.5 -96.5t-120.5 -38.5q-81 0 -128.5 42.5t-51.5 112.5zM220 345q-17 -7 -35 -19q-35 -24 -35 -56q0 -30 25.5 -53.5t84.5 -46.5
q13 5 35 19q35 25 35 56q0 30 -25.5 53.5t-84.5 46.5z" />
    <glyph glyph-name="dieresis" unicode="&#xa8;" horiz-adv-x="370" 
d="M30 575q0 26 19.5 45.5t45.5 19.5t45.5 -19.5t19.5 -45.5t-19.5 -45.5t-45.5 -19.5t-45.5 19.5t-19.5 45.5zM210 575q0 26 19.5 45.5t45.5 19.5t45.5 -19.5t19.5 -45.5t-19.5 -45.5t-45.5 -19.5t-45.5 19.5t-19.5 45.5z" />
    <glyph glyph-name="copyright" unicode="&#xa9;" horiz-adv-x="710" 
d="M355 70q98 0 166.5 70.5t68.5 174.5t-68.5 174.5t-166.5 70.5t-166.5 -70.5t-68.5 -174.5t68.5 -174.5t166.5 -70.5zM355 -5q-132 0 -223.5 92.5t-91.5 227.5t91.5 227.5t223.5 92.5t223.5 -92.5t91.5 -227.5t-91.5 -227.5t-223.5 -92.5zM430 270h80q-9 -51 -51.5 -88
t-103.5 -37q-65 0 -112.5 49.5t-47.5 120.5t47.5 120.5t112.5 49.5q61 0 103.5 -37t51.5 -88h-80q-5 17 -14 27q-21 28 -56 28t-60 -28t-25 -72t25 -72t60 -28q36 0 56 27q9 11 14 28z" />
    <glyph glyph-name="ordfeminine" unicode="&#xaa;" horiz-adv-x="300" 
d="M215 360l-15 25q-9 -9 -21 -15q-28 -15 -59 -15q-41 0 -65.5 22.5t-24.5 57.5q0 45 36.5 70t128.5 25q-2 11 -6 20q-13 20 -39 20q-20 0 -33 -13q-6 -6 -7 -12h-65q0 40 29 65t81 25q48 0 79 -30t31 -75v-170h-50zM195 470v10q-35 0 -57.5 -6t-30 -13t-7.5 -16
q0 -12 11 -21t29 -9q23 0 39 16t16 39z" />
    <glyph glyph-name="guillemotleft" unicode="&#xab;" horiz-adv-x="475" 
d="M140 65l-110 160l110 160h110l-110 -160l110 -160h-110zM335 65l-110 160l110 160h110l-110 -160l110 -160h-110z" />
    <glyph glyph-name="logicalnot" unicode="&#xac;" horiz-adv-x="480" 
d="M25 290v100h425v-220h-110v120h-315z" />
    <glyph glyph-name="uni00AD" unicode="&#xad;" horiz-adv-x="370" 
d="M35 205v100h300v-100h-300z" />
    <glyph glyph-name="registered" unicode="&#xae;" horiz-adv-x="710" 
d="M240 150v330h130q48 0 81.5 -32t33.5 -76q0 -42 -35 -73q-16 -12 -35 -19l90 -130h-85l-75 110h-30v-110h-75zM355 70q98 0 166.5 70.5t68.5 174.5t-68.5 174.5t-166.5 70.5t-166.5 -70.5t-68.5 -174.5t68.5 -174.5t166.5 -70.5zM355 -5q-132 0 -223.5 92.5t-91.5 227.5
t91.5 227.5t223.5 92.5t223.5 -92.5t91.5 -227.5t-91.5 -227.5t-223.5 -92.5zM315 330h55q18 0 31.5 12.5t13.5 27.5t-13.5 27.5t-31.5 12.5h-55v-80z" />
    <glyph glyph-name="overscore" unicode="&#xaf;" horiz-adv-x="320" 
d="M30 525v85h260v-85h-260z" />
    <glyph glyph-name="degree" unicode="&#xb0;" horiz-adv-x="320" 
d="M160 565q-23 0 -39 -17t-16 -43t16 -43t39 -17t39 17t16 43t-16 43t-39 17zM30 505q0 57 36.5 93.5t93.5 36.5t93.5 -36.5t36.5 -93.5t-36.5 -93.5t-93.5 -36.5t-93.5 36.5t-36.5 93.5z" />
    <glyph glyph-name="plusminus" unicode="&#xb1;" horiz-adv-x="465" 
d="M30 10v105h150v135h-150v100h150v155h105v-155h150v-100h-150v-135h150v-105h-405z" />
    <glyph glyph-name="twosuperior" unicode="&#xb2;" horiz-adv-x="275" 
d="M30 420v55l110 105q17 17 23.5 26.5t6.5 23.5q0 12 -10 21t-25 9q-26 0 -35 -20q-3 -6 -5 -20h-70q4 49 35 77t80 28q48 0 76.5 -25.5t28.5 -64.5q0 -25 -10 -42.5t-35 -42.5l-60 -60h105v-70h-215z" />
    <glyph glyph-name="threesuperior" unicode="&#xb3;" horiz-adv-x="280" 
d="M20 520h75q2 -11 6 -20q13 -20 39 -20q18 0 29 10t11 25q0 12 -11 21t-29 9h-33v60h28q15 0 25 7t10 18q0 12 -10 21t-25 9q-19 0 -33 -18q-6 -10 -7 -17h-70q4 43 35.5 71.5t79.5 28.5t76.5 -25.5t28.5 -64.5q0 -21 -15 -45q-8 -9 -15 -15q12 -7 20 -16q20 -20 20 -49
q0 -40 -31.5 -67.5t-83.5 -27.5t-84 29.5t-36 75.5z" />
    <glyph glyph-name="acute" unicode="&#xb4;" horiz-adv-x="235" 
d="M30 505l65 125h110l-90 -125h-85z" />
    <glyph glyph-name="mu" unicode="&#xb5;" horiz-adv-x="530" 
d="M55 -160v620h115v-255q0 -45 26.5 -72.5t68.5 -27.5t68.5 27.5t26.5 72.5v255h115v-460h-85l-20 45q-12 -15 -27 -25q-37 -25 -83 -25q-36 0 -66 17q-14 8 -24 18v-190h-115z" />
    <glyph glyph-name="paragraph" unicode="&#xb6;" horiz-adv-x="530" 
d="M190 -90v400q-64 0 -112 48t-48 112t48 112t112 48h275v-720h-100v615h-75v-615h-100z" />
    <glyph glyph-name="middot" unicode="&#xb7;" horiz-adv-x="225" 
d="M45 315q0 26 19.5 45.5t45.5 19.5t45.5 -19.5t19.5 -45.5t-19.5 -45.5t-45.5 -19.5t-45.5 19.5t-19.5 45.5z" />
    <glyph glyph-name="cedilla" unicode="&#xb8;" horiz-adv-x="220" 
d="M30 -180v45l12 -3q14 -2 28 -2q23 0 36.5 8.5t13.5 21.5q0 12 -12.5 21t-37.5 9q-5 0 -11 -1t-10 -3l-4 -1l35 85h55l-20 -40q22 -3 37 -13q38 -22 38 -62q0 -33 -25.5 -54t-79.5 -21q-21 0 -39 5q-6 1 -16 5z" />
    <glyph glyph-name="onesuperior" unicode="&#xb9;" horiz-adv-x="240" 
d="M90 420v205l-35 -20l-35 55l95 60h50v-300h-75z" />
    <glyph glyph-name="ordmasculine" unicode="&#xba;" horiz-adv-x="330" 
d="M165 635q52 0 93.5 -42t41.5 -98t-41.5 -98t-93.5 -42q-53 0 -94 42t-41 98t41 98t94 42zM165 560q-24 0 -39.5 -18t-15.5 -47t15.5 -47t39.5 -18t39.5 18t15.5 47t-15.5 47t-39.5 18z" />
    <glyph glyph-name="guillemotright" unicode="&#xbb;" horiz-adv-x="475" 
d="M225 65l110 160l-110 160h110l110 -160l-110 -160h-110zM30 65l110 160l-110 160h110l110 -160l-110 -160h-110z" />
    <glyph glyph-name="onequarter" unicode="&#xbc;" horiz-adv-x="580" 
d="M55 0l385 630h95l-385 -630h-95zM90 330v205l-35 -20l-35 55l95 60h50v-300h-75zM320 55v55l120 190h85v-175h35v-70h-35v-55h-75v55h-130zM395 125h55v85z" />
    <glyph glyph-name="onehalf" unicode="&#xbd;" horiz-adv-x="615" 
d="M55 0l385 630h95l-385 -630h-95zM90 330v205l-35 -20l-35 55l95 60h50v-300h-75zM370 0v55l110 105q17 17 23.5 26.5t6.5 23.5q0 12 -10 21t-25 9q-26 0 -35 -20q-3 -6 -5 -20h-70q4 49 35 77t80 28q48 0 76.5 -25.5t28.5 -64.5q0 -25 -10 -42.5t-35 -42.5l-60 -60h105
v-70h-215z" />
    <glyph glyph-name="threequarters" unicode="&#xbe;" horiz-adv-x="620" 
d="M95 0l385 630h95l-385 -630h-95zM20 430h75q2 -11 6 -20q13 -20 39 -20q18 0 29 10t11 25q0 12 -11 21t-29 9h-33v60h28q15 0 25 7t10 18q0 12 -10 21t-25 9q-19 0 -33 -18q-6 -10 -7 -17h-70q4 43 35.5 71.5t79.5 28.5t76.5 -25.5t28.5 -64.5q0 -21 -15 -45
q-8 -9 -15 -15q12 -7 20 -16q20 -20 20 -49q0 -40 -31.5 -67.5t-83.5 -27.5t-84 29.5t-36 75.5zM360 55v55l120 190h85v-175h35v-70h-35v-55h-75v55h-130zM435 125h55v85z" />
    <glyph glyph-name="questiondown" unicode="&#xbf;" horiz-adv-x="450" 
d="M310 40h120q-4 -93 -58.5 -149t-141.5 -56q-92 0 -146 49t-54 126q0 39 15 68.5t36 49t42.5 39t36.5 48t15 65.5h115q0 -49 -14.5 -85t-35 -57t-41 -37.5t-35 -36.5t-14.5 -44q0 -34 21 -54.5t59 -20.5q35 0 57.5 25.5t22.5 69.5zM295 395q0 -26 -19.5 -45.5t-45.5 -19.5
t-45.5 19.5t-19.5 45.5t19.5 45.5t45.5 19.5t45.5 -19.5t19.5 -45.5z" />
    <glyph glyph-name="Agrave" unicode="&#xc0;" horiz-adv-x="570" 
d="M-5 0l235 630h110l235 -630h-125l-45 130h-240l-45 -130h-125zM205 240h160l-80 230zM240 700l-90 125h110l65 -125h-85z" />
    <glyph glyph-name="Aacute" unicode="&#xc1;" horiz-adv-x="570" 
d="M-5 0l235 630h110l235 -630h-125l-45 130h-240l-45 -130h-125zM205 240h160l-80 230zM245 700l65 125h110l-90 -125h-85z" />
    <glyph glyph-name="Acircumflex" unicode="&#xc2;" horiz-adv-x="570" 
d="M-5 0l235 630h110l235 -630h-125l-45 130h-240l-45 -130h-125zM205 240h160l-80 230zM140 700l95 125h100l95 -125h-95l-50 65l-50 -65h-95z" />
    <glyph glyph-name="Atilde" unicode="&#xc3;" horiz-adv-x="570" 
d="M-5 0l235 630h110l235 -630h-125l-45 130h-240l-45 -130h-125zM205 240h160l-80 230zM200 690h-60q0 61 25 93t65 32q33 0 67.5 -27.5t42.5 -27.5q16 0 28 14t12 36h60q0 -61 -25 -93t-65 -32q-34 0 -68 27.5t-42 27.5q-16 0 -28 -14t-12 -36z" />
    <glyph glyph-name="Adieresis" unicode="&#xc4;" horiz-adv-x="570" 
d="M-5 0l235 630h110l235 -630h-125l-45 130h-240l-45 -130h-125zM205 240h160l-80 230zM130 755q0 26 19.5 45.5t45.5 19.5t45.5 -19.5t19.5 -45.5t-19.5 -45.5t-45.5 -19.5t-45.5 19.5t-19.5 45.5zM310 755q0 26 19.5 45.5t45.5 19.5t45.5 -19.5t19.5 -45.5t-19.5 -45.5
t-45.5 -19.5t-45.5 19.5t-19.5 45.5z" />
    <glyph glyph-name="Aring" unicode="&#xc5;" horiz-adv-x="570" 
d="M-5 0l235 630h110l235 -630h-125l-45 130h-240l-45 -130h-125zM205 240h160l-80 230zM320 765q0 15 -10 25t-25 10t-25 -10t-10 -25t10 -25t25 -10t25 10t10 25zM190 765q0 39 26.5 64.5t68.5 25.5t68.5 -25.5t26.5 -64.5t-26.5 -64.5t-68.5 -25.5t-68.5 25.5t-26.5 64.5
z" />
    <glyph glyph-name="AE" unicode="&#xc6;" horiz-adv-x="825" 
d="M-35 0l345 630h470v-115h-280v-135h255v-115h-255v-150h290v-115h-410v135h-210l-75 -135h-130zM230 250h150v265h-5z" />
    <glyph glyph-name="Ccedilla" unicode="&#xc7;" horiz-adv-x="645" 
d="M255 -180v45l12 -3q14 -2 28 -2q23 0 36.5 8.5t13.5 21.5q0 12 -12.5 21t-37.5 9q-5 0 -11 -1t-10 -3l-4 -1l35 80q-115 15 -195 104t-80 216q0 134 90 227t215 93q104 0 180.5 -65.5t99.5 -159.5h-125q-13 45 -54 77.5t-101 32.5q-76 0 -130.5 -58.5t-54.5 -146.5
t54.5 -146.5t130.5 -58.5q60 0 101 32t59 78h125q-23 -93 -93 -155t-172 -70l-15 -35q22 -3 37 -13q38 -22 38 -62q0 -33 -25.5 -54t-79.5 -21q-21 0 -39 5q-6 1 -16 5z" />
    <glyph glyph-name="Egrave" unicode="&#xc8;" horiz-adv-x="545" 
d="M65 0v630h435v-115h-315v-135h290v-115h-290v-150h325v-115h-445zM259 700l-90 125h110l65 -125h-85z" />
    <glyph glyph-name="Eacute" unicode="&#xc9;" horiz-adv-x="545" 
d="M65 0v630h435v-115h-315v-135h290v-115h-290v-150h325v-115h-445zM240 700l65 125h110l-90 -125h-85z" />
    <glyph glyph-name="Ecircumflex" unicode="&#xca;" horiz-adv-x="545" 
d="M65 0v630h435v-115h-315v-135h290v-115h-290v-150h325v-115h-445zM140 700l95 125h100l95 -125h-95l-50 65l-50 -65h-95z" />
    <glyph glyph-name="Edieresis" unicode="&#xcb;" horiz-adv-x="545" 
d="M65 0v630h435v-115h-315v-135h290v-115h-290v-150h325v-115h-445zM135 755q0 26 19.5 45.5t45.5 19.5t45.5 -19.5t19.5 -45.5t-19.5 -45.5t-45.5 -19.5t-45.5 19.5t-19.5 45.5zM315 755q0 26 19.5 45.5t45.5 19.5t45.5 -19.5t19.5 -45.5t-19.5 -45.5t-45.5 -19.5
t-45.5 19.5t-19.5 45.5z" />
    <glyph glyph-name="Igrave" unicode="&#xcc;" horiz-adv-x="250" 
d="M65 0v630h120v-630h-120zM80 700l-90 125h110l65 -125h-85z" />
    <glyph glyph-name="Iacute" unicode="&#xcd;" horiz-adv-x="250" 
d="M65 0v630h120v-630h-120zM85 700l65 125h110l-90 -125h-85z" />
    <glyph glyph-name="Icircumflex" unicode="&#xce;" horiz-adv-x="250" 
d="M65 0v630h120v-630h-120zM-20 700l95 125h100l95 -125h-95l-50 65l-50 -65h-95z" />
    <glyph glyph-name="Idieresis" unicode="&#xcf;" horiz-adv-x="250" 
d="M65 0v630h120v-630h-120zM-30 755q0 26 19.5 45.5t45.5 19.5t45.5 -19.5t19.5 -45.5t-19.5 -45.5t-45.5 -19.5t-45.5 19.5t-19.5 45.5zM150 755q0 26 19.5 45.5t45.5 19.5t45.5 -19.5t19.5 -45.5t-19.5 -45.5t-45.5 -19.5t-45.5 19.5t-19.5 45.5z" />
    <glyph glyph-name="Eth" unicode="&#xd0;" horiz-adv-x="630" 
d="M90 0v260h-80v100h80v270h200q124 0 217 -94t93 -221t-93 -221t-217 -94h-200zM210 115h80q76 0 133 59.5t57 140.5t-57 140.5t-133 59.5h-80v-155h110v-100h-110v-145z" />
    <glyph glyph-name="Ntilde" unicode="&#xd1;" horiz-adv-x="635" 
d="M65 0v630h105l280 -410v410h120v-630h-105l-280 410v-410h-120zM235 690h-60q0 61 25 93t65 32q33 0 67.5 -27.5t42.5 -27.5q16 0 28 14t12 36h60q0 -61 -25 -93t-65 -32q-20 0 -39 8.5t-30 19t-22 19t-19 8.5q-16 0 -28 -14t-12 -36z" />
    <glyph glyph-name="Ograve" unicode="&#xd2;" horiz-adv-x="670" 
d="M335 520q-76 0 -130.5 -58.5t-54.5 -146.5t54.5 -146.5t130.5 -58.5t130.5 58.5t54.5 146.5t-54.5 146.5t-130.5 58.5zM335 635q125 0 215 -93t90 -227t-90 -227t-215 -93t-215 93t-90 227t90 227t215 93zM295 700l-90 125h110l65 -125h-85z" />
    <glyph glyph-name="Oacute" unicode="&#xd3;" horiz-adv-x="670" 
d="M335 520q-76 0 -130.5 -58.5t-54.5 -146.5t54.5 -146.5t130.5 -58.5t130.5 58.5t54.5 146.5t-54.5 146.5t-130.5 58.5zM335 635q125 0 215 -93t90 -227t-90 -227t-215 -93t-215 93t-90 227t90 227t215 93zM295 700l65 125h110l-90 -125h-85z" />
    <glyph glyph-name="Ocircumflex" unicode="&#xd4;" horiz-adv-x="670" 
d="M335 520q-76 0 -130.5 -58.5t-54.5 -146.5t54.5 -146.5t130.5 -58.5t130.5 58.5t54.5 146.5t-54.5 146.5t-130.5 58.5zM335 635q125 0 215 -93t90 -227t-90 -227t-215 -93t-215 93t-90 227t90 227t215 93zM190 700l95 125h100l95 -125h-95l-50 65l-50 -65h-95z" />
    <glyph glyph-name="Otilde" unicode="&#xd5;" horiz-adv-x="670" 
d="M335 520q-76 0 -130.5 -58.5t-54.5 -146.5t54.5 -146.5t130.5 -58.5t130.5 58.5t54.5 146.5t-54.5 146.5t-130.5 58.5zM335 635q125 0 215 -93t90 -227t-90 -227t-215 -93t-215 93t-90 227t90 227t215 93zM245 690h-60q0 61 25 93t65 32q33 0 67.5 -27.5t42.5 -27.5
q16 0 28 14t12 36h60q0 -61 -25 -93t-65 -32q-20 0 -39 8.5t-30 19t-22 19t-19 8.5q-16 0 -28 -14t-12 -36z" />
    <glyph glyph-name="Odieresis" unicode="&#xd6;" horiz-adv-x="670" 
d="M335 520q-76 0 -130.5 -58.5t-54.5 -146.5t54.5 -146.5t130.5 -58.5t130.5 58.5t54.5 146.5t-54.5 146.5t-130.5 58.5zM335 635q125 0 215 -93t90 -227t-90 -227t-215 -93t-215 93t-90 227t90 227t215 93zM180 755q0 26 19.5 45.5t45.5 19.5t45.5 -19.5t19.5 -45.5
t-19.5 -45.5t-45.5 -19.5t-45.5 19.5t-19.5 45.5zM360 755q0 26 19.5 45.5t45.5 19.5t45.5 -19.5t19.5 -45.5t-19.5 -45.5t-45.5 -19.5t-45.5 19.5t-19.5 45.5z" />
    <glyph glyph-name="multiply" unicode="&#xd7;" horiz-adv-x="450" 
d="M50 145l105 110l-105 110l70 70l105 -110l105 110l70 -70l-105 -110l105 -110l-70 -70l-105 110l-105 -110z" />
    <glyph glyph-name="Oslash" unicode="&#xd8;" horiz-adv-x="670" 
d="M10 85l65 60q-10 16 -23 47q-22 62 -22 123q0 134 90 227t215 93q66 0 134 -33q27 -13 51 -32l60 55l80 -80l-65 -60q10 -18 22 -48q23 -65 23 -122q0 -134 -90 -227t-215 -93q-70 0 -134 32q-29 13 -51 33l-60 -55zM505 395l-270 -255q11 -9 27 -15q32 -15 73 -15
q76 0 130.5 58.5t54.5 146.5q0 29 -8 59zM165 235l270 255l-28 15q-41 15 -72 15q-76 0 -130.5 -58.5t-54.5 -146.5q0 -33 7 -59q7 -20 8 -21z" />
    <glyph glyph-name="Ugrave" unicode="&#xd9;" horiz-adv-x="620" 
d="M60 240v390h120v-390q0 -60 35 -95t95 -35t95 35t35 95v390h120v-390q0 -105 -71 -175t-179 -70t-179 70t-71 175zM275 700l-90 125h110l65 -125h-85z" />
    <glyph glyph-name="Uacute" unicode="&#xda;" horiz-adv-x="620" 
d="M60 240v390h120v-390q0 -60 35 -95t95 -35t95 35t35 95v390h120v-390q0 -105 -71 -175t-179 -70t-179 70t-71 175zM265 700l65 125h110l-90 -125h-85z" />
    <glyph glyph-name="Ucircumflex" unicode="&#xdb;" horiz-adv-x="620" 
d="M60 240v390h120v-390q0 -60 35 -95t95 -35t95 35t35 95v390h120v-390q0 -105 -71 -175t-179 -70t-179 70t-71 175zM165 700l95 125h100l95 -125h-95l-50 65l-50 -65h-95z" />
    <glyph glyph-name="Udieresis" unicode="&#xdc;" horiz-adv-x="620" 
d="M60 240v390h120v-390q0 -60 35 -95t95 -35t95 35t35 95v390h120v-390q0 -105 -71 -175t-179 -70t-179 70t-71 175zM155 755q0 26 19.5 45.5t45.5 19.5t45.5 -19.5t19.5 -45.5t-19.5 -45.5t-45.5 -19.5t-45.5 19.5t-19.5 45.5zM335 755q0 26 19.5 45.5t45.5 19.5
t45.5 -19.5t19.5 -45.5t-19.5 -45.5t-45.5 -19.5t-45.5 19.5t-19.5 45.5z" />
    <glyph glyph-name="Yacute" unicode="&#xdd;" horiz-adv-x="540" 
d="M210 0v240l-205 390h130l135 -270l135 270h130l-205 -390v-240h-120zM230 700l65 125h110l-90 -125h-85z" />
    <glyph glyph-name="Thorn" unicode="&#xde;" horiz-adv-x="600" 
d="M65 0v630h120v-100h170q89 0 152 -61t63 -144t-63 -144t-152 -61h-170v-120h-120zM185 235h170q37 0 66 28t29 62t-29 62t-66 28h-170v-180z" />
    <glyph glyph-name="germandbls" unicode="&#xdf;" horiz-adv-x="520" 
d="M55 0v450q0 76 56.5 130.5t138.5 54.5q88 0 144 -51t56 -124q0 -46 -30 -88q-14 -19 -30 -32q28 -13 52 -37q53 -53 53 -123q0 -76 -54 -128t-136 -52h-55v105h50q38 0 59 21t21 59t-21 59t-59 21h-50v105q38 0 61.5 23t23.5 57t-23.5 57t-61.5 23q-34 0 -57 -23t-23 -57
v-450h-115z" />
    <glyph glyph-name="agrave" unicode="&#xe0;" horiz-adv-x="475" 
d="M340 0l-20 45q-22 -18 -35 -25q-44 -25 -95 -25q-73 0 -114 36t-41 94q0 74 63 114.5t212 40.5q0 38 -20.5 59t-54.5 21q-35 0 -58 -25q-9 -10 -12 -25h-115q9 66 60.5 110.5t134.5 44.5q78 0 129 -51t51 -129v-285h-85zM310 180v20q-95 0 -127.5 -16t-32.5 -49
q0 -19 17.5 -34.5t42.5 -15.5q45 0 72.5 26.5t27.5 68.5zM210 520l-90 125h110l65 -125h-85z" />
    <glyph glyph-name="aacute" unicode="&#xe1;" horiz-adv-x="475" 
d="M340 0l-20 45q-22 -18 -35 -25q-44 -25 -95 -25q-73 0 -114 36t-41 94q0 74 63 114.5t212 40.5q0 38 -20.5 59t-54.5 21q-35 0 -58 -25q-9 -10 -12 -25h-115q9 66 60.5 110.5t134.5 44.5q78 0 129 -51t51 -129v-285h-85zM310 180v20q-95 0 -127.5 -16t-32.5 -49
q0 -19 17.5 -34.5t42.5 -15.5q45 0 72.5 26.5t27.5 68.5zM200 520l65 125h110l-90 -125h-85z" />
    <glyph glyph-name="acircumflex" unicode="&#xe2;" horiz-adv-x="475" 
d="M340 0l-20 45q-22 -18 -35 -25q-44 -25 -95 -25q-73 0 -114 36t-41 94q0 74 63 114.5t212 40.5q0 38 -20.5 59t-54.5 21q-35 0 -58 -25q-9 -10 -12 -25h-115q9 66 60.5 110.5t134.5 44.5q78 0 129 -51t51 -129v-285h-85zM310 180v20q-95 0 -127.5 -16t-32.5 -49
q0 -19 17.5 -34.5t42.5 -15.5q45 0 72.5 26.5t27.5 68.5zM105 520l95 125h100l95 -125h-95l-50 65l-50 -65h-95z" />
    <glyph glyph-name="atilde" unicode="&#xe3;" horiz-adv-x="475" 
d="M340 0l-20 45q-22 -18 -35 -25q-44 -25 -95 -25q-73 0 -114 36t-41 94q0 74 63 114.5t212 40.5q0 38 -20.5 59t-54.5 21q-35 0 -58 -25q-9 -10 -12 -25h-115q9 66 60.5 110.5t134.5 44.5q78 0 129 -51t51 -129v-285h-85zM310 180v20q-95 0 -127.5 -16t-32.5 -49
q0 -19 17.5 -34.5t42.5 -15.5q45 0 72.5 26.5t27.5 68.5zM160 515h-60q0 61 25 93t65 32q33 0 67.5 -27.5t42.5 -27.5q16 0 28 14t12 36h60q0 -61 -25 -93t-65 -32q-34 0 -68 27.5t-42 27.5q-16 0 -28 -14t-12 -36z" />
    <glyph glyph-name="adieresis" unicode="&#xe4;" horiz-adv-x="475" 
d="M340 0l-20 45q-22 -18 -35 -25q-44 -25 -95 -25q-73 0 -114 36t-41 94q0 74 63 114.5t212 40.5q0 38 -20.5 59t-54.5 21q-35 0 -58 -25q-9 -10 -12 -25h-115q9 66 60.5 110.5t134.5 44.5q78 0 129 -51t51 -129v-285h-85zM310 180v20q-95 0 -127.5 -16t-32.5 -49
q0 -19 17.5 -34.5t42.5 -15.5q45 0 72.5 26.5t27.5 68.5zM95 575q0 26 19.5 45.5t45.5 19.5t45.5 -19.5t19.5 -45.5t-19.5 -45.5t-45.5 -19.5t-45.5 19.5t-19.5 45.5zM275 575q0 26 19.5 45.5t45.5 19.5t45.5 -19.5t19.5 -45.5t-19.5 -45.5t-45.5 -19.5t-45.5 19.5
t-19.5 45.5z" />
    <glyph glyph-name="aring" unicode="&#xe5;" horiz-adv-x="475" 
d="M340 0l-20 45q-22 -18 -35 -25q-44 -25 -95 -25q-73 0 -114 36t-41 94q0 74 63 114.5t212 40.5q0 38 -20.5 59t-54.5 21q-35 0 -58 -25q-9 -10 -12 -25h-115q9 66 60.5 110.5t134.5 44.5q78 0 129 -51t51 -129v-285h-85zM310 180v20q-95 0 -127.5 -16t-32.5 -49
q0 -19 17.5 -34.5t42.5 -15.5q45 0 72.5 26.5t27.5 68.5zM280 590q0 15 -10 25t-25 10t-25 -10t-10 -25t10 -25t25 -10t25 10t10 25zM150 590q0 39 26.5 64.5t68.5 25.5t68.5 -25.5t26.5 -64.5t-26.5 -64.5t-68.5 -25.5t-68.5 25.5t-26.5 64.5z" />
    <glyph glyph-name="ae" unicode="&#xe6;" horiz-adv-x="775" 
d="M165 310h-115q9 66 60.5 110.5t134.5 44.5q56 0 104 -30q21 -13 36 -30q17 17 37 30q48 30 108 30q91 0 153 -67t62 -168q0 -3 -3 -30l-2 -15h-315q20 -80 105 -80q37 0 62 17q10 8 18 18h120q-19 -61 -72.5 -103t-127.5 -42q-63 0 -113 32q-22 13 -37 33
q-18 -20 -43 -33q-56 -32 -122 -32q-86 0 -133 37.5t-47 92.5q0 74 63 114.5t212 40.5q0 38 -20.5 59t-54.5 21q-35 0 -58 -25q-9 -10 -12 -25zM425 270h210q-9 40 -36.5 65t-68.5 25t-68.5 -25t-36.5 -65zM310 180v20q-95 0 -127.5 -16t-32.5 -49q0 -19 17.5 -34.5
t42.5 -15.5q45 0 72.5 26.5t27.5 68.5z" />
    <glyph glyph-name="ccedilla" unicode="&#xe7;" horiz-adv-x="500" 
d="M190 -180v45l12 -3q14 -2 28 -2q23 0 36.5 8.5t13.5 21.5q0 12 -12.5 21t-37.5 9q-5 0 -11 -1t-10 -3l-4 -1l35 80q-89 12 -149.5 77.5t-60.5 157.5q0 97 68 166t162 69q79 0 138.5 -51.5t76.5 -123.5h-115q-7 17 -22 32q-33 33 -78 33q-50 0 -82.5 -34.5t-32.5 -90.5
t32.5 -90.5t82.5 -34.5q46 0 78 32q15 15 22 33h115q-12 -61 -64 -112t-116 -63l-20 -35q22 -3 37 -13q38 -22 38 -62q0 -33 -25.5 -54t-79.5 -21q-21 0 -39 5q-6 1 -16 5z" />
    <glyph glyph-name="egrave" unicode="&#xe8;" 
d="M345 140h120q-20 -57 -76 -101t-129 -44q-94 0 -162 69t-68 166t68 166t162 69q92 0 156 -66t64 -169q0 -3 -3 -30l-2 -15h-320q20 -80 105 -80q37 0 65 17q13 8 20 18zM150 265h220q-9 40 -38 65t-72 25t-72 -25t-38 -65zM215 520l-90 125h110l65 -125h-85z" />
    <glyph glyph-name="eacute" unicode="&#xe9;" 
d="M345 140h120q-20 -57 -76 -101t-129 -44q-94 0 -162 69t-68 166t68 166t162 69q92 0 156 -66t64 -169q0 -3 -3 -30l-2 -15h-320q20 -80 105 -80q37 0 65 17q13 8 20 18zM150 265h220q-9 40 -38 65t-72 25t-72 -25t-38 -65zM215 520l65 125h110l-90 -125h-85z" />
    <glyph glyph-name="ecircumflex" unicode="&#xea;" 
d="M345 140h120q-20 -57 -76 -101t-129 -44q-94 0 -162 69t-68 166t68 166t162 69q92 0 156 -66t64 -169q0 -3 -3 -30l-2 -15h-320q20 -80 105 -80q37 0 65 17q13 8 20 18zM150 265h220q-9 40 -38 65t-72 25t-72 -25t-38 -65zM115 520l95 125h100l95 -125h-95l-50 65
l-50 -65h-95z" />
    <glyph glyph-name="edieresis" unicode="&#xeb;" 
d="M345 140h120q-20 -57 -76 -101t-129 -44q-94 0 -162 69t-68 166t68 166t162 69q92 0 156 -66t64 -169q0 -3 -3 -30l-2 -15h-320q20 -80 105 -80q37 0 65 17q13 8 20 18zM150 265h220q-9 40 -38 65t-72 25t-72 -25t-38 -65zM100 575q0 26 19.5 45.5t45.5 19.5t45.5 -19.5
t19.5 -45.5t-19.5 -45.5t-45.5 -19.5t-45.5 19.5t-19.5 45.5zM280 575q0 26 19.5 45.5t45.5 19.5t45.5 -19.5t19.5 -45.5t-19.5 -45.5t-45.5 -19.5t-45.5 19.5t-19.5 45.5z" />
    <glyph glyph-name="igrave" unicode="&#xec;" horiz-adv-x="225" 
d="M55 0v460h115v-460h-115zM70 520l-90 125h110l65 -125h-85z" />
    <glyph glyph-name="iacute" unicode="&#xed;" horiz-adv-x="225" 
d="M55 0v460h115v-460h-115zM70 520l65 125h110l-90 -125h-85z" />
    <glyph glyph-name="icircumflex" unicode="&#xee;" horiz-adv-x="225" 
d="M55 0v460h115v-460h-115zM-35 520l95 125h100l95 -125h-95l-50 65l-50 -65h-95z" />
    <glyph glyph-name="idieresis" unicode="&#xef;" horiz-adv-x="225" 
d="M55 0v460h115v-460h-115zM-40 575q0 26 19.5 45.5t45.5 19.5t45.5 -19.5t19.5 -45.5t-19.5 -45.5t-45.5 -19.5t-45.5 19.5t-19.5 45.5zM140 575q0 26 19.5 45.5t45.5 19.5t45.5 -19.5t19.5 -45.5t-19.5 -45.5t-45.5 -19.5t-45.5 19.5t-19.5 45.5z" />
    <glyph glyph-name="eth" unicode="&#xf0;" horiz-adv-x="530" 
d="M215 470l-45 65l55 40q-13 7 -24 11q-27 12 -66 19l30 85q50 -10 102 -33q16 -7 43 -22l80 55l45 -65l-60 -40q35 -36 60 -84q60 -108 60 -241q0 -122 -65.5 -193.5t-169.5 -71.5q-98 0 -164 65.5t-66 161.5q0 92 65 157.5t155 65.5q55 0 94 -28q17 -11 31 -27
q-13 52 -48 99q-22 26 -32 36zM145 220q0 -48 33.5 -81.5t81.5 -33.5t81.5 33.5t33.5 81.5t-33.5 81.5t-81.5 33.5t-81.5 -33.5t-33.5 -81.5z" />
    <glyph glyph-name="ntilde" unicode="&#xf1;" horiz-adv-x="525" 
d="M55 0v460h85l20 -45q18 15 37 25q48 25 93 25q83 0 134 -53t51 -142v-270h-115v255q0 45 -26.5 72.5t-68.5 27.5t-68.5 -27.5t-26.5 -72.5v-255h-115zM180 515h-60q0 61 25 93t65 32q33 0 67.5 -27.5t42.5 -27.5q16 0 28 14t12 36h60q0 -61 -25 -93t-65 -32
q-34 0 -68 27.5t-42 27.5q-16 0 -28 -14t-12 -36z" />
    <glyph glyph-name="ograve" unicode="&#xf2;" horiz-adv-x="520" 
d="M260 355q-50 0 -82.5 -34.5t-32.5 -90.5t32.5 -90.5t82.5 -34.5t82.5 34.5t32.5 90.5t-32.5 90.5t-82.5 34.5zM260 465q94 0 162 -69t68 -166t-68 -166t-162 -69t-162 69t-68 166t68 166t162 69zM215 520l-90 125h110l65 -125h-85z" />
    <glyph glyph-name="oacute" unicode="&#xf3;" horiz-adv-x="520" 
d="M260 355q-50 0 -82.5 -34.5t-32.5 -90.5t32.5 -90.5t82.5 -34.5t82.5 34.5t32.5 90.5t-32.5 90.5t-82.5 34.5zM260 465q94 0 162 -69t68 -166t-68 -166t-162 -69t-162 69t-68 166t68 166t162 69zM220 520l65 125h110l-90 -125h-85z" />
    <glyph glyph-name="ocircumflex" unicode="&#xf4;" horiz-adv-x="520" 
d="M260 355q-50 0 -82.5 -34.5t-32.5 -90.5t32.5 -90.5t82.5 -34.5t82.5 34.5t32.5 90.5t-32.5 90.5t-82.5 34.5zM260 465q94 0 162 -69t68 -166t-68 -166t-162 -69t-162 69t-68 166t68 166t162 69zM115 520l95 125h100l95 -125h-95l-50 65l-50 -65h-95z" />
    <glyph glyph-name="otilde" unicode="&#xf5;" horiz-adv-x="520" 
d="M260 355q-50 0 -82.5 -34.5t-32.5 -90.5t32.5 -90.5t82.5 -34.5t82.5 34.5t32.5 90.5t-32.5 90.5t-82.5 34.5zM260 465q94 0 162 -69t68 -166t-68 -166t-162 -69t-162 69t-68 166t68 166t162 69zM170 515h-60q0 61 25 93t65 32q33 0 67.5 -27.5t42.5 -27.5q16 0 28 14
t12 36h60q0 -61 -25 -93t-65 -32q-34 0 -68 27.5t-42 27.5q-16 0 -28 -14t-12 -36z" />
    <glyph glyph-name="odieresis" unicode="&#xf6;" horiz-adv-x="520" 
d="M260 355q-50 0 -82.5 -34.5t-32.5 -90.5t32.5 -90.5t82.5 -34.5t82.5 34.5t32.5 90.5t-32.5 90.5t-82.5 34.5zM260 465q94 0 162 -69t68 -166t-68 -166t-162 -69t-162 69t-68 166t68 166t162 69zM105 575q0 26 19.5 45.5t45.5 19.5t45.5 -19.5t19.5 -45.5t-19.5 -45.5
t-45.5 -19.5t-45.5 19.5t-19.5 45.5zM285 575q0 26 19.5 45.5t45.5 19.5t45.5 -19.5t19.5 -45.5t-19.5 -45.5t-45.5 -19.5t-45.5 19.5t-19.5 45.5z" />
    <glyph glyph-name="divide" unicode="&#xf7;" horiz-adv-x="460" 
d="M35 205v100h390v-100h-390zM165 90q0 26 19.5 45.5t45.5 19.5t45.5 -19.5t19.5 -45.5t-19.5 -45.5t-45.5 -19.5t-45.5 19.5t-19.5 45.5zM165 420q0 26 19.5 45.5t45.5 19.5t45.5 -19.5t19.5 -45.5t-19.5 -45.5t-45.5 -19.5t-45.5 19.5t-19.5 45.5z" />
    <glyph glyph-name="oslash" unicode="&#xf8;" horiz-adv-x="520" 
d="M80 0l-60 65l45 40q-11 17 -18 36q-17 43 -17 89q0 97 68 166t162 69q47 0 97 -23q25 -12 38 -22l45 40l60 -65l-45 -40q11 -20 17 -36q18 -46 18 -89q0 -97 -68 -166t-162 -69q-50 0 -98 22q-23 11 -37 23zM150 190l165 150l-14 7q-18 8 -41 8q-50 0 -82.5 -34.5
t-32.5 -90.5q0 -14 2 -28zM370 270l-165 -150q2 -2 7 -4.5l7 -3.5q15 -7 41 -7q50 0 82.5 34.5t32.5 90.5q0 3 -3 27z" />
    <glyph glyph-name="ugrave" unicode="&#xf9;" horiz-adv-x="530" 
d="M55 190v270h115v-255q0 -45 26.5 -72.5t68.5 -27.5t68.5 27.5t26.5 72.5v255h115v-460h-85l-20 45q-18 -15 -37 -25q-44 -25 -93 -25q-83 0 -134 53t-51 142zM230 520l-90 125h110l65 -125h-85z" />
    <glyph glyph-name="uacute" unicode="&#xfa;" horiz-adv-x="530" 
d="M55 190v270h115v-255q0 -45 26.5 -72.5t68.5 -27.5t68.5 27.5t26.5 72.5v255h115v-460h-85l-20 45q-18 -15 -37 -25q-44 -25 -93 -25q-83 0 -134 53t-51 142zM220 520l65 125h110l-90 -125h-85z" />
    <glyph glyph-name="ucircumflex" unicode="&#xfb;" horiz-adv-x="530" 
d="M55 190v270h115v-255q0 -45 26.5 -72.5t68.5 -27.5t68.5 27.5t26.5 72.5v255h115v-460h-85l-20 45q-18 -15 -37 -25q-44 -25 -93 -25q-83 0 -134 53t-51 142zM120 520l95 125h100l95 -125h-95l-50 65l-50 -65h-95z" />
    <glyph glyph-name="udieresis" unicode="&#xfc;" horiz-adv-x="530" 
d="M55 190v270h115v-255q0 -45 26.5 -72.5t68.5 -27.5t68.5 27.5t26.5 72.5v255h115v-460h-85l-20 45q-18 -15 -37 -25q-44 -25 -93 -25q-83 0 -134 53t-51 142zM110 575q0 26 19.5 45.5t45.5 19.5t45.5 -19.5t19.5 -45.5t-19.5 -45.5t-45.5 -19.5t-45.5 19.5t-19.5 45.5z
M290 575q0 26 19.5 45.5t45.5 19.5t45.5 -19.5t19.5 -45.5t-19.5 -45.5t-45.5 -19.5t-45.5 19.5t-19.5 45.5z" />
    <glyph glyph-name="yacute" unicode="&#xfd;" horiz-adv-x="470" 
d="M80 -160v95q64 0 90 60l10 25l-175 440h120l115 -300l105 300h120l-89 -228q-95 -246 -96 -247q-34 -83 -69 -116.5t-91 -33.5q-14 0 -28 2zM195 520l65 125h110l-90 -125h-85z" />
    <glyph glyph-name="thorn" unicode="&#xfe;" horiz-adv-x="535" 
d="M55 -160v780h115v-200q11 10 32 22q44 23 88 23q88 0 151.5 -67.5t63.5 -167.5t-63.5 -167.5t-151.5 -67.5q-46 0 -88 22q-22 13 -32 23v-200h-115zM275 105q50 0 82.5 34.5t32.5 90.5t-32.5 90.5t-82.5 34.5t-82.5 -34.5t-32.5 -90.5t32.5 -90.5t82.5 -34.5z" />
    <glyph glyph-name="ydieresis" unicode="&#xff;" horiz-adv-x="470" 
d="M80 -160v95q64 0 90 60l10 25l-175 440h120l115 -300l105 300h120l-89 -228q-95 -246 -96 -247q-34 -83 -69 -116.5t-91 -33.5q-14 0 -28 2zM85 575q0 26 19.5 45.5t45.5 19.5t45.5 -19.5t19.5 -45.5t-19.5 -45.5t-45.5 -19.5t-45.5 19.5t-19.5 45.5zM265 575
q0 26 19.5 45.5t45.5 19.5t45.5 -19.5t19.5 -45.5t-19.5 -45.5t-45.5 -19.5t-45.5 19.5t-19.5 45.5z" />
    <glyph glyph-name="Amacron" unicode="&#x100;" horiz-adv-x="570" 
d="M-5 0l235 630h110l235 -630h-125l-45 130h-240l-45 -130h-125zM205 240h160l-80 230zM155 710v85h260v-85h-260z" />
    <glyph glyph-name="amacron" unicode="&#x101;" horiz-adv-x="475" 
d="M340 0l-20 45q-22 -18 -35 -25q-44 -25 -95 -25q-73 0 -114 36t-41 94q0 74 63 114.5t212 40.5q0 38 -20.5 59t-54.5 21q-35 0 -58 -25q-9 -10 -12 -25h-115q9 66 60.5 110.5t134.5 44.5q78 0 129 -51t51 -129v-285h-85zM310 180v20q-95 0 -127.5 -16t-32.5 -49
q0 -19 17.5 -34.5t42.5 -15.5q45 0 72.5 26.5t27.5 68.5zM115 525v85h260v-85h-260z" />
    <glyph glyph-name="Abreve" unicode="&#x102;" horiz-adv-x="570" 
d="M-5 0l235 630h110l235 -630h-125l-45 130h-240l-45 -130h-125zM205 240h160l-80 230zM145 815h85q6 -18 11 -25q15 -25 44 -25t44 25q5 7 11 25h85q-9 -54 -46.5 -89.5t-93.5 -35.5t-93.5 35.5t-46.5 89.5z" />
    <glyph glyph-name="abreve" unicode="&#x103;" horiz-adv-x="475" 
d="M340 0l-20 45q-22 -18 -35 -25q-44 -25 -95 -25q-73 0 -114 36t-41 94q0 74 63 114.5t212 40.5q0 38 -20.5 59t-54.5 21q-35 0 -58 -25q-9 -10 -12 -25h-115q9 66 60.5 110.5t134.5 44.5q78 0 129 -51t51 -129v-285h-85zM310 180v20q-95 0 -127.5 -16t-32.5 -49
q0 -19 17.5 -34.5t42.5 -15.5q45 0 72.5 26.5t27.5 68.5zM110 635h85q6 -18 11 -25q15 -25 44 -25t44 25q5 7 11 25h85q-9 -54 -46.5 -89.5t-93.5 -35.5t-93.5 35.5t-46.5 89.5z" />
    <glyph glyph-name="Aogonek" unicode="&#x104;" horiz-adv-x="570" 
d="M-5 0l235 630h110l235 -630h-60q-11 -14 -18 -27q-17 -30 -17 -53q0 -19 13.5 -32t36.5 -13q11 0 27 2l13 3v-57q-1 0 -7.5 -1.5t-10.5 -2.5q-15 -4 -42 -4q-48 0 -76.5 25.5t-28.5 64.5q0 28 22 66q14 20 23 29l-45 130h-240l-45 -130h-125zM205 240h160l-80 230z" />
    <glyph glyph-name="aogonek" unicode="&#x105;" horiz-adv-x="475" 
d="M340 0l-20 45q-22 -18 -35 -25q-44 -25 -95 -25q-73 0 -114 36t-41 94q0 74 63 114.5t212 40.5q0 38 -20.5 59t-54.5 21q-35 0 -58 -25q-9 -10 -12 -25h-115q9 66 60.5 110.5t134.5 44.5q78 0 129 -51t51 -129v-285h-20q-11 -14 -18 -27q-17 -30 -17 -53q0 -19 13.5 -32
t36.5 -13q11 0 27 2l13 3v-57q-1 0 -7.5 -1.5t-10.5 -2.5q-15 -4 -42 -4q-48 0 -76.5 25.5t-28.5 64.5q0 28 22 66q14 20 23 29zM310 180v20q-95 0 -127.5 -16t-32.5 -49q0 -19 17.5 -34.5t42.5 -15.5q45 0 72.5 26.5t27.5 68.5z" />
    <glyph glyph-name="Cacute" unicode="&#x106;" horiz-adv-x="645" 
d="M495 220h125q-23 -95 -100.5 -160t-184.5 -65q-125 0 -215 93t-90 227t90 227t215 93q104 0 180.5 -65.5t99.5 -159.5h-125q-13 45 -54 77.5t-101 32.5q-76 0 -130.5 -58.5t-54.5 -146.5t54.5 -146.5t130.5 -58.5q60 0 101 32t59 78zM295 700l65 125h110l-90 -125h-85z
" />
    <glyph glyph-name="cacute" unicode="&#x107;" horiz-adv-x="500" 
d="M360 170h115q-17 -72 -76.5 -123.5t-138.5 -51.5q-94 0 -162 69t-68 166t68 166t162 69q79 0 138.5 -51.5t76.5 -123.5h-115q-7 17 -22 32q-33 33 -78 33q-50 0 -82.5 -34.5t-32.5 -90.5t32.5 -90.5t82.5 -34.5q46 0 78 32q15 15 22 33zM215 520l65 125h110l-90 -125h-85
z" />
    <glyph glyph-name="Ccircumflex" unicode="&#x108;" horiz-adv-x="645" 
d="M495 220h125q-23 -95 -100.5 -160t-184.5 -65q-125 0 -215 93t-90 227t90 227t215 93q104 0 180.5 -65.5t99.5 -159.5h-125q-13 45 -54 77.5t-101 32.5q-76 0 -130.5 -58.5t-54.5 -146.5t54.5 -146.5t130.5 -58.5q60 0 101 32t59 78zM195 700l95 125h100l95 -125h-95
l-50 65l-50 -65h-95z" />
    <glyph glyph-name="ccircumflex" unicode="&#x109;" horiz-adv-x="500" 
d="M360 170h115q-17 -72 -76.5 -123.5t-138.5 -51.5q-94 0 -162 69t-68 166t68 166t162 69q79 0 138.5 -51.5t76.5 -123.5h-115q-7 17 -22 32q-33 33 -78 33q-50 0 -82.5 -34.5t-32.5 -90.5t32.5 -90.5t82.5 -34.5q46 0 78 32q15 15 22 33zM115 520l95 125h100l95 -125h-95
l-50 65l-50 -65h-95z" />
    <glyph glyph-name="Cdotaccent" unicode="&#x10a;" horiz-adv-x="645" 
d="M495 220h125q-23 -95 -100.5 -160t-184.5 -65q-125 0 -215 93t-90 227t90 227t215 93q104 0 180.5 -65.5t99.5 -159.5h-125q-13 45 -54 77.5t-101 32.5q-76 0 -130.5 -58.5t-54.5 -146.5t54.5 -146.5t130.5 -58.5q60 0 101 32t59 78zM265 760q0 26 19.5 45.5t45.5 19.5
t45.5 -19.5t19.5 -45.5t-19.5 -45.5t-45.5 -19.5t-45.5 19.5t-19.5 45.5z" />
    <glyph glyph-name="cdotaccent" unicode="&#x10b;" horiz-adv-x="500" 
d="M360 170h115q-17 -72 -76.5 -123.5t-138.5 -51.5q-94 0 -162 69t-68 166t68 166t162 69q79 0 138.5 -51.5t76.5 -123.5h-115q-7 17 -22 32q-33 33 -78 33q-50 0 -82.5 -34.5t-32.5 -90.5t32.5 -90.5t82.5 -34.5q46 0 78 32q15 15 22 33zM190 580q0 26 19.5 45.5
t45.5 19.5t45.5 -19.5t19.5 -45.5t-19.5 -45.5t-45.5 -19.5t-45.5 19.5t-19.5 45.5z" />
    <glyph glyph-name="Ccaron" unicode="&#x10c;" horiz-adv-x="645" 
d="M495 220h125q-23 -95 -100.5 -160t-184.5 -65q-125 0 -215 93t-90 227t90 227t215 93q104 0 180.5 -65.5t99.5 -159.5h-125q-13 45 -54 77.5t-101 32.5q-76 0 -130.5 -58.5t-54.5 -146.5t54.5 -146.5t130.5 -58.5q60 0 101 32t59 78zM285 700l-95 125h95l50 -65l50 65h95
l-95 -125h-100z" />
    <glyph glyph-name="ccaron" unicode="&#x10d;" horiz-adv-x="500" 
d="M360 170h115q-17 -72 -76.5 -123.5t-138.5 -51.5q-94 0 -162 69t-68 166t68 166t162 69q79 0 138.5 -51.5t76.5 -123.5h-115q-7 17 -22 32q-33 33 -78 33q-50 0 -82.5 -34.5t-32.5 -90.5t32.5 -90.5t82.5 -34.5q46 0 78 32q15 15 22 33zM210 520l-95 125h95l50 -65l50 65
h95l-95 -125h-100z" />
    <glyph glyph-name="Dcaron" unicode="&#x10e;" horiz-adv-x="605" 
d="M185 115h80q76 0 133 59.5t57 140.5t-57 140.5t-133 59.5h-80v-400zM65 0v630h200q124 0 217 -94t93 -221t-93 -221t-217 -94h-200zM250 700l-95 125h95l50 -65l50 65h95l-95 -125h-100z" />
    <glyph glyph-name="dcaron" unicode="&#x10f;" horiz-adv-x="615" 
d="M525 505l35 125h100l-60 -125h-75zM395 0l-20 45q-22 -18 -35 -25q-44 -25 -95 -25q-88 0 -151.5 67.5t-63.5 167.5t63.5 167.5t151.5 67.5q44 0 88 -23q21 -12 32 -22v210h115v-630h-85zM260 105q50 0 82.5 34.5t32.5 90.5t-32.5 90.5t-82.5 34.5t-82.5 -34.5
t-32.5 -90.5t32.5 -90.5t82.5 -34.5z" />
    <glyph glyph-name="Dcroat" unicode="&#x110;" horiz-adv-x="630" 
d="M90 0v260h-80v100h80v270h200q124 0 217 -94t93 -221t-93 -221t-217 -94h-200zM210 115h80q76 0 133 59.5t57 140.5t-57 140.5t-133 59.5h-80v-155h110v-100h-110v-145z" />
    <glyph glyph-name="dslash" unicode="&#x111;" horiz-adv-x="540" 
d="M380 0l-20 45q-22 -18 -34 -25q-40 -25 -86 -25q-87 0 -148.5 62.5t-61.5 152.5t61.5 152.5t148.5 62.5q39 0 79 -23q22 -14 31 -22v85h-115v95h115v70h115v-70h70v-95h-70v-465h-85zM145 210q0 -45 30 -75t75 -30t75 30t30 75t-30 75t-75 30t-75 -30t-30 -75z" />
    <glyph glyph-name="Emacron" unicode="&#x112;" horiz-adv-x="545" 
d="M65 0v630h435v-115h-315v-135h290v-115h-290v-150h325v-115h-445zM160 705v85h260v-85h-260z" />
    <glyph glyph-name="emacron" unicode="&#x113;" 
d="M345 140h120q-20 -57 -76 -101t-129 -44q-94 0 -162 69t-68 166t68 166t162 69q92 0 156 -66t64 -169q0 -3 -3 -30l-2 -15h-320q20 -80 105 -80q37 0 65 17q13 8 20 18zM150 265h220q-9 40 -38 65t-72 25t-72 -25t-38 -65zM130 525v85h260v-85h-260z" />
    <glyph glyph-name="Ebreve" unicode="&#x114;" horiz-adv-x="545" 
d="M65 0v630h435v-115h-315v-135h290v-115h-290v-150h325v-115h-445zM150 815h85q6 -18 11 -25q15 -25 44 -25t44 25q5 7 11 25h85q-9 -54 -46.5 -89.5t-93.5 -35.5t-93.5 35.5t-46.5 89.5z" />
    <glyph glyph-name="ebreve" unicode="&#x115;" 
d="M345 140h120q-20 -57 -76 -101t-129 -44q-94 0 -162 69t-68 166t68 166t162 69q92 0 156 -66t64 -169q0 -3 -3 -30l-2 -15h-320q20 -80 105 -80q37 0 65 17q13 8 20 18zM150 265h220q-9 40 -38 65t-72 25t-72 -25t-38 -65zM115 635h85q6 -18 11 -25q15 -25 44 -25t44 25
q5 7 11 25h85q-9 -54 -46.5 -89.5t-93.5 -35.5t-93.5 35.5t-46.5 89.5z" />
    <glyph glyph-name="Edotaccent" unicode="&#x116;" horiz-adv-x="545" 
d="M65 0v630h435v-115h-315v-135h290v-115h-290v-150h325v-115h-445zM225 755q0 26 19.5 45.5t45.5 19.5t45.5 -19.5t19.5 -45.5t-19.5 -45.5t-45.5 -19.5t-45.5 19.5t-19.5 45.5z" />
    <glyph glyph-name="edotaccent" unicode="&#x117;" 
d="M345 140h120q-20 -57 -76 -101t-129 -44q-94 0 -162 69t-68 166t68 166t162 69q92 0 156 -66t64 -169q0 -3 -3 -30l-2 -15h-320q20 -80 105 -80q37 0 65 17q13 8 20 18zM150 265h220q-9 40 -38 65t-72 25t-72 -25t-38 -65zM190 580q0 26 19.5 45.5t45.5 19.5t45.5 -19.5
t19.5 -45.5t-19.5 -45.5t-45.5 -19.5t-45.5 19.5t-19.5 45.5z" />
    <glyph glyph-name="Eogonek" unicode="&#x118;" horiz-adv-x="545" 
d="M65 0v630h435v-115h-315v-135h290v-115h-290v-150h325v-115q-10 -14 -18 -27q-17 -30 -17 -53q0 -19 13.5 -32t36.5 -13q11 0 27 2l13 3v-57q-1 0 -7.5 -1.5t-10.5 -2.5q-15 -4 -42 -4q-48 0 -76.5 25.5t-28.5 64.5q0 28 22 66q14 20 23 29h-380z" />
    <glyph glyph-name="eogonek" unicode="&#x119;" 
d="M355 -120v-57q-1 0 -7.5 -1.5t-10.5 -2.5q-15 -4 -42 -4q-48 0 -76.5 25.5t-28.5 64.5q0 31 20 62q6 10 20 28q-85 12 -142.5 76t-57.5 159q0 97 68 166t162 69q92 0 156 -66t64 -169q0 -3 -3 -30l-2 -15h-320q20 -80 105 -80q37 0 65 17q13 8 20 18h120
q-19 -55 -65 -95.5t-100 -44.5q-11 -13 -18 -25q-17 -28 -17 -55q0 -19 13.5 -32t36.5 -13q11 0 27 2zM150 265h220q-9 40 -38 65t-72 25t-72 -25t-38 -65z" />
    <glyph glyph-name="Ecaron" unicode="&#x11a;" horiz-adv-x="545" 
d="M65 0v630h435v-115h-315v-135h290v-115h-290v-150h325v-115h-445zM240 700l-95 125h95l50 -65l50 65h95l-95 -125h-100z" />
    <glyph glyph-name="ecaron" unicode="&#x11b;" 
d="M345 140h120q-20 -57 -76 -101t-129 -44q-94 0 -162 69t-68 166t68 166t162 69q92 0 156 -66t64 -169q0 -3 -3 -30l-2 -15h-320q20 -80 105 -80q37 0 65 17q13 8 20 18zM150 265h220q-9 40 -38 65t-72 25t-72 -25t-38 -65zM205 520l-95 125h95l50 -65l50 65h95l-95 -125
h-100z" />
    <glyph glyph-name="Gcircumflex" unicode="&#x11c;" horiz-adv-x="680" 
d="M540 0l-25 60q-23 -20 -49 -33q-62 -32 -131 -32q-125 0 -215 93t-90 227t90 227t215 93q104 0 180.5 -65.5t99.5 -159.5h-125q-13 45 -54 77.5t-101 32.5q-76 0 -130.5 -58.5t-54.5 -146.5t54.5 -146.5t130.5 -58.5q80 0 127 57q20 25 33 58h-165v105h295v-330h-85z
M200 700l95 125h100l95 -125h-95l-50 65l-50 -65h-95z" />
    <glyph glyph-name="gcircumflex" unicode="&#x11d;" horiz-adv-x="530" 
d="M50 -20h115q7 -12 19 -23q30 -22 71 -22q48 0 76.5 26t28.5 69v35q-15 -15 -32 -25q-40 -25 -88 -25q-88 0 -149 64t-61 161t61 161t149 64q47 0 95 -25q13 -7 35 -25l20 45h85v-430q0 -91 -58 -145.5t-162 -54.5q-106 0 -166 75q-25 33 -39 75zM255 125q45 0 77.5 33.5
t32.5 81.5t-32.5 81.5t-77.5 33.5q-46 0 -78 -33.5t-32 -81.5t32 -81.5t78 -33.5zM115 520l95 125h100l95 -125h-95l-50 65l-50 -65h-95z" />
    <glyph glyph-name="Gbreve" unicode="&#x11e;" horiz-adv-x="680" 
d="M540 0l-25 60q-23 -20 -49 -33q-62 -32 -131 -32q-125 0 -215 93t-90 227t90 227t215 93q104 0 180.5 -65.5t99.5 -159.5h-125q-13 45 -54 77.5t-101 32.5q-76 0 -130.5 -58.5t-54.5 -146.5t54.5 -146.5t130.5 -58.5q80 0 127 57q20 25 33 58h-165v105h295v-330h-85z
M205 815h85q6 -18 11 -25q15 -25 44 -25t44 25q5 7 11 25h85q-9 -54 -46.5 -89.5t-93.5 -35.5t-93.5 35.5t-46.5 89.5z" />
    <glyph glyph-name="gbreve" unicode="&#x11f;" horiz-adv-x="530" 
d="M50 -20h115q7 -12 19 -23q30 -22 71 -22q48 0 76.5 26t28.5 69v35q-15 -15 -32 -25q-40 -25 -88 -25q-88 0 -149 64t-61 161t61 161t149 64q47 0 95 -25q13 -7 35 -25l20 45h85v-430q0 -91 -58 -145.5t-162 -54.5q-106 0 -166 75q-25 33 -39 75zM255 125q45 0 77.5 33.5
t32.5 81.5t-32.5 81.5t-77.5 33.5q-46 0 -78 -33.5t-32 -81.5t32 -81.5t78 -33.5zM120 635h85q6 -18 11 -25q15 -25 44 -25t44 25q5 7 11 25h85q-9 -54 -46.5 -89.5t-93.5 -35.5t-93.5 35.5t-46.5 89.5z" />
    <glyph glyph-name="Gdotaccent" unicode="&#x120;" horiz-adv-x="680" 
d="M540 0l-25 60q-23 -20 -49 -33q-62 -32 -131 -32q-125 0 -215 93t-90 227t90 227t215 93q104 0 180.5 -65.5t99.5 -159.5h-125q-13 45 -54 77.5t-101 32.5q-76 0 -130.5 -58.5t-54.5 -146.5t54.5 -146.5t130.5 -58.5q80 0 127 57q20 25 33 58h-165v105h295v-330h-85z
M275 760q0 26 19.5 45.5t45.5 19.5t45.5 -19.5t19.5 -45.5t-19.5 -45.5t-45.5 -19.5t-45.5 19.5t-19.5 45.5z" />
    <glyph glyph-name="gdotaccent" unicode="&#x121;" horiz-adv-x="530" 
d="M50 -20h115q7 -12 19 -23q30 -22 71 -22q48 0 76.5 26t28.5 69v35q-15 -15 -32 -25q-40 -25 -88 -25q-88 0 -149 64t-61 161t61 161t149 64q47 0 95 -25q13 -7 35 -25l20 45h85v-430q0 -91 -58 -145.5t-162 -54.5q-106 0 -166 75q-25 33 -39 75zM255 125q45 0 77.5 33.5
t32.5 81.5t-32.5 81.5t-77.5 33.5q-46 0 -78 -33.5t-32 -81.5t32 -81.5t78 -33.5zM195 580q0 26 19.5 45.5t45.5 19.5t45.5 -19.5t19.5 -45.5t-19.5 -45.5t-45.5 -19.5t-45.5 19.5t-19.5 45.5z" />
    <glyph glyph-name="Gcommaaccent" unicode="&#x122;" horiz-adv-x="680" 
d="M540 0l-25 60q-23 -20 -49 -33q-62 -32 -131 -32q-125 0 -215 93t-90 227t90 227t215 93q104 0 180.5 -65.5t99.5 -159.5h-125q-13 45 -54 77.5t-101 32.5q-76 0 -130.5 -58.5t-54.5 -146.5t54.5 -146.5t130.5 -58.5q80 0 127 57q20 25 33 58h-165v105h295v-330h-85z
M305 -270l-20 25q11 7 23 19q23 23 27 46q-30 0 -47.5 16.5t-17.5 43.5q0 26 19.5 45.5t45.5 19.5q27 0 46 -20t19 -50q0 -60 -48 -108q-19 -19 -47 -37z" />
    <glyph glyph-name="gcommaaccent" unicode="&#x123;" horiz-adv-x="530" 
d="M295 725l20 -25q-11 -7 -23 -19q-23 -23 -27 -46q30 0 47.5 -16.5t17.5 -43.5q0 -26 -19.5 -45.5t-45.5 -19.5q-27 0 -46 20t-19 50q0 61 47 108q20 20 48 37zM50 -20h115q7 -12 19 -23q30 -22 71 -22q48 0 76.5 26t28.5 69v35q-15 -15 -32 -25q-40 -25 -88 -25
q-88 0 -149 64t-61 161t61 161t149 64q47 0 95 -25q13 -7 35 -25l20 45h85v-430q0 -91 -58 -145.5t-162 -54.5q-106 0 -166 75q-25 33 -39 75zM255 125q45 0 77.5 33.5t32.5 81.5t-32.5 81.5t-77.5 33.5q-46 0 -78 -33.5t-32 -81.5t32 -81.5t78 -33.5z" />
    <glyph glyph-name="Hcircumflex" unicode="&#x124;" horiz-adv-x="635" 
d="M65 0v630h120v-250h265v250h120v-630h-120v265h-265v-265h-120zM175 700l95 125h100l95 -125h-95l-50 65l-50 -65h-95z" />
    <glyph glyph-name="hcircumflex" unicode="&#x125;" horiz-adv-x="525" 
d="M55 0v630h115v-215q17 17 31 25q44 25 99 25q76 0 125.5 -53.5t49.5 -141.5v-270h-115v255q0 45 -26.5 72.5t-68.5 27.5t-68.5 -27.5t-26.5 -72.5v-255h-115zM120 700l95 125h100l95 -125h-95l-50 65l-50 -65h-95z" />
    <glyph glyph-name="Hbar" unicode="&#x126;" horiz-adv-x="685" 
d="M90 0v445h-75v100h75v85h120v-85h265v85h120v-85h75v-100h-75v-445h-120v265h-265v-265h-120zM210 380h265v65h-265v-65z" />
    <glyph glyph-name="hbar" unicode="&#x127;" horiz-adv-x="539" 
d="M69 0v465h-69v95h69v70h115v-70h116v-95h-116v-100q17 17 31 25q44 25 99 25q76 0 125.5 -53.5t49.5 -141.5v-220h-115v205q0 45 -26.5 72.5t-68.5 27.5t-68.5 -27.5t-26.5 -72.5v-205h-115z" />
    <glyph glyph-name="uni0128" unicode="&#x128;" horiz-adv-x="250" 
d="M65 0v630h120v-630h-120zM35 690h-60q0 61 25 93t65 32q33 0 67.5 -27.5t42.5 -27.5q16 0 28 14t12 36h60q0 -61 -25 -93t-65 -32q-20 0 -39 8.5t-30 19t-22 19t-19 8.5q-16 0 -28 -14t-12 -36z" />
    <glyph glyph-name="uni0129" unicode="&#x129;" horiz-adv-x="225" 
d="M55 0v460h115v-460h-115zM20 515h-60q0 61 25 93t65 32q33 0 67.5 -27.5t42.5 -27.5q16 0 28 14t12 36h60q0 -61 -25 -93t-65 -32q-34 0 -68 27.5t-42 27.5q-16 0 -28 -14t-12 -36z" />
    <glyph glyph-name="Imacron" unicode="&#x12a;" horiz-adv-x="250" 
d="M65 0v630h120v-630h-120zM-5 705v85h260v-85h-260z" />
    <glyph glyph-name="imacron" unicode="&#x12b;" horiz-adv-x="225" 
d="M55 0v460h115v-460h-115zM-20 525v85h260v-85h-260z" />
    <glyph glyph-name="Ibreve" unicode="&#x12c;" horiz-adv-x="250" 
d="M65 0v630h120v-630h-120zM-15 815h85q6 -18 11 -25q15 -25 44 -25t44 25q5 7 11 25h85q-9 -54 -46.5 -89.5t-93.5 -35.5t-93.5 35.5t-46.5 89.5z" />
    <glyph glyph-name="ibreve" unicode="&#x12d;" horiz-adv-x="225" 
d="M55 0v460h115v-460h-115zM-30 635h85q6 -18 11 -25q15 -25 44 -25t44 25q5 7 11 25h85q-9 -54 -46.5 -89.5t-93.5 -35.5t-93.5 35.5t-46.5 89.5z" />
    <glyph glyph-name="Iogonek" unicode="&#x12e;" horiz-adv-x="250" 
d="M65 0v630h120v-630h-55q-10 -14 -18 -27q-17 -30 -17 -53q0 -19 13.5 -32t36.5 -13q11 0 27 2l13 3v-57q-1 0 -7.5 -1.5t-10.5 -2.5q-15 -4 -42 -4q-48 0 -76.5 25.5t-28.5 64.5q0 28 22 66q14 20 23 29z" />
    <glyph glyph-name="iogonek" unicode="&#x12f;" horiz-adv-x="225" 
d="M55 0v460h115v-460h-50q-10 -14 -18 -27q-17 -30 -17 -53q0 -19 13.5 -32t36.5 -13q11 0 27 2l13 3v-57q-1 0 -7.5 -1.5t-10.5 -2.5q-15 -4 -42 -4q-48 0 -76.5 25.5t-28.5 64.5q0 28 22 66q14 20 23 29zM115 515q-26 0 -45.5 19.5t-19.5 45.5t19.5 45.5t45.5 19.5
t45.5 -19.5t19.5 -45.5t-19.5 -45.5t-45.5 -19.5z" />
    <glyph glyph-name="Idot" unicode="&#x130;" horiz-adv-x="250" 
d="M65 0v630h120v-630h-120zM60 755q0 26 19.5 45.5t45.5 19.5t45.5 -19.5t19.5 -45.5t-19.5 -45.5t-45.5 -19.5t-45.5 19.5t-19.5 45.5z" />
    <glyph glyph-name="dotlessi" unicode="&#x131;" horiz-adv-x="225" 
d="M55 0v460h115v-460h-115z" />
    <glyph glyph-name="uni0132" unicode="&#x132;" horiz-adv-x="710" 
d="M65 0v630h120v-630h-120zM235 195h120q0 -38 23.5 -61.5t61.5 -23.5t61.5 23.5t23.5 61.5v435h120v-435q0 -90 -56 -145t-149 -55t-149 55t-56 145z" />
    <glyph glyph-name="uni0133" unicode="&#x133;" horiz-adv-x="460" 
d="M55 0v460h115v-460h-115zM115 515q-26 0 -45.5 19.5t-19.5 45.5t19.5 45.5t45.5 19.5t45.5 -19.5t19.5 -45.5t-19.5 -45.5t-45.5 -19.5zM195 -155v100l7 -3q14 -2 23 -2q30 0 47.5 17.5t17.5 47.5v455h115v-460q0 -74 -43 -119.5t-112 -45.5q-21 0 -39 5q-6 1 -16 5z
M350 515q-26 0 -45.5 19.5t-19.5 45.5t19.5 45.5t45.5 19.5t45.5 -19.5t19.5 -45.5t-19.5 -45.5t-45.5 -19.5z" />
    <glyph glyph-name="Jcircumflex" unicode="&#x134;" horiz-adv-x="485" 
d="M10 195h120q0 -38 23.5 -61.5t61.5 -23.5t61.5 23.5t23.5 61.5v435h120v-435q0 -90 -56 -145t-149 -55t-149 55t-56 145zM215 700l95 125h100l95 -125h-95l-50 65l-50 -65h-95z" />
    <glyph glyph-name="jcircumflex" unicode="&#x135;" horiz-adv-x="225" 
d="M-40 -155v100l7 -3q14 -2 23 -2q30 0 47.5 17.5t17.5 47.5v455h115v-460q0 -74 -43 -119.5t-112 -45.5q-21 0 -39 5q-6 1 -16 5zM-35 520l95 125h100l95 -125h-95l-50 65l-50 -65h-95z" />
    <glyph glyph-name="Kcommaaccent" unicode="&#x136;" horiz-adv-x="540" 
d="M65 0v630h120v-280l210 280h140l-235 -310l250 -320h-140l-225 285v-285h-120zM260 -270l-20 25q11 7 23 19q23 23 27 46q-30 0 -47.5 16.5t-17.5 43.5q0 26 19.5 45.5t45.5 19.5q27 0 46 -20t19 -50q0 -60 -48 -108q-19 -19 -47 -37z" />
    <glyph glyph-name="kcommaaccent" unicode="&#x137;" horiz-adv-x="450" 
d="M55 0v630h115v-360l140 190h130l-165 -220l185 -240h-130l-160 210v-210h-115zM210 -270l-20 25q11 7 23 19q23 23 27 46q-30 0 -47.5 16.5t-17.5 43.5q0 26 19.5 45.5t45.5 19.5q27 0 46 -20t19 -50q0 -60 -48 -108q-19 -19 -47 -37z" />
    <glyph glyph-name="Lacute" unicode="&#x139;" horiz-adv-x="495" 
d="M65 0v630h120v-515h295v-115h-415zM80 700l65 125h110l-90 -125h-85z" />
    <glyph glyph-name="lacute" unicode="&#x13a;" horiz-adv-x="225" 
d="M55 0v630h115v-630h-115zM70 700l65 125h110l-90 -125h-85z" />
    <glyph glyph-name="Lcommaaccent" unicode="&#x13b;" horiz-adv-x="495" 
d="M65 0v630h120v-515h295v-115h-415zM255 -270l-20 25q11 7 23 19q23 23 27 46q-30 0 -47.5 16.5t-17.5 43.5q0 26 19.5 45.5t45.5 19.5q27 0 46 -20t19 -50q0 -60 -48 -108q-19 -19 -47 -37z" />
    <glyph glyph-name="lcommaaccent" unicode="&#x13c;" horiz-adv-x="225" 
d="M55 0v630h115v-630h-115zM80 -270l-20 25q11 7 23 19q23 23 27 46q-30 0 -47.5 16.5t-17.5 43.5q0 26 19.5 45.5t45.5 19.5q27 0 46 -20t19 -50q0 -60 -48 -108q-19 -19 -47 -37z" />
    <glyph glyph-name="Lcaron" unicode="&#x13d;" horiz-adv-x="495" 
d="M230 505l35 125h100l-60 -125h-75zM65 0v630h120v-515h295v-115h-415z" />
    <glyph glyph-name="lcaron" unicode="&#x13e;" horiz-adv-x="300" 
d="M215 505l35 125h100l-60 -125h-75zM55 0v630h115v-630h-115z" />
    <glyph glyph-name="Ldot" unicode="&#x13f;" horiz-adv-x="495" 
d="M65 0v630h120v-515h295v-115h-415zM310 345q0 26 19.5 45.5t45.5 19.5t45.5 -19.5t19.5 -45.5t-19.5 -45.5t-45.5 -19.5t-45.5 19.5t-19.5 45.5z" />
    <glyph glyph-name="ldot" unicode="&#x140;" horiz-adv-x="375" 
d="M55 0v630h115v-630h-115zM235 310q0 26 19.5 45.5t45.5 19.5t45.5 -19.5t19.5 -45.5t-19.5 -45.5t-45.5 -19.5t-45.5 19.5t-19.5 45.5z" />
    <glyph glyph-name="Lslash" unicode="&#x141;" 
d="M80 0v175l-70 -45v110l70 45v345h120v-265l140 90v-110l-140 -90v-140h295v-115h-415z" />
    <glyph glyph-name="lslash" unicode="&#x142;" horiz-adv-x="285" 
d="M85 0v230l-75 -50v110l75 50v290h115v-215l75 50v-110l-75 -50v-305h-115z" />
    <glyph glyph-name="Nacute" unicode="&#x143;" horiz-adv-x="635" 
d="M65 0v630h105l280 -410v410h120v-630h-105l-280 410v-410h-120zM270 700l65 125h110l-90 -125h-85z" />
    <glyph glyph-name="nacute" unicode="&#x144;" horiz-adv-x="525" 
d="M55 0v460h85l20 -45q18 15 37 25q48 25 93 25q83 0 134 -53t51 -142v-270h-115v255q0 45 -26.5 72.5t-68.5 27.5t-68.5 -27.5t-26.5 -72.5v-255h-115zM225 520l65 125h110l-90 -125h-85z" />
    <glyph glyph-name="Ncommaaccent" unicode="&#x145;" horiz-adv-x="635" 
d="M65 0v630h105l280 -410v410h120v-630h-105l-280 410v-410h-120zM295 -270l-20 25q11 7 23 19q23 23 27 46q-30 0 -47.5 16.5t-17.5 43.5q0 26 19.5 45.5t45.5 19.5q27 0 46 -20t19 -50q0 -60 -48 -108q-19 -19 -47 -37z" />
    <glyph glyph-name="ncommaaccent" unicode="&#x146;" horiz-adv-x="525" 
d="M55 0v460h85l20 -45q18 15 37 25q48 25 93 25q83 0 134 -53t51 -142v-270h-115v255q0 45 -26.5 72.5t-68.5 27.5t-68.5 -27.5t-26.5 -72.5v-255h-115zM235 -270l-20 25q11 7 23 19q23 23 27 46q-30 0 -47.5 16.5t-17.5 43.5q0 26 19.5 45.5t45.5 19.5q27 0 46 -20t19 -50
q0 -60 -48 -108q-19 -19 -47 -37z" />
    <glyph glyph-name="Ncaron" unicode="&#x147;" horiz-adv-x="635" 
d="M65 0v630h105l280 -410v410h120v-630h-105l-280 410v-410h-120zM270 700l-95 125h95l50 -65l50 65h95l-95 -125h-100z" />
    <glyph glyph-name="ncaron" unicode="&#x148;" horiz-adv-x="525" 
d="M55 0v460h85l20 -45q18 15 37 25q48 25 93 25q83 0 134 -53t51 -142v-270h-115v255q0 45 -26.5 72.5t-68.5 27.5t-68.5 -27.5t-26.5 -72.5v-255h-115zM220 520l-95 125h95l50 -65l50 65h95l-95 -125h-100z" />
    <glyph glyph-name="napostrophe" unicode="&#x149;" horiz-adv-x="580" 
d="M110 0v460h85l20 -45q18 15 37 25q48 25 93 25q83 0 134 -53t51 -142v-270h-115v255q0 45 -26.5 72.5t-68.5 27.5t-68.5 -27.5t-26.5 -72.5v-255h-115zM30 410l-20 25q11 7 23 19q23 23 27 46q-30 0 -47.5 16.5t-17.5 43.5q0 26 19.5 45.5t45.5 19.5q27 0 46 -20t19 -50
q0 -60 -48 -108q-19 -19 -47 -37z" />
    <glyph glyph-name="Eng" unicode="&#x14a;" horiz-adv-x="635" 
d="M65 0v630h105l280 -410v410h120v-680q0 -79 -55 -132t-140 -53q-82 0 -138.5 54.5t-56.5 130.5h120q0 -34 20.5 -54.5t54.5 -20.5t54.5 20.5t20.5 54.5v70l-265 390v-410h-120z" />
    <glyph glyph-name="eng" unicode="&#x14b;" horiz-adv-x="525" 
d="M55 0v460h85l20 -45q18 15 37 25q48 25 93 25q83 0 134 -53t51 -142v-275q0 -74 -43 -119.5t-112 -45.5q-30 0 -45 7q-13 7 -15 8v95l10 -3q14 -2 25 -2q30 0 47.5 17.5t17.5 47.5v255q0 45 -26.5 72.5t-68.5 27.5t-68.5 -27.5t-26.5 -72.5v-255h-115z" />
    <glyph glyph-name="Omacron" unicode="&#x14c;" horiz-adv-x="670" 
d="M335 520q-76 0 -130.5 -58.5t-54.5 -146.5t54.5 -146.5t130.5 -58.5t130.5 58.5t54.5 146.5t-54.5 146.5t-130.5 58.5zM335 635q125 0 215 -93t90 -227t-90 -227t-215 -93t-215 93t-90 227t90 227t215 93zM205 705v85h260v-85h-260z" />
    <glyph glyph-name="omacron" unicode="&#x14d;" horiz-adv-x="520" 
d="M260 355q-50 0 -82.5 -34.5t-32.5 -90.5t32.5 -90.5t82.5 -34.5t82.5 34.5t32.5 90.5t-32.5 90.5t-82.5 34.5zM260 465q94 0 162 -69t68 -166t-68 -166t-162 -69t-162 69t-68 166t68 166t162 69zM130 525v85h260v-85h-260z" />
    <glyph glyph-name="Obreve" unicode="&#x14e;" horiz-adv-x="670" 
d="M335 520q-76 0 -130.5 -58.5t-54.5 -146.5t54.5 -146.5t130.5 -58.5t130.5 58.5t54.5 146.5t-54.5 146.5t-130.5 58.5zM335 635q125 0 215 -93t90 -227t-90 -227t-215 -93t-215 93t-90 227t90 227t215 93zM195 815h85q6 -18 11 -25q15 -25 44 -25t44 25q5 7 11 25h85
q-9 -54 -46.5 -89.5t-93.5 -35.5t-93.5 35.5t-46.5 89.5z" />
    <glyph glyph-name="obreve" unicode="&#x14f;" horiz-adv-x="520" 
d="M260 355q-50 0 -82.5 -34.5t-32.5 -90.5t32.5 -90.5t82.5 -34.5t82.5 34.5t32.5 90.5t-32.5 90.5t-82.5 34.5zM260 465q94 0 162 -69t68 -166t-68 -166t-162 -69t-162 69t-68 166t68 166t162 69zM120 635h85q6 -18 11 -25q15 -25 44 -25t44 25q5 7 11 25h85
q-9 -54 -46.5 -89.5t-93.5 -35.5t-93.5 35.5t-46.5 89.5z" />
    <glyph glyph-name="Ohungarumlaut" unicode="&#x150;" horiz-adv-x="670" 
d="M335 520q-76 0 -130.5 -58.5t-54.5 -146.5t54.5 -146.5t130.5 -58.5t130.5 58.5t54.5 146.5t-54.5 146.5t-130.5 58.5zM335 635q125 0 215 -93t90 -227t-90 -227t-215 -93t-215 93t-90 227t90 227t215 93zM215 700l70 125h110l-95 -125h-85zM375 700l70 125h110l-95 -125
h-85z" />
    <glyph glyph-name="ohungarumlaut" unicode="&#x151;" horiz-adv-x="520" 
d="M260 355q-50 0 -82.5 -34.5t-32.5 -90.5t32.5 -90.5t82.5 -34.5t82.5 34.5t32.5 90.5t-32.5 90.5t-82.5 34.5zM260 465q94 0 162 -69t68 -166t-68 -166t-162 -69t-162 69t-68 166t68 166t162 69zM140 520l70 125h110l-95 -125h-85zM300 520l70 125h110l-95 -125h-85z" />
    <glyph glyph-name="OE" unicode="&#x152;" horiz-adv-x="840" 
d="M515 115h290v-115h-465q-124 0 -217 94t-93 221t93 221t217 94h455v-115h-280v-135h255v-115h-255v-150zM340 115h55v400h-55q-76 0 -133 -59.5t-57 -140.5t57 -140.5t133 -59.5z" />
    <glyph glyph-name="oe" unicode="&#x153;" horiz-adv-x="820" 
d="M655 140h120q-19 -61 -72.5 -103t-127.5 -42q-61 0 -115 40q-26 21 -40 40q-17 -19 -46 -40q-58 -40 -124 -40q-88 0 -154 69.5t-66 165.5t66 165.5t154 69.5q66 0 124 -40q29 -21 46 -40q17 21 42 40q54 40 113 40q91 0 153 -67t62 -168q0 -3 -3 -30l-2 -15h-315
q20 -80 105 -80q37 0 62 17q11 8 18 18zM250 105q43 0 74 35t31 90t-31 90t-74 35t-74 -35t-31 -90t31 -90t74 -35zM470 270h210q-9 40 -36.5 65t-68.5 25t-68.5 -25t-36.5 -65z" />
    <glyph glyph-name="Racute" unicode="&#x154;" horiz-adv-x="560" 
d="M65 0v630h250q89 0 149.5 -57.5t60.5 -137.5q0 -89 -68 -145q-32 -28 -67 -40l150 -250h-135l-130 230h-90v-230h-120zM185 345h130q38 0 64 25.5t26 59.5t-26 59.5t-64 25.5h-130v-170zM230 700l65 125h110l-90 -125h-85z" />
    <glyph glyph-name="racute" unicode="&#x155;" horiz-adv-x="325" 
d="M55 0v460h85l20 -50q11 14 29 27q35 28 81 28q4 0 25 -3l10 -2v-120l-11 2q-21 3 -29 3q-42 0 -68.5 -27.5t-26.5 -72.5v-245h-115zM140 520l65 125h110l-90 -125h-85z" />
    <glyph glyph-name="Rcommaaccent" unicode="&#x156;" horiz-adv-x="560" 
d="M65 0v630h250q89 0 149.5 -57.5t60.5 -137.5q0 -89 -68 -145q-32 -28 -67 -40l150 -250h-135l-130 230h-90v-230h-120zM185 345h130q38 0 64 25.5t26 59.5t-26 59.5t-64 25.5h-130v-170zM265 -270l-20 25q11 7 23 19q23 23 27 46q-30 0 -47.5 16.5t-17.5 43.5
q0 26 19.5 45.5t45.5 19.5q27 0 46 -20t19 -50q0 -60 -48 -108q-19 -19 -47 -37z" />
    <glyph glyph-name="rcommaaccent" unicode="&#x157;" horiz-adv-x="325" 
d="M55 0v460h85l20 -50q11 14 29 27q35 28 81 28q4 0 25 -3l10 -2v-120l-11 2q-21 3 -29 3q-42 0 -68.5 -27.5t-26.5 -72.5v-245h-115zM85 -270l-20 25q11 7 23 19q23 23 27 46q-30 0 -47.5 16.5t-17.5 43.5q0 26 19.5 45.5t45.5 19.5q27 0 46 -20t19 -50q0 -60 -48 -108
q-19 -19 -47 -37z" />
    <glyph glyph-name="Rcaron" unicode="&#x158;" horiz-adv-x="560" 
d="M65 0v630h250q89 0 149.5 -57.5t60.5 -137.5q0 -89 -68 -145q-32 -28 -67 -40l150 -250h-135l-130 230h-90v-230h-120zM185 345h130q38 0 64 25.5t26 59.5t-26 59.5t-64 25.5h-130v-170zM235 700l-95 125h95l50 -65l50 65h95l-95 -125h-100z" />
    <glyph glyph-name="rcaron" unicode="&#x159;" horiz-adv-x="325" 
d="M55 0v460h85l20 -50q11 14 29 27q35 28 81 28q4 0 25 -3l10 -2v-120l-11 2q-21 3 -29 3q-42 0 -68.5 -27.5t-26.5 -72.5v-245h-115zM135 520l-95 125h95l50 -65l50 65h95l-95 -125h-100z" />
    <glyph glyph-name="Sacute" unicode="&#x15a;" horiz-adv-x="520" 
d="M35 200h120q0 -43 28.5 -69t76.5 -26q51 0 78 21.5t27 53.5q0 27 -24 45.5t-60 28t-78.5 24.5t-78.5 33t-60 55t-24 88q0 75 61 128t159 53q93 0 151.5 -56.5t58.5 -143.5h-115q0 42 -25 66t-70 24q-43 0 -69 -21t-26 -49q0 -25 24 -43t60 -27t78.5 -25t78.5 -35
t60 -57.5t24 -92.5q0 -71 -65 -125.5t-165 -54.5q-104 0 -164.5 57t-60.5 148zM220 700l65 125h110l-90 -125h-85z" />
    <glyph glyph-name="sacute" unicode="&#x15b;" horiz-adv-x="420" 
d="M30 145h110q4 -24 22.5 -39.5t47.5 -15.5t47 15t18 35q0 15 -17.5 25.5t-43.5 16t-56.5 16t-56.5 23.5t-43.5 40t-17.5 64q0 58 46 99t119 41q80 0 125.5 -38.5t54.5 -101.5h-110q-4 17 -22.5 31t-42.5 14q-25 0 -40 -13t-15 -32q0 -17 24 -28t58.5 -20t69.5 -22.5
t59 -43.5t24 -76q0 -58 -47 -99t-123 -41q-88 0 -135.5 40t-54.5 110zM165 520l65 125h110l-90 -125h-85z" />
    <glyph glyph-name="Scircumflex" unicode="&#x15c;" horiz-adv-x="520" 
d="M35 200h120q0 -43 28.5 -69t76.5 -26q51 0 78 21.5t27 53.5q0 27 -24 45.5t-60 28t-78.5 24.5t-78.5 33t-60 55t-24 88q0 75 61 128t159 53q93 0 151.5 -56.5t58.5 -143.5h-115q0 42 -25 66t-70 24q-43 0 -69 -21t-26 -49q0 -25 24 -43t60 -27t78.5 -25t78.5 -35
t60 -57.5t24 -92.5q0 -71 -65 -125.5t-165 -54.5q-104 0 -164.5 57t-60.5 148zM110 697l95 125h100l95 -125h-95l-50 65l-50 -65h-95z" />
    <glyph glyph-name="scircumflex" unicode="&#x15d;" horiz-adv-x="420" 
d="M30 145h110q4 -24 22.5 -39.5t47.5 -15.5t47 15t18 35q0 15 -17.5 25.5t-43.5 16t-56.5 16t-56.5 23.5t-43.5 40t-17.5 64q0 58 46 99t119 41q80 0 125.5 -38.5t54.5 -101.5h-110q-4 17 -22.5 31t-42.5 14q-25 0 -40 -13t-15 -32q0 -17 24 -28t58.5 -20t69.5 -22.5
t59 -43.5t24 -76q0 -58 -47 -99t-123 -41q-88 0 -135.5 40t-54.5 110zM70 520l95 125h100l95 -125h-95l-50 65l-50 -65h-95z" />
    <glyph glyph-name="Scedilla" unicode="&#x15e;" horiz-adv-x="520" 
d="M185 -180v45l12 -3q14 -2 28 -2q23 0 36.5 8.5t13.5 21.5q0 12 -12.5 21t-37.5 9q-5 0 -11 -1t-10 -3l-4 -1l35 80q-91 8 -145.5 63.5t-54.5 141.5h120q0 -43 28.5 -69t76.5 -26q51 0 78 21.5t27 53.5q0 27 -24 45.5t-60 28t-78.5 24.5t-78.5 33t-60 55t-24 88
q0 75 61 128t159 53q93 0 151.5 -56.5t58.5 -143.5h-115q0 42 -25 66t-70 24q-43 0 -69 -21t-26 -49q0 -25 24 -43t60 -27t78.5 -25t78.5 -35t60 -57.5t24 -92.5q0 -65 -58.5 -118.5t-146.5 -61.5l-15 -35q22 -3 37 -13q38 -22 38 -62q0 -33 -25.5 -54t-79.5 -21
q-21 0 -39 5q-6 1 -16 5z" />
    <glyph glyph-name="scedilla" unicode="&#x15f;" horiz-adv-x="420" 
d="M140 -180v45l12 -3q14 -2 28 -2q23 0 36.5 8.5t13.5 21.5q0 12 -12.5 21t-37.5 9q-5 0 -11 -1t-10 -3l-4 -1l30 80q-140 15 -155 150h110q4 -24 22.5 -39.5t47.5 -15.5t47 15t18 35q0 15 -17.5 25.5t-43.5 16t-56.5 16t-56.5 23.5t-43.5 40t-17.5 64q0 58 46 99t119 41
q80 0 125.5 -38.5t54.5 -101.5h-110q-4 17 -22.5 31t-42.5 14q-25 0 -40 -13t-15 -32q0 -17 24 -28t58.5 -20t69.5 -22.5t59 -43.5t24 -76q0 -53 -41.5 -92.5t-108.5 -47.5l-15 -35q22 -3 37 -13q38 -22 38 -62q0 -33 -25.5 -54t-79.5 -21q-21 0 -39 5q-6 1 -16 5z" />
    <glyph glyph-name="Scaron" unicode="&#x160;" horiz-adv-x="520" 
d="M35 200h120q0 -43 28.5 -69t76.5 -26q51 0 78 21.5t27 53.5q0 27 -24 45.5t-60 28t-78.5 24.5t-78.5 33t-60 55t-24 88q0 75 61 128t159 53q93 0 151.5 -56.5t58.5 -143.5h-115q0 42 -25 66t-70 24q-43 0 -69 -21t-26 -49q0 -25 24 -43t60 -27t78.5 -25t78.5 -35
t60 -57.5t24 -92.5q0 -71 -65 -125.5t-165 -54.5q-104 0 -164.5 57t-60.5 148zM205 700l-95 125h95l50 -65l50 65h95l-95 -125h-100z" />
    <glyph glyph-name="scaron" unicode="&#x161;" horiz-adv-x="420" 
d="M30 145h110q4 -24 22.5 -39.5t47.5 -15.5t47 15t18 35q0 15 -17.5 25.5t-43.5 16t-56.5 16t-56.5 23.5t-43.5 40t-17.5 64q0 58 46 99t119 41q80 0 125.5 -38.5t54.5 -101.5h-110q-4 17 -22.5 31t-42.5 14q-25 0 -40 -13t-15 -32q0 -17 24 -28t58.5 -20t69.5 -22.5
t59 -43.5t24 -76q0 -58 -47 -99t-123 -41q-88 0 -135.5 40t-54.5 110zM165 520l-95 125h95l50 -65l50 65h95l-95 -125h-100z" />
    <glyph glyph-name="Tcommaaccent" unicode="&#x162;" horiz-adv-x="520" 
d="M200 0v515h-185v115h490v-115h-185v-515h-120zM235 -270l-20 25q11 7 23 19q23 23 27 46q-30 0 -47.5 16.5t-17.5 43.5q0 26 19.5 45.5t45.5 19.5q27 0 46 -20t19 -50q0 -60 -48 -108q-19 -19 -47 -37z" />
    <glyph glyph-name="tcommaaccent" unicode="&#x163;" horiz-adv-x="345" 
d="M90 160v195h-70v95h30q55 0 55 55v65h100v-110h100v-105h-100v-190q0 -30 17.5 -47.5t47.5 -17.5q12 0 22 2l8 3v-100q-10 -4 -16 -5q-18 -5 -39 -5q-69 0 -112 45.5t-43 119.5zM170 -270l-20 25q11 7 23 19q23 23 27 46q-30 0 -47.5 16.5t-17.5 43.5q0 26 19.5 45.5
t45.5 19.5q27 0 46 -20t19 -50q0 -60 -48 -108q-19 -19 -47 -37z" />
    <glyph glyph-name="Tcaron" unicode="&#x164;" horiz-adv-x="520" 
d="M200 0v515h-185v115h490v-115h-185v-515h-120zM210 700l-95 125h95l50 -65l50 65h95l-95 -125h-100z" />
    <glyph glyph-name="tcaron" unicode="&#x165;" horiz-adv-x="380" 
d="M295 505l35 125h100l-60 -125h-75zM90 160v195h-70v95h30q55 0 55 55v65h100v-110h100v-105h-100v-190q0 -30 17.5 -47.5t47.5 -17.5q12 0 22 2l8 3v-100q-10 -4 -16 -5q-18 -5 -39 -5q-69 0 -112 45.5t-43 119.5z" />
    <glyph glyph-name="Tbar" unicode="&#x166;" horiz-adv-x="520" 
d="M200 0v290h-100v100h100v125h-185v115h490v-115h-185v-125h100v-100h-100v-290h-120z" />
    <glyph glyph-name="tbar" unicode="&#x167;" horiz-adv-x="346" 
d="M20 220v95h70v40h-70v95h30q55 0 55 55v65h100v-110h100v-105h-100v-40h101v-95h-101v-55q0 -30 17.5 -47.5t47.5 -17.5q12 0 22 2l8 3v-100q-10 -4 -16 -5q-18 -5 -39 -5q-69 0 -112 45.5t-43 119.5v60h-70z" />
    <glyph glyph-name="uni0168" unicode="&#x168;" horiz-adv-x="620" 
d="M60 240v390h120v-390q0 -60 35 -95t95 -35t95 35t35 95v390h120v-390q0 -105 -71 -175t-179 -70t-179 70t-71 175zM220 690h-60q0 61 25 93t65 32q33 0 67.5 -27.5t42.5 -27.5q16 0 28 14t12 36h60q0 -61 -25 -93t-65 -32q-34 0 -68 27.5t-42 27.5q-16 0 -28 -14t-12 -36
z" />
    <glyph glyph-name="uni0169" unicode="&#x169;" horiz-adv-x="530" 
d="M55 190v270h115v-255q0 -45 26.5 -72.5t68.5 -27.5t68.5 27.5t26.5 72.5v255h115v-460h-85l-20 45q-18 -15 -37 -25q-44 -25 -93 -25q-83 0 -134 53t-51 142zM175 515h-60q0 61 25 93t65 32q33 0 67.5 -27.5t42.5 -27.5q16 0 28 14t12 36h60q0 -61 -25 -93t-65 -32
q-26 0 -48 14t-37.5 27.5t-24.5 13.5q-16 0 -28 -14t-12 -36z" />
    <glyph glyph-name="Umacron" unicode="&#x16a;" horiz-adv-x="620" 
d="M60 240v390h120v-390q0 -60 35 -95t95 -35t95 35t35 95v390h120v-390q0 -105 -71 -175t-179 -70t-179 70t-71 175zM180 705v85h260v-85h-260z" />
    <glyph glyph-name="umacron" unicode="&#x16b;" horiz-adv-x="530" 
d="M55 190v270h115v-255q0 -45 26.5 -72.5t68.5 -27.5t68.5 27.5t26.5 72.5v255h115v-460h-85l-20 45q-18 -15 -37 -25q-44 -25 -93 -25q-83 0 -134 53t-51 142zM135 525v85h260v-85h-260z" />
    <glyph glyph-name="Ubreve" unicode="&#x16c;" horiz-adv-x="620" 
d="M60 240v390h120v-390q0 -60 35 -95t95 -35t95 35t35 95v390h120v-390q0 -105 -71 -175t-179 -70t-179 70t-71 175zM170 815h85q6 -18 11 -25q15 -25 44 -25t44 25q5 7 11 25h85q-9 -54 -46.5 -89.5t-93.5 -35.5t-93.5 35.5t-46.5 89.5z" />
    <glyph glyph-name="ubreve" unicode="&#x16d;" horiz-adv-x="530" 
d="M55 190v270h115v-255q0 -45 26.5 -72.5t68.5 -27.5t68.5 27.5t26.5 72.5v255h115v-460h-85l-20 45q-18 -15 -37 -25q-44 -25 -93 -25q-83 0 -134 53t-51 142zM125 635h85q6 -18 11 -25q15 -25 44 -25t44 25q5 7 11 25h85q-9 -54 -46.5 -89.5t-93.5 -35.5t-93.5 35.5
t-46.5 89.5z" />
    <glyph glyph-name="Uring" unicode="&#x16e;" horiz-adv-x="620" 
d="M60 240v390h120v-390q0 -60 35 -95t95 -35t95 35t35 95v390h120v-390q0 -105 -71 -175t-179 -70t-179 70t-71 175zM345 765q0 15 -10 25t-25 10t-25 -10t-10 -25t10 -25t25 -10t25 10t10 25zM215 765q0 39 26.5 64.5t68.5 25.5t68.5 -25.5t26.5 -64.5t-26.5 -64.5
t-68.5 -25.5t-68.5 25.5t-26.5 64.5z" />
    <glyph glyph-name="uring" unicode="&#x16f;" horiz-adv-x="530" 
d="M55 190v270h115v-255q0 -45 26.5 -72.5t68.5 -27.5t68.5 27.5t26.5 72.5v255h115v-460h-85l-20 45q-18 -15 -37 -25q-44 -25 -93 -25q-83 0 -134 53t-51 142zM300 590q0 15 -10 25t-25 10t-25 -10t-10 -25t10 -25t25 -10t25 10t10 25zM170 590q0 39 26.5 64.5t68.5 25.5
t68.5 -25.5t26.5 -64.5t-26.5 -64.5t-68.5 -25.5t-68.5 25.5t-26.5 64.5z" />
    <glyph glyph-name="Uhungarumlaut" unicode="&#x170;" horiz-adv-x="620" 
d="M60 240v390h120v-390q0 -60 35 -95t95 -35t95 35t35 95v390h120v-390q0 -105 -71 -175t-179 -70t-179 70t-71 175zM180 700l70 125h110l-95 -125h-85zM340 700l70 125h110l-95 -125h-85z" />
    <glyph glyph-name="uhungarumlaut" unicode="&#x171;" horiz-adv-x="530" 
d="M55 190v270h115v-255q0 -45 26.5 -72.5t68.5 -27.5t68.5 27.5t26.5 72.5v255h115v-460h-85l-20 45q-18 -15 -37 -25q-44 -25 -93 -25q-83 0 -134 53t-51 142zM140 520l70 125h110l-95 -125h-85zM300 520l70 125h110l-95 -125h-85z" />
    <glyph glyph-name="Uogonek" unicode="&#x172;" horiz-adv-x="620" 
d="M410 -120v-57q-1 0 -7.5 -1.5t-10.5 -2.5q-15 -4 -42 -4q-48 0 -76.5 25.5t-28.5 64.5q0 31 20 62q6 10 20 28q-99 8 -162 75t-63 170v390h120v-390q0 -60 35 -95t95 -35t95 35t35 95v390h120v-390q0 -99 -60 -166t-150 -79q-8 -10 -15 -23q-15 -28 -15 -52
q0 -19 13.5 -32t36.5 -13q11 0 27 2z" />
    <glyph glyph-name="uogonek" unicode="&#x173;" horiz-adv-x="530" 
d="M55 190v270h115v-255q0 -45 26.5 -72.5t68.5 -27.5t68.5 27.5t26.5 72.5v255h115v-460h-20q-11 -14 -18 -27q-17 -30 -17 -53q0 -19 13.5 -32t36.5 -13q11 0 27 2l13 3v-57q-1 0 -7.5 -1.5t-10.5 -2.5q-15 -4 -42 -4q-48 0 -76.5 25.5t-28.5 64.5q0 28 22 66q14 20 23 29
l-20 45q-18 -15 -37 -25q-44 -25 -93 -25q-83 0 -134 53t-51 142z" />
    <glyph glyph-name="Wcircumflex" unicode="&#x174;" horiz-adv-x="830" 
d="M205 0l-200 630h120l125 -410l130 410h70l130 -410l125 410h120l-200 -630h-85l-125 395l-125 -395h-85zM270 700l95 125h100l95 -125h-95l-50 65l-50 -65h-95z" />
    <glyph glyph-name="wcircumflex" unicode="&#x175;" horiz-adv-x="680" 
d="M155 0l-150 460h115l90 -295l95 295h70l95 -295l90 295h115l-150 -460h-100l-85 275l-85 -275h-100zM195 521l95 125h100l95 -125h-95l-50 65l-50 -65h-95z" />
    <glyph glyph-name="Ycircumflex" unicode="&#x176;" horiz-adv-x="540" 
d="M210 0v240l-205 390h130l135 -270l135 270h130l-205 -390v-240h-120zM125 700l95 125h100l95 -125h-95l-50 65l-50 -65h-95z" />
    <glyph glyph-name="ycircumflex" unicode="&#x177;" horiz-adv-x="470" 
d="M80 -160v95q64 0 90 60l10 25l-175 440h120l115 -300l105 300h120l-89 -228q-95 -246 -96 -247q-34 -83 -69 -116.5t-91 -33.5q-14 0 -28 2zM95 520l95 125h100l95 -125h-95l-50 65l-50 -65h-95z" />
    <glyph glyph-name="Ydieresis" unicode="&#x178;" horiz-adv-x="540" 
d="M210 0v240l-205 390h130l135 -270l135 270h130l-205 -390v-240h-120zM115 755q0 26 19.5 45.5t45.5 19.5t45.5 -19.5t19.5 -45.5t-19.5 -45.5t-45.5 -19.5t-45.5 19.5t-19.5 45.5zM295 755q0 26 19.5 45.5t45.5 19.5t45.5 -19.5t19.5 -45.5t-19.5 -45.5t-45.5 -19.5
t-45.5 19.5t-19.5 45.5z" />
    <glyph glyph-name="Zacute" unicode="&#x179;" horiz-adv-x="515" 
d="M30 0v95l285 420h-275v115h430v-95l-285 -420h300v-115h-455zM215 700l65 125h110l-90 -125h-85z" />
    <glyph glyph-name="zacute" unicode="&#x17a;" horiz-adv-x="415" 
d="M30 0v95l200 255h-200v110h345v-95l-200 -255h210v-110h-355zM160 520l65 125h110l-90 -125h-85z" />
    <glyph glyph-name="Zdotaccent" unicode="&#x17b;" horiz-adv-x="515" 
d="M30 0v95l285 420h-275v115h430v-95l-285 -420h300v-115h-455zM195 755q0 26 19.5 45.5t45.5 19.5t45.5 -19.5t19.5 -45.5t-19.5 -45.5t-45.5 -19.5t-45.5 19.5t-19.5 45.5z" />
    <glyph glyph-name="zdotaccent" unicode="&#x17c;" horiz-adv-x="415" 
d="M30 0v95l200 255h-200v110h345v-95l-200 -255h210v-110h-355zM145 580q0 26 19.5 45.5t45.5 19.5t45.5 -19.5t19.5 -45.5t-19.5 -45.5t-45.5 -19.5t-45.5 19.5t-19.5 45.5z" />
    <glyph glyph-name="Zcaron" unicode="&#x17d;" horiz-adv-x="515" 
d="M30 0v95l285 420h-275v115h430v-95l-285 -420h300v-115h-455zM210 700l-95 125h95l50 -65l50 65h95l-95 -125h-100z" />
    <glyph glyph-name="zcaron" unicode="&#x17e;" horiz-adv-x="415" 
d="M30 0v95l200 255h-200v110h345v-95l-200 -255h210v-110h-355zM155 520l-95 125h95l50 -65l50 65h95l-95 -125h-100z" />
    <glyph glyph-name="uni018F" unicode="&#x18f;" horiz-adv-x="665" 
d="M34 350h481q-12 75 -64 122.5t-121 47.5q-58 0 -92 -22.5t-58 -62.5h-130q29 86 101.5 143t178.5 57q125 0 215 -93t90 -227t-90 -227t-215 -93q-129 0 -214.5 90t-85.5 230q0 9 2 23zM505 250h-345q9 -62 53 -101t117 -39q65 0 110 38.5t65 101.5z" />
    <glyph glyph-name="florin" unicode="&#x192;" horiz-adv-x="375" 
d="M-60 -155l25 100l12 -3q14 -2 28 -2q51 0 65 65l55 280h-75l20 105h75q2 5 20 90q15 80 56 117.5t119 37.5q23 0 41 -5q15 -4 19 -5l-25 -100l-13 2q-24 3 -27 3q-51 0 -65 -65q-3 -6 -9 -42l-6 -33h95l-20 -105h-95l-29 -142q-31 -140 -31 -153q-15 -80 -56 -117.5
t-119 -37.5q-21 0 -41 5q-7 1 -19 5z" />
    <glyph glyph-name="uni01A0" unicode="&#x1a0;" horiz-adv-x="680" 
d="M515 575h20q18 0 29 10t11 25q0 17 -8 39l-7 16h70q5 -6 10 -18q10 -22 10 -47q0 -51 -40 -73q-18 -11 -40 -12q17 -18 35 -51q35 -72 35 -149q0 -134 -90 -227t-215 -93t-215 93t-90 227t90 227t215 93q65 0 129 -30q28 -13 51 -30zM335 110q76 0 130.5 58.5t54.5 146.5
t-54.5 146.5t-130.5 58.5t-130.5 -58.5t-54.5 -146.5t54.5 -146.5t130.5 -58.5z" />
    <glyph glyph-name="uni01A1" unicode="&#x1a1;" horiz-adv-x="535" 
d="M400 415h15q18 0 29 10t11 25q0 17 -8 39l-7 16h70q5 -6 10 -18q10 -22 10 -47q0 -47 -38 -71q-17 -11 -37 -14q11 -18 17 -34q18 -46 18 -91q0 -97 -68 -166t-162 -69t-162 69t-68 166t68 166t162 69q52 0 102 -25q19 -10 38 -25zM260 105q50 0 82.5 34.5t32.5 90.5
t-32.5 90.5t-82.5 34.5t-82.5 -34.5t-32.5 -90.5t32.5 -90.5t82.5 -34.5z" />
    <glyph glyph-name="uni01AF" unicode="&#x1af;" horiz-adv-x="660" 
d="M60 240v390h120v-390q0 -60 35 -95t95 -35t95 35t35 95v390h120v-55h15q18 0 29 10t11 25q0 17 -8 39l-7 16h70q5 -6 10 -18q10 -22 10 -47q0 -39 -25.5 -62t-69.5 -23q-9 0 -23 2l-12 3v-280q0 -105 -71 -175t-179 -70t-179 70t-71 175z" />
    <glyph glyph-name="uni01B0" unicode="&#x1b0;" horiz-adv-x="585" 
d="M55 190v270h115v-255q0 -45 26.5 -72.5t68.5 -27.5t68.5 27.5t26.5 72.5v255h115v-45h15q18 0 29 10t11 25q0 17 -8 39l-7 16h70q5 -6 10 -18q10 -22 10 -47q0 -39 -25.5 -62t-69.5 -23q-9 0 -23 2l-12 3v-360h-85l-20 45q-18 -15 -37 -25q-44 -25 -93 -25q-83 0 -134 53
t-51 142z" />
    <glyph glyph-name="Aringacute" unicode="&#x1fa;" horiz-adv-x="570" 
d="M-5 0l235 630q-40 24 -40 75q0 39 26.5 64.5t68.5 25.5t68.5 -25.5t26.5 -64.5q0 -51 -40 -75l235 -630h-125l-45 130h-240l-45 -130h-125zM205 240h160l-80 230zM285 670q15 0 25 10t10 25t-10 25t-25 10t-25 -10t-10 -25t10 -25t25 -10zM255 815l60 115h110l-85 -115
h-85z" />
    <glyph glyph-name="aringacute" unicode="&#x1fb;" horiz-adv-x="475" 
d="M200 665l65 125h110l-90 -125h-85zM280 560q0 15 -10 25t-25 10t-25 -10t-10 -25t10 -25t25 -10t25 10t10 25zM150 560q0 39 26.5 64.5t68.5 25.5t68.5 -25.5t26.5 -64.5t-26.5 -64.5t-68.5 -25.5t-68.5 25.5t-26.5 64.5zM340 0l-20 45q-22 -18 -35 -25q-44 -25 -95 -25
q-73 0 -114 36t-41 94q0 74 63 114.5t212 40.5q0 38 -20.5 59t-54.5 21q-35 0 -58 -25q-9 -10 -12 -25h-115q9 66 60.5 110.5t134.5 44.5q78 0 129 -51t51 -129v-285h-85zM310 180v20q-95 0 -127.5 -16t-32.5 -49q0 -19 17.5 -34.5t42.5 -15.5q45 0 72.5 26.5t27.5 68.5z
" />
    <glyph glyph-name="AEacute" unicode="&#x1fc;" horiz-adv-x="825" 
d="M-35 0l345 630h470v-115h-280v-135h255v-115h-255v-150h290v-115h-410v135h-210l-75 -135h-130zM230 250h150v265h-5zM410 700l65 125h110l-90 -125h-85z" />
    <glyph glyph-name="aeacute" unicode="&#x1fd;" horiz-adv-x="775" 
d="M165 310h-115q9 66 60.5 110.5t134.5 44.5q56 0 104 -30q21 -13 36 -30q17 17 37 30q48 30 108 30q91 0 153 -67t62 -168q0 -3 -3 -30l-2 -15h-315q20 -80 105 -80q37 0 62 17q10 8 18 18h120q-19 -61 -72.5 -103t-127.5 -42q-63 0 -113 32q-22 13 -37 33
q-18 -20 -43 -33q-56 -32 -122 -32q-86 0 -133 37.5t-47 92.5q0 74 63 114.5t212 40.5q0 38 -20.5 59t-54.5 21q-35 0 -58 -25q-9 -10 -12 -25zM425 270h210q-9 40 -36.5 65t-68.5 25t-68.5 -25t-36.5 -65zM310 180v20q-95 0 -127.5 -16t-32.5 -49q0 -19 17.5 -34.5
t42.5 -15.5q45 0 72.5 26.5t27.5 68.5zM335 520l65 125h110l-90 -125h-85z" />
    <glyph glyph-name="Oslashacute" unicode="&#x1fe;" horiz-adv-x="670" 
d="M10 85l65 60q-10 16 -23 47q-22 62 -22 123q0 134 90 227t215 93q66 0 134 -33q27 -13 51 -32l60 55l80 -80l-65 -60q10 -18 22 -48q23 -65 23 -122q0 -134 -90 -227t-215 -93q-70 0 -134 32q-29 13 -51 33l-60 -55zM505 395l-270 -255q11 -9 27 -15q32 -15 73 -15
q76 0 130.5 58.5t54.5 146.5q0 29 -8 59zM165 235l270 255l-28 15q-41 15 -72 15q-76 0 -130.5 -58.5t-54.5 -146.5q0 -33 7 -59q7 -20 8 -21zM295 700l65 125h110l-90 -125h-85z" />
    <glyph glyph-name="oslashacute" unicode="&#x1ff;" horiz-adv-x="520" 
d="M80 0l-60 65l45 40q-11 17 -18 36q-17 43 -17 89q0 97 68 166t162 69q47 0 97 -23q25 -12 38 -22l45 40l60 -65l-45 -40q11 -20 17 -36q18 -46 18 -89q0 -97 -68 -166t-162 -69q-50 0 -98 22q-23 11 -37 23zM150 190l165 150l-14 7q-18 8 -41 8q-50 0 -82.5 -34.5
t-32.5 -90.5q0 -14 2 -28zM370 270l-165 -150q2 -2 7 -4.5l7 -3.5q15 -7 41 -7q50 0 82.5 34.5t32.5 90.5q0 3 -3 27zM220 520l65 125h110l-90 -125h-85z" />
    <glyph glyph-name="Scommaaccent" unicode="&#x218;" horiz-adv-x="520" 
d="M35 200h120q0 -43 28.5 -69t76.5 -26q51 0 78 21.5t27 53.5q0 27 -24 45.5t-60 28t-78.5 24.5t-78.5 33t-60 55t-24 88q0 75 61 128t159 53q93 0 151.5 -56.5t58.5 -143.5h-115q0 42 -25 66t-70 24q-43 0 -69 -21t-26 -49q0 -25 24 -43t60 -27t78.5 -25t78.5 -35
t60 -57.5t24 -92.5q0 -71 -65 -125.5t-165 -54.5q-104 0 -164.5 57t-60.5 148zM235 -270l-20 25q11 7 23 19q23 23 27 46q-30 0 -47.5 16.5t-17.5 43.5q0 26 19.5 45.5t45.5 19.5q27 0 46 -20t19 -50q0 -60 -48 -108q-19 -19 -47 -37z" />
    <glyph glyph-name="scommaaccent" unicode="&#x219;" horiz-adv-x="420" 
d="M30 145h110q4 -24 22.5 -39.5t47.5 -15.5t47 15t18 35q0 15 -17.5 25.5t-43.5 16t-56.5 16t-56.5 23.5t-43.5 40t-17.5 64q0 58 46 99t119 41q80 0 125.5 -38.5t54.5 -101.5h-110q-4 17 -22.5 31t-42.5 14q-25 0 -40 -13t-15 -32q0 -17 24 -28t58.5 -20t69.5 -22.5
t59 -43.5t24 -76q0 -58 -47 -99t-123 -41q-88 0 -135.5 40t-54.5 110zM185 -270l-20 25q11 7 23 19q23 23 27 46q-30 0 -47.5 16.5t-17.5 43.5q0 26 19.5 45.5t45.5 19.5q27 0 46 -20t19 -50q0 -60 -48 -108q-19 -19 -47 -37z" />
    <glyph glyph-name="uni021A" unicode="&#x21a;" horiz-adv-x="520" 
d="M200 0v515h-185v115h490v-115h-185v-515h-120zM235 -270l-20 25q11 7 23 19q23 23 27 46q-30 0 -47.5 16.5t-17.5 43.5q0 26 19.5 45.5t45.5 19.5q27 0 46 -20t19 -50q0 -60 -48 -108q-19 -19 -47 -37z" />
    <glyph glyph-name="uni021B" unicode="&#x21b;" horiz-adv-x="345" 
d="M90 160v195h-70v95h30q55 0 55 55v65h100v-110h100v-105h-100v-190q0 -30 17.5 -47.5t47.5 -17.5q12 0 22 2l8 3v-100q-10 -4 -16 -5q-18 -5 -39 -5q-69 0 -112 45.5t-43 119.5zM170 -270l-20 25q11 7 23 19q23 23 27 46q-30 0 -47.5 16.5t-17.5 43.5q0 26 19.5 45.5
t45.5 19.5q27 0 46 -20t19 -50q0 -60 -48 -108q-19 -19 -47 -37z" />
    <glyph glyph-name="uni0232" unicode="&#x232;" horiz-adv-x="540" 
d="M210 0v240l-205 390h130l135 -270l135 270h130l-205 -390v-240h-120zM140 705v85h260v-85h-260z" />
    <glyph glyph-name="uni0233" unicode="&#x233;" horiz-adv-x="470" 
d="M80 -160v95q64 0 90 60l10 25l-175 440h120l115 -300l105 300h120l-89 -228q-95 -246 -96 -247q-34 -83 -69 -116.5t-91 -33.5q-14 0 -28 2zM110 525v85h260v-85h-260z" />
    <glyph glyph-name="uni0244" unicode="&#x244;" horiz-adv-x="670" 
d="M85 240v90h-75v100h75v200h120v-200h260v200h120v-200h75v-100h-75v-90q0 -105 -71 -175t-179 -70t-179 70t-71 175zM205 330v-90q0 -60 35 -95t95 -35t95 35t35 95v90h-260z" />
    <glyph glyph-name="uni0259" unicode="&#x259;" 
d="M35 275h320q-20 80 -105 80q-35 0 -65 -18q-12 -8 -20 -17h-120q20 57 76 101t129 44q94 0 162 -69t68 -166t-68 -166t-162 -69q-92 0 -156 66t-64 169q0 12 2 30zM360 195h-220q9 -40 38 -65t72 -25t72 25t38 65z" />
    <glyph glyph-name="uni0289" unicode="&#x289;" horiz-adv-x="550" 
d="M10 230v95h55v135h115v-135h190v135h115v-135h55v-95h-55v-230h-85l-20 45q-18 -15 -37 -25q-44 -25 -93 -25q-83 0 -134 53t-51 142v40h-55zM180 230v-25q0 -45 26.5 -72.5t68.5 -27.5t68.5 27.5t26.5 72.5v25h-190z" />
    <glyph glyph-name="afii57929" unicode="&#x2bc;" horiz-adv-x="190" 
d="M65 420l-20 25q11 7 23 19q23 23 27 46q-30 0 -47.5 16.5t-17.5 43.5q0 26 19.5 45.5t45.5 19.5q27 0 46 -20t19 -50q0 -60 -48 -108q-19 -19 -47 -37z" />
    <glyph glyph-name="circumflex" unicode="&#x2c6;" horiz-adv-x="350" 
d="M30 505l95 125h100l95 -125h-95l-50 65l-50 -65h-95z" />
    <glyph glyph-name="caron" unicode="&#x2c7;" horiz-adv-x="350" 
d="M125 505l-95 125h95l50 -65l50 65h95l-95 -125h-100z" />
    <glyph glyph-name="breve" unicode="&#x2d8;" horiz-adv-x="340" 
d="M30 630h85q6 -18 11 -25q15 -25 44 -25t44 25q5 7 11 25h85q-9 -54 -46.5 -89.5t-93.5 -35.5t-93.5 35.5t-46.5 89.5z" />
    <glyph glyph-name="dotaccent" unicode="&#x2d9;" horiz-adv-x="190" 
d="M30 575q0 26 19.5 45.5t45.5 19.5t45.5 -19.5t19.5 -45.5t-19.5 -45.5t-45.5 -19.5t-45.5 19.5t-19.5 45.5z" />
    <glyph glyph-name="ring" unicode="&#x2da;" horiz-adv-x="250" 
d="M160 580q0 15 -10 25t-25 10t-25 -10t-10 -25t10 -25t25 -10t25 10t10 25zM30 580q0 39 26.5 64.5t68.5 25.5t68.5 -25.5t26.5 -64.5t-26.5 -64.5t-68.5 -25.5t-68.5 25.5t-26.5 64.5z" />
    <glyph glyph-name="ogonek" unicode="&#x2db;" horiz-adv-x="225" 
d="M75 0h65q-12 -16 -18 -26q-17 -28 -17 -54q0 -19 13.5 -32t36.5 -13q11 0 27 2l13 3v-57q-1 0 -7.5 -1.5t-10.5 -2.5q-15 -4 -42 -4q-48 0 -76.5 25.5t-28.5 64.5q0 33 22 67q12 17 23 28z" />
    <glyph glyph-name="tilde" unicode="&#x2dc;" horiz-adv-x="360" 
d="M90 510h-60q0 61 25 93t65 32q33 0 67.5 -27.5t42.5 -27.5q16 0 28 14t12 36h60q0 -61 -25 -93t-65 -32q-34 0 -68 27.5t-42 27.5q-16 0 -28 -14t-12 -36z" />
    <glyph glyph-name="hungarumlaut" unicode="&#x2dd;" horiz-adv-x="400" 
d="M30 505l70 125h110l-95 -125h-85zM190 505l70 125h110l-95 -125h-85z" />
    <glyph glyph-name="acutecomb" unicode="&#x301;" horiz-adv-x="0" 
d="M-360 700l65 125h110l-90 -125h-85z" />
    <glyph glyph-name="uni0309" unicode="&#x309;" horiz-adv-x="210" 
d="M30 620v55l17 5q18 5 43 5q41 0 65.5 -22.5t24.5 -57.5q0 -36 -20 -63q-6 -8 -20 -22h-60q8 10 12 19q13 20 13 41q0 19 -13.5 32t-36.5 13q-6 0 -18 -3z" />
    <glyph glyph-name="uni030A" unicode="&#x30a;" horiz-adv-x="0" 
d="M-350 770q0 -15 10 -25t25 -10t25 10t10 25t-10 25t-25 10t-25 -10t-10 -25zM-410 770q0 39 26.5 64.5t68.5 25.5t68.5 -25.5t26.5 -64.5t-26.5 -64.5t-68.5 -25.5t-68.5 25.5t-26.5 64.5z" />
    <glyph glyph-name="uni031B" unicode="&#x31b;" horiz-adv-x="190" 
d="M30 375v55h15q18 0 29 10t11 25q0 17 -8 39l-7 16h70q5 -6 10 -18q10 -22 10 -47q0 -39 -25.5 -62t-69.5 -23q-9 0 -23 2z" />
    <glyph glyph-name="uni0323" unicode="&#x323;" horiz-adv-x="190" 
d="M30 -115q0 26 19.5 45.5t45.5 19.5t45.5 -19.5t19.5 -45.5t-19.5 -45.5t-45.5 -19.5t-45.5 19.5t-19.5 45.5z" />
    <glyph glyph-name="uni0400" unicode="&#x400;" horiz-adv-x="545" 
d="M65 0v630h435v-115h-315v-135h290v-115h-290v-150h325v-115h-445zM259 700l-90 125h110l65 -125h-85z" />
    <glyph glyph-name="afii10023" unicode="&#x401;" horiz-adv-x="545" 
d="M65 0v630h435v-115h-315v-135h290v-115h-290v-150h325v-115h-445zM135 755q0 26 19.5 45.5t45.5 19.5t45.5 -19.5t19.5 -45.5t-19.5 -45.5t-45.5 -19.5t-45.5 19.5t-19.5 45.5zM315 755q0 26 19.5 45.5t45.5 19.5t45.5 -19.5t19.5 -45.5t-19.5 -45.5t-45.5 -19.5
t-45.5 19.5t-19.5 45.5z" />
    <glyph glyph-name="afii10051" unicode="&#x402;" horiz-adv-x="650" 
d="M150 0v515h-140v115h405v-115h-145v-160q15 17 36 30q48 30 104 30q95 0 152.5 -61.5t57.5 -168.5q0 -110 -65 -172.5t-185 -62.5v110q60 0 95 34t35 91q0 53 -33 86.5t-82 33.5q-48 0 -81.5 -33.5t-33.5 -81.5v-190h-120z" />
    <glyph glyph-name="afii10052" unicode="&#x403;" horiz-adv-x="475" 
d="M65 0v630h395v-115h-275v-515h-120zM215 700l65 125h110l-90 -125h-85z" />
    <glyph glyph-name="afii10053" unicode="&#x404;" horiz-adv-x="645" 
d="M155 370h225v-110h-225q19 -66 67 -108t113 -42q58 0 99.5 29t60.5 66h125q-24 -85 -101.5 -147.5t-183.5 -62.5q-125 0 -215 93t-90 227t90 227t215 93q103 0 179.5 -63.5t100.5 -151.5h-125q-14 38 -55.5 69t-99.5 31q-65 0 -113 -42t-67 -108z" />
    <glyph glyph-name="afii10054" unicode="&#x405;" horiz-adv-x="520" 
d="M35 200h120q0 -43 28.5 -69t76.5 -26q51 0 78 21.5t27 53.5q0 27 -24 45.5t-60 28t-78.5 24.5t-78.5 33t-60 55t-24 88q0 75 61 128t159 53q93 0 151.5 -56.5t58.5 -143.5h-115q0 42 -25 66t-70 24q-43 0 -69 -21t-26 -49q0 -25 24 -43t60 -27t78.5 -25t78.5 -35
t60 -57.5t24 -92.5q0 -71 -65 -125.5t-165 -54.5q-104 0 -164.5 57t-60.5 148z" />
    <glyph glyph-name="afii10055" unicode="&#x406;" horiz-adv-x="250" 
d="M65 0v630h120v-630h-120z" />
    <glyph glyph-name="afii10056" unicode="&#x407;" horiz-adv-x="250" 
d="M65 0v630h120v-630h-120zM-30 755q0 26 19.5 45.5t45.5 19.5t45.5 -19.5t19.5 -45.5t-19.5 -45.5t-45.5 -19.5t-45.5 19.5t-19.5 45.5zM150 755q0 26 19.5 45.5t45.5 19.5t45.5 -19.5t19.5 -45.5t-19.5 -45.5t-45.5 -19.5t-45.5 19.5t-19.5 45.5z" />
    <glyph glyph-name="afii10057" unicode="&#x408;" horiz-adv-x="485" 
d="M10 195h120q0 -38 23.5 -61.5t61.5 -23.5t61.5 23.5t23.5 61.5v435h120v-435q0 -90 -56 -145t-149 -55t-149 55t-56 145z" />
    <glyph glyph-name="afii10058" unicode="&#x409;" horiz-adv-x="905" 
d="M0 0v105h15q42 0 69.5 27.5t30.5 72.5l30 425h410v-210h110q90 0 152.5 -61.5t62.5 -148.5t-62.5 -148.5t-152.5 -61.5h-230v515h-180l-25 -325q-8 -93 -56 -144t-124 -51q-18 0 -36 2zM555 115h110q37 0 66 28.5t29 66.5t-29 66.5t-66 28.5h-110v-190z" />
    <glyph glyph-name="afii10059" unicode="&#x40a;" horiz-adv-x="900" 
d="M65 0v630h120v-210h245v210h120v-210h110q90 0 152.5 -61.5t62.5 -148.5t-62.5 -148.5t-152.5 -61.5h-230v305h-245v-305h-120zM550 115h110q38 0 66.5 28.5t28.5 66.5t-28.5 66.5t-66.5 28.5h-110v-190z" />
    <glyph glyph-name="afii10060" unicode="&#x40b;" horiz-adv-x="650" 
d="M150 0v515h-140v115h405v-115h-145v-160q16 17 36 30q46 30 99 30q84 0 139.5 -61t55.5 -164v-190h-120v190q0 52 -29.5 83.5t-75.5 31.5t-75.5 -31.5t-29.5 -83.5v-190h-120z" />
    <glyph glyph-name="afii10061" unicode="&#x40c;" horiz-adv-x="540" 
d="M65 0v630h120v-280l210 280h140l-235 -310l250 -320h-140l-225 285v-285h-120zM250 700l65 125h110l-90 -125h-85z" />
    <glyph glyph-name="uni040D" unicode="&#x40d;" horiz-adv-x="635" 
d="M65 0v630h120v-415l280 415h105v-630h-120v415l-280 -415h-105zM285 700l-90 125h110l65 -125h-85z" />
    <glyph glyph-name="afii10062" unicode="&#x40e;" horiz-adv-x="535" 
d="M80 0v105l11 -3q14 -2 29 -2q57 0 80 55l10 25l-205 450h125l145 -315l140 315h120l-215 -480q-37 -85 -77.5 -122.5t-102.5 -37.5q-21 0 -41 5q-7 1 -19 5zM130 815h85q6 -18 11 -25q15 -25 44 -25t44 25q5 7 11 25h85q-9 -54 -46.5 -89.5t-93.5 -35.5t-93.5 35.5
t-46.5 89.5z" />
    <glyph glyph-name="afii10145" unicode="&#x40f;" horiz-adv-x="625" 
d="M65 0v630h120v-515h255v515h120v-630h-190v-120h-115v120h-190z" />
    <glyph glyph-name="afii10017" unicode="&#x410;" horiz-adv-x="570" 
d="M-5 0l235 630h110l235 -630h-125l-45 130h-240l-45 -130h-125zM205 240h160l-80 230z" />
    <glyph glyph-name="afii10018" unicode="&#x411;" horiz-adv-x="565" 
d="M65 0v630h425v-115h-305v-125h145q89 0 147 -56t58 -139t-58 -139t-147 -56h-265zM185 110h145q38 0 61.5 23.5t23.5 61.5t-23.5 61.5t-61.5 23.5h-145v-170z" />
    <glyph glyph-name="afii10019" unicode="&#x412;" horiz-adv-x="565" 
d="M65 0v630h260q81 0 135.5 -51.5t54.5 -123.5q0 -54 -38 -92q-17 -18 -37 -28q28 -13 50 -34q50 -48 50 -121t-58.5 -126.5t-146.5 -53.5h-270zM185 375h130q33 0 56.5 22.5t23.5 52.5t-23.5 52.5t-56.5 22.5h-130v-150zM185 105h140q42 0 68.5 25.5t26.5 64.5t-26.5 64.5
t-68.5 25.5h-140v-180z" />
    <glyph glyph-name="afii10020" unicode="&#x413;" horiz-adv-x="475" 
d="M65 0v630h395v-115h-275v-515h-120z" />
    <glyph glyph-name="afii10021" unicode="&#x414;" horiz-adv-x="635" 
d="M0 -120v235h35q17 7 31 22q33 33 39 83l50 410h395v-515h70v-235h-120v120h-380v-120h-120zM170 115h260v400h-175l-35 -295q-6 -50 -29 -83q-12 -16 -21 -22z" />
    <glyph glyph-name="afii10022" unicode="&#x415;" horiz-adv-x="545" 
d="M65 0v630h435v-115h-315v-135h290v-115h-290v-150h325v-115h-445z" />
    <glyph glyph-name="afii10024" unicode="&#x416;" horiz-adv-x="790" 
d="M-10 0l230 320l-210 310h140l185 -280v280h120v-280l185 280h140l-210 -310l230 -320h-140l-205 285v-285h-120v285l-205 -285h-140z" />
    <glyph glyph-name="afii10025" unicode="&#x417;" horiz-adv-x="515" 
d="M25 190h120q9 -36 38 -60.5t72 -24.5q52 0 78.5 23t26.5 62q0 35 -26.5 57.5t-73.5 22.5h-60v105h55q43 0 66.5 19.5t23.5 50.5q0 35 -24.5 57.5t-65.5 22.5q-43 0 -69.5 -22.5t-30.5 -57.5h-120q4 81 64.5 135.5t155.5 54.5q91 0 150.5 -52t59.5 -123q0 -57 -40 -99
q-17 -18 -40 -31q28 -13 50 -34q50 -48 50 -121q0 -74 -62 -127t-163 -53q-102 0 -164 54.5t-71 140.5z" />
    <glyph glyph-name="afii10026" unicode="&#x418;" horiz-adv-x="635" 
d="M65 0v630h120v-415l280 415h105v-630h-120v415l-280 -415h-105z" />
    <glyph glyph-name="afii10027" unicode="&#x419;" horiz-adv-x="635" 
d="M65 0v630h120v-415l280 415h105v-630h-120v415l-280 -415h-105zM180 815h85q6 -18 11 -25q15 -25 44 -25t44 25q5 7 11 25h85q-9 -54 -46.5 -89.5t-93.5 -35.5t-93.5 35.5t-46.5 89.5z" />
    <glyph glyph-name="afii10028" unicode="&#x41a;" horiz-adv-x="540" 
d="M65 0v630h120v-280l210 280h140l-235 -310l250 -320h-140l-225 285v-285h-120z" />
    <glyph glyph-name="afii10029" unicode="&#x41b;" horiz-adv-x="635" 
d="M0 0v105h15q42 0 69.5 27.5t30.5 72.5l30 425h425v-630h-120v515h-195l-25 -325q-8 -93 -56 -144t-124 -51q-18 0 -36 2z" />
    <glyph glyph-name="afii10030" unicode="&#x41c;" horiz-adv-x="770" 
d="M65 0v630h105l215 -465l215 465h105v-630h-120v350l-160 -350h-80l-160 350v-350h-120z" />
    <glyph glyph-name="afii10031" unicode="&#x41d;" horiz-adv-x="635" 
d="M65 0v630h120v-250h265v250h120v-630h-120v265h-265v-265h-120z" />
    <glyph glyph-name="afii10032" unicode="&#x41e;" horiz-adv-x="670" 
d="M335 520q-76 0 -130.5 -58.5t-54.5 -146.5t54.5 -146.5t130.5 -58.5t130.5 58.5t54.5 146.5t-54.5 146.5t-130.5 58.5zM335 635q125 0 215 -93t90 -227t-90 -227t-215 -93t-215 93t-90 227t90 227t215 93z" />
    <glyph glyph-name="afii10033" unicode="&#x41f;" horiz-adv-x="640" 
d="M65 0v630h510v-630h-120v515h-270v-515h-120z" />
    <glyph glyph-name="afii10034" unicode="&#x420;" horiz-adv-x="545" 
d="M65 0v630h235q90 0 152.5 -61.5t62.5 -148.5t-62.5 -148.5t-152.5 -61.5h-115v-210h-120zM185 325h115q38 0 66.5 28.5t28.5 66.5t-28.5 66.5t-66.5 28.5h-115v-190z" />
    <glyph glyph-name="afii10035" unicode="&#x421;" horiz-adv-x="645" 
d="M495 220h125q-23 -95 -100.5 -160t-184.5 -65q-125 0 -215 93t-90 227t90 227t215 93q104 0 180.5 -65.5t99.5 -159.5h-125q-13 45 -54 77.5t-101 32.5q-76 0 -130.5 -58.5t-54.5 -146.5t54.5 -146.5t130.5 -58.5q60 0 101 32t59 78z" />
    <glyph glyph-name="afii10036" unicode="&#x422;" horiz-adv-x="520" 
d="M200 0v515h-185v115h490v-115h-185v-515h-120z" />
    <glyph glyph-name="afii10037" unicode="&#x423;" horiz-adv-x="535" 
d="M80 0v105l11 -3q14 -2 29 -2q57 0 80 55l10 25l-205 450h125l145 -315l140 315h120l-215 -480q-37 -85 -77.5 -122.5t-102.5 -37.5q-21 0 -41 5q-7 1 -19 5z" />
    <glyph glyph-name="afii10038" unicode="&#x424;" horiz-adv-x="730" 
d="M305 185v280q-74 -4 -117 -43t-43 -97t43 -97t117 -43zM305 -5v80q-130 8 -205 77t-75 173t75 173t205 77v60h120v-60q130 -8 205 -77t75 -173t-75 -173t-205 -77v-80h-120zM425 465v-280q74 4 117 43t43 97t-43 97t-117 43z" />
    <glyph glyph-name="afii10039" unicode="&#x425;" horiz-adv-x="560" 
d="M5 0l205 320l-195 310h135l130 -220l130 220h135l-195 -310l205 -320h-135l-140 229l-140 -229h-135z" />
    <glyph glyph-name="afii10040" unicode="&#x426;" horiz-adv-x="645" 
d="M65 0v630h120v-515h250v515h120v-515h70v-235h-120v120h-440z" />
    <glyph glyph-name="afii10041" unicode="&#x427;" horiz-adv-x="605" 
d="M420 0v219q-20 -11 -43 -20q-47 -19 -102 -19q-98 0 -156.5 59.5t-58.5 160.5v230h120v-225q0 -115 115 -115q46 0 89 17q20 7 36 18v305h120v-630h-120z" />
    <glyph glyph-name="afii10042" unicode="&#x428;" horiz-adv-x="860" 
d="M65 0v630h120v-515h185v515h120v-515h185v515h120v-630h-730z" />
    <glyph glyph-name="afii10043" unicode="&#x429;" horiz-adv-x="885" 
d="M65 0v630h120v-515h185v515h120v-515h185v515h120v-515h70v-235h-120v120h-680z" />
    <glyph glyph-name="afii10044" unicode="&#x42a;" horiz-adv-x="610" 
d="M140 0v515h-140v115h260v-210h110q90 0 152.5 -61.5t62.5 -148.5t-62.5 -148.5t-152.5 -61.5h-230zM260 115h110q38 0 66.5 28.5t28.5 66.5t-28.5 66.5t-66.5 28.5h-110v-190z" />
    <glyph glyph-name="afii10045" unicode="&#x42b;" horiz-adv-x="755" 
d="M570 0v630h120v-630h-120zM65 0v630h120v-210h105q90 0 152.5 -61.5t62.5 -148.5t-62.5 -148.5t-152.5 -61.5h-225zM185 115h105q38 0 66.5 28.5t28.5 66.5t-28.5 66.5t-66.5 28.5h-105v-190z" />
    <glyph glyph-name="afii10046" unicode="&#x42c;" horiz-adv-x="535" 
d="M65 0v630h120v-210h110q90 0 152.5 -61.5t62.5 -148.5t-62.5 -148.5t-152.5 -61.5h-230zM185 115h110q37 0 66 28.5t29 66.5t-29 66.5t-66 28.5h-110v-190z" />
    <glyph glyph-name="afii10047" unicode="&#x42d;" horiz-adv-x="645" 
d="M25 205h125q17 -36 60 -65.5t100 -29.5q65 0 113 42t67 108h-225v110h225q-19 66 -67 108t-113 42q-58 0 -99.5 -31t-55.5 -69h-125q24 88 100.5 151.5t179.5 63.5q125 0 215 -93t90 -227t-90 -227t-215 -93q-106 0 -183.5 62.5t-101.5 147.5z" />
    <glyph glyph-name="afii10048" unicode="&#x42e;" horiz-adv-x="865" 
d="M65 0v630h120v-260h75q14 110 96.5 187.5t188.5 77.5q118 0 204 -92t86 -228t-86 -228t-204 -92q-106 0 -186 74.5t-101 185.5h-73v-255h-120zM545 110q71 0 120.5 57t49.5 148t-49.5 148t-120.5 57t-120.5 -57t-49.5 -148t49.5 -148t120.5 -57z" />
    <glyph glyph-name="afii10049" unicode="&#x42f;" horiz-adv-x="560" 
d="M20 0l150 250q-36 16 -65 42q-65 57 -65 143q0 80 60.5 137.5t149.5 57.5h245v-630h-120v230h-90l-130 -230h-135zM250 345h125v170h-125q-38 0 -64 -25.5t-26 -59.5t26 -59.5t64 -25.5z" />
    <glyph glyph-name="afii10065" unicode="&#x430;" horiz-adv-x="475" 
d="M340 0l-20 45q-22 -18 -35 -25q-44 -25 -95 -25q-73 0 -114 36t-41 94q0 74 63 114.5t212 40.5q0 38 -20.5 59t-54.5 21q-35 0 -58 -25q-9 -10 -12 -25h-115q9 66 60.5 110.5t134.5 44.5q78 0 129 -51t51 -129v-285h-85zM310 180v20q-95 0 -127.5 -16t-32.5 -49
q0 -19 17.5 -34.5t42.5 -15.5q45 0 72.5 26.5t27.5 68.5z" />
    <glyph glyph-name="afii10066" unicode="&#x431;" horiz-adv-x="520" 
d="M430 650v-110q-104 -2 -163.5 -22.5t-83.5 -53.5t-33 -89q12 15 34 30q46 30 101 30q88 0 146.5 -60.5t58.5 -159.5q0 -94 -64 -157t-161 -63q-101 0 -165.5 74.5t-64.5 205.5q0 196 89 281.5t306 93.5zM265 105q45 0 77.5 32.5t32.5 77.5q0 44 -33 77t-77 33
q-45 0 -77.5 -32.5t-32.5 -77.5q0 -46 32 -78t78 -32z" />
    <glyph glyph-name="afii10067" unicode="&#x432;" horiz-adv-x="465" 
d="M55 0v460h222q65 0 104 -35.5t39 -89.5q0 -39 -25 -72q-10 -13 -25 -23q20 -12 32 -25q33 -39 33 -85q0 -53 -40.5 -91.5t-102.5 -38.5h-237zM170 270h85q23 0 36.5 13.5t13.5 36.5t-13.5 36.5t-36.5 13.5h-85v-100zM170 90h100q23 0 36.5 13.5t13.5 36.5t-13.5 36.5
t-36.5 13.5h-100v-100z" />
    <glyph glyph-name="afii10068" unicode="&#x433;" horiz-adv-x="385" 
d="M55 0v460h315v-110h-200v-350h-115z" />
    <glyph glyph-name="afii10069" unicode="&#x434;" horiz-adv-x="515" 
d="M0 -100v210h35q12 6 23 17q23 23 27 58l30 275h325v-350h60v-210h-115v100h-270v-100h-115zM160 110h165v240h-110l-20 -165q-4 -33 -20 -58q-8 -12 -15 -17z" />
    <glyph glyph-name="afii10070" unicode="&#x435;" 
d="M345 140h120q-20 -57 -76 -101t-129 -44q-94 0 -162 69t-68 166t68 166t162 69q92 0 156 -66t64 -169q0 -3 -3 -30l-2 -15h-320q20 -80 105 -80q37 0 65 17q13 8 20 18zM150 265h220q-9 40 -38 65t-72 25t-72 -25t-38 -65z" />
    <glyph glyph-name="afii10072" unicode="&#x436;" horiz-adv-x="655" 
d="M-5 0l170 240l-155 220h130l130 -190v190h115v-190l130 190h130l-155 -220l170 -240h-130l-145 210v-210h-115v210l-145 -210h-130z" />
    <glyph glyph-name="afii10073" unicode="&#x437;" horiz-adv-x="415" 
d="M160 185v90h45q29 0 44.5 12.5t15.5 32.5q0 50 -60 50q-35 0 -58 -25q-9 -10 -12 -25h-105q9 67 54.5 106t125.5 39q69 0 117 -43t48 -97q0 -41 -28 -69q-12 -12 -27 -21q18 -11 32 -26q33 -35 33 -74q0 -58 -48 -99t-127 -41q-84 0 -130 39.5t-55 110.5h105
q1 -15 11 -28q20 -27 64 -27q32 0 51 15t19 35q0 45 -70 45h-45z" />
    <glyph glyph-name="afii10074" unicode="&#x438;" horiz-adv-x="530" 
d="M55 0v460h115v-290l195 290h110v-460h-115v290l-195 -290h-110z" />
    <glyph glyph-name="afii10075" unicode="&#x439;" horiz-adv-x="530" 
d="M55 0v460h115v-290l195 290h110v-460h-115v290l-195 -290h-110zM125 635h85q6 -18 11 -25q15 -25 44 -25t44 25q5 7 11 25h85q-9 -54 -46.5 -89.5t-93.5 -35.5t-93.5 35.5t-46.5 89.5z" />
    <glyph glyph-name="afii10076" unicode="&#x43a;" horiz-adv-x="450" 
d="M55 0v460h115v-190l140 190h130l-165 -220l185 -240h-130l-160 210v-210h-115z" />
    <glyph glyph-name="afii10077" unicode="&#x43b;" horiz-adv-x="500" 
d="M0 0v95h15q30 0 45.5 16t19.5 54l25 295h340v-460h-115v350h-125l-15 -200q-6 -75 -46 -115t-109 -40q-11 0 -25 2z" />
    <glyph glyph-name="afii10078" unicode="&#x43c;" horiz-adv-x="620" 
d="M55 0v460h110l145 -310l145 310h110v-460h-115v235l-110 -235h-60l-110 235v-235h-115z" />
    <glyph glyph-name="afii10079" unicode="&#x43d;" horiz-adv-x="525" 
d="M55 0v460h115v-170h185v170h115v-460h-115v180h-185v-180h-115z" />
    <glyph glyph-name="afii10080" unicode="&#x43e;" horiz-adv-x="520" 
d="M260 355q-50 0 -82.5 -34.5t-32.5 -90.5t32.5 -90.5t82.5 -34.5t82.5 34.5t32.5 90.5t-32.5 90.5t-82.5 34.5zM260 465q94 0 162 -69t68 -166t-68 -166t-162 -69t-162 69t-68 166t68 166t162 69z" />
    <glyph glyph-name="afii10081" unicode="&#x43f;" horiz-adv-x="525" 
d="M55 0v460h415v-460h-115v350h-185v-350h-115z" />
    <glyph glyph-name="afii10082" unicode="&#x440;" horiz-adv-x="535" 
d="M55 -160v620h85l20 -45q17 15 35 25q48 25 95 25q88 0 151.5 -67.5t63.5 -167.5t-63.5 -167.5t-151.5 -67.5q-46 0 -88 22q-22 13 -32 23v-200h-115zM275 105q50 0 82.5 34.5t32.5 90.5t-32.5 90.5t-82.5 34.5t-82.5 -34.5t-32.5 -90.5t32.5 -90.5t82.5 -34.5z" />
    <glyph glyph-name="afii10083" unicode="&#x441;" horiz-adv-x="500" 
d="M360 170h115q-17 -72 -76.5 -123.5t-138.5 -51.5q-94 0 -162 69t-68 166t68 166t162 69q79 0 138.5 -51.5t76.5 -123.5h-115q-7 17 -22 32q-33 33 -78 33q-50 0 -82.5 -34.5t-32.5 -90.5t32.5 -90.5t82.5 -34.5q46 0 78 32q15 15 22 33z" />
    <glyph glyph-name="afii10084" unicode="&#x442;" horiz-adv-x="415" 
d="M150 0v350h-135v110h385v-110h-135v-350h-115z" />
    <glyph glyph-name="afii10085" unicode="&#x443;" horiz-adv-x="470" 
d="M80 -160v95q64 0 90 60l10 25l-175 440h120l115 -300l105 300h120l-89 -228q-95 -246 -96 -247q-34 -83 -69 -116.5t-91 -33.5q-14 0 -28 2z" />
    <glyph glyph-name="afii10086" unicode="&#x444;" horiz-adv-x="755" 
d="M320 -160v185q-12 -9 -27 -15q-32 -15 -68 -15q-81 0 -138 65t-57 170t57 170t138 65q32 0 68 -15l27 -15v195h115v-195l27 15q36 15 68 15q81 0 138 -65t57 -170t-57 -170t-138 -65q-36 0 -68 15q-15 6 -27 15v-185h-115zM435 325v-190q11 -9 21 -15q24 -15 54 -15
q43 0 71.5 33.5t28.5 91.5t-28.5 91.5t-71.5 33.5q-26 0 -54 -15zM320 135v190l-21 15q-28 15 -54 15q-43 0 -71.5 -33.5t-28.5 -91.5t28.5 -91.5t71.5 -33.5q30 0 54 15q11 6 21 15z" />
    <glyph glyph-name="afii10087" unicode="&#x445;" horiz-adv-x="440" 
d="M-5 0l155 235l-145 225h125l90 -145l90 145h125l-145 -225l155 -235h-125l-100 155l-100 -155h-125z" />
    <glyph glyph-name="afii10088" unicode="&#x446;" horiz-adv-x="535" 
d="M55 0v460h115v-350h175v350h115v-350h60v-210h-115v100h-350z" />
    <glyph glyph-name="afii10089" unicode="&#x447;" horiz-adv-x="500" 
d="M330 0v150q-16 -9 -36 -15q-43 -15 -84 -15q-72 0 -118.5 48.5t-46.5 126.5v165h115v-150q0 -38 21 -59t59 -21q34 0 64 15q15 7 26 15v200h115v-460h-115z" />
    <glyph glyph-name="afii10090" unicode="&#x448;" horiz-adv-x="705" 
d="M55 0v460h115v-350h125v350h115v-350h125v350h115v-460h-595z" />
    <glyph glyph-name="afii10091" unicode="&#x449;" horiz-adv-x="725" 
d="M55 0v460h115v-350h125v350h115v-350h125v350h115v-350h60v-210h-115v100h-540z" />
    <glyph glyph-name="afii10092" unicode="&#x44a;" horiz-adv-x="500" 
d="M105 0v350h-100v110h215v-150h100q67 0 113.5 -45.5t46.5 -109.5t-46.5 -109.5t-113.5 -45.5h-215zM220 100h85q26 0 43 16t17 39t-17 39t-43 16h-85v-110z" />
    <glyph glyph-name="afii10093" unicode="&#x44b;" horiz-adv-x="635" 
d="M465 0v460h115v-460h-115zM55 0v460h115v-150h90q67 0 113.5 -45.5t46.5 -109.5t-46.5 -109.5t-113.5 -45.5h-205zM170 100h75q26 0 43 16t17 39t-17 39t-43 16h-75v-110z" />
    <glyph glyph-name="afii10094" unicode="&#x44c;" horiz-adv-x="450" 
d="M55 0v460h115v-150h100q67 0 113.5 -45.5t46.5 -109.5t-46.5 -109.5t-113.5 -45.5h-215zM170 100h85q26 0 43 16t17 39t-17 39t-43 16h-85v-110z" />
    <glyph glyph-name="afii10095" unicode="&#x44d;" horiz-adv-x="495" 
d="M25 165h115q8 -18 19 -30q30 -30 76 -30q57 0 89 42q14 18 21 43h-140v80h140q-7 24 -21 42q-33 43 -89 43q-46 0 -76 -30q-11 -12 -19 -30h-115q13 67 72 118.5t138 51.5q94 0 162 -69t68 -166t-68 -166t-162 -69q-79 0 -138 51.5t-72 118.5z" />
    <glyph glyph-name="afii10096" unicode="&#x44e;" horiz-adv-x="690" 
d="M55 0v460h115v-185h55q15 80 75 135t140 55q91 0 155.5 -67t64.5 -168t-64.5 -168t-155.5 -67q-79 0 -139.5 53t-75.5 127h-55v-175h-115zM440 105q43 0 74 35t31 90t-31 90t-74 35t-74 -35t-31 -90t31 -90t74 -35z" />
    <glyph glyph-name="afii10097" unicode="&#x44f;" horiz-adv-x="475" 
d="M20 0l105 165q-24 11 -43 32q-42 46 -42 108q0 64 47.5 109.5t117.5 45.5h215v-460h-115v150h-65l-95 -150h-125zM215 250h95v110h-95q-26 0 -43 -16t-17 -39t17 -39t43 -16z" />
    <glyph glyph-name="uni0450" unicode="&#x450;" 
d="M345 140h120q-20 -57 -76 -101t-129 -44q-94 0 -162 69t-68 166t68 166t162 69q92 0 156 -66t64 -169q0 -3 -3 -30l-2 -15h-320q20 -80 105 -80q37 0 65 17q13 8 20 18zM150 265h220q-9 40 -38 65t-72 25t-72 -25t-38 -65zM215 515l-90 125h110l65 -125h-85z" />
    <glyph glyph-name="afii10071" unicode="&#x451;" 
d="M345 140h120q-20 -57 -76 -101t-129 -44q-94 0 -162 69t-68 166t68 166t162 69q92 0 156 -66t64 -169q0 -3 -3 -30l-2 -15h-320q20 -80 105 -80q37 0 65 17q13 8 20 18zM150 265h220q-9 40 -38 65t-72 25t-72 -25t-38 -65zM100 575q0 26 19.5 45.5t45.5 19.5t45.5 -19.5
t19.5 -45.5t-19.5 -45.5t-45.5 -19.5t-45.5 19.5t-19.5 45.5zM280 575q0 26 19.5 45.5t45.5 19.5t45.5 -19.5t19.5 -45.5t-19.5 -45.5t-45.5 -19.5t-45.5 19.5t-19.5 45.5z" />
    <glyph glyph-name="afii10099" unicode="&#x452;" horiz-adv-x="524" 
d="M69 0v465h-69v95h69v70h115v-70h116v-95h-116v-100q17 17 31 25q44 25 99 25q81 0 130.5 -58t49.5 -167q0 -115 -62.5 -180t-167.5 -65v105q47 0 78.5 37t31.5 103q0 56 -26 85.5t-69 29.5q-42 0 -68.5 -27.5t-26.5 -72.5v-205h-115z" />
    <glyph glyph-name="afii10100" unicode="&#x453;" horiz-adv-x="385" 
d="M55 0v460h315v-110h-200v-350h-115zM165 520l65 125h110l-90 -125h-85z" />
    <glyph glyph-name="afii10101" unicode="&#x454;" horiz-adv-x="495" 
d="M150 270h140v-80h-140q7 -25 21 -43q32 -42 89 -42q46 0 76 30q11 12 19 30h115q-13 -67 -72 -118.5t-138 -51.5q-94 0 -162 69t-68 166t68 166t162 69q79 0 138 -51.5t72 -118.5h-115q-8 18 -19 30q-30 30 -76 30q-56 0 -89 -43q-13 -18 -21 -42z" />
    <glyph glyph-name="afii10102" unicode="&#x455;" horiz-adv-x="420" 
d="M30 145h110q4 -24 22.5 -39.5t47.5 -15.5t47 15t18 35q0 15 -17.5 25.5t-43.5 16t-56.5 16t-56.5 23.5t-43.5 40t-17.5 64q0 58 46 99t119 41q80 0 125.5 -38.5t54.5 -101.5h-110q-4 17 -22.5 31t-42.5 14q-25 0 -40 -13t-15 -32q0 -17 24 -28t58.5 -20t69.5 -22.5
t59 -43.5t24 -76q0 -58 -47 -99t-123 -41q-88 0 -135.5 40t-54.5 110z" />
    <glyph glyph-name="afii10103" unicode="&#x456;" horiz-adv-x="225" 
d="M55 0v460h115v-460h-115zM115 515q-26 0 -45.5 19.5t-19.5 45.5t19.5 45.5t45.5 19.5t45.5 -19.5t19.5 -45.5t-19.5 -45.5t-45.5 -19.5z" />
    <glyph glyph-name="afii10104" unicode="&#x457;" horiz-adv-x="225" 
d="M55 0v460h115v-460h-115zM-40 575q0 26 19.5 45.5t45.5 19.5t45.5 -19.5t19.5 -45.5t-19.5 -45.5t-45.5 -19.5t-45.5 19.5t-19.5 45.5zM140 575q0 26 19.5 45.5t45.5 19.5t45.5 -19.5t19.5 -45.5t-19.5 -45.5t-45.5 -19.5t-45.5 19.5t-19.5 45.5z" />
    <glyph glyph-name="afii10105" unicode="&#x458;" horiz-adv-x="225" 
d="M-40 -155v100l7 -3q14 -2 23 -2q30 0 47.5 17.5t17.5 47.5v455h115v-460q0 -74 -43 -119.5t-112 -45.5q-21 0 -39 5q-6 1 -16 5zM115 515q-26 0 -45.5 19.5t-19.5 45.5t19.5 45.5t45.5 19.5t45.5 -19.5t19.5 -45.5t-19.5 -45.5t-45.5 -19.5z" />
    <glyph glyph-name="afii10106" unicode="&#x459;" horiz-adv-x="700" 
d="M0 0v95h15q30 0 45.5 16t19.5 54l25 295h320v-160h95q67 0 113.5 -44.5t46.5 -105.5t-46.5 -105.5t-113.5 -44.5h-210v350h-105l-15 -200q-6 -75 -46 -115t-109 -40q-11 0 -25 2zM425 100h80q25 0 42.5 15.5t17.5 34.5t-17.5 34.5t-42.5 15.5h-80v-100z" />
    <glyph glyph-name="afii10107" unicode="&#x45a;" horiz-adv-x="725" 
d="M55 0v460h115v-160h165v160h115v-160h95q67 0 113.5 -44.5t46.5 -105.5t-46.5 -105.5t-113.5 -44.5h-210v190h-165v-190h-115zM450 100h80q25 0 42.5 15.5t17.5 34.5t-17.5 34.5t-42.5 15.5h-80v-100z" />
    <glyph glyph-name="afii10108" unicode="&#x45b;" horiz-adv-x="539" 
d="M69 0v465h-69v95h69v70h115v-70h116v-95h-116v-100q17 17 31 25q44 25 99 25q76 0 125.5 -53.5t49.5 -141.5v-220h-115v205q0 45 -26.5 72.5t-68.5 27.5t-68.5 -27.5t-26.5 -72.5v-205h-115z" />
    <glyph glyph-name="afii10109" unicode="&#x45c;" horiz-adv-x="450" 
d="M55 0v460h115v-190l140 190h130l-165 -220l185 -240h-130l-160 210v-210h-115zM195 520l65 125h110l-90 -125h-85z" />
    <glyph glyph-name="uni045D" unicode="&#x45d;" horiz-adv-x="530" 
d="M55 0v460h115v-290l195 290h110v-460h-115v290l-195 -290h-110zM230 520l-90 125h110l65 -125h-85z" />
    <glyph glyph-name="afii10110" unicode="&#x45e;" horiz-adv-x="470" 
d="M80 -160v95q64 0 90 60l10 25l-175 440h120l115 -300l105 300h120l-89 -228q-95 -246 -96 -247q-34 -83 -69 -116.5t-91 -33.5q-14 0 -28 2zM100 635h85q6 -18 11 -25q15 -25 44 -25t44 25q5 7 11 25h85q-9 -54 -46.5 -89.5t-93.5 -35.5t-93.5 35.5t-46.5 89.5z" />
    <glyph glyph-name="afii10193" unicode="&#x45f;" horiz-adv-x="520" 
d="M55 0v460h115v-350h180v350h115v-460h-150v-100h-110v100h-150z" />
    <glyph glyph-name="afii10050" unicode="&#x490;" horiz-adv-x="475" 
d="M65 0v630h275v115h120v-230h-275v-515h-120z" />
    <glyph glyph-name="afii10098" unicode="&#x491;" horiz-adv-x="385" 
d="M55 0v460h200v90h115v-200h-200v-350h-115z" />
    <glyph glyph-name="uni0492" unicode="&#x492;" 
d="M95 0v250h-75v110h75v270h395v-115h-275v-155h195v-110h-195v-250h-120z" />
    <glyph glyph-name="uni0493" unicode="&#x493;" horiz-adv-x="395" 
d="M65 0v155h-60v95h60v210h315v-110h-200v-100h146v-95h-146v-155h-115z" />
    <glyph glyph-name="uni0494" unicode="&#x494;" horiz-adv-x="565" 
d="M65 0v630h395v-115h-275v-160q15 17 36 30q48 30 104 30q95 0 152.5 -61.5t57.5 -168.5q0 -110 -65 -172.5t-185 -62.5v110q60 0 95 34t35 91q0 53 -33 86.5t-82 33.5q-48 0 -81.5 -33.5t-33.5 -81.5v-190h-120z" />
    <glyph glyph-name="uni0495" unicode="&#x495;" horiz-adv-x="475" 
d="M55 0v460h315v-110h-200v-130q12 10 27 17q38 18 83 18q74 0 124.5 -58.5t50.5 -156.5q0 -101 -58.5 -160.5t-156.5 -59.5v110q46 0 73 29t27 81q0 47 -25 76t-60 29q-34 0 -59.5 -26t-25.5 -64v-55h-115z" />
    <glyph glyph-name="uni0496" unicode="&#x496;" horiz-adv-x="805" 
d="M-10 0l230 320l-210 310h140l185 -280v280h120v-280l185 280h140l-210 -310l145 -205h90v-235h-120v120h-25l-205 285v-285h-120v285l-205 -285h-140z" />
    <glyph glyph-name="uni0497" unicode="&#x497;" horiz-adv-x="665" 
d="M-5 0l170 240l-155 220h130l130 -190v190h115v-190l130 190h130l-155 -220l92 -130h83v-210h-115v100h-20l-145 210v-210h-115v210l-145 -210h-130z" />
    <glyph glyph-name="uni049A" unicode="&#x49a;" horiz-adv-x="555" 
d="M65 0v630h120v-280l210 280h140l-235 -310l160 -205h95v-235h-120v120h-25l-225 285v-285h-120z" />
    <glyph glyph-name="uni049B" unicode="&#x49b;" horiz-adv-x="465" 
d="M55 0v460h115v-190l140 190h130l-165 -220l100 -130h90v-210h-115v100h-20l-160 210v-210h-115z" />
    <glyph glyph-name="uni049C" unicode="&#x49c;" horiz-adv-x="630" 
d="M65 0v630h120v-265h30v85h80v-85h15l175 265h140l-215 -310l230 -320h-140l-190 265h-15v-80h-80v80h-30v-265h-120z" />
    <glyph glyph-name="uni049D" unicode="&#x49d;" horiz-adv-x="500" 
d="M55 0v460h115v-170h20v75h60v-75h10l100 170h130l-140 -220l160 -240h-130l-120 190h-10v-80h-60v80h-20v-190h-115z" />
    <glyph glyph-name="uni04A2" unicode="&#x4a2;" horiz-adv-x="660" 
d="M65 0v630h120v-250h265v250h120v-515h70v-235h-120v120h-70v265h-265v-265h-120z" />
    <glyph glyph-name="uni04A3" unicode="&#x4a3;" horiz-adv-x="545" 
d="M55 0v460h115v-170h185v170h115v-350h60v-210h-115v100h-60v180h-185v-180h-115z" />
    <glyph glyph-name="uni04AE" unicode="&#x4ae;" horiz-adv-x="540" 
d="M210 0v240l-205 390h130l135 -270l135 270h130l-205 -390v-240h-120z" />
    <glyph glyph-name="uni04AF" unicode="&#x4af;" horiz-adv-x="475" 
d="M180 -160v170l-175 450h120l110 -320h5l110 320h120l-175 -450v-170h-115z" />
    <glyph glyph-name="uni04B0" unicode="&#x4b0;" horiz-adv-x="540" 
d="M210 0v165h-135v100h122l-192 365h130l135 -270l135 270h130l-192 -365h122v-100h-135v-165h-120z" />
    <glyph glyph-name="uni04B1" unicode="&#x4b1;" horiz-adv-x="475" 
d="M80 -80v90h100l-175 450h120l110 -320h5l110 320h120l-175 -450h100v-90h-100v-80h-115v80h-100z" />
    <glyph glyph-name="uni04B2" unicode="&#x4b2;" horiz-adv-x="560" 
d="M5 0l205 320l-195 310h135l130 -220l130 220h135l-195 -310l131 -205h79v-235h-120v120h-20l-140 229l-140 -229h-135z" />
    <glyph glyph-name="uni04B3" unicode="&#x4b3;" horiz-adv-x="450" 
d="M0 0l155 235l-145 225h125l90 -145l90 145h125l-145 -225l82 -125h78v-210h-115v100h-15l-100 155l-100 -155h-125z" />
    <glyph glyph-name="uni04B6" unicode="&#x4b6;" horiz-adv-x="630" 
d="M490 -120v120h-70v219q-20 -11 -43 -20q-47 -19 -102 -19q-98 0 -156.5 59.5t-58.5 160.5v230h120v-225q0 -115 115 -115q46 0 89 17q20 7 36 18v305h120v-515h70v-235h-120z" />
    <glyph glyph-name="uni04B7" unicode="&#x4b7;" horiz-adv-x="520" 
d="M390 -100v100h-60v150q-16 -9 -36 -15q-43 -15 -84 -15q-72 0 -118.5 48.5t-46.5 126.5v165h115v-150q0 -38 21 -59t59 -21q34 0 64 15q15 7 26 15v200h115v-350h60v-210h-115z" />
    <glyph glyph-name="uni04B8" unicode="&#x4b8;" horiz-adv-x="605" 
d="M255 95v85q-90 7 -142.5 65.5t-52.5 154.5v230h120v-225q0 -91 75 -111v86h80v-87q31 5 61 19q15 7 24 13v305h120v-630h-120v219l-24 -12q-18 -9 -61 -21v-91h-80z" />
    <glyph glyph-name="uni04B9" unicode="&#x4b9;" horiz-adv-x="500" 
d="M210 50v70q-72 0 -118.5 48.5t-46.5 126.5v165h115v-150q0 -59 50 -76v76h65v-76q8 2 39 16q9 5 16 10v200h115v-460h-115v150l-16 -7q-37 -14 -39 -14v-79h-65z" />
    <glyph glyph-name="uni04BA" unicode="&#x4ba;" horiz-adv-x="600" 
d="M65 0v630h120v-219q16 9 42 19q49 20 103 20q98 0 156.5 -59.5t58.5 -160.5v-230h-120v225q0 115 -115 115q-43 0 -89 -18q-16 -6 -36 -17v-305h-120z" />
    <glyph glyph-name="uni04BB" unicode="&#x4bb;" horiz-adv-x="525" 
d="M55 0v630h115v-215q17 17 31 25q44 25 99 25q76 0 125.5 -53.5t49.5 -141.5v-270h-115v255q0 45 -26.5 72.5t-68.5 27.5t-68.5 -27.5t-26.5 -72.5v-255h-115z" />
    <glyph glyph-name="uni04C1" unicode="&#x4c1;" horiz-adv-x="790" 
d="M-10 0l230 320l-210 310h140l185 -280v280h120v-280l185 280h140l-210 -310l230 -320h-140l-205 285v-285h-120v285l-205 -285h-140zM255 815h85q6 -18 11 -25q15 -25 44 -25t44 25q5 7 11 25h85q-9 -54 -46.5 -89.5t-93.5 -35.5t-93.5 35.5t-46.5 89.5z" />
    <glyph glyph-name="uni04C2" unicode="&#x4c2;" horiz-adv-x="655" 
d="M-5 0l170 240l-155 220h130l130 -190v190h115v-190l130 190h130l-155 -220l170 -240h-130l-145 210v-210h-115v210l-145 -210h-130zM185 635h85q6 -18 11 -25q15 -25 44 -25t44 25q5 7 11 25h85q-9 -54 -46.5 -89.5t-93.5 -35.5t-93.5 35.5t-46.5 89.5z" />
    <glyph glyph-name="uni04D2" unicode="&#x4d2;" horiz-adv-x="575" 
d="M-5 0l235 630h110l235 -630h-125l-45 130h-240l-45 -130h-125zM205 240h160l-80 230zM130 755q0 26 19.5 45.5t45.5 19.5t45.5 -19.5t19.5 -45.5t-19.5 -45.5t-45.5 -19.5t-45.5 19.5t-19.5 45.5zM310 755q0 26 19.5 45.5t45.5 19.5t45.5 -19.5t19.5 -45.5t-19.5 -45.5
t-45.5 -19.5t-45.5 19.5t-19.5 45.5z" />
    <glyph glyph-name="uni04D3" unicode="&#x4d3;" horiz-adv-x="475" 
d="M340 0l-20 45q-22 -18 -35 -25q-44 -25 -95 -25q-73 0 -114 36t-41 94q0 74 63 114.5t212 40.5q0 38 -20.5 59t-54.5 21q-35 0 -58 -25q-9 -10 -12 -25h-115q9 66 60.5 110.5t134.5 44.5q78 0 129 -51t51 -129v-285h-85zM310 180v20q-95 0 -127.5 -16t-32.5 -49
q0 -19 17.5 -34.5t42.5 -15.5q45 0 72.5 26.5t27.5 68.5zM95 575q0 26 19.5 45.5t45.5 19.5t45.5 -19.5t19.5 -45.5t-19.5 -45.5t-45.5 -19.5t-45.5 19.5t-19.5 45.5zM275 575q0 26 19.5 45.5t45.5 19.5t45.5 -19.5t19.5 -45.5t-19.5 -45.5t-45.5 -19.5t-45.5 19.5
t-19.5 45.5z" />
    <glyph glyph-name="uni04D8" unicode="&#x4d8;" horiz-adv-x="665" 
d="M34 350h481q-12 75 -64 122.5t-121 47.5q-58 0 -92 -22.5t-58 -62.5h-130q29 86 101.5 143t178.5 57q125 0 215 -93t90 -227t-90 -227t-215 -93q-129 0 -214.5 90t-85.5 230q0 9 2 23zM505 250h-345q9 -62 53 -101t117 -39q65 0 110 38.5t65 101.5z" />
    <glyph glyph-name="uni04D9" unicode="&#x4d9;" 
d="M35 275h320q-20 80 -105 80q-35 0 -65 -18q-12 -8 -20 -17h-120q20 57 76 101t129 44q94 0 162 -69t68 -166t-68 -166t-162 -69q-92 0 -156 66t-64 169q0 12 2 30zM360 195h-220q9 -40 38 -65t72 -25t72 25t38 65z" />
    <glyph glyph-name="uni04E0" unicode="&#x4e0;" horiz-adv-x="520" 
d="M15 190h120q4 -36 35 -60.5t85 -24.5q52 0 81 25t29 65t-30.5 67.5t-79.5 27.5h-90v82l150 143h-270v115h420v-105l-140 -135q66 -13 115.5 -67.5t49.5 -127.5q0 -81 -66.5 -140.5t-168.5 -59.5q-105 0 -168 54.5t-72 140.5z" />
    <glyph glyph-name="uni04E1" unicode="&#x4e1;" horiz-adv-x="445" 
d="M5 10h115q4 -35 29 -57.5t66 -22.5q42 0 68.5 25.5t26.5 64.5q0 44 -28.5 72t-71.5 28h-90v75l150 155h-240v110h375v-105l-140 -145q66 -12 113 -65t47 -125q0 -84 -56.5 -137t-153.5 -53q-91 0 -148.5 51.5t-61.5 128.5z" />
    <glyph glyph-name="uni04E2" unicode="&#x4e2;" horiz-adv-x="635" 
d="M65 0v630h120v-415l280 415h105v-630h-120v415l-280 -415h-105zM190 705v85h260v-85h-260z" />
    <glyph glyph-name="uni04E3" unicode="&#x4e3;" horiz-adv-x="530" 
d="M55 0v460h115v-290l195 290h110v-460h-115v290l-195 -290h-110zM135 525v85h260v-85h-260z" />
    <glyph glyph-name="uni04E6" unicode="&#x4e6;" horiz-adv-x="675" 
d="M335 520q-76 0 -130.5 -58.5t-54.5 -146.5t54.5 -146.5t130.5 -58.5t130.5 58.5t54.5 146.5t-54.5 146.5t-130.5 58.5zM335 635q125 0 215 -93t90 -227t-90 -227t-215 -93t-215 93t-90 227t90 227t215 93zM180 756q0 26 19.5 45.5t45.5 19.5t45.5 -19.5t19.5 -45.5
t-19.5 -45.5t-45.5 -19.5t-45.5 19.5t-19.5 45.5zM360 756q0 26 19.5 45.5t45.5 19.5t45.5 -19.5t19.5 -45.5t-19.5 -45.5t-45.5 -19.5t-45.5 19.5t-19.5 45.5z" />
    <glyph glyph-name="uni04E7" unicode="&#x4e7;" horiz-adv-x="520" 
d="M260 355q-50 0 -82.5 -34.5t-32.5 -90.5t32.5 -90.5t82.5 -34.5t82.5 34.5t32.5 90.5t-32.5 90.5t-82.5 34.5zM260 465q94 0 162 -69t68 -166t-68 -166t-162 -69t-162 69t-68 166t68 166t162 69zM105 575q0 26 19.5 45.5t45.5 19.5t45.5 -19.5t19.5 -45.5t-19.5 -45.5
t-45.5 -19.5t-45.5 19.5t-19.5 45.5zM285 575q0 26 19.5 45.5t45.5 19.5t45.5 -19.5t19.5 -45.5t-19.5 -45.5t-45.5 -19.5t-45.5 19.5t-19.5 45.5z" />
    <glyph glyph-name="uni04E8" unicode="&#x4e8;" horiz-adv-x="670" 
d="M335 -5q-125 0 -215 93t-90 227t90 227t215 93t215 -93t90 -227t-90 -227t-215 -93zM155 365h360q-16 70 -64 112.5t-116 42.5q-67 0 -116.5 -43t-63.5 -112zM515 265h-360q14 -69 63.5 -112t116.5 -43q68 0 116 42.5t64 112.5z" />
    <glyph glyph-name="uni04E9" unicode="&#x4e9;" horiz-adv-x="520" 
d="M260 -5q-94 0 -162 69t-68 166t68 166t162 69t162 -69t68 -166t-68 -166t-162 -69zM150 270h220q-9 36 -38 60.5t-72 24.5t-72 -24.5t-38 -60.5zM370 190h-220q9 -36 38 -60.5t72 -24.5t72 24.5t38 60.5z" />
    <glyph glyph-name="uni04EE" unicode="&#x4ee;" horiz-adv-x="535" 
d="M80 0v105l11 -3q14 -2 29 -2q57 0 80 55l10 25l-205 450h125l145 -315l140 315h120l-215 -480q-37 -85 -77.5 -122.5t-102.5 -37.5q-21 0 -41 5q-7 1 -19 5zM135 705v85h260v-85h-260z" />
    <glyph glyph-name="uni04EF" unicode="&#x4ef;" horiz-adv-x="470" 
d="M80 -160v95q64 0 90 60l10 25l-175 440h120l115 -300l105 300h120l-89 -228q-95 -246 -96 -247q-34 -83 -69 -116.5t-91 -33.5q-14 0 -28 2zM110 525v85h260v-85h-260z" />
    <glyph glyph-name="uni04F0" unicode="&#x4f0;" horiz-adv-x="535" 
d="M80 0v105l11 -3q14 -2 29 -2q57 0 80 55l10 25l-205 450h125l145 -315l140 315h120l-215 -480q-37 -85 -77.5 -122.5t-102.5 -37.5q-21 0 -41 5q-7 1 -19 5zM115 760q0 26 19.5 45.5t45.5 19.5t45.5 -19.5t19.5 -45.5t-19.5 -45.5t-45.5 -19.5t-45.5 19.5t-19.5 45.5z
M295 760q0 26 19.5 45.5t45.5 19.5t45.5 -19.5t19.5 -45.5t-19.5 -45.5t-45.5 -19.5t-45.5 19.5t-19.5 45.5z" />
    <glyph glyph-name="uni04F1" unicode="&#x4f1;" horiz-adv-x="470" 
d="M80 -160v95q64 0 90 60l10 25l-175 440h120l115 -300l105 300h120l-89 -228q-95 -246 -96 -247q-34 -83 -69 -116.5t-91 -33.5q-14 0 -28 2zM85 575q0 26 19.5 45.5t45.5 19.5t45.5 -19.5t19.5 -45.5t-19.5 -45.5t-45.5 -19.5t-45.5 19.5t-19.5 45.5zM265 575
q0 26 19.5 45.5t45.5 19.5t45.5 -19.5t19.5 -45.5t-19.5 -45.5t-45.5 -19.5t-45.5 19.5t-19.5 45.5z" />
    <glyph glyph-name="Wgrave" unicode="&#x1e80;" horiz-adv-x="830" 
d="M205 0l-200 630h120l125 -410l130 410h70l130 -410l125 410h120l-200 -630h-85l-125 395l-125 -395h-85zM370 700l-90 125h110l65 -125h-85z" />
    <glyph glyph-name="wgrave" unicode="&#x1e81;" horiz-adv-x="680" 
d="M155 0l-150 460h115l90 -295l95 295h70l95 -295l90 295h115l-150 -460h-100l-85 275l-85 -275h-100zM295 520l-90 125h110l65 -125h-85z" />
    <glyph glyph-name="Wacute" unicode="&#x1e82;" horiz-adv-x="830" 
d="M205 0l-200 630h120l125 -410l130 410h70l130 -410l125 410h120l-200 -630h-85l-125 395l-125 -395h-85zM375 700l65 125h110l-90 -125h-85z" />
    <glyph glyph-name="wacute" unicode="&#x1e83;" horiz-adv-x="680" 
d="M155 0l-150 460h115l90 -295l95 295h70l95 -295l90 295h115l-150 -460h-100l-85 275l-85 -275h-100zM300 520l65 125h110l-90 -125h-85z" />
    <glyph glyph-name="Wdieresis" unicode="&#x1e84;" horiz-adv-x="830" 
d="M205 0l-200 630h120l125 -410l130 410h70l130 -410l125 410h120l-200 -630h-85l-125 395l-125 -395h-85zM260 760q0 26 19.5 45.5t45.5 19.5t45.5 -19.5t19.5 -45.5t-19.5 -45.5t-45.5 -19.5t-45.5 19.5t-19.5 45.5zM440 760q0 26 19.5 45.5t45.5 19.5t45.5 -19.5
t19.5 -45.5t-19.5 -45.5t-45.5 -19.5t-45.5 19.5t-19.5 45.5z" />
    <glyph glyph-name="wdieresis" unicode="&#x1e85;" horiz-adv-x="680" 
d="M155 0l-150 460h115l90 -295l95 295h70l95 -295l90 295h115l-150 -460h-100l-85 275l-85 -275h-100zM185 575q0 26 19.5 45.5t45.5 19.5t45.5 -19.5t19.5 -45.5t-19.5 -45.5t-45.5 -19.5t-45.5 19.5t-19.5 45.5zM365 575q0 26 19.5 45.5t45.5 19.5t45.5 -19.5t19.5 -45.5
t-19.5 -45.5t-45.5 -19.5t-45.5 19.5t-19.5 45.5z" />
    <glyph glyph-name="uni1E9E" unicode="&#x1e9e;" horiz-adv-x="610" 
d="M60 0v430q0 87 57.5 143.5t147.5 56.5h275v-110l-110 -150q39 -9 72 -32q73 -55 73 -148q0 -83 -55.5 -136.5t-144.5 -53.5h-70v110h65q34 0 57 23.5t23 61.5t-23 61.5t-57 23.5h-65v85l105 145h-145q-34 0 -57 -23t-23 -57v-430h-125z" />
    <glyph glyph-name="uni1EA0" unicode="&#x1ea0;" horiz-adv-x="570" 
d="M-5 0l235 630h110l235 -630h-125l-45 130h-240l-45 -130h-125zM205 240h160l-80 230zM220 -120q0 26 19.5 45.5t45.5 19.5t45.5 -19.5t19.5 -45.5t-19.5 -45.5t-45.5 -19.5t-45.5 19.5t-19.5 45.5z" />
    <glyph glyph-name="uni1EA1" unicode="&#x1ea1;" horiz-adv-x="475" 
d="M340 0l-20 45q-22 -18 -35 -25q-44 -25 -95 -25q-73 0 -114 36t-41 94q0 74 63 114.5t212 40.5q0 38 -20.5 59t-54.5 21q-35 0 -58 -25q-9 -10 -12 -25h-115q9 66 60.5 110.5t134.5 44.5q78 0 129 -51t51 -129v-285h-85zM310 180v20q-95 0 -127.5 -16t-32.5 -49
q0 -19 17.5 -34.5t42.5 -15.5q45 0 72.5 26.5t27.5 68.5zM175 -120q0 26 19.5 45.5t45.5 19.5t45.5 -19.5t19.5 -45.5t-19.5 -45.5t-45.5 -19.5t-45.5 19.5t-19.5 45.5z" />
    <glyph glyph-name="uni1EA2" unicode="&#x1ea2;" horiz-adv-x="570" 
d="M-5 0l235 630h110l235 -630h-125l-45 130h-240l-45 -130h-125zM205 240h160l-80 230zM205 790v55l17 5q18 5 43 5q41 0 65.5 -22.5t24.5 -57.5q0 -36 -20 -63q-6 -8 -20 -22h-60q8 10 12 19q13 20 13 41q0 19 -13.5 32t-36.5 13q-6 0 -18 -3z" />
    <glyph glyph-name="uni1EA3" unicode="&#x1ea3;" horiz-adv-x="475" 
d="M340 0l-20 45q-22 -18 -35 -25q-44 -25 -95 -25q-73 0 -114 36t-41 94q0 74 63 114.5t212 40.5q0 38 -20.5 59t-54.5 21q-35 0 -58 -25q-9 -10 -12 -25h-115q9 66 60.5 110.5t134.5 44.5q78 0 129 -51t51 -129v-285h-85zM310 180v20q-95 0 -127.5 -16t-32.5 -49
q0 -19 17.5 -34.5t42.5 -15.5q45 0 72.5 26.5t27.5 68.5zM160 610v55l17 5q18 5 43 5q41 0 65.5 -22.5t24.5 -57.5q0 -36 -20 -63q-6 -8 -20 -22h-60q8 10 12 19q13 20 13 41q0 19 -13.5 32t-36.5 13q-6 0 -18 -3z" />
    <glyph glyph-name="uni1EA4" unicode="&#x1ea4;" horiz-adv-x="570" 
d="M-5 0l235 630h110l235 -630h-125l-45 130h-240l-45 -130h-125zM205 240h160l-80 230zM150 700l85 125h100l85 -125h-95l-40 65l-40 -65h-95zM390 770l55 105h100l-80 -105h-75z" />
    <glyph glyph-name="uni1EA5" unicode="&#x1ea5;" horiz-adv-x="475" 
d="M340 0l-20 45q-22 -18 -35 -25q-44 -25 -95 -25q-73 0 -114 36t-41 94q0 74 63 114.5t212 40.5q0 38 -20.5 59t-54.5 21q-35 0 -58 -25q-9 -10 -12 -25h-115q9 66 60.5 110.5t134.5 44.5q78 0 129 -51t51 -129v-285h-85zM310 180v20q-95 0 -127.5 -16t-32.5 -49
q0 -19 17.5 -34.5t42.5 -15.5q45 0 72.5 26.5t27.5 68.5zM115 520l85 125h100l85 -125h-95l-40 65l-40 -65h-95zM355 590l55 105h100l-80 -105h-75z" />
    <glyph glyph-name="uni1EA6" unicode="&#x1ea6;" horiz-adv-x="570" 
d="M-5 0l235 630h110l235 -630h-125l-45 130h-240l-45 -130h-125zM205 240h160l-80 230zM150 700l85 125h100l85 -125h-95l-40 65l-40 -65h-95zM425 770l-80 105h100l55 -105h-75z" />
    <glyph glyph-name="uni1EA7" unicode="&#x1ea7;" horiz-adv-x="475" 
d="M340 0l-20 45q-22 -18 -35 -25q-44 -25 -95 -25q-73 0 -114 36t-41 94q0 74 63 114.5t212 40.5q0 38 -20.5 59t-54.5 21q-35 0 -58 -25q-9 -10 -12 -25h-115q9 66 60.5 110.5t134.5 44.5q78 0 129 -51t51 -129v-285h-85zM310 180v20q-95 0 -127.5 -16t-32.5 -49
q0 -19 17.5 -34.5t42.5 -15.5q45 0 72.5 26.5t27.5 68.5zM115 520l85 125h100l85 -125h-95l-40 65l-40 -65h-95zM390 590l-80 105h100l55 -105h-75z" />
    <glyph glyph-name="uni1EA8" unicode="&#x1ea8;" horiz-adv-x="570" 
d="M-5 0l235 630h110l235 -630h-125l-45 130h-240l-45 -130h-125zM205 240h160l-80 230zM150 700l85 125h100l85 -125h-95l-40 65l-40 -65h-95zM345 850v55q3 1 16 5q18 5 39 5q41 0 65.5 -22t24.5 -53q0 -28 -18 -54q-5 -7 -17 -21h-60q5 7 10 16q10 22 10 39q0 35 -45 35
q-6 0 -18 -3z" />
    <glyph glyph-name="uni1EA9" unicode="&#x1ea9;" horiz-adv-x="475" 
d="M340 0l-20 45q-22 -18 -35 -25q-44 -25 -95 -25q-73 0 -114 36t-41 94q0 74 63 114.5t212 40.5q0 38 -20.5 59t-54.5 21q-35 0 -58 -25q-9 -10 -12 -25h-115q9 66 60.5 110.5t134.5 44.5q78 0 129 -51t51 -129v-285h-85zM310 180v20q-95 0 -127.5 -16t-32.5 -49
q0 -19 17.5 -34.5t42.5 -15.5q45 0 72.5 26.5t27.5 68.5zM115 520l85 125h100l85 -125h-95l-40 65l-40 -65h-95zM310 670v55q2 1 16 5q18 5 39 5q41 0 65.5 -22t24.5 -53q0 -28 -18 -54q-5 -7 -17 -21h-60q5 7 10 16q10 22 10 39q0 35 -45 35q-6 0 -18 -3z" />
    <glyph glyph-name="uni1EAA" unicode="&#x1eaa;" horiz-adv-x="570" 
d="M-5 0l235 630h110l235 -630h-125l-45 130h-240l-45 -130h-125zM205 240h160l-80 230zM150 700l85 115h100l85 -115h-95l-40 55l-40 -55h-95zM210 840h-65q0 44 25.5 72t64.5 28q29 0 60 -17.5t40 -17.5q25 0 25 30h65q0 -44 -25.5 -72t-64.5 -28q-29 0 -60 17.5t-40 17.5
q-25 0 -25 -30z" />
    <glyph glyph-name="uni1EAB" unicode="&#x1eab;" horiz-adv-x="475" 
d="M340 0l-20 45q-22 -18 -35 -25q-44 -25 -95 -25q-73 0 -114 36t-41 94q0 74 63 114.5t212 40.5q0 38 -20.5 59t-54.5 21q-35 0 -58 -25q-9 -10 -12 -25h-115q9 66 60.5 110.5t134.5 44.5q78 0 129 -51t51 -129v-285h-85zM310 180v20q-95 0 -127.5 -16t-32.5 -49
q0 -19 17.5 -34.5t42.5 -15.5q45 0 72.5 26.5t27.5 68.5zM115 520l85 115h100l85 -115h-95l-40 55l-40 -55h-95zM175 660h-65q0 44 25.5 72t64.5 28q29 0 60 -17.5t40 -17.5q25 0 25 30h65q0 -44 -25.5 -72t-64.5 -28q-29 0 -60 17.5t-40 17.5q-25 0 -25 -30z" />
    <glyph glyph-name="uni1EAC" unicode="&#x1eac;" horiz-adv-x="570" 
d="M140 700l95 125h100l95 -125h-95l-50 65l-50 -65h-95zM-5 0l235 630h110l235 -630h-125l-45 130h-240l-45 -130h-125zM205 240h160l-80 230zM220 -120q0 26 19.5 45.5t45.5 19.5t45.5 -19.5t19.5 -45.5t-19.5 -45.5t-45.5 -19.5t-45.5 19.5t-19.5 45.5z" />
    <glyph glyph-name="uni1EAD" unicode="&#x1ead;" horiz-adv-x="475" 
d="M105 520l95 125h100l95 -125h-95l-50 65l-50 -65h-95zM340 0l-20 45q-22 -18 -35 -25q-44 -25 -95 -25q-73 0 -114 36t-41 94q0 74 63 114.5t212 40.5q0 38 -20.5 59t-54.5 21q-35 0 -58 -25q-9 -10 -12 -25h-115q9 66 60.5 110.5t134.5 44.5q78 0 129 -51t51 -129v-285
h-85zM310 180v20q-95 0 -127.5 -16t-32.5 -49q0 -19 17.5 -34.5t42.5 -15.5q45 0 72.5 26.5t27.5 68.5zM175 -120q0 26 19.5 45.5t45.5 19.5t45.5 -19.5t19.5 -45.5t-19.5 -45.5t-45.5 -19.5t-45.5 19.5t-19.5 45.5z" />
    <glyph glyph-name="uni1EAE" unicode="&#x1eae;" horiz-adv-x="570" 
d="M-5 0l235 630h110l235 -630h-125l-45 130h-240l-45 -130h-125zM205 240h160l-80 230zM145 815h75q4 -17 12 -30q18 -30 53 -30t53 30q8 13 12 30h75q-9 -54 -46.5 -89.5t-93.5 -35.5t-93.5 35.5t-46.5 89.5zM235 800l65 115h110l-95 -115h-80z" />
    <glyph glyph-name="uni1EAF" unicode="&#x1eaf;" horiz-adv-x="475" 
d="M340 0l-20 45q-22 -18 -35 -25q-44 -25 -95 -25q-73 0 -114 36t-41 94q0 74 63 114.5t212 40.5q0 38 -20.5 59t-54.5 21q-35 0 -58 -25q-9 -10 -12 -25h-115q9 66 60.5 110.5t134.5 44.5q78 0 129 -51t51 -129v-285h-85zM310 180v20q-95 0 -127.5 -16t-32.5 -49
q0 -19 17.5 -34.5t42.5 -15.5q45 0 72.5 26.5t27.5 68.5zM110 635h75q5 -17 12 -30q18 -30 53 -30t53 30q7 13 12 30h75q-9 -54 -46.5 -89.5t-93.5 -35.5t-93.5 35.5t-46.5 89.5zM200 620l65 115h110l-95 -115h-80z" />
    <glyph glyph-name="uni1EB0" unicode="&#x1eb0;" horiz-adv-x="570" 
d="M-5 0l235 630h110l235 -630h-125l-45 130h-240l-45 -130h-125zM205 240h160l-80 230zM145 815h75q4 -17 12 -30q18 -30 53 -30t53 30q8 13 12 30h75q-9 -54 -46.5 -89.5t-93.5 -35.5t-93.5 35.5t-46.5 89.5zM255 800l-95 115h110l65 -115h-80z" />
    <glyph glyph-name="uni1EB1" unicode="&#x1eb1;" horiz-adv-x="475" 
d="M340 0l-20 45q-22 -18 -35 -25q-44 -25 -95 -25q-73 0 -114 36t-41 94q0 74 63 114.5t212 40.5q0 38 -20.5 59t-54.5 21q-35 0 -58 -25q-9 -10 -12 -25h-115q9 66 60.5 110.5t134.5 44.5q78 0 129 -51t51 -129v-285h-85zM310 180v20q-95 0 -127.5 -16t-32.5 -49
q0 -19 17.5 -34.5t42.5 -15.5q45 0 72.5 26.5t27.5 68.5zM110 635h75q5 -17 12 -30q18 -30 53 -30t53 30q7 13 12 30h75q-9 -54 -46.5 -89.5t-93.5 -35.5t-93.5 35.5t-46.5 89.5zM220 620l-95 115h110l65 -115h-80z" />
    <glyph glyph-name="uni1EB2" unicode="&#x1eb2;" horiz-adv-x="570" 
d="M-5 0l235 630h110l235 -630h-125l-45 130h-240l-45 -130h-125zM205 240h160l-80 230zM145 815h75q4 -17 12 -30q18 -30 53 -30t53 30q8 13 12 30h75q-9 -54 -46.5 -89.5t-93.5 -35.5t-93.5 35.5t-46.5 89.5zM205 885v55q2 0 16 5q18 5 39 5q41 0 65.5 -22t24.5 -53
q0 -28 -18 -54q-5 -7 -17 -21h-60q5 7 10 16q10 22 10 39q0 35 -45 35q-6 0 -18 -3z" />
    <glyph glyph-name="uni1EB3" unicode="&#x1eb3;" horiz-adv-x="475" 
d="M340 0l-20 45q-22 -18 -35 -25q-44 -25 -95 -25q-73 0 -114 36t-41 94q0 74 63 114.5t212 40.5q0 38 -20.5 59t-54.5 21q-35 0 -58 -25q-9 -10 -12 -25h-115q9 66 60.5 110.5t134.5 44.5q78 0 129 -51t51 -129v-285h-85zM310 180v20q-95 0 -127.5 -16t-32.5 -49
q0 -19 17.5 -34.5t42.5 -15.5q45 0 72.5 26.5t27.5 68.5zM110 635h75q5 -17 12 -30q18 -30 53 -30t53 30q7 13 12 30h75q-9 -54 -46.5 -89.5t-93.5 -35.5t-93.5 35.5t-46.5 89.5zM170 705v55q3 0 16 5q18 5 39 5q41 0 65.5 -22t24.5 -53q0 -28 -18 -54q-5 -7 -17 -21h-60
q5 7 10 16q10 22 10 39q0 35 -45 35q-6 0 -18 -3z" />
    <glyph glyph-name="uni1EB4" unicode="&#x1eb4;" horiz-adv-x="570" 
d="M-5 0l235 630h110l235 -630h-125l-45 130h-240l-45 -130h-125zM205 240h160l-80 230zM145 815h75q4 -17 12 -30q18 -30 53 -30t53 30q8 13 12 30h75q-9 -54 -46.5 -89.5t-93.5 -35.5t-93.5 35.5t-46.5 89.5zM210 840h-65q0 44 25.5 72t64.5 28q29 0 60 -17.5t40 -17.5
q25 0 25 30h65q0 -44 -25.5 -72t-64.5 -28q-29 0 -60 17.5t-40 17.5q-25 0 -25 -30z" />
    <glyph glyph-name="uni1EB5" unicode="&#x1eb5;" horiz-adv-x="475" 
d="M340 0l-20 45q-22 -18 -35 -25q-44 -25 -95 -25q-73 0 -114 36t-41 94q0 74 63 114.5t212 40.5q0 38 -20.5 59t-54.5 21q-35 0 -58 -25q-9 -10 -12 -25h-115q9 66 60.5 110.5t134.5 44.5q78 0 129 -51t51 -129v-285h-85zM310 180v20q-95 0 -127.5 -16t-32.5 -49
q0 -19 17.5 -34.5t42.5 -15.5q45 0 72.5 26.5t27.5 68.5zM110 635h75q5 -17 12 -30q18 -30 53 -30t53 30q7 13 12 30h75q-9 -54 -46.5 -89.5t-93.5 -35.5t-93.5 35.5t-46.5 89.5zM175 660h-65q0 44 25.5 72t64.5 28q29 0 60 -17.5t40 -17.5q25 0 25 30h65q0 -44 -25.5 -72
t-64.5 -28q-29 0 -60 17.5t-40 17.5q-25 0 -25 -30z" />
    <glyph glyph-name="uni1EB6" unicode="&#x1eb6;" horiz-adv-x="570" 
d="M145 815h85q6 -18 11 -25q15 -25 44 -25t44 25q5 7 11 25h85q-9 -54 -46.5 -89.5t-93.5 -35.5t-93.5 35.5t-46.5 89.5zM-5 0l235 630h110l235 -630h-125l-45 130h-240l-45 -130h-125zM205 240h160l-80 230zM220 -120q0 26 19.5 45.5t45.5 19.5t45.5 -19.5t19.5 -45.5
t-19.5 -45.5t-45.5 -19.5t-45.5 19.5t-19.5 45.5z" />
    <glyph glyph-name="uni1EB7" unicode="&#x1eb7;" horiz-adv-x="475" 
d="M110 635h85q6 -18 11 -25q15 -25 44 -25t44 25q5 7 11 25h85q-9 -54 -46.5 -89.5t-93.5 -35.5t-93.5 35.5t-46.5 89.5zM340 0l-20 45q-22 -18 -35 -25q-44 -25 -95 -25q-73 0 -114 36t-41 94q0 74 63 114.5t212 40.5q0 38 -20.5 59t-54.5 21q-35 0 -58 -25
q-9 -10 -12 -25h-115q9 66 60.5 110.5t134.5 44.5q78 0 129 -51t51 -129v-285h-85zM310 180v20q-95 0 -127.5 -16t-32.5 -49q0 -19 17.5 -34.5t42.5 -15.5q45 0 72.5 26.5t27.5 68.5zM175 -120q0 26 19.5 45.5t45.5 19.5t45.5 -19.5t19.5 -45.5t-19.5 -45.5t-45.5 -19.5
t-45.5 19.5t-19.5 45.5z" />
    <glyph glyph-name="uni1EB8" unicode="&#x1eb8;" horiz-adv-x="545" 
d="M65 0v630h435v-115h-315v-135h290v-115h-290v-150h325v-115h-445zM230 -120q0 26 19.5 45.5t45.5 19.5t45.5 -19.5t19.5 -45.5t-19.5 -45.5t-45.5 -19.5t-45.5 19.5t-19.5 45.5z" />
    <glyph glyph-name="uni1EB9" unicode="&#x1eb9;" 
d="M345 140h120q-20 -57 -76 -101t-129 -44q-94 0 -162 69t-68 166t68 166t162 69q92 0 156 -66t64 -169q0 -3 -3 -30l-2 -15h-320q20 -80 105 -80q37 0 65 17q13 8 20 18zM150 265h220q-9 40 -38 65t-72 25t-72 -25t-38 -65zM195 -120q0 26 19.5 45.5t45.5 19.5t45.5 -19.5
t19.5 -45.5t-19.5 -45.5t-45.5 -19.5t-45.5 19.5t-19.5 45.5z" />
    <glyph glyph-name="uni1EBA" unicode="&#x1eba;" horiz-adv-x="545" 
d="M65 0v630h435v-115h-315v-135h290v-115h-290v-150h325v-115h-445zM210 790v55l17 5q18 5 43 5q41 0 65.5 -22.5t24.5 -57.5q0 -36 -20 -63q-6 -8 -20 -22h-60q8 10 12 19q13 20 13 41q0 19 -13.5 32t-36.5 13q-6 0 -18 -3z" />
    <glyph glyph-name="uni1EBB" unicode="&#x1ebb;" 
d="M345 140h120q-20 -57 -76 -101t-129 -44q-94 0 -162 69t-68 166t68 166t162 69q92 0 156 -66t64 -169q0 -3 -3 -30l-2 -15h-320q20 -80 105 -80q37 0 65 17q13 8 20 18zM150 265h220q-9 40 -38 65t-72 25t-72 -25t-38 -65zM185 610v55l17 5q18 5 43 5q41 0 65.5 -22.5
t24.5 -57.5q0 -36 -20 -63q-6 -8 -20 -22h-60q8 10 12 19q13 20 13 41q0 19 -13.5 32t-36.5 13q-6 0 -18 -3z" />
    <glyph glyph-name="uni1EBC" unicode="&#x1ebc;" horiz-adv-x="545" 
d="M65 0v630h435v-115h-315v-135h290v-115h-290v-150h325v-115h-445zM200 690h-60q0 61 25 93t65 32q33 0 67.5 -27.5t42.5 -27.5q16 0 28 14t12 36h60q0 -61 -25 -93t-65 -32q-34 0 -68 27.5t-42 27.5q-16 0 -28 -14t-12 -36z" />
    <glyph glyph-name="uni1EBD" unicode="&#x1ebd;" 
d="M345 140h120q-20 -57 -76 -101t-129 -44q-94 0 -162 69t-68 166t68 166t162 69q92 0 156 -66t64 -169q0 -3 -3 -30l-2 -15h-320q20 -80 105 -80q37 0 65 17q13 8 20 18zM150 265h220q-9 40 -38 65t-72 25t-72 -25t-38 -65zM170 515h-60q0 61 25 93t65 32q33 0 67.5 -27.5
t42.5 -27.5q16 0 28 14t12 36h60q0 -61 -25 -93t-65 -32q-34 0 -68 27.5t-42 27.5q-16 0 -28 -14t-12 -36z" />
    <glyph glyph-name="uni1EBE" unicode="&#x1ebe;" horiz-adv-x="545" 
d="M65 0v630h435v-115h-315v-135h290v-115h-290v-150h325v-115h-445zM150 700l85 125h100l85 -125h-95l-40 65l-40 -65h-95zM390 770l55 105h100l-80 -105h-75z" />
    <glyph glyph-name="uni1EBF" unicode="&#x1ebf;" 
d="M345 140h120q-20 -57 -76 -101t-129 -44q-94 0 -162 69t-68 166t68 166t162 69q92 0 156 -66t64 -169q0 -3 -3 -30l-2 -15h-320q20 -80 105 -80q37 0 65 17q13 8 20 18zM150 265h220q-9 40 -38 65t-72 25t-72 -25t-38 -65zM125 520l85 125h100l85 -125h-95l-40 65
l-40 -65h-95zM365 590l55 105h100l-80 -105h-75z" />
    <glyph glyph-name="uni1EC0" unicode="&#x1ec0;" horiz-adv-x="545" 
d="M65 0v630h435v-115h-315v-135h290v-115h-290v-150h325v-115h-445zM150 700l85 125h100l85 -125h-95l-40 65l-40 -65h-95zM425 770l-80 105h100l55 -105h-75z" />
    <glyph glyph-name="uni1EC1" unicode="&#x1ec1;" 
d="M345 140h120q-20 -57 -76 -101t-129 -44q-94 0 -162 69t-68 166t68 166t162 69q92 0 156 -66t64 -169q0 -3 -3 -30l-2 -15h-320q20 -80 105 -80q37 0 65 17q13 8 20 18zM150 265h220q-9 40 -38 65t-72 25t-72 -25t-38 -65zM125 520l85 125h100l85 -125h-95l-40 65
l-40 -65h-95zM400 590l-80 105h100l55 -105h-75z" />
    <glyph glyph-name="uni1EC2" unicode="&#x1ec2;" horiz-adv-x="545" 
d="M65 0v630h435v-115h-315v-135h290v-115h-290v-150h325v-115h-445zM150 700l85 125h100l85 -125h-95l-40 65l-40 -65h-95zM345 850v55q3 1 16 5q18 5 39 5q41 0 65.5 -22t24.5 -53q0 -28 -18 -54q-5 -7 -17 -21h-60q5 7 10 16q10 22 10 39q0 35 -45 35q-6 0 -18 -3z" />
    <glyph glyph-name="uni1EC3" unicode="&#x1ec3;" 
d="M345 140h120q-20 -57 -76 -101t-129 -44q-94 0 -162 69t-68 166t68 166t162 69q92 0 156 -66t64 -169q0 -3 -3 -30l-2 -15h-320q20 -80 105 -80q37 0 65 17q13 8 20 18zM150 265h220q-9 40 -38 65t-72 25t-72 -25t-38 -65zM125 520l85 125h100l85 -125h-95l-40 65
l-40 -65h-95zM320 670v55q3 1 16 5q18 5 39 5q41 0 65.5 -22t24.5 -53q0 -28 -18 -54q-5 -7 -17 -21h-60q5 7 10 16q10 22 10 39q0 35 -45 35q-6 0 -18 -3z" />
    <glyph glyph-name="uni1EC4" unicode="&#x1ec4;" horiz-adv-x="545" 
d="M65 0v630h435v-115h-315v-135h290v-115h-290v-150h325v-115h-445zM150 700l85 115h100l85 -115h-95l-40 55l-40 -55h-95zM210 840h-65q0 44 25.5 72t64.5 28q29 0 60 -17.5t40 -17.5q25 0 25 30h65q0 -44 -25.5 -72t-64.5 -28q-29 0 -60 17.5t-40 17.5q-25 0 -25 -30z
" />
    <glyph glyph-name="uni1EC5" unicode="&#x1ec5;" 
d="M345 140h120q-20 -57 -76 -101t-129 -44q-94 0 -162 69t-68 166t68 166t162 69q92 0 156 -66t64 -169q0 -3 -3 -30l-2 -15h-320q20 -80 105 -80q37 0 65 17q13 8 20 18zM150 265h220q-9 40 -38 65t-72 25t-72 -25t-38 -65zM125 520l85 115h100l85 -115h-95l-40 55
l-40 -55h-95zM185 660h-65q0 44 25.5 72t64.5 28q29 0 60 -17.5t40 -17.5q25 0 25 30h65q0 -44 -25.5 -72t-64.5 -28q-29 0 -60 17.5t-40 17.5q-25 0 -25 -30z" />
    <glyph glyph-name="uni1EC6" unicode="&#x1ec6;" horiz-adv-x="545" 
d="M140 700l95 125h100l95 -125h-95l-50 65l-50 -65h-95zM65 0v630h435v-115h-315v-135h290v-115h-290v-150h325v-115h-445zM220 -120q0 26 19.5 45.5t45.5 19.5t45.5 -19.5t19.5 -45.5t-19.5 -45.5t-45.5 -19.5t-45.5 19.5t-19.5 45.5z" />
    <glyph glyph-name="uni1EC7" unicode="&#x1ec7;" 
d="M115 520l95 125h100l95 -125h-95l-50 65l-50 -65h-95zM345 140h120q-20 -57 -76 -101t-129 -44q-94 0 -162 69t-68 166t68 166t162 69q92 0 156 -66t64 -169q0 -3 -3 -30l-2 -15h-320q20 -80 105 -80q37 0 65 17q13 8 20 18zM150 265h220q-9 40 -38 65t-72 25t-72 -25
t-38 -65zM195 -120q0 26 19.5 45.5t45.5 19.5t45.5 -19.5t19.5 -45.5t-19.5 -45.5t-45.5 -19.5t-45.5 19.5t-19.5 45.5z" />
    <glyph glyph-name="uni1EC8" unicode="&#x1ec8;" horiz-adv-x="250" 
d="M65 0v630h120v-630h-120zM45 790v55l17 5q18 5 43 5q41 0 65.5 -22.5t24.5 -57.5q0 -36 -20 -63q-6 -8 -20 -22h-60q8 10 12 19q13 20 13 41q0 19 -13.5 32t-36.5 13q-6 0 -18 -3z" />
    <glyph glyph-name="uni1EC9" unicode="&#x1ec9;" horiz-adv-x="225" 
d="M55 0v460h115v-460h-115zM30 610v55l17 5q18 5 43 5q41 0 65.5 -22.5t24.5 -57.5q0 -36 -20 -63q-6 -8 -20 -22h-60q8 10 12 19q13 20 13 41q0 19 -13.5 32t-36.5 13q-6 0 -18 -3z" />
    <glyph glyph-name="uni1ECA" unicode="&#x1eca;" horiz-adv-x="250" 
d="M65 0v630h120v-630h-120zM60 -120q0 26 19.5 45.5t45.5 19.5t45.5 -19.5t19.5 -45.5t-19.5 -45.5t-45.5 -19.5t-45.5 19.5t-19.5 45.5z" />
    <glyph glyph-name="uni1ECB" unicode="&#x1ecb;" horiz-adv-x="225" 
d="M55 0v460h115v-460h-115zM115 515q-26 0 -45.5 19.5t-19.5 45.5t19.5 45.5t45.5 19.5t45.5 -19.5t19.5 -45.5t-19.5 -45.5t-45.5 -19.5zM50 -120q0 26 19.5 45.5t45.5 19.5t45.5 -19.5t19.5 -45.5t-19.5 -45.5t-45.5 -19.5t-45.5 19.5t-19.5 45.5z" />
    <glyph glyph-name="uni1ECC" unicode="&#x1ecc;" horiz-adv-x="670" 
d="M335 520q-76 0 -130.5 -58.5t-54.5 -146.5t54.5 -146.5t130.5 -58.5t130.5 58.5t54.5 146.5t-54.5 146.5t-130.5 58.5zM335 635q125 0 215 -93t90 -227t-90 -227t-215 -93t-215 93t-90 227t90 227t215 93zM270 -120q0 26 19.5 45.5t45.5 19.5t45.5 -19.5t19.5 -45.5
t-19.5 -45.5t-45.5 -19.5t-45.5 19.5t-19.5 45.5z" />
    <glyph glyph-name="uni1ECD" unicode="&#x1ecd;" horiz-adv-x="520" 
d="M260 355q-50 0 -82.5 -34.5t-32.5 -90.5t32.5 -90.5t82.5 -34.5t82.5 34.5t32.5 90.5t-32.5 90.5t-82.5 34.5zM260 465q94 0 162 -69t68 -166t-68 -166t-162 -69t-162 69t-68 166t68 166t162 69zM195 -120q0 26 19.5 45.5t45.5 19.5t45.5 -19.5t19.5 -45.5t-19.5 -45.5
t-45.5 -19.5t-45.5 19.5t-19.5 45.5z" />
    <glyph glyph-name="uni1ECE" unicode="&#x1ece;" horiz-adv-x="670" 
d="M335 520q-76 0 -130.5 -58.5t-54.5 -146.5t54.5 -146.5t130.5 -58.5t130.5 58.5t54.5 146.5t-54.5 146.5t-130.5 58.5zM335 635q125 0 215 -93t90 -227t-90 -227t-215 -93t-215 93t-90 227t90 227t215 93zM260 790v55l17 5q18 5 43 5q41 0 65.5 -22.5t24.5 -57.5
q0 -36 -20 -63q-6 -8 -20 -22h-60q8 10 12 19q13 20 13 41q0 19 -13.5 32t-36.5 13q-6 0 -18 -3z" />
    <glyph glyph-name="uni1ECF" unicode="&#x1ecf;" horiz-adv-x="520" 
d="M260 355q-50 0 -82.5 -34.5t-32.5 -90.5t32.5 -90.5t82.5 -34.5t82.5 34.5t32.5 90.5t-32.5 90.5t-82.5 34.5zM260 465q94 0 162 -69t68 -166t-68 -166t-162 -69t-162 69t-68 166t68 166t162 69zM175 610v55l17 5q18 5 43 5q41 0 65.5 -22.5t24.5 -57.5q0 -36 -20 -63
q-6 -8 -20 -22h-60q8 10 12 19q13 20 13 41q0 19 -13.5 32t-36.5 13q-6 0 -18 -3z" />
    <glyph glyph-name="uni1ED0" unicode="&#x1ed0;" horiz-adv-x="670" 
d="M335 520q-76 0 -130.5 -58.5t-54.5 -146.5t54.5 -146.5t130.5 -58.5t130.5 58.5t54.5 146.5t-54.5 146.5t-130.5 58.5zM335 635q125 0 215 -93t90 -227t-90 -227t-215 -93t-215 93t-90 227t90 227t215 93zM200 700l85 125h100l85 -125h-95l-40 65l-40 -65h-95zM440 770
l55 105h100l-80 -105h-75z" />
    <glyph glyph-name="uni1ED1" unicode="&#x1ed1;" horiz-adv-x="520" 
d="M260 355q-50 0 -82.5 -34.5t-32.5 -90.5t32.5 -90.5t82.5 -34.5t82.5 34.5t32.5 90.5t-32.5 90.5t-82.5 34.5zM260 465q94 0 162 -69t68 -166t-68 -166t-162 -69t-162 69t-68 166t68 166t162 69zM125 520l85 125h100l85 -125h-95l-40 65l-40 -65h-95zM365 590l55 105h100
l-80 -105h-75z" />
    <glyph glyph-name="uni1ED2" unicode="&#x1ed2;" horiz-adv-x="670" 
d="M335 520q-76 0 -130.5 -58.5t-54.5 -146.5t54.5 -146.5t130.5 -58.5t130.5 58.5t54.5 146.5t-54.5 146.5t-130.5 58.5zM335 635q125 0 215 -93t90 -227t-90 -227t-215 -93t-215 93t-90 227t90 227t215 93zM200 700l85 125h100l85 -125h-95l-40 65l-40 -65h-95zM475 770
l-80 105h100l55 -105h-75z" />
    <glyph glyph-name="uni1ED3" unicode="&#x1ed3;" horiz-adv-x="520" 
d="M260 355q-50 0 -82.5 -34.5t-32.5 -90.5t32.5 -90.5t82.5 -34.5t82.5 34.5t32.5 90.5t-32.5 90.5t-82.5 34.5zM260 465q94 0 162 -69t68 -166t-68 -166t-162 -69t-162 69t-68 166t68 166t162 69zM125 520l85 125h100l85 -125h-95l-40 65l-40 -65h-95zM400 590l-80 105
h100l55 -105h-75z" />
    <glyph glyph-name="uni1ED4" unicode="&#x1ed4;" horiz-adv-x="670" 
d="M335 520q-76 0 -130.5 -58.5t-54.5 -146.5t54.5 -146.5t130.5 -58.5t130.5 58.5t54.5 146.5t-54.5 146.5t-130.5 58.5zM335 635q125 0 215 -93t90 -227t-90 -227t-215 -93t-215 93t-90 227t90 227t215 93zM200 700l85 125h100l85 -125h-95l-40 65l-40 -65h-95zM395 850
v55q3 1 16 5q18 5 39 5q41 0 65.5 -22t24.5 -53q0 -28 -18 -54q-5 -7 -17 -21h-60q5 7 10 16q10 22 10 39q0 35 -45 35q-6 0 -18 -3z" />
    <glyph glyph-name="uni1ED5" unicode="&#x1ed5;" horiz-adv-x="520" 
d="M260 355q-50 0 -82.5 -34.5t-32.5 -90.5t32.5 -90.5t82.5 -34.5t82.5 34.5t32.5 90.5t-32.5 90.5t-82.5 34.5zM260 465q94 0 162 -69t68 -166t-68 -166t-162 -69t-162 69t-68 166t68 166t162 69zM125 520l85 125h100l85 -125h-95l-40 65l-40 -65h-95zM320 670v55
q3 1 16 5q18 5 39 5q41 0 65.5 -22t24.5 -53q0 -28 -18 -54q-5 -7 -17 -21h-60q5 7 10 16q10 22 10 39q0 35 -45 35q-6 0 -18 -3z" />
    <glyph glyph-name="uni1ED6" unicode="&#x1ed6;" horiz-adv-x="670" 
d="M335 520q-76 0 -130.5 -58.5t-54.5 -146.5t54.5 -146.5t130.5 -58.5t130.5 58.5t54.5 146.5t-54.5 146.5t-130.5 58.5zM335 635q125 0 215 -93t90 -227t-90 -227t-215 -93t-215 93t-90 227t90 227t215 93zM200 700l85 115h100l85 -115h-95l-40 55l-40 -55h-95zM260 840
h-65q0 44 25.5 72t64.5 28q29 0 60 -17.5t40 -17.5q25 0 25 30h65q0 -44 -25.5 -72t-64.5 -28q-29 0 -60 17.5t-40 17.5q-25 0 -25 -30z" />
    <glyph glyph-name="uni1ED7" unicode="&#x1ed7;" horiz-adv-x="520" 
d="M260 355q-50 0 -82.5 -34.5t-32.5 -90.5t32.5 -90.5t82.5 -34.5t82.5 34.5t32.5 90.5t-32.5 90.5t-82.5 34.5zM260 465q94 0 162 -69t68 -166t-68 -166t-162 -69t-162 69t-68 166t68 166t162 69zM125 520l85 115h100l85 -115h-95l-40 55l-40 -55h-95zM185 660h-65
q0 44 25.5 72t64.5 28q29 0 60 -17.5t40 -17.5q25 0 25 30h65q0 -44 -25.5 -72t-64.5 -28q-29 0 -60 17.5t-40 17.5q-25 0 -25 -30z" />
    <glyph glyph-name="uni1ED8" unicode="&#x1ed8;" horiz-adv-x="670" 
d="M190 700l95 125h100l95 -125h-95l-50 65l-50 -65h-95zM335 520q-76 0 -130.5 -58.5t-54.5 -146.5t54.5 -146.5t130.5 -58.5t130.5 58.5t54.5 146.5t-54.5 146.5t-130.5 58.5zM335 635q125 0 215 -93t90 -227t-90 -227t-215 -93t-215 93t-90 227t90 227t215 93zM270 -120
q0 26 19.5 45.5t45.5 19.5t45.5 -19.5t19.5 -45.5t-19.5 -45.5t-45.5 -19.5t-45.5 19.5t-19.5 45.5z" />
    <glyph glyph-name="uni1ED9" unicode="&#x1ed9;" horiz-adv-x="520" 
d="M115 520l95 125h100l95 -125h-95l-50 65l-50 -65h-95zM260 355q-50 0 -82.5 -34.5t-32.5 -90.5t32.5 -90.5t82.5 -34.5t82.5 34.5t32.5 90.5t-32.5 90.5t-82.5 34.5zM260 465q94 0 162 -69t68 -166t-68 -166t-162 -69t-162 69t-68 166t68 166t162 69zM195 -120
q0 26 19.5 45.5t45.5 19.5t45.5 -19.5t19.5 -45.5t-19.5 -45.5t-45.5 -19.5t-45.5 19.5t-19.5 45.5z" />
    <glyph glyph-name="uni1EDA" unicode="&#x1eda;" horiz-adv-x="680" 
d="M515 575h20q18 0 29 10t11 25q0 17 -8 39l-7 16h70q5 -6 10 -18q10 -22 10 -47q0 -51 -40 -73q-18 -11 -40 -12q17 -18 35 -51q35 -72 35 -149q0 -134 -90 -227t-215 -93t-215 93t-90 227t90 227t215 93q65 0 129 -30q28 -13 51 -30zM335 110q76 0 130.5 58.5t54.5 146.5
t-54.5 146.5t-130.5 58.5t-130.5 -58.5t-54.5 -146.5t54.5 -146.5t130.5 -58.5zM295 700l65 125h110l-90 -125h-85z" />
    <glyph glyph-name="uni1EDB" unicode="&#x1edb;" horiz-adv-x="535" 
d="M400 415h15q18 0 29 10t11 25q0 17 -8 39l-7 16h70q5 -6 10 -18q10 -22 10 -47q0 -47 -38 -71q-17 -11 -37 -14q11 -18 17 -34q18 -46 18 -91q0 -97 -68 -166t-162 -69t-162 69t-68 166t68 166t162 69q52 0 102 -25q19 -10 38 -25zM260 105q50 0 82.5 34.5t32.5 90.5
t-32.5 90.5t-82.5 34.5t-82.5 -34.5t-32.5 -90.5t32.5 -90.5t82.5 -34.5zM220 520l65 125h110l-90 -125h-85z" />
    <glyph glyph-name="uni1EDC" unicode="&#x1edc;" horiz-adv-x="680" 
d="M515 575h20q18 0 29 10t11 25q0 17 -8 39l-7 16h70q5 -6 10 -18q10 -22 10 -47q0 -51 -40 -73q-18 -11 -40 -12q17 -18 35 -51q35 -72 35 -149q0 -134 -90 -227t-215 -93t-215 93t-90 227t90 227t215 93q65 0 129 -30q28 -13 51 -30zM335 110q76 0 130.5 58.5t54.5 146.5
t-54.5 146.5t-130.5 58.5t-130.5 -58.5t-54.5 -146.5t54.5 -146.5t130.5 -58.5zM295 700l-90 125h110l65 -125h-85z" />
    <glyph glyph-name="uni1EDD" unicode="&#x1edd;" horiz-adv-x="535" 
d="M400 415h15q18 0 29 10t11 25q0 17 -8 39l-7 16h70q5 -6 10 -18q10 -22 10 -47q0 -47 -38 -71q-17 -11 -37 -14q11 -18 17 -34q18 -46 18 -91q0 -97 -68 -166t-162 -69t-162 69t-68 166t68 166t162 69q52 0 102 -25q19 -10 38 -25zM260 105q50 0 82.5 34.5t32.5 90.5
t-32.5 90.5t-82.5 34.5t-82.5 -34.5t-32.5 -90.5t32.5 -90.5t82.5 -34.5zM225 520l-90 125h110l65 -125h-85z" />
    <glyph glyph-name="uni1EDE" unicode="&#x1ede;" horiz-adv-x="680" 
d="M515 575h20q18 0 29 10t11 25q0 17 -8 39l-7 16h70q5 -6 10 -18q10 -22 10 -47q0 -51 -40 -73q-18 -11 -40 -12q17 -18 35 -51q35 -72 35 -149q0 -134 -90 -227t-215 -93t-215 93t-90 227t90 227t215 93q65 0 129 -30q28 -13 51 -30zM335 110q76 0 130.5 58.5t54.5 146.5
t-54.5 146.5t-130.5 58.5t-130.5 -58.5t-54.5 -146.5t54.5 -146.5t130.5 -58.5zM260 790v55l17 5q18 5 43 5q41 0 65.5 -22.5t24.5 -57.5q0 -36 -20 -63q-6 -8 -20 -22h-60q8 10 12 19q13 20 13 41q0 19 -13.5 32t-36.5 13q-6 0 -18 -3z" />
    <glyph glyph-name="uni1EDF" unicode="&#x1edf;" horiz-adv-x="535" 
d="M400 415h15q18 0 29 10t11 25q0 17 -8 39l-7 16h70q5 -6 10 -18q10 -22 10 -47q0 -47 -38 -71q-17 -11 -37 -14q11 -18 17 -34q18 -46 18 -91q0 -97 -68 -166t-162 -69t-162 69t-68 166t68 166t162 69q52 0 102 -25q19 -10 38 -25zM260 105q50 0 82.5 34.5t32.5 90.5
t-32.5 90.5t-82.5 34.5t-82.5 -34.5t-32.5 -90.5t32.5 -90.5t82.5 -34.5zM175 610v55l17 5q18 5 43 5q41 0 65.5 -22.5t24.5 -57.5q0 -36 -20 -63q-6 -8 -20 -22h-60q8 10 12 19q13 20 13 41q0 19 -13.5 32t-36.5 13q-6 0 -18 -3z" />
    <glyph glyph-name="uni1EE0" unicode="&#x1ee0;" horiz-adv-x="680" 
d="M515 575h20q18 0 29 10t11 25q0 17 -8 39l-7 16h70q5 -6 10 -18q10 -22 10 -47q0 -51 -40 -73q-18 -11 -40 -12q17 -18 35 -51q35 -72 35 -149q0 -134 -90 -227t-215 -93t-215 93t-90 227t90 227t215 93q65 0 129 -30q28 -13 51 -30zM335 110q76 0 130.5 58.5t54.5 146.5
t-54.5 146.5t-130.5 58.5t-130.5 -58.5t-54.5 -146.5t54.5 -146.5t130.5 -58.5zM245 690h-60q0 61 25 93t65 32q33 0 67.5 -27.5t42.5 -27.5q16 0 28 14t12 36h60q0 -61 -25 -93t-65 -32q-20 0 -39 8.5t-30 19t-22 19t-19 8.5q-16 0 -28 -14t-12 -36z" />
    <glyph glyph-name="uni1EE1" unicode="&#x1ee1;" horiz-adv-x="535" 
d="M400 415h15q18 0 29 10t11 25q0 17 -8 39l-7 16h70q5 -6 10 -18q10 -22 10 -47q0 -47 -38 -71q-17 -11 -37 -14q11 -18 17 -34q18 -46 18 -91q0 -97 -68 -166t-162 -69t-162 69t-68 166t68 166t162 69q52 0 102 -25q19 -10 38 -25zM260 105q50 0 82.5 34.5t32.5 90.5
t-32.5 90.5t-82.5 34.5t-82.5 -34.5t-32.5 -90.5t32.5 -90.5t82.5 -34.5zM170 515h-60q0 61 25 93t65 32q33 0 67.5 -27.5t42.5 -27.5q16 0 28 14t12 36h60q0 -61 -25 -93t-65 -32q-34 0 -68 27.5t-42 27.5q-16 0 -28 -14t-12 -36z" />
    <glyph glyph-name="uni1EE2" unicode="&#x1ee2;" horiz-adv-x="680" 
d="M515 575h20q18 0 29 10t11 25q0 17 -8 39l-7 16h70q5 -6 10 -18q10 -22 10 -47q0 -51 -40 -73q-18 -11 -40 -12q17 -18 35 -51q35 -72 35 -149q0 -134 -90 -227t-215 -93t-215 93t-90 227t90 227t215 93q65 0 129 -30q28 -13 51 -30zM335 110q76 0 130.5 58.5t54.5 146.5
t-54.5 146.5t-130.5 58.5t-130.5 -58.5t-54.5 -146.5t54.5 -146.5t130.5 -58.5zM270 -120q0 26 19.5 45.5t45.5 19.5t45.5 -19.5t19.5 -45.5t-19.5 -45.5t-45.5 -19.5t-45.5 19.5t-19.5 45.5z" />
    <glyph glyph-name="uni1EE3" unicode="&#x1ee3;" horiz-adv-x="535" 
d="M400 415h15q18 0 29 10t11 25q0 17 -8 39l-7 16h70q5 -6 10 -18q10 -22 10 -47q0 -47 -38 -71q-17 -11 -37 -14q11 -18 17 -34q18 -46 18 -91q0 -97 -68 -166t-162 -69t-162 69t-68 166t68 166t162 69q52 0 102 -25q19 -10 38 -25zM260 105q50 0 82.5 34.5t32.5 90.5
t-32.5 90.5t-82.5 34.5t-82.5 -34.5t-32.5 -90.5t32.5 -90.5t82.5 -34.5zM195 -120q0 26 19.5 45.5t45.5 19.5t45.5 -19.5t19.5 -45.5t-19.5 -45.5t-45.5 -19.5t-45.5 19.5t-19.5 45.5z" />
    <glyph glyph-name="uni1EE4" unicode="&#x1ee4;" horiz-adv-x="620" 
d="M60 240v390h120v-390q0 -60 35 -95t95 -35t95 35t35 95v390h120v-390q0 -105 -71 -175t-179 -70t-179 70t-71 175zM245 -120q0 26 19.5 45.5t45.5 19.5t45.5 -19.5t19.5 -45.5t-19.5 -45.5t-45.5 -19.5t-45.5 19.5t-19.5 45.5z" />
    <glyph glyph-name="uni1EE5" unicode="&#x1ee5;" horiz-adv-x="530" 
d="M55 190v270h115v-255q0 -45 26.5 -72.5t68.5 -27.5t68.5 27.5t26.5 72.5v255h115v-460h-85l-20 45q-18 -15 -37 -25q-44 -25 -93 -25q-83 0 -134 53t-51 142zM200 -120q0 26 19.5 45.5t45.5 19.5t45.5 -19.5t19.5 -45.5t-19.5 -45.5t-45.5 -19.5t-45.5 19.5t-19.5 45.5z
" />
    <glyph glyph-name="uni1EE6" unicode="&#x1ee6;" horiz-adv-x="620" 
d="M60 240v390h120v-390q0 -60 35 -95t95 -35t95 35t35 95v390h120v-390q0 -105 -71 -175t-179 -70t-179 70t-71 175zM225 790v55l17 5q18 5 43 5q41 0 65.5 -22.5t24.5 -57.5q0 -36 -20 -63q-6 -8 -20 -22h-60q8 10 12 19q13 20 13 41q0 19 -13.5 32t-36.5 13q-6 0 -18 -3z
" />
    <glyph glyph-name="uni1EE7" unicode="&#x1ee7;" horiz-adv-x="530" 
d="M55 190v270h115v-255q0 -45 26.5 -72.5t68.5 -27.5t68.5 27.5t26.5 72.5v255h115v-460h-85l-20 45q-18 -15 -37 -25q-44 -25 -93 -25q-83 0 -134 53t-51 142zM185 610v55l17 5q18 5 43 5q41 0 65.5 -22.5t24.5 -57.5q0 -36 -20 -63q-6 -8 -20 -22h-60q8 10 12 19
q13 20 13 41q0 19 -13.5 32t-36.5 13q-6 0 -18 -3z" />
    <glyph glyph-name="uni1EE8" unicode="&#x1ee8;" horiz-adv-x="660" 
d="M60 240v390h120v-390q0 -60 35 -95t95 -35t95 35t35 95v390h120v-55h15q18 0 29 10t11 25q0 17 -8 39l-7 16h70q5 -6 10 -18q10 -22 10 -47q0 -39 -25.5 -62t-69.5 -23q-9 0 -23 2l-12 3v-280q0 -105 -71 -175t-179 -70t-179 70t-71 175zM265 700l65 125h110l-90 -125
h-85z" />
    <glyph glyph-name="uni1EE9" unicode="&#x1ee9;" horiz-adv-x="585" 
d="M55 190v270h115v-255q0 -45 26.5 -72.5t68.5 -27.5t68.5 27.5t26.5 72.5v255h115v-45h15q18 0 29 10t11 25q0 17 -8 39l-7 16h70q5 -6 10 -18q10 -22 10 -47q0 -39 -25.5 -62t-69.5 -23q-9 0 -23 2l-12 3v-360h-85l-20 45q-18 -15 -37 -25q-44 -25 -93 -25q-83 0 -134 53
t-51 142zM220 520l65 125h110l-90 -125h-85z" />
    <glyph glyph-name="uni1EEA" unicode="&#x1eea;" horiz-adv-x="660" 
d="M60 240v390h120v-390q0 -60 35 -95t95 -35t95 35t35 95v390h120v-55h15q18 0 29 10t11 25q0 17 -8 39l-7 16h70q5 -6 10 -18q10 -22 10 -47q0 -39 -25.5 -62t-69.5 -23q-9 0 -23 2l-12 3v-280q0 -105 -71 -175t-179 -70t-179 70t-71 175zM275 700l-90 125h110l65 -125
h-85z" />
    <glyph glyph-name="uni1EEB" unicode="&#x1eeb;" horiz-adv-x="585" 
d="M55 190v270h115v-255q0 -45 26.5 -72.5t68.5 -27.5t68.5 27.5t26.5 72.5v255h115v-45h15q18 0 29 10t11 25q0 17 -8 39l-7 16h70q5 -6 10 -18q10 -22 10 -47q0 -39 -25.5 -62t-69.5 -23q-9 0 -23 2l-12 3v-360h-85l-20 45q-18 -15 -37 -25q-44 -25 -93 -25q-83 0 -134 53
t-51 142zM235 520l-90 125h110l65 -125h-85z" />
    <glyph glyph-name="uni1EEC" unicode="&#x1eec;" horiz-adv-x="660" 
d="M60 240v390h120v-390q0 -60 35 -95t95 -35t95 35t35 95v390h120v-55h15q18 0 29 10t11 25q0 17 -8 39l-7 16h70q5 -6 10 -18q10 -22 10 -47q0 -39 -25.5 -62t-69.5 -23q-9 0 -23 2l-12 3v-280q0 -105 -71 -175t-179 -70t-179 70t-71 175zM225 790v55l17 5q18 5 43 5
q41 0 65.5 -22.5t24.5 -57.5q0 -36 -20 -63q-6 -8 -20 -22h-60q8 10 12 19q13 20 13 41q0 19 -13.5 32t-36.5 13q-6 0 -18 -3z" />
    <glyph glyph-name="uni1EED" unicode="&#x1eed;" horiz-adv-x="585" 
d="M55 190v270h115v-255q0 -45 26.5 -72.5t68.5 -27.5t68.5 27.5t26.5 72.5v255h115v-45h15q18 0 29 10t11 25q0 17 -8 39l-7 16h70q5 -6 10 -18q10 -22 10 -47q0 -39 -25.5 -62t-69.5 -23q-9 0 -23 2l-12 3v-360h-85l-20 45q-18 -15 -37 -25q-44 -25 -93 -25q-83 0 -134 53
t-51 142zM185 610v55l17 5q18 5 43 5q41 0 65.5 -22.5t24.5 -57.5q0 -36 -20 -63q-6 -8 -20 -22h-60q8 10 12 19q13 20 13 41q0 19 -13.5 32t-36.5 13q-6 0 -18 -3z" />
    <glyph glyph-name="uni1EEE" unicode="&#x1eee;" horiz-adv-x="660" 
d="M60 240v390h120v-390q0 -60 35 -95t95 -35t95 35t35 95v390h120v-55h15q18 0 29 10t11 25q0 17 -8 39l-7 16h70q5 -6 10 -18q10 -22 10 -47q0 -39 -25.5 -62t-69.5 -23q-9 0 -23 2l-12 3v-280q0 -105 -71 -175t-179 -70t-179 70t-71 175zM220 690h-60q0 61 25 93t65 32
q33 0 67.5 -27.5t42.5 -27.5q16 0 28 14t12 36h60q0 -61 -25 -93t-65 -32q-34 0 -68 27.5t-42 27.5q-16 0 -28 -14t-12 -36z" />
    <glyph glyph-name="uni1EEF" unicode="&#x1eef;" horiz-adv-x="585" 
d="M55 190v270h115v-255q0 -45 26.5 -72.5t68.5 -27.5t68.5 27.5t26.5 72.5v255h115v-45h15q18 0 29 10t11 25q0 17 -8 39l-7 16h70q5 -6 10 -18q10 -22 10 -47q0 -39 -25.5 -62t-69.5 -23q-9 0 -23 2l-12 3v-360h-85l-20 45q-18 -15 -37 -25q-44 -25 -93 -25q-83 0 -134 53
t-51 142zM175 515h-60q0 61 25 93t65 32q33 0 67.5 -27.5t42.5 -27.5q16 0 28 14t12 36h60q0 -61 -25 -93t-65 -32q-26 0 -48 14t-37.5 27.5t-24.5 13.5q-16 0 -28 -14t-12 -36z" />
    <glyph glyph-name="uni1EF0" unicode="&#x1ef0;" horiz-adv-x="660" 
d="M60 240v390h120v-390q0 -60 35 -95t95 -35t95 35t35 95v390h120v-55h15q18 0 29 10t11 25q0 17 -8 39l-7 16h70q5 -6 10 -18q10 -22 10 -47q0 -39 -25.5 -62t-69.5 -23q-9 0 -23 2l-12 3v-280q0 -105 -71 -175t-179 -70t-179 70t-71 175zM245 -120q0 26 19.5 45.5
t45.5 19.5t45.5 -19.5t19.5 -45.5t-19.5 -45.5t-45.5 -19.5t-45.5 19.5t-19.5 45.5z" />
    <glyph glyph-name="uni1EF1" unicode="&#x1ef1;" horiz-adv-x="585" 
d="M55 190v270h115v-255q0 -45 26.5 -72.5t68.5 -27.5t68.5 27.5t26.5 72.5v255h115v-45h15q18 0 29 10t11 25q0 17 -8 39l-7 16h70q5 -6 10 -18q10 -22 10 -47q0 -39 -25.5 -62t-69.5 -23q-9 0 -23 2l-12 3v-360h-85l-20 45q-18 -15 -37 -25q-44 -25 -93 -25q-83 0 -134 53
t-51 142zM200 -120q0 26 19.5 45.5t45.5 19.5t45.5 -19.5t19.5 -45.5t-19.5 -45.5t-45.5 -19.5t-45.5 19.5t-19.5 45.5z" />
    <glyph glyph-name="uni1EF2" unicode="&#x1ef2;" horiz-adv-x="540" 
d="M210 0v240l-205 390h130l135 -270l135 270h130l-205 -390v-240h-120zM235 700l-90 125h110l65 -125h-85z" />
    <glyph glyph-name="uni1EF3" unicode="&#x1ef3;" horiz-adv-x="470" 
d="M80 -160v95q64 0 90 60l10 25l-175 440h120l115 -300l105 300h120l-89 -228q-95 -246 -96 -247q-34 -83 -69 -116.5t-91 -33.5q-14 0 -28 2zM195 520l-90 125h110l65 -125h-85z" />
    <glyph glyph-name="uni1EF4" unicode="&#x1ef4;" horiz-adv-x="540" 
d="M210 0v240l-205 390h130l135 -270l135 270h130l-205 -390v-240h-120zM205 -120q0 26 19.5 45.5t45.5 19.5t45.5 -19.5t19.5 -45.5t-19.5 -45.5t-45.5 -19.5t-45.5 19.5t-19.5 45.5z" />
    <glyph glyph-name="uni1EF5" unicode="&#x1ef5;" horiz-adv-x="470" 
d="M80 -160v95q64 0 90 60l10 25l-175 440h120l115 -300l105 300h120l-89 -228q-95 -246 -96 -247q-34 -83 -69 -116.5t-91 -33.5q-14 0 -28 2zM280 -120q0 26 19.5 45.5t45.5 19.5t45.5 -19.5t19.5 -45.5t-19.5 -45.5t-45.5 -19.5t-45.5 19.5t-19.5 45.5z" />
    <glyph glyph-name="uni1EF6" unicode="&#x1ef6;" horiz-adv-x="540" 
d="M210 0v240l-205 390h130l135 -270l135 270h130l-205 -390v-240h-120zM195 790v55l17 5q18 5 43 5q41 0 65.5 -22.5t24.5 -57.5q0 -36 -20 -63q-6 -8 -20 -22h-60q8 10 12 19q13 20 13 41q0 19 -13.5 32t-36.5 13q-6 0 -18 -3z" />
    <glyph glyph-name="uni1EF7" unicode="&#x1ef7;" horiz-adv-x="470" 
d="M80 -160v95q64 0 90 60l10 25l-175 440h120l115 -300l105 300h120l-89 -228q-95 -246 -96 -247q-34 -83 -69 -116.5t-91 -33.5q-14 0 -28 2zM160 610v55l17 5q18 5 43 5q41 0 65.5 -22.5t24.5 -57.5q0 -36 -20 -63q-6 -8 -20 -22h-60q8 10 12 19q13 20 13 41
q0 19 -13.5 32t-36.5 13q-6 0 -18 -3z" />
    <glyph glyph-name="uni1EF8" unicode="&#x1ef8;" horiz-adv-x="540" 
d="M210 0v240l-205 390h130l135 -270l135 270h130l-205 -390v-240h-120zM185 690h-60q0 61 25 93t65 32q33 0 67.5 -27.5t42.5 -27.5q16 0 28 14t12 36h60q0 -61 -25 -93t-65 -32q-20 0 -39 8.5t-30 19t-22 19t-19 8.5q-16 0 -28 -14t-12 -36z" />
    <glyph glyph-name="uni1EF9" unicode="&#x1ef9;" horiz-adv-x="470" 
d="M80 -160v95q64 0 90 60l10 25l-175 440h120l115 -300l105 300h120l-89 -228q-95 -246 -96 -247q-34 -83 -69 -116.5t-91 -33.5q-14 0 -28 2zM155 515h-60q0 61 25 93t65 32q33 0 67.5 -27.5t42.5 -27.5q16 0 28 14t12 36h60q0 -61 -25 -93t-65 -32q-26 0 -48.5 14
t-37.5 27.5t-24 13.5q-16 0 -28 -14t-12 -36z" />
    <glyph glyph-name="endash" unicode="&#x2013;" horiz-adv-x="490" 
d="M35 205v100h420v-100h-420z" />
    <glyph glyph-name="emdash" unicode="&#x2014;" horiz-adv-x="735" 
d="M35 205v100h665v-100h-665z" />
    <glyph glyph-name="quoteleft" unicode="&#x2018;" horiz-adv-x="200" 
d="M125 650l20 -25q-11 -7 -21 -18q-20 -22 -24 -52q26 0 45.5 -19.5t19.5 -45.5t-19.5 -45.5t-45.5 -19.5q-27 0 -46 20t-19 50q0 74 45 121q19 20 45 34z" />
    <glyph glyph-name="quoteright" unicode="&#x2019;" horiz-adv-x="200" 
d="M75 425l-20 25q11 8 21 18q20 22 24 52q-26 0 -45.5 19.5t-19.5 45.5t19.5 45.5t45.5 19.5q27 0 46 -20t19 -50q0 -74 -45 -121q-19 -20 -45 -34z" />
    <glyph glyph-name="quotesinglbase" unicode="&#x201a;" horiz-adv-x="200" 
d="M75 -100l-20 25q11 7 21 18q20 22 24 52q-26 0 -45.5 19.5t-19.5 45.5t19.5 45.5t45.5 19.5q27 0 46 -20t19 -50q0 -74 -45 -121q-19 -20 -45 -34z" />
    <glyph glyph-name="quotedblleft" unicode="&#x201c;" horiz-adv-x="365" 
d="M290 650l20 -25q-10 -7 -21 -18q-20 -22 -24 -52q26 0 45.5 -19.5t19.5 -45.5t-19.5 -45.5t-45.5 -19.5q-27 0 -46 20t-19 50q0 74 45 121q19 20 45 34zM125 650l20 -25q-11 -7 -21 -18q-20 -22 -24 -52q26 0 45.5 -19.5t19.5 -45.5t-19.5 -45.5t-45.5 -19.5
q-27 0 -46 20t-19 50q0 74 45 121q19 20 45 34z" />
    <glyph glyph-name="quotedblright" unicode="&#x201d;" horiz-adv-x="365" 
d="M75 425l-20 25q11 8 21 18q20 22 24 52q-26 0 -45.5 19.5t-19.5 45.5t19.5 45.5t45.5 19.5q27 0 46 -20t19 -50q0 -74 -45 -121q-19 -20 -45 -34zM240 425l-20 25q10 8 21 18q20 22 24 52q-26 0 -45.5 19.5t-19.5 45.5t19.5 45.5t45.5 19.5q27 0 46 -20t19 -50
q0 -74 -45 -121q-19 -20 -45 -34z" />
    <glyph glyph-name="quotedblbase" unicode="&#x201e;" horiz-adv-x="365" 
d="M75 -100l-20 25q11 7 21 18q20 22 24 52q-26 0 -45.5 19.5t-19.5 45.5t19.5 45.5t45.5 19.5q27 0 46 -20t19 -50q0 -74 -45 -121q-19 -20 -45 -34zM240 -100l-20 25q10 7 21 18q20 22 24 52q-26 0 -45.5 19.5t-19.5 45.5t19.5 45.5t45.5 19.5q27 0 46 -20t19 -50
q0 -74 -45 -121q-19 -20 -45 -34z" />
    <glyph glyph-name="dagger" unicode="&#x2020;" horiz-adv-x="375" 
d="M140 170v255h-105v90h105v115h95v-115h105v-90h-105v-255h-95z" />
    <glyph glyph-name="daggerdbl" unicode="&#x2021;" horiz-adv-x="375" 
d="M35 275v85h105v80h-105v85h105v105h95v-105h105v-85h-105v-80h105v-85h-105v-105h-95v105h-105z" />
    <glyph glyph-name="bullet" unicode="&#x2022;" horiz-adv-x="380" 
d="M90 270q0 42 29 71t71 29t71 -29t29 -71t-29 -71t-71 -29t-71 29t-29 71z" />
    <glyph glyph-name="ellipsis" unicode="&#x2026;" horiz-adv-x="600" 
d="M35 60q0 26 19.5 45.5t45.5 19.5t45.5 -19.5t19.5 -45.5t-19.5 -45.5t-45.5 -19.5t-45.5 19.5t-19.5 45.5zM235 60q0 26 19.5 45.5t45.5 19.5t45.5 -19.5t19.5 -45.5t-19.5 -45.5t-45.5 -19.5t-45.5 19.5t-19.5 45.5zM435 60q0 26 19.5 45.5t45.5 19.5t45.5 -19.5
t19.5 -45.5t-19.5 -45.5t-45.5 -19.5t-45.5 19.5t-19.5 45.5z" />
    <glyph glyph-name="perthousand" unicode="&#x2030;" horiz-adv-x="940" 
d="M80 0l385 630h95l-385 -630h-95zM165 435q23 0 39 17t16 43t-16 43t-39 17t-39 -17t-16 -43t16 -43t39 -17zM30 495q0 56 39.5 95.5t95.5 39.5t95.5 -39.5t39.5 -95.5t-39.5 -95.5t-95.5 -39.5t-95.5 39.5t-39.5 95.5zM475 75q23 0 39 17t16 43t-16 43t-39 17t-39 -17
t-16 -43t16 -43t39 -17zM340 135q0 56 39.5 95.5t95.5 39.5t95.5 -39.5t39.5 -95.5t-39.5 -95.5t-95.5 -39.5t-95.5 39.5t-39.5 95.5zM775 75q23 0 39 17t16 43t-16 43t-39 17t-39 -17t-16 -43t16 -43t39 -17zM640 135q0 56 39.5 95.5t95.5 39.5t95.5 -39.5t39.5 -95.5
t-39.5 -95.5t-95.5 -39.5t-95.5 39.5t-39.5 95.5z" />
    <glyph glyph-name="guilsinglleft" unicode="&#x2039;" horiz-adv-x="280" 
d="M140 65l-110 160l110 160h110l-110 -160l110 -160h-110z" />
    <glyph glyph-name="guilsinglright" unicode="&#x203a;" horiz-adv-x="280" 
d="M30 65l110 160l-110 160h110l110 -160l-110 -160h-110z" />
    <glyph glyph-name="uni203D" unicode="&#x203d;" horiz-adv-x="450" 
d="M160 175l-20 255h-120q4 94 58.5 149.5t141.5 55.5q92 0 146 -49t54 -126q0 -38 -15 -68.5t-36 -51.5t-42.5 -42t-36.5 -52t-15 -71h-115zM155 60q0 26 19.5 45.5t45.5 19.5t45.5 -19.5t19.5 -45.5t-19.5 -45.5t-45.5 -19.5t-45.5 19.5t-19.5 45.5zM250 520l-5 -155
q29 21 42 39.5t13 45.5q0 52 -50 70z" />
    <glyph glyph-name="fraction" unicode="&#x2044;" horiz-adv-x="110" 
d="M-185 0l385 630h95l-385 -630h-95z" />
    <glyph glyph-name="zerosuperior" unicode="&#x2070;" horiz-adv-x="310" 
d="M155 485q21 0 35.5 21.5t14.5 63.5t-14.5 63.5t-35.5 21.5t-35.5 -21.5t-14.5 -63.5t14.5 -63.5t35.5 -21.5zM155 415q-55 0 -90 41t-35 114t35 114t90 41t90 -41t35 -114t-35 -114t-90 -41z" />
    <glyph glyph-name="foursuperior" unicode="&#x2074;" horiz-adv-x="270" 
d="M10 475v55l120 190h85v-175h35v-70h-35v-55h-75v55h-130zM85 545h55v85z" />
    <glyph glyph-name="fivesuperior" unicode="&#x2075;" horiz-adv-x="285" 
d="M30 510h75q5 -9 9 -15q13 -15 31 -15q15 0 27.5 13.5t12.5 31.5t-12.5 31.5t-27.5 13.5q-16 0 -31 -15l-9 -15h-65l20 180h175v-70h-115l-5 -35l11 5q12 5 34 5q38 0 66.5 -29.5t28.5 -70.5q0 -45 -32.5 -77.5t-77.5 -32.5q-64 0 -95 47q-14 22 -20 48z" />
    <glyph glyph-name="sixsuperior" unicode="&#x2076;" horiz-adv-x="285" 
d="M75 630l65 90h80l-65 -90q42 0 73.5 -31.5t31.5 -73.5q0 -46 -33.5 -78t-81.5 -32t-81.5 32t-33.5 78q0 31 22 71q12 21 23 34zM100 525q0 -19 13 -32t32 -13t32 13t13 32t-13 32t-32 13t-32 -13t-13 -32z" />
    <glyph glyph-name="sevensuperior" unicode="&#x2077;" horiz-adv-x="245" 
d="M45 420l105 230h-120v70h205v-55l-110 -245h-80z" />
    <glyph glyph-name="eightsuperior" unicode="&#x2078;" horiz-adv-x="290" 
d="M145 605q11 0 20.5 9.5t9.5 20.5t-9.5 20.5t-20.5 9.5t-20.5 -9.5t-9.5 -20.5t9.5 -20.5t20.5 -9.5zM30 510q0 29 20 49q8 9 20 16q-9 6 -15 15q-15 21 -15 45q0 39 28.5 64.5t76.5 25.5t76.5 -25.5t28.5 -64.5q0 -21 -15 -45q-7 -9 -15 -15q12 -7 20 -16q20 -20 20 -49
q0 -40 -31.5 -67.5t-83.5 -27.5t-83.5 27.5t-31.5 67.5zM145 475q15 0 25 10t10 25t-10 25t-25 10t-25 -10t-10 -25t10 -25t25 -10z" />
    <glyph glyph-name="ninesuperior" unicode="&#x2079;" horiz-adv-x="285" 
d="M65 420l65 90q-42 0 -73.5 31.5t-31.5 73.5q0 45 33.5 77.5t81.5 32.5t81.5 -32.5t33.5 -77.5q0 -29 -23 -71q-11 -19 -22 -34l-65 -90h-80zM140 570q19 0 32 13t13 32t-13 32t-32 13t-32 -13t-13 -32t13 -32t32 -13z" />
    <glyph glyph-name="zeroinferior" unicode="&#x2080;" horiz-adv-x="310" 
d="M155 -30q21 0 35.5 21.5t14.5 63.5t-14.5 63.5t-35.5 21.5t-35.5 -21.5t-14.5 -63.5t14.5 -63.5t35.5 -21.5zM155 -100q-55 0 -90 41t-35 114t35 114t90 41t90 -41t35 -114t-35 -114t-90 -41z" />
    <glyph glyph-name="oneinferior" unicode="&#x2081;" horiz-adv-x="240" 
d="M90 -95v205l-35 -20l-35 55l95 60h50v-300h-75z" />
    <glyph glyph-name="twoinferior" unicode="&#x2082;" horiz-adv-x="275" 
d="M30 -95v55l110 105q17 17 23.5 26.5t6.5 23.5q0 12 -10 21t-25 9q-26 0 -35 -20q-3 -6 -5 -20h-70q4 49 35 77t80 28q48 0 76.5 -25.5t28.5 -64.5q0 -25 -10 -42.5t-35 -42.5l-60 -60h105v-70h-215z" />
    <glyph glyph-name="threeinferior" unicode="&#x2083;" horiz-adv-x="280" 
d="M20 5h75q2 -11 6 -20q13 -20 39 -20q18 0 29 10t11 25q0 12 -11 21t-29 9h-33v60h28q15 0 25 7t10 18q0 12 -10 21t-25 9q-19 0 -33 -18q-6 -10 -7 -17h-70q4 43 35.5 71.5t79.5 28.5t76.5 -25.5t28.5 -64.5q0 -21 -15 -45q-8 -9 -15 -15q12 -7 20 -16q20 -20 20 -49
q0 -40 -31.5 -67.5t-83.5 -27.5t-84 29.5t-36 75.5z" />
    <glyph glyph-name="fourinferior" unicode="&#x2084;" horiz-adv-x="270" 
d="M10 -40v55l120 190h85v-175h35v-70h-35v-55h-75v55h-130zM85 30h55v85z" />
    <glyph glyph-name="fiveinferior" unicode="&#x2085;" horiz-adv-x="285" 
d="M30 -5h75q5 -9 9 -15q13 -15 31 -15q15 0 27.5 13.5t12.5 31.5t-12.5 31.5t-27.5 13.5q-16 0 -31 -15l-9 -15h-65l20 180h175v-70h-115l-5 -35l11 5q12 5 34 5q38 0 66.5 -29.5t28.5 -70.5q0 -45 -32.5 -77.5t-77.5 -32.5q-64 0 -95 47q-14 22 -20 48z" />
    <glyph glyph-name="sixinferior" unicode="&#x2086;" horiz-adv-x="285" 
d="M75 115l65 90h80l-65 -90q42 0 73.5 -31.5t31.5 -73.5q0 -46 -33.5 -78t-81.5 -32t-81.5 32t-33.5 78q0 31 22 71q12 21 23 34zM100 10q0 -19 13 -32t32 -13t32 13t13 32t-13 32t-32 13t-32 -13t-13 -32z" />
    <glyph glyph-name="seveninferior" unicode="&#x2087;" horiz-adv-x="245" 
d="M45 -95l105 230h-120v70h205v-55l-110 -245h-80z" />
    <glyph glyph-name="eightinferior" unicode="&#x2088;" horiz-adv-x="290" 
d="M145 90q11 0 20.5 9.5t9.5 20.5t-9.5 20.5t-20.5 9.5t-20.5 -9.5t-9.5 -20.5t9.5 -20.5t20.5 -9.5zM30 -5q0 29 20 49q8 9 20 16q-9 6 -15 15q-15 21 -15 45q0 39 28.5 64.5t76.5 25.5t76.5 -25.5t28.5 -64.5q0 -21 -15 -45q-7 -9 -15 -15q12 -7 20 -16q20 -20 20 -49
q0 -40 -31.5 -67.5t-83.5 -27.5t-83.5 27.5t-31.5 67.5zM145 -40q15 0 25 10t10 25t-10 25t-25 10t-25 -10t-10 -25t10 -25t25 -10z" />
    <glyph glyph-name="nineinferior" unicode="&#x2089;" horiz-adv-x="285" 
d="M65 -95l65 90q-42 0 -73.5 31.5t-31.5 73.5q0 45 33.5 77.5t81.5 32.5t81.5 -32.5t33.5 -77.5q0 -29 -23 -71q-11 -19 -22 -34l-65 -90h-80zM140 55q19 0 32 13t13 32t-13 32t-32 13t-32 -13t-13 -32t13 -32t32 -13z" />
    <glyph glyph-name="uni20A9" unicode="&#x20a9;" horiz-adv-x="820" 
d="M5 190v85h118l-14 50h-104v85h81l-61 220h120l61 -220h105l59 220h80l59 -220h104l62 220h120l-61 -220h81v-85h-105l-14 -50h119v-85h-142l-53 -190h-110l-51 190h-99l-50 -190h-110l-53 190h-142zM244 275h31l13 50h-58zM545 275h30l14 50h-57zM383 275h54l-14 50h-27z
" />
    <glyph glyph-name="uni20AB" unicode="&#x20ab;" horiz-adv-x="475" 
d="M335 115l-20 35q-10 -12 -24 -20q-31 -20 -81 -20q-78 0 -129 50t-51 125t51 125t129 50q38 0 74 -15q17 -8 26 -15v70h-120v80h120v50h101v-50h59v-80h-60v-385h-75zM130 285q0 -39 24 -62t66 -23t66 23t24 62t-24 62t-66 23t-66 -23t-24 -62zM60 0v80h350v-80h-350z
" />
    <glyph glyph-name="Euro" unicode="&#x20ac;" horiz-adv-x="690" 
d="M25 200v80h65v55h-65v80h80q28 92 104 156t176 64q98 0 172.5 -65.5t97.5 -159.5h-125q-13 45 -52.5 77.5t-92.5 32.5q-64 0 -117 -53q-22 -22 -38 -52h165v-80h-185v-55h185v-80h-155q13 -25 35 -45q47 -45 110 -45q53 0 93 32.5t57 77.5h125q-23 -94 -98.5 -159.5
t-176.5 -65.5q-99 0 -175.5 62t-99.5 143h-85z" />
    <glyph glyph-name="uni20B4" unicode="&#x20b4;" horiz-adv-x="550" 
d="M35 210v80h480v-80h-265q-12 -7 -20 -15q-20 -20 -20 -45q0 -24 18.5 -39.5t51.5 -15.5q71 0 80 60h115q-4 -67 -58.5 -113.5t-141.5 -46.5q-86 0 -140.5 45.5t-54.5 104.5q0 28 12 47q4 9 13 18h-70zM35 340v80h265q12 7 20 15q20 20 20 45q0 24 -18.5 39.5t-51.5 15.5
q-71 0 -80 -60h-115q4 67 58.5 113.5t141.5 46.5q86 0 140.5 -45.5t54.5 -104.5q0 -28 -13 -48q-4 -9 -12 -17h70v-80h-480z" />
    <glyph glyph-name="uni20B8" unicode="&#x20b8;" horiz-adv-x="520" 
d="M200 0v365h-175v105h470v-105h-175v-365h-120zM25 525v105h470v-105h-470z" />
    <glyph glyph-name="uni20B9" unicode="&#x20b9;" horiz-adv-x="515" 
d="M35 230v105h160q35 0 58 16.5t29 38.5h-247v85h247q-6 22 -29 38.5t-58 16.5h-160v100h445v-100h-90l7 -14q7 -15 13 -41h70v-85h-70q-12 -64 -63.5 -108t-126.5 -52l275 -230h-175z" />
    <glyph glyph-name="uni20BA" unicode="&#x20ba;" horiz-adv-x="525" 
d="M90 0v220l-65 -25v100l65 25v44l-65 -24v100l65 25v165h120v-125l135 50v-100l-135 -50v-45l135 50v-100l-135 -50v-145q99 0 139.5 33.5t40.5 106.5h115q0 -130 -69.5 -192.5t-225.5 -62.5h-120z" />
    <glyph glyph-name="uni20BD" unicode="&#x20bd;" horiz-adv-x="570" 
d="M90 0v90h-65v100h65v55h-65v100h65v285h235q96 0 155.5 -56t59.5 -139q0 -81 -59.5 -135.5t-155.5 -54.5h-115v-55h185v-100h-185v-90h-120zM210 345h115q42 0 68.5 25.5t26.5 64.5t-26.5 64.5t-68.5 25.5h-115v-180z" />
    <glyph glyph-name="uni20BF" unicode="&#x20bf;" horiz-adv-x="570" 
d="M65 0v630h90v85h95v-85h45v85h95v-95q57 -19 91 -63.5t34 -101.5q0 -54 -38 -92q-17 -18 -37 -28q28 -13 50 -34q50 -48 50 -121q0 -61 -41.5 -109.5t-108.5 -64.5v-91h-95v85h-45v-85h-95v85h-90zM185 105h140q42 0 68.5 25.5t26.5 64.5t-26.5 64.5t-68.5 25.5h-140
v-180zM185 375h130q33 0 56.5 22.5t23.5 52.5t-23.5 52.5t-56.5 22.5h-130v-150z" />
    <glyph glyph-name="uni2113" unicode="&#x2113;" horiz-adv-x="350" 
d="M5 180v75q31 0 57 7q3 1 11 3.5t12 4.5v235q0 59 32.5 94.5t82.5 35.5q51 0 83 -37.5t32 -107.5q0 -164 -155 -265v-100q0 -60 60 -60q25 0 38 7q10 6 12 8v-70q-2 -1 -18 -8q-18 -7 -47 -7q-57 0 -88.5 33.5t-31.5 96.5v70q-4 -2 -12 -4.5t-11 -3.5q-26 -7 -57 -7z
M160 505v-190q80 70 80 175q0 36 -11.5 53t-28.5 17q-40 0 -40 -55z" />
    <glyph glyph-name="afii61352" unicode="&#x2116;" horiz-adv-x="955" 
d="M645 0v100h270v-100h-270zM780 245q23 0 39 17t16 43t-16 43t-39 17t-39 -17t-16 -43t16 -43t39 -17zM635 305q0 60 42.5 102.5t102.5 42.5t102.5 -42.5t42.5 -102.5t-42.5 -102.5t-102.5 -42.5t-102.5 42.5t-42.5 102.5zM65 0v630h105l280 -410v410h120v-630h-105
l-280 410v-410h-120z" />
    <glyph glyph-name="uni2117" unicode="&#x2117;" horiz-adv-x="710" 
d="M325 320h50q19 0 32 13t13 32t-13 32t-32 13h-50v-90zM250 150v330h125q48 0 81.5 -33.5t33.5 -81.5t-33.5 -81.5t-81.5 -33.5h-50v-100h-75zM355 70q98 0 166.5 70.5t68.5 174.5t-68.5 174.5t-166.5 70.5t-166.5 -70.5t-68.5 -174.5t68.5 -174.5t166.5 -70.5zM355 -5
q-132 0 -223.5 92.5t-91.5 227.5t91.5 227.5t223.5 92.5t223.5 -92.5t91.5 -227.5t-91.5 -227.5t-223.5 -92.5z" />
    <glyph glyph-name="trademark" unicode="&#x2122;" horiz-adv-x="565" 
d="M80 370v195h-70v65h210v-65h-70v-195h-70zM255 370v260h60l75 -110l75 110h60v-260h-70v145l-50 -70h-30l-50 70v-145h-70z" />
    <glyph glyph-name="uni2126" unicode="&#x2126;" horiz-adv-x="750" 
d="M80 0v75h125q-40 26 -70 62q-70 86 -70 193q0 129 88 217t222 88t222 -88t88 -217q0 -107 -70 -193q-30 -36 -70 -62h125v-75h-240v75q51 23 90 58q90 78 90 197q0 99 -66.5 164.5t-168.5 65.5t-168.5 -65.5t-66.5 -164.5q0 -119 90 -197q39 -35 90 -58v-75h-240z" />
    <glyph glyph-name="estimated" unicode="&#x212e;" horiz-adv-x="770" 
d="M200 340h380v200q-79 70 -190 70t-190 -70v-200zM200 310v-220q22 -20 50 -35q59 -35 140 -35q113 0 195 70q37 32 60 70h35q-25 -47 -66 -85q-91 -85 -224 -85q-135 0 -230 95t-95 230t95 230t230 95t230 -95t95 -230v-5h-515z" />
    <glyph glyph-name="uni2150" unicode="&#x2150;" horiz-adv-x="605" 
d="M55 0l385 630h95l-385 -630h-95zM90 330v205l-35 -20l-35 55l95 60h50v-300h-75zM385 0l105 230h-120v70h205v-55l-110 -245h-80z" />
    <glyph glyph-name="uni2151" unicode="&#x2151;" horiz-adv-x="615" 
d="M55 0l385 630h95l-385 -630h-95zM90 330v205l-35 -20l-35 55l95 60h50v-300h-75zM395 0l65 90q-42 0 -73.5 31.5t-31.5 73.5q0 45 33.5 77.5t81.5 32.5t81.5 -32.5t33.5 -77.5q0 -29 -23 -71q-11 -19 -22 -34l-65 -90h-80zM470 150q19 0 32 13t13 32t-13 32t-32 13
t-32 -13t-13 -32t13 -32t32 -13z" />
    <glyph glyph-name="uni2152" unicode="&#x2152;" horiz-adv-x="845" 
d="M55 0l385 630h95l-385 -630h-95zM90 330v205l-35 -20l-35 55l95 60h50v-300h-75zM435 0v205l-35 -20l-35 55l95 60h50v-300h-75zM690 65q21 0 35.5 21.5t14.5 63.5t-14.5 63.5t-35.5 21.5t-35.5 -21.5t-14.5 -63.5t14.5 -63.5t35.5 -21.5zM690 -5q-55 0 -90 41t-35 114
t35 114t90 41t90 -41t35 -114t-35 -114t-90 -41z" />
    <glyph glyph-name="onethird" unicode="&#x2153;" horiz-adv-x="620" 
d="M55 0l385 630h95l-385 -630h-95zM90 330v205l-35 -20l-35 55l95 60h50v-300h-75zM360 100h75q2 -11 6 -20q13 -20 39 -20q18 0 29 10t11 25q0 12 -11 21t-29 9h-33v60h28q15 0 25 7t10 18q0 12 -10 21t-25 9q-19 0 -33 -18q-6 -10 -7 -17h-70q4 43 35.5 71.5t79.5 28.5
t76.5 -25.5t28.5 -64.5q0 -21 -15 -45q-8 -9 -15 -15q12 -7 20 -16q20 -20 20 -49q0 -40 -31.5 -67.5t-83.5 -27.5t-84 29.5t-36 75.5z" />
    <glyph glyph-name="twothirds" unicode="&#x2154;" horiz-adv-x="655" 
d="M90 0l385 630h95l-385 -630h-95zM30 330v55l110 105q17 17 23.5 26.5t6.5 23.5q0 12 -10 21t-25 9q-26 0 -35 -20q-3 -6 -5 -20h-70q4 49 35 77t80 28q48 0 76.5 -25.5t28.5 -64.5q0 -25 -10 -42.5t-35 -42.5l-60 -60h105v-70h-215zM510 185q11 0 20.5 9.5t9.5 20.5
t-9.5 20.5t-20.5 9.5t-20.5 -9.5t-9.5 -20.5t9.5 -20.5t20.5 -9.5zM395 90q0 29 20 49q8 9 20 16q-9 6 -15 15q-15 21 -15 45q0 39 28.5 64.5t76.5 25.5t76.5 -25.5t28.5 -64.5q0 -21 -15 -45q-8 -9 -15 -15q12 -7 20 -16q20 -20 20 -49q0 -40 -31.5 -67.5t-83.5 -27.5
t-83.5 27.5t-31.5 67.5zM510 55q15 0 25 10t10 25t-10 25t-25 10t-25 -10t-10 -25t10 -25t25 -10z" />
    <glyph glyph-name="uni2155" unicode="&#x2155;" horiz-adv-x="625" 
d="M55 0l385 630h95l-385 -630h-95zM90 330v205l-35 -20l-35 55l95 60h50v-300h-75zM370 90h75q5 -9 9 -15q13 -15 31 -15q15 0 27.5 13.5t12.5 31.5t-12.5 31.5t-27.5 13.5q-16 0 -31 -15l-9 -15h-65l20 180h175v-70h-115l-5 -35l11 5q12 5 34 5q38 0 66.5 -29.5
t28.5 -70.5q0 -45 -32.5 -77.5t-77.5 -32.5q-64 0 -95 47q-14 22 -20 48z" />
    <glyph glyph-name="uni2156" unicode="&#x2156;" horiz-adv-x="650" 
d="M90 0l385 630h95l-385 -630h-95zM30 330v55l110 105q17 17 23.5 26.5t6.5 23.5q0 12 -10 21t-25 9q-26 0 -35 -20q-3 -6 -5 -20h-70q4 49 35 77t80 28q48 0 76.5 -25.5t28.5 -64.5q0 -25 -10 -42.5t-35 -42.5l-60 -60h105v-70h-215zM395 90h75q4 -9 9 -15q13 -15 31 -15
q15 0 27.5 13.5t12.5 31.5t-12.5 31.5t-27.5 13.5q-16 0 -31 -15l-9 -15h-65l20 180h175v-70h-115l-5 -35l11 5q12 5 34 5q38 0 66.5 -29.5t28.5 -70.5q0 -45 -32.5 -77.5t-77.5 -32.5q-64 0 -95 47q-14 22 -20 48z" />
    <glyph glyph-name="uni2157" unicode="&#x2157;" horiz-adv-x="655" 
d="M95 0l385 630h95l-385 -630h-95zM20 430h75q2 -11 6 -20q13 -20 39 -20q18 0 29 10t11 25q0 12 -11 21t-29 9h-33v60h28q15 0 25 7t10 18q0 12 -10 21t-25 9q-19 0 -33 -18q-6 -10 -7 -17h-70q4 43 35.5 71.5t79.5 28.5t76.5 -25.5t28.5 -64.5q0 -21 -15 -45
q-8 -9 -15 -15q12 -7 20 -16q20 -20 20 -49q0 -40 -31.5 -67.5t-83.5 -27.5t-84 29.5t-36 75.5zM400 90h75q5 -9 9 -15q13 -15 31 -15q15 0 27.5 13.5t12.5 31.5t-12.5 31.5t-27.5 13.5q-16 0 -31 -15l-9 -15h-65l20 180h175v-70h-115l-5 -35l11 5q12 5 34 5
q38 0 66.5 -29.5t28.5 -70.5q0 -45 -32.5 -77.5t-77.5 -32.5q-64 0 -95 47q-14 22 -20 48z" />
    <glyph glyph-name="uni2158" unicode="&#x2158;" horiz-adv-x="650" 
d="M85 0l385 630h95l-385 -630h-95zM10 385v55l120 190h85v-175h35v-70h-35v-55h-75v55h-130zM85 455h55v85zM390 90h75q5 -9 9 -15q13 -15 31 -15q15 0 27.5 13.5t12.5 31.5t-12.5 31.5t-27.5 13.5q-16 0 -31 -15l-9 -15h-65l20 180h175v-70h-115l-5 -35l11 5q12 5 34 5
q38 0 66.5 -29.5t28.5 -70.5q0 -45 -32.5 -77.5t-77.5 -32.5q-64 0 -95 47q-14 22 -20 48z" />
    <glyph glyph-name="uni2159" unicode="&#x2159;" horiz-adv-x="595" 
d="M55 0l385 630h95l-385 -630h-95zM90 330v205l-35 -20l-35 55l95 60h50v-300h-75zM395 210l65 90h80l-65 -90q42 0 73.5 -31.5t31.5 -73.5q0 -46 -33.5 -78t-81.5 -32t-81.5 32t-33.5 78q0 31 22 71q12 21 23 34zM420 105q0 -19 13 -32t32 -13t32 13t13 32t-13 32t-32 13
t-32 -13t-13 -32z" />
    <glyph glyph-name="uni215A" unicode="&#x215a;" horiz-adv-x="650" 
d="M100 0l385 630h95l-385 -630h-95zM30 420h75q5 -9 9 -15q13 -15 31 -15q15 0 27.5 13.5t12.5 31.5t-12.5 31.5t-27.5 13.5q-16 0 -31 -15l-9 -15h-65l20 180h175v-70h-115l-5 -35l11 5q12 5 34 5q38 0 66.5 -29.5t28.5 -70.5q0 -45 -32.5 -77.5t-77.5 -32.5q-64 0 -95 47
q-14 22 -20 48zM440 210l65 90h80l-65 -90q42 0 73.5 -31.5t31.5 -73.5q0 -46 -33.5 -78t-81.5 -32t-81.5 32t-33.5 78q0 31 22 71q12 21 23 34zM465 105q0 -19 13 -32t32 -13t32 13t13 32t-13 32t-32 13t-32 -13t-13 -32z" />
    <glyph glyph-name="oneeighth" unicode="&#x215b;" horiz-adv-x="620" 
d="M55 0l385 630h95l-385 -630h-95zM90 330v205l-35 -20l-35 55l95 60h50v-300h-75zM475 185q11 0 20.5 9.5t9.5 20.5t-9.5 20.5t-20.5 9.5t-20.5 -9.5t-9.5 -20.5t9.5 -20.5t20.5 -9.5zM360 90q0 29 20 49q8 9 20 16q-9 6 -15 15q-15 21 -15 45q0 39 28.5 64.5t76.5 25.5
t76.5 -25.5t28.5 -64.5q0 -21 -15 -45q-7 -9 -15 -15q12 -7 20 -16q20 -20 20 -49q0 -40 -31.5 -67.5t-83.5 -27.5t-83.5 27.5t-31.5 67.5zM475 55q15 0 25 10t10 25t-10 25t-25 10t-25 -10t-10 -25t10 -25t25 -10z" />
    <glyph glyph-name="threeeighths" unicode="&#x215c;" horiz-adv-x="650" 
d="M95 0l385 630h95l-385 -630h-95zM20 430h75q2 -11 6 -20q13 -20 39 -20q18 0 29 10t11 25q0 12 -11 21t-29 9h-33v60h28q15 0 25 7t10 18q0 12 -10 21t-25 9q-19 0 -33 -18q-6 -10 -7 -17h-70q4 43 35.5 71.5t79.5 28.5t76.5 -25.5t28.5 -64.5q0 -21 -15 -45
q-8 -9 -15 -15q12 -7 20 -16q20 -20 20 -49q0 -40 -31.5 -67.5t-83.5 -27.5t-84 29.5t-36 75.5zM505 185q11 0 20.5 9.5t9.5 20.5t-9.5 20.5t-20.5 9.5t-20.5 -9.5t-9.5 -20.5t9.5 -20.5t20.5 -9.5zM390 90q0 29 20 49q8 9 20 16q-9 6 -15 15q-15 21 -15 45q0 39 28.5 64.5
t76.5 25.5t76.5 -25.5t28.5 -64.5q0 -21 -15 -45q-7 -9 -15 -15q12 -7 20 -16q20 -20 20 -49q0 -40 -31.5 -67.5t-83.5 -27.5t-83.5 27.5t-31.5 67.5zM505 55q15 0 25 10t10 25t-10 25t-25 10t-25 -10t-10 -25t10 -25t25 -10z" />
    <glyph glyph-name="fiveeighths" unicode="&#x215d;" horiz-adv-x="665" 
d="M100 0l385 630h95l-385 -630h-95zM30 420h75q5 -9 9 -15q13 -15 31 -15q15 0 27.5 13.5t12.5 31.5t-12.5 31.5t-27.5 13.5q-16 0 -31 -15l-9 -15h-65l20 180h175v-70h-115l-5 -35l11 5q12 5 34 5q38 0 66.5 -29.5t28.5 -70.5q0 -45 -32.5 -77.5t-77.5 -32.5q-64 0 -95 47
q-14 22 -20 48zM520 185q11 0 20.5 9.5t9.5 20.5t-9.5 20.5t-20.5 9.5t-20.5 -9.5t-9.5 -20.5t9.5 -20.5t20.5 -9.5zM405 90q0 29 20 49q8 9 20 16q-9 6 -15 15q-15 21 -15 45q0 39 28.5 64.5t76.5 25.5t76.5 -25.5t28.5 -64.5q0 -21 -15 -45q-8 -9 -15 -15q12 -7 20 -16
q20 -20 20 -49q0 -40 -31.5 -67.5t-83.5 -27.5t-83.5 27.5t-31.5 67.5zM520 55q15 0 25 10t10 25t-10 25t-25 10t-25 -10t-10 -25t10 -25t25 -10z" />
    <glyph glyph-name="seveneighths" unicode="&#x215e;" horiz-adv-x="610" 
d="M55 0l385 630h95l-385 -630h-95zM50 330l105 230h-120v70h205v-55l-110 -245h-80zM465 185q11 0 20.5 9.5t9.5 20.5t-9.5 20.5t-20.5 9.5t-20.5 -9.5t-9.5 -20.5t9.5 -20.5t20.5 -9.5zM350 90q0 29 20 49q8 9 20 16q-9 6 -15 15q-15 21 -15 45q0 39 28.5 64.5t76.5 25.5
t76.5 -25.5t28.5 -64.5q0 -21 -15 -45q-7 -9 -15 -15q12 -7 20 -16q20 -20 20 -49q0 -40 -31.5 -67.5t-83.5 -27.5t-83.5 27.5t-31.5 67.5zM465 55q15 0 25 10t10 25t-10 25t-25 10t-25 -10t-10 -25t10 -25t25 -10z" />
    <glyph glyph-name="uni215F" unicode="&#x215f;" horiz-adv-x="350" 
d="M55 0l385 630h95l-385 -630h-95zM90 330v205l-35 -20l-35 55l95 60h50v-300h-75z" />
    <glyph glyph-name="arrowleft" unicode="&#x2190;" horiz-adv-x="1000" 
d="M95 310l245 245l70 -70l-125 -125h620v-100h-620l125 -125l-70 -70z" />
    <glyph glyph-name="arrowup" unicode="&#x2191;" horiz-adv-x="1000" 
d="M450 -85v620l-125 -125l-70 70l245 245l245 -245l-70 -70l-125 125v-620h-100z" />
    <glyph glyph-name="arrowright" unicode="&#x2192;" horiz-adv-x="1000" 
d="M95 260v100h620l-125 125l70 70l245 -245l-245 -245l-70 70l125 125h-620z" />
    <glyph glyph-name="arrowdown" unicode="&#x2193;" horiz-adv-x="1000" 
d="M255 160l70 70l125 -125v620h100v-620l125 125l70 -70l-245 -245z" />
    <glyph glyph-name="arrowboth" unicode="&#x2194;" horiz-adv-x="1000" 
d="M95 310l245 245l70 -70l-125 -125h430l-125 125l70 70l245 -245l-245 -245l-70 70l125 125h-430l125 -125l-70 -70z" />
    <glyph glyph-name="arrowupdn" unicode="&#x2195;" horiz-adv-x="1000" 
d="M255 160l70 70l125 -125v430l-125 -125l-70 70l245 245l245 -245l-70 -70l-125 125v-430l125 125l70 -70l-245 -245z" />
    <glyph glyph-name="uni2196" unicode="&#x2196;" horiz-adv-x="1000" 
d="M195 270v345h345v-100h-175l440 -440l-70 -70l-440 440v-175h-100z" />
    <glyph glyph-name="uni2197" unicode="&#x2197;" horiz-adv-x="1000" 
d="M195 75l440 440h-175v100h345v-345h-100v175l-440 -440z" />
    <glyph glyph-name="uni2198" unicode="&#x2198;" horiz-adv-x="1000" 
d="M460 5v100h175l-440 440l70 70l440 -440v175h100v-345h-345z" />
    <glyph glyph-name="uni2199" unicode="&#x2199;" horiz-adv-x="1000" 
d="M195 5v345h100v-175l440 440l70 -70l-440 -440h175v-100h-345z" />
    <glyph glyph-name="partialdiff" unicode="&#x2202;" horiz-adv-x="535" 
d="M105 520v80q19 12 36 20q42 20 99 20q105 0 167.5 -85t62.5 -260q0 -151 -58 -225.5t-157 -74.5q-86 0 -143 56t-57 139q0 94 57 152t148 58q51 0 99 -23q22 -12 36 -22q-15 210 -155 210q-46 0 -96 -23q-24 -12 -39 -22zM395 275q-19 17 -34 25q-48 25 -101 25
q-63 0 -96.5 -34.5t-33.5 -100.5q0 -53 35.5 -89t89.5 -36q64 0 102 51.5t38 158.5z" />
    <glyph glyph-name="emptyset" unicode="&#x2205;" horiz-adv-x="790" 
d="M60 -5l96 107q-81 89 -81 213q0 133 93.5 226.5t226.5 93.5q104 0 186 -60l49 55h100l-94 -105q79 -90 79 -210q0 -133 -93.5 -226.5t-226.5 -93.5q-102 0 -184 57l-51 -57h-100zM206 158l324 361q-59 41 -135 41q-101 0 -173 -72t-72 -173q0 -88 56 -157zM585 469
l-323 -360q58 -39 133 -39q101 0 173 72t72 173q0 86 -55 154z" />
    <glyph glyph-name="uni2206" unicode="&#x2206;" horiz-adv-x="630" 
d="M50 0l230 630h70l230 -630h-530zM155 75h320l-160 435z" />
    <glyph glyph-name="product" unicode="&#x220f;" horiz-adv-x="690" 
d="M120 -100v730h450v-730h-75v655h-300v-655h-75z" />
    <glyph glyph-name="summation" unicode="&#x2211;" horiz-adv-x="515" 
d="M60 -100v55l210 330l-210 290v55h405v-75h-300l195 -270l-200 -310h305v-75h-405z" />
    <glyph glyph-name="minus" unicode="&#x2212;" horiz-adv-x="465" 
d="M35 205v100h395v-100h-395z" />
    <glyph glyph-name="radical" unicode="&#x221a;" horiz-adv-x="585" 
d="M210 -100l-90 245h-100v75h150l80 -210l245 710h80l-285 -820h-80z" />
    <glyph glyph-name="infinity" unicode="&#x221e;" horiz-adv-x="770" 
d="M335 280q-36 41 -63 60.5t-62 19.5q-34 0 -57 -23t-23 -57t23 -57t57 -23q35 0 62 19.5t63 60.5zM385 330q32 35 52.5 53.5t53.5 35t69 16.5q63 0 109 -46t46 -109t-46 -109t-109 -46q-51 0 -89 26t-86 79q-32 -35 -52.5 -53.5t-53.5 -35t-69 -16.5q-63 0 -109 46
t-46 109t46 109t109 46q51 0 89 -26t86 -79zM435 280q36 -41 63 -60.5t62 -19.5q34 0 57 23t23 57t-23 57t-57 23q-35 0 -62 -19.5t-63 -60.5z" />
    <glyph glyph-name="integral" unicode="&#x222b;" horiz-adv-x="345" 
d="M35 -105v75h35q30 0 47.5 17.5t17.5 47.5v560q0 68 36 104t104 36h35v-75h-35q-30 0 -47.5 -17.5t-17.5 -47.5v-560q0 -68 -36 -104t-104 -36h-35z" />
    <glyph glyph-name="approxequal" unicode="&#x2248;" horiz-adv-x="450" 
d="M90 290h-90q0 77 33 116t92 39q34 0 102 -27.5t88 -27.5q19 0 32 13.5t13 36.5h90q0 -77 -33 -116t-92 -39q-34 0 -102 27.5t-88 27.5q-19 0 -32 -13.5t-13 -36.5zM90 90h-90q0 77 33 116t92 39q34 0 102 -27.5t88 -27.5q19 0 32 13.5t13 36.5h90q0 -77 -33 -116t-92 -39
q-34 0 -102 27.5t-88 27.5q-19 0 -32 -13.5t-13 -36.5z" />
    <glyph glyph-name="notequal" unicode="&#x2260;" horiz-adv-x="460" 
d="M70 5l40 100h-75v105h120l35 90h-155v105h200l40 100h105l-40 -100h85v-105h-130l-35 -90h165v-105h-210l-40 -100h-105z" />
    <glyph glyph-name="lessequal" unicode="&#x2264;" horiz-adv-x="460" 
d="M40 0v95h380v-95h-380zM45 285v70l375 155v-100l-235 -90l235 -90v-100z" />
    <glyph glyph-name="greaterequal" unicode="&#x2265;" horiz-adv-x="460" 
d="M40 0v95h380v-95h-380zM40 130v100l235 90l-235 90v100l375 -155v-70z" />
    <glyph glyph-name="uni2318" unicode="&#x2318;" horiz-adv-x="730" 
d="M175 255h55v120h-55q-54 0 -92 38t-38 92t38 92t92 38t92 -38t38 -92v-55h120v55q0 54 38 92t92 38t92 -38t38 -92t-38 -92t-92 -38h-55v-120h55q54 0 92 -38t38 -92t-38 -92t-92 -38t-92 38t-38 92v55h-120v-55q0 -54 -38 -92t-92 -38t-92 38t-38 92t38 92t92 38z
M230 125v55h-55q-23 0 -39 -16t-16 -39t16 -39t39 -16t39 16t16 39zM305 255h120v120h-120v-120zM500 180v-55q0 -23 16 -39t39 -16t39 16t16 39t-16 39t-39 16h-55zM175 450h55v55q0 23 -16 39t-39 16t-39 -16t-16 -39t16 -39t39 -16zM500 450h55q23 0 39 16t16 39t-16 39
t-39 16t-39 -16t-16 -39v-55z" />
    <glyph glyph-name="uni2460" unicode="&#x2460;" horiz-adv-x="1000" 
d="M75 320q0 176 124.5 300.5t300.5 124.5t300.5 -124.5t124.5 -300.5t-124.5 -300.5t-300.5 -124.5q-177 0 -301 124t-124 301zM465 120v290l-50 -35l-45 70l110 75h85v-400h-100zM175 320q0 -134 95 -229.5t230 -95.5t230 95t95 230t-95 230t-230 95t-230 -95t-95 -230z
" />
    <glyph glyph-name="uni2461" unicode="&#x2461;" horiz-adv-x="1000" 
d="M360 120v65l140 145q14 14 20 21t13 21t7 28q0 15 -11 25t-29 10q-38 0 -45 -45h-100q4 57 45 96t100 39q62 0 101 -35t39 -85q0 -67 -45 -115l-75 -80h125v-90h-285zM75 320q0 176 124.5 300.5t300.5 124.5t300.5 -124.5t124.5 -300.5t-124.5 -300.5t-300.5 -124.5
q-177 0 -301 124t-124 301zM175 320q0 -134 95 -229.5t230 -95.5t230 95t95 230t-95 230t-230 95t-230 -95t-95 -230z" />
    <glyph glyph-name="uni2462" unicode="&#x2462;" horiz-adv-x="1000" 
d="M345 240h100q9 -35 55 -35q22 0 36 12t14 28t-14 28t-36 12h-40v80h40q18 0 29 9.5t11 25.5q0 15 -11 25t-29 10q-36 0 -45 -35h-100q4 54 43.5 89.5t101.5 35.5q64 0 102 -31.5t38 -78.5q0 -43 -28 -67q-12 -10 -27 -18q18 -6 33 -18q34 -30 34 -75q0 -53 -41.5 -87.5
t-110.5 -34.5q-70 0 -110.5 35t-44.5 90zM75 320q0 176 124.5 300.5t300.5 124.5t300.5 -124.5t124.5 -300.5t-124.5 -300.5t-300.5 -124.5q-177 0 -301 124t-124 301zM175 320q0 -134 95 -229.5t230 -95.5t230 95t95 230t-95 230t-230 95t-230 -95t-95 -230z" />
    <glyph glyph-name="uni2463" unicode="&#x2463;" horiz-adv-x="1000" 
d="M330 195v80l160 245h110v-235h40v-90h-40v-75h-100v75h-170zM430 285h70v105zM75 320q0 176 124.5 300.5t300.5 124.5t300.5 -124.5t124.5 -300.5t-124.5 -300.5t-300.5 -124.5q-177 0 -301 124t-124 301zM175 320q0 -134 95 -229.5t230 -95.5t230 95t95 230t-95 230
t-230 95t-230 -95t-95 -230z" />
    <glyph glyph-name="uni2464" unicode="&#x2464;" horiz-adv-x="1000" 
d="M350 240h100q3 -11 10 -18q13 -17 40 -17q23 0 36.5 13.5t13.5 36.5t-13.5 36.5t-36.5 13.5t-36 -13q-6 -4 -9 -12h-95l30 240h230v-90h-150l-10 -50q3 0 16 5q18 5 39 5q60 0 97.5 -37.5t37.5 -97.5q0 -61 -41.5 -100.5t-108.5 -39.5q-62 0 -102.5 35t-47.5 90zM75 320
q0 176 124.5 300.5t300.5 124.5t300.5 -124.5t124.5 -300.5t-124.5 -300.5t-300.5 -124.5q-177 0 -301 124t-124 301zM175 320q0 -134 95 -229.5t230 -95.5t230 95t95 230t-95 230t-230 95t-230 -95t-95 -230z" />
    </font>
</defs>
</svg>
