<?xml version="1.0" standalone="no"?>
<!DOCTYPE svg PUBLIC "-//W3C//DTD SVG 1.1//EN" "http://www.w3.org/Graphics/SVG/1.1/DTD/svg11.dtd" >
<svg xmlns="http://www.w3.org/2000/svg" xmlns:xlink="http://www.w3.org/1999/xlink" version="1.1">
<metadata>
Created by FontForge 20190801 at Tue Jun 18 00:47:35 2019
 By www-data
Copyright (c) 2018-2019 by TypeType. Designers Ivan Gladkikh, Pavel Emelyanov. Technical designers Marina Khodak, Vika Usmanova, Nadyr Rakhimov, Antonina Zhulkova. All rights reserved. |DCNT
</metadata>
<defs>
<font id="TTCommonsBold" horiz-adv-x="535" >
  <font-face 
    font-family="TTCommonsBold"
    font-weight="700"
    font-stretch="normal"
    units-per-em="1000"
    panose-1="2 0 8 6 3 0 0 2 0 4"
    ascent="789"
    descent="-211"
    x-height="460"
    cap-height="630"
    bbox="-425 -290 1438 970"
    underline-thickness="50"
    underline-position="-100"
    unicode-range="U+000D-FB06"
  />
<missing-glyph horiz-adv-x="0" 
 />
    <glyph glyph-name="ff" unicode="ff" horiz-adv-x="610" 
d="M80 0v315h-60v125h60q0 86 42.5 130.5t122.5 44.5q27 0 47 -5l18 -5v-120l-10 2q-21 3 -25 3q-30 0 -49 -25q-8 -11 -11 -25h140v25q0 83 43 126.5t122 43.5q27 0 47 -5l18 -5v-120l-10 2q-21 3 -25 3q-27 0 -43.5 -17.5t-16.5 -47.5v-5h95v-125h-95v-315h-135v315h-140
v-315h-135z" />
    <glyph glyph-name="uniFB01" unicode="fi" horiz-adv-x="550" 
d="M80 0v315h-60v125h60v25q0 83 43 126.5t122 43.5q27 0 47 -5l18 -5v-120l-10 2q-21 3 -25 3q-27 0 -43.5 -17.5t-16.5 -47.5v-5h275v-440h-135v315h-140v-315h-135zM350 560q0 30 22.5 52.5t52.5 22.5t52.5 -22.5t22.5 -52.5t-22.5 -52.5t-52.5 -22.5t-52.5 22.5
t-22.5 52.5z" />
    <glyph glyph-name="uniFB02" unicode="fl" horiz-adv-x="540" 
d="M80 0v315h-60v125h65q0 95 50 150t130 55q34 0 66 -8l24 -7h135v-630h-135v510l-15 5q-18 5 -45 5q-34 0 -57 -23t-23 -57h95v-125h-95v-315h-135z" />
    <glyph glyph-name="ffi" unicode="ffi" horiz-adv-x="825" 
d="M80 0v315h-60v125h60q0 86 42.5 130.5t122.5 44.5q27 0 47 -5l18 -5v-120l-10 2q-21 3 -25 3q-30 0 -49 -25q-8 -11 -11 -25h140v25q0 83 43 126.5t122 43.5q27 0 47 -5l18 -5v-120l-10 2q-21 3 -25 3q-27 0 -43.5 -17.5t-16.5 -47.5v-5h275v-440h-135v315h-140v-315
h-135v315h-140v-315h-135zM625 560q0 30 22.5 52.5t52.5 22.5t52.5 -22.5t22.5 -52.5t-22.5 -52.5t-52.5 -22.5t-52.5 22.5t-22.5 52.5z" />
    <glyph glyph-name="ffl" unicode="ffl" horiz-adv-x="815" 
d="M80 0v315h-60v125h60q0 86 42.5 130.5t122.5 44.5q27 0 47 -5l18 -5v-120l-10 2q-21 3 -25 3q-30 0 -49 -25q-8 -11 -11 -25h145q0 95 50 150t130 55q34 0 66 -8l24 -7h135v-630h-135v510l-15 5q-18 5 -45 5q-34 0 -57 -23t-23 -57h95v-125h-95v-315h-135v315h-140v-315
h-135z" />
    <glyph glyph-name="f_f_j" unicode="ffj" horiz-adv-x="825" 
d="M80 0v315h-60v125h60q0 86 42.5 130.5t122.5 44.5q27 0 47 -5l18 -5v-120l-10 2q-21 3 -25 3q-30 0 -49 -25q-8 -11 -11 -25h140v25q0 83 43 126.5t122 43.5q27 0 47 -5l18 -5v-120l-10 2q-21 3 -25 3q-27 0 -43.5 -17.5t-16.5 -47.5v-5h275v-435q0 -83 -43 -126.5
t-122 -43.5q-24 0 -46 5q-10 1 -19 5v120l10 -3q14 -2 25 -2q27 0 43.5 17.5t16.5 47.5v290h-140v-315h-135v315h-140v-315h-135zM625 560q0 30 22.5 52.5t52.5 22.5t52.5 -22.5t22.5 -52.5t-22.5 -52.5t-52.5 -22.5t-52.5 22.5t-22.5 52.5z" />
    <glyph glyph-name="f_j" unicode="fj" horiz-adv-x="550" 
d="M80 0v315h-60v125h60v25q0 83 43 126.5t122 43.5q27 0 47 -5l18 -5v-120l-10 2q-21 3 -25 3q-27 0 -43.5 -17.5t-16.5 -47.5v-5h275v-435q0 -83 -43 -126.5t-122 -43.5q-24 0 -46 5q-10 1 -19 5v120l10 -3q14 -2 25 -2q27 0 43.5 17.5t16.5 47.5v290h-140v-315h-135z
M350 560q0 30 22.5 52.5t52.5 22.5t52.5 -22.5t22.5 -52.5t-22.5 -52.5t-52.5 -22.5t-52.5 22.5t-22.5 52.5z" />
    <glyph glyph-name=".notdef" horiz-adv-x="0" 
 />
    <glyph glyph-name=".null" horiz-adv-x="0" 
 />
    <glyph glyph-name="nonmarkingreturn" horiz-adv-x="333" 
 />
    <glyph glyph-name="NULL" horiz-adv-x="0" 
 />
    <glyph glyph-name="NULL" horiz-adv-x="0" 
 />
    <glyph glyph-name="CR" unicode="&#xd;" horiz-adv-x="0" 
 />
    <glyph glyph-name="space" unicode=" " horiz-adv-x="230" 
 />
    <glyph glyph-name="exclam" unicode="!" horiz-adv-x="280" 
d="M75 190l-15 440h160l-15 -440h-130zM215 70q0 -30 -22.5 -52.5t-52.5 -22.5t-52.5 22.5t-22.5 52.5t22.5 52.5t52.5 22.5t52.5 -22.5t22.5 -52.5z" />
    <glyph glyph-name="quotedbl" unicode="&#x22;" horiz-adv-x="405" 
d="M50 425v205h125v-205h-125zM230 425v205h125v-205h-125z" />
    <glyph glyph-name="numbersign" unicode="#" horiz-adv-x="650" 
d="M100 0l30 150h-120l25 110h115l20 110h-115l25 110h110l30 150h110l-30 -150h110l30 150h110l-30 -150h120l-25 -110h-115l-20 -110h115l-25 -110h-110l-30 -150h-110l30 150h-110l-30 -150h-110zM260 260h110l20 110h-110z" />
    <glyph glyph-name="dollar" unicode="$" horiz-adv-x="525" 
d="M200 -85v85q-81 15 -125.5 69t-44.5 131l140 10q0 -85 90 -85q40 0 62.5 18.5t22.5 46.5q0 22 -23 37t-57.5 23.5t-74.5 23.5t-74.5 33.5t-57.5 56.5t-23 91q0 64 45 111.5t120 63.5v85h130v-90q68 -16 109 -68t41 -122l-140 -10q0 38 -21 59t-59 21q-33 0 -54 -18
t-21 -42q0 -21 23 -35.5t57.5 -22t74.5 -22.5t74.5 -34t57.5 -58t23 -93q0 -64 -45.5 -115t-119.5 -65v-85h-130z" />
    <glyph glyph-name="percent" unicode="%" horiz-adv-x="660" 
d="M435 135q0 -23 16 -39t39 -16t39 16t16 39t-16 39t-39 16t-39 -16t-16 -39zM350 135q0 60 40 100t100 40t100 -40t40 -100t-40 -100t-100 -40t-100 40t-40 100zM225 495q0 23 -16 39t-39 16t-39 -16t-16 -39t16 -39t39 -16t39 16t16 39zM30 495q0 60 40 100t100 40
t100 -40t40 -100t-40 -100t-100 -40t-100 40t-40 100zM80 0l385 630h115l-385 -630h-115z" />
    <glyph glyph-name="ampersand" unicode="&#x26;" horiz-adv-x="585" 
d="M145 325l-30 35q-50 59 -50 120q0 62 51 108.5t124 46.5t124 -46.5t51 -108.5q0 -69 -55 -115l-50 -40l80 -80l45 65h155l-110 -155l155 -155h-165l-65 65q-22 -22 -48 -38q-60 -37 -137 -37q-88 0 -139 45t-51 115q0 74 57 131q25 25 58 44zM310 160l-90 90
q-9 -7 -23 -21q-22 -26 -22 -54q0 -23 17 -39t43 -16q30 0 54 20zM235 395q29 21 42 37t13 38q0 26 -13.5 40.5t-36.5 14.5t-36.5 -14.5t-13.5 -40.5q0 -15 7 -29t14 -21.5t24 -24.5z" />
    <glyph glyph-name="quotesingle" unicode="'" horiz-adv-x="225" 
d="M50 425v205h125v-205h-125z" />
    <glyph glyph-name="parenleft" unicode="(" horiz-adv-x="315" 
d="M295 -140l-105 -70q-41 53 -75 122q-75 148 -75 313t75 313q34 69 75 122l105 -70q-35 -54 -58 -106q-57 -132 -57 -259q0 -132 57 -260q24 -54 58 -105z" />
    <glyph glyph-name="parenright" unicode=")" horiz-adv-x="315" 
d="M125 -210l-105 70q32 46 57 105q58 130 58 260q0 125 -58 259q-25 57 -57 106l105 70q41 -53 75 -122q75 -156 75 -313t-75 -313q-34 -69 -75 -122z" />
    <glyph glyph-name="asterisk" unicode="*" horiz-adv-x="360" 
d="M55 385l65 80l-95 25l25 80l90 -35l-5 100h90l-5 -100l90 35l25 -80l-95 -25l65 -80l-70 -50l-55 85l-55 -85z" />
    <glyph glyph-name="plus" unicode="+" horiz-adv-x="465" 
d="M170 50v145h-140v120h140v145h125v-145h140v-120h-140v-145h-125z" />
    <glyph glyph-name="comma" unicode="," horiz-adv-x="210" 
d="M80 -110l-25 35q11 7 21 18q23 25 29 52q-30 0 -52.5 22.5t-22.5 52.5t22.5 52.5t52.5 22.5t52.5 -23.5t22.5 -56.5q0 -78 -50 -134q-22 -25 -50 -41z" />
    <glyph glyph-name="hyphen" unicode="-" horiz-adv-x="375" 
d="M35 195v120h305v-120h-305z" />
    <glyph glyph-name="period" unicode="." horiz-adv-x="210" 
d="M30 70q0 30 22.5 52.5t52.5 22.5t52.5 -22.5t22.5 -52.5t-22.5 -52.5t-52.5 -22.5t-52.5 22.5t-22.5 52.5z" />
    <glyph glyph-name="slash" unicode="/" horiz-adv-x="390" 
d="M0 -180l260 810h130l-260 -810h-130z" />
    <glyph glyph-name="zero" unicode="0" horiz-adv-x="610" 
d="M430 315q0 85 -36.5 132.5t-88.5 47.5t-88.5 -47.5t-36.5 -132.5q0 -86 36.5 -133t88.5 -47t88.5 47t36.5 133zM35 315q0 146 77 233t193 87t193 -87t77 -233t-77 -233t-193 -87t-193 87t-77 233z" />
    <glyph glyph-name="one" unicode="1" horiz-adv-x="345" 
d="M140 0v450l-65 -45l-70 110l165 115h115v-630h-145z" />
    <glyph glyph-name="two" unicode="2" horiz-adv-x="510" 
d="M35 0v100l230 240q15 16 27 33q28 35 28 67q0 30 -18.5 47.5t-51.5 17.5q-38 0 -59 -21t-21 -59l-140 10q0 88 60 144t160 56q103 0 161.5 -52.5t58.5 -137.5q0 -60 -50 -126q-25 -32 -50 -54l-120 -125h220v-140h-435z" />
    <glyph glyph-name="three" unicode="3" horiz-adv-x="515" 
d="M20 180l145 10q4 -28 26.5 -46.5t58.5 -18.5q41 0 63 19.5t22 50.5q0 28 -23.5 46.5t-66.5 18.5h-60v120h60q80 0 80 60q0 27 -21.5 46t-58.5 19q-66 0 -75 -60l-145 10q4 74 65.5 127t159.5 53t159 -52t61 -123q0 -56 -43 -99q-17 -17 -42 -31q28 -13 50 -34
q50 -48 50 -121q0 -75 -62.5 -127.5t-167.5 -52.5t-168 53.5t-67 131.5z" />
    <glyph glyph-name="four" unicode="4" horiz-adv-x="525" 
d="M20 110v130l248 390h172v-380h65v-140h-65v-110h-145v110h-275zM170 250h125v200z" />
    <glyph glyph-name="five" unicode="5" horiz-adv-x="530" 
d="M35 175l145 10q4 -15 16 -30q24 -30 69 -30q38 0 64 26t26 64t-26 64t-64 26q-40 0 -67 -25q-9 -9 -18 -25h-130l40 375h365v-140h-244l-11 -85q10 7 24 12q28 13 61 13q90 0 152.5 -62.5t62.5 -152.5q0 -94 -65.5 -157t-169.5 -63q-94 0 -155.5 52t-74.5 128z" />
    <glyph glyph-name="six" unicode="6" horiz-adv-x="530" 
d="M90 385l165 245h150l-135 -200q91 8 160.5 -55.5t69.5 -159.5q0 -94 -65.5 -157t-169.5 -63t-169.5 63t-65.5 157q0 57 30 119q14 27 30 51zM265 120q39 0 64.5 26.5t25.5 68.5t-25.5 68.5t-64.5 26.5t-64.5 -26.5t-25.5 -68.5t25.5 -68.5t64.5 -26.5z" />
    <glyph glyph-name="seven" unicode="7" horiz-adv-x="480" 
d="M59 0l231 490h-255v140h420v-115l-240 -515h-156z" />
    <glyph glyph-name="eight" unicode="8" horiz-adv-x="530" 
d="M175 195q0 -35 24.5 -57.5t65.5 -22.5t65.5 22.5t24.5 57.5t-24.5 57.5t-65.5 22.5t-65.5 -22.5t-24.5 -57.5zM195 455q0 -26 20 -43t50 -17t50 17t20 43t-20 43t-50 17q-32 0 -51 -17.5t-19 -42.5zM30 185q0 69 50 119q23 23 50 36q-23 15 -38 31q-37 41 -37 94
q0 70 57.5 120t152.5 50t152.5 -50t57.5 -120q0 -52 -38 -94q-14 -15 -37 -31q27 -13 50 -36q50 -50 50 -119q0 -78 -65 -134t-170 -56t-170 56t-65 134z" />
    <glyph glyph-name="nine" unicode="9" horiz-adv-x="530" 
d="M125 0l135 200q-91 -8 -160.5 55.5t-69.5 159.5q0 94 65.5 157t169.5 63t169.5 -63t65.5 -157q0 -57 -30 -119q-14 -27 -30 -51l-165 -245h-150zM265 320q39 0 64.5 26.5t25.5 68.5t-25.5 68.5t-64.5 26.5t-64.5 -26.5t-25.5 -68.5t25.5 -68.5t64.5 -26.5z" />
    <glyph glyph-name="colon" unicode=":" horiz-adv-x="210" 
d="M30 390q0 30 22.5 52.5t52.5 22.5t52.5 -22.5t22.5 -52.5t-22.5 -52.5t-52.5 -22.5t-52.5 22.5t-22.5 52.5zM30 70q0 30 22.5 52.5t52.5 22.5t52.5 -22.5t22.5 -52.5t-22.5 -52.5t-52.5 -22.5t-52.5 22.5t-22.5 52.5z" />
    <glyph glyph-name="semicolon" unicode=";" horiz-adv-x="210" 
d="M30 390q0 30 22.5 52.5t52.5 22.5t52.5 -22.5t22.5 -52.5t-22.5 -52.5t-52.5 -22.5t-52.5 22.5t-22.5 52.5zM80 -110l-25 35q11 7 21 18q23 25 29 52q-30 0 -52.5 22.5t-22.5 52.5t22.5 52.5t52.5 22.5t52.5 -23.5t22.5 -56.5q0 -78 -50 -134q-22 -25 -50 -41z" />
    <glyph glyph-name="less" unicode="&#x3c;" horiz-adv-x="460" 
d="M40 170v110l380 170v-125l-230 -100l230 -100v-125z" />
    <glyph glyph-name="equal" unicode="=" horiz-adv-x="460" 
d="M35 295v125h390v-125h-390zM35 90v125h390v-125h-390z" />
    <glyph glyph-name="greater" unicode="&#x3e;" horiz-adv-x="460" 
d="M40 0v125l230 100l-230 100v125l380 -170v-110z" />
    <glyph glyph-name="question" unicode="?" horiz-adv-x="465" 
d="M295 190h-140q0 47 14 83.5t33.5 58.5t39.5 39.5t34 35.5t14 38q0 27 -17.5 43.5t-47.5 16.5q-28 0 -46.5 -22.5t-18.5 -62.5l-145 10q8 95 64 150t146 55q98 0 156.5 -50.5t58.5 -124.5q0 -37 -14.5 -66t-35.5 -49l-42 -40t-36.5 -49t-16.5 -66zM155 70q0 30 22.5 52.5
t52.5 22.5t52.5 -22.5t22.5 -52.5t-22.5 -52.5t-52.5 -22.5t-52.5 22.5t-22.5 52.5z" />
    <glyph glyph-name="at" unicode="@" horiz-adv-x="760" 
d="M440 355l15 35h80v-175q0 -75 45 -75q55 0 55 95q0 100 -73.5 170t-181.5 70q-106 0 -178 -72.5t-72 -177.5q0 -106 72 -178t178 -72q55 0 103 23q25 12 40 23l51 -72q-22 -16 -53 -30q-68 -29 -141 -29q-146 0 -245.5 97t-99.5 238t99.5 238t245.5 97q149 0 249.5 -95
t100.5 -230q0 -84 -43.5 -134.5t-106.5 -50.5q-45 0 -83 30q-17 14 -27 30q-14 -16 -30 -30q-40 -30 -85 -30q-65 0 -110 49t-45 126t45 126t110 49q30 0 61 -23q15 -12 24 -22zM445 225q0 37 -22 61t-53 24t-53 -24t-22 -61t22 -61t53 -24t53 24t22 61z" />
    <glyph glyph-name="A" unicode="A" horiz-adv-x="590" 
d="M225 245h140l-70 210zM-5 0l225 630h150l225 -630h-150l-40 120h-220l-40 -120h-150z" />
    <glyph glyph-name="B" unicode="B" horiz-adv-x="580" 
d="M60 0v630h270q85 0 140 -51t55 -124q0 -54 -38 -92q-17 -18 -37 -28q28 -13 50 -34q50 -48 50 -116q0 -76 -58.5 -130.5t-146.5 -54.5h-285zM205 380h110q30 0 50 19t20 46t-20 46t-50 19h-110v-130zM205 120h125q33 0 56.5 22.5t23.5 52.5t-23.5 52.5t-56.5 22.5h-125
v-150z" />
    <glyph glyph-name="C" unicode="C" horiz-adv-x="650" 
d="M480 230l150 -10q-23 -95 -101 -160t-189 -65q-129 0 -219.5 93t-90.5 227t90.5 227t219.5 93q107 0 184.5 -65t100.5 -160l-150 -10q-13 41 -47.5 68t-87.5 27q-69 0 -117 -51.5t-48 -128.5t48 -128.5t117 -51.5q57 0 92.5 26.5t47.5 68.5z" />
    <glyph glyph-name="D" unicode="D" horiz-adv-x="620" 
d="M205 140h70q72 0 121 50t49 125t-49 125t-121 50h-70v-350zM60 0v630h215q131 0 223 -92t92 -223t-92 -223t-223 -92h-215z" />
    <glyph glyph-name="E" unicode="E" horiz-adv-x="560" 
d="M60 0v630h450v-140h-305v-100h280v-140h-280v-110h315v-140h-460z" />
    <glyph glyph-name="F" unicode="F" horiz-adv-x="520" 
d="M60 0v630h435v-140h-290v-130h235v-140h-235v-220h-145z" />
    <glyph glyph-name="G" unicode="G" horiz-adv-x="695" 
d="M545 0l-25 60q-23 -20 -49 -33q-62 -32 -131 -32q-129 0 -219.5 93t-90.5 227t90.5 227t219.5 93q107 0 184 -64t101 -156l-150 -10q-13 38 -48 64t-87 26q-69 0 -117 -51.5t-48 -128.5t48 -128.5t117 -51.5q56 0 91 25t49 60h-140v120h305v-340h-100z" />
    <glyph glyph-name="H" unicode="H" horiz-adv-x="650" 
d="M60 0v630h145v-240h240v240h145v-630h-145v250h-240v-250h-145z" />
    <glyph glyph-name="I" unicode="I" horiz-adv-x="265" 
d="M60 0v630h145v-630h-145z" />
    <glyph glyph-name="J" unicode="J" horiz-adv-x="485" 
d="M290 210v420h145v-420q0 -98 -58.5 -156.5t-156.5 -58.5q-97 0 -156 57t-59 148q49 2 90 6l55 4q0 -33 20 -54t50 -21t50 21t20 54z" />
    <glyph glyph-name="K" unicode="K" horiz-adv-x="565" 
d="M60 0v630h145v-270l190 270h165l-222 -310l237 -320h-165l-205 280v-280h-145z" />
    <glyph glyph-name="L" unicode="L" horiz-adv-x="500" 
d="M60 0v630h145v-490h285v-140h-430z" />
    <glyph glyph-name="M" unicode="M" horiz-adv-x="790" 
d="M60 0v630h130l205 -445l205 445h130v-630h-145v315l-145 -315h-90l-145 315v-315h-145z" />
    <glyph glyph-name="N" unicode="N" horiz-adv-x="650" 
d="M60 0v630h130l255 -370v370h145v-630h-130l-255 370v-370h-145z" />
    <glyph glyph-name="O" unicode="O" horiz-adv-x="680" 
d="M340 135q69 0 117 51.5t48 128.5t-48 128.5t-117 51.5t-117 -51.5t-48 -128.5t48 -128.5t117 -51.5zM340 -5q-129 0 -219.5 93t-90.5 227t90.5 227t219.5 93t219.5 -93t90.5 -227t-90.5 -227t-219.5 -93z" />
    <glyph glyph-name="P" unicode="P" horiz-adv-x="560" 
d="M60 0v630h245q97 0 161 -62t64 -153t-64 -153t-161 -62h-100v-200h-145zM205 340h100q33 0 56.5 22.5t23.5 52.5t-23.5 52.5t-56.5 22.5h-100v-150z" />
    <glyph glyph-name="Q" unicode="Q" horiz-adv-x="680" 
d="M570 -20l-65 65q-23 -16 -45 -25q-56 -25 -120 -25q-129 0 -219.5 93t-90.5 227t90.5 227t219.5 93t219.5 -93t90.5 -227q0 -72 -30 -138q-15 -31 -30 -52l60 -60zM335 210l80 85l70 -70q5 11 10 28q10 34 10 62q0 77 -48 128.5t-117 51.5t-117 -51.5t-48 -128.5
t48 -128.5t117 -51.5q23 0 43 5q7 1 17 5z" />
    <glyph glyph-name="R" unicode="R" horiz-adv-x="570" 
d="M60 0v630h255q96 0 158 -58t62 -142q0 -39 -12 -73.5t-29.5 -55t-36 -35t-29.5 -20.5t-13 -6l140 -240h-160l-115 210h-75v-210h-145zM205 350h110q37 0 58.5 19.5t21.5 50.5t-21.5 50.5t-58.5 19.5h-110v-140z" />
    <glyph glyph-name="S" unicode="S" horiz-adv-x="525" 
d="M30 200l140 10q0 -85 90 -85q40 0 62.5 18.5t22.5 46.5q0 22 -23 37t-57.5 23.5t-74.5 23.5t-74.5 33.5t-57.5 56.5t-23 91q0 74 62 127t163 53q100 0 160 -56t60 -144l-140 -10q0 38 -21 59t-59 21q-33 0 -54 -18t-21 -42q0 -21 23 -35.5t57.5 -22t74.5 -22.5t74.5 -34
t57.5 -58t23 -93q0 -78 -63 -131.5t-172 -53.5q-107 0 -168.5 56.5t-61.5 148.5z" />
    <glyph glyph-name="T" unicode="T" horiz-adv-x="525" 
d="M190 0v490h-180v140h505v-140h-180v-490h-145z" />
    <glyph glyph-name="U" unicode="U" horiz-adv-x="620" 
d="M50 255v375h145v-375q0 -57 30.5 -88.5t84.5 -31.5t84.5 31.5t30.5 88.5v375h145v-375q0 -116 -72 -188t-188 -72t-188 72t-72 188z" />
    <glyph glyph-name="V" unicode="V" horiz-adv-x="590" 
d="M220 0l-215 630h150l140 -435l140 435h150l-215 -630h-150z" />
    <glyph glyph-name="W" unicode="W" horiz-adv-x="860" 
d="M205 0l-200 630h140l120 -390l120 390h90l120 -390l120 390h140l-200 -630h-110l-115 370l-115 -370h-110z" />
    <glyph glyph-name="X" unicode="X" horiz-adv-x="580" 
d="M0 0l200 320l-190 310h160l120 -205l120 205h160l-190 -310l200 -320h-160l-130 215l-130 -215h-160z" />
    <glyph glyph-name="Y" unicode="Y" horiz-adv-x="565" 
d="M210 0v235l-210 395h155l128 -250l127 250h155l-210 -395v-235h-145z" />
    <glyph glyph-name="Z" unicode="Z" horiz-adv-x="530" 
d="M30 0v120l270 370h-260v140h445v-120l-270 -370h285v-140h-470z" />
    <glyph glyph-name="bracketleft" unicode="[" horiz-adv-x="325" 
d="M60 -180v810h240v-140h-100v-530h100v-140h-240z" />
    <glyph glyph-name="backslash" unicode="\" horiz-adv-x="390" 
d="M260 -180l-260 810h130l260 -810h-130z" />
    <glyph glyph-name="bracketright" unicode="]" horiz-adv-x="325" 
d="M25 -180v140h100v530h-100v140h240v-810h-240z" />
    <glyph glyph-name="asciicircum" unicode="^" horiz-adv-x="420" 
d="M25 335l145 295h80l145 -295h-115l-70 145l-70 -145h-115z" />
    <glyph glyph-name="underscore" unicode="_" horiz-adv-x="290" 
d="M-20 -195v120h330v-120h-330z" />
    <glyph glyph-name="grave" unicode="`" horiz-adv-x="260" 
d="M125 505l-95 130h135l65 -130h-105z" />
    <glyph glyph-name="a" unicode="a" horiz-adv-x="485" 
d="M340 0l-20 45q-19 -15 -38 -25q-46 -25 -97 -25q-73 0 -114 36t-41 94q0 74 63 114.5t212 40.5q0 33 -16.5 51.5t-43.5 18.5q-30 0 -49 -23q-8 -12 -11 -22l-135 10q13 72 63 113.5t137 41.5q82 0 136 -54t54 -136v-280h-100zM305 180v20q-81 0 -110.5 -15.5t-29.5 -44.5
q0 -19 15 -32t40 -13q38 0 61.5 23.5t23.5 61.5z" />
    <glyph glyph-name="b" unicode="b" horiz-adv-x="545" 
d="M50 0v630h135v-205q16 13 31 20q36 20 84 20q88 0 151.5 -67.5t63.5 -167.5t-63.5 -167.5t-151.5 -67.5q-51 0 -95 25q-18 10 -35 25l-20 -45h-100zM280 120q43 0 71.5 31t28.5 79t-28.5 79t-71.5 31t-71.5 -31t-28.5 -79t28.5 -79t71.5 -31z" />
    <glyph glyph-name="c" unicode="c" horiz-adv-x="510" 
d="M350 180l135 -10q-14 -52 -41 -90q-64 -90 -179 -90q-98 0 -166.5 69.5t-68.5 170.5t68.5 170.5t166.5 69.5q115 0 179 -90q27 -38 41 -90l-135 -10q-8 19 -18 32q-27 33 -67 33q-43 0 -71.5 -31.5t-28.5 -83.5t28.5 -83.5t71.5 -31.5q41 0 67 32q10 13 18 33z" />
    <glyph glyph-name="d" unicode="d" horiz-adv-x="545" 
d="M395 0l-20 45q-22 -18 -35 -25q-44 -25 -95 -25q-88 0 -151.5 67.5t-63.5 167.5t63.5 167.5t151.5 67.5q48 0 84 -20q15 -7 31 -20v205h135v-630h-100zM265 120q43 0 71.5 31t28.5 79t-28.5 79t-71.5 31t-71.5 -31t-28.5 -79t28.5 -79t71.5 -31z" />
    <glyph glyph-name="e" unicode="e" horiz-adv-x="515" 
d="M335 145l140 -10q-20 -62 -75.5 -103.5t-139.5 -41.5q-94 0 -162 70t-68 170q0 101 68.5 170.5t166.5 69.5q96 0 160.5 -66.5t64.5 -173.5q0 -3 -3 -30l-2 -15h-315q9 -29 34 -49.5t61 -20.5q33 0 54 15q10 6 16 15zM170 270h190q-9 32 -34 53.5t-61 21.5t-61 -21.5
t-34 -53.5z" />
    <glyph glyph-name="f" unicode="f" horiz-adv-x="335" 
d="M80 0v315h-60v125h60v25q0 83 43 126.5t122 43.5q27 0 47 -5l18 -5v-120l-10 2q-21 3 -25 3q-27 0 -43.5 -17.5t-16.5 -47.5v-5h95v-125h-95v-315h-135z" />
    <glyph glyph-name="g" unicode="g" horiz-adv-x="540" 
d="M45 -15l135 10q5 -11 17 -23q24 -22 63 -22q42 0 68.5 25.5t26.5 64.5v25q-10 -10 -28 -20q-35 -20 -87 -20q-87 0 -148.5 63.5t-61.5 156.5t61.5 156.5t148.5 63.5q47 0 95 -25q13 -7 35 -25l20 45h100v-420q0 -91 -63.5 -150.5t-166.5 -59.5q-108 0 -171 77
q-29 36 -44 78zM165 245q0 -42 26.5 -68.5t68.5 -26.5t68.5 26.5t26.5 68.5t-26.5 68.5t-68.5 26.5t-68.5 -26.5t-26.5 -68.5z" />
    <glyph glyph-name="h" unicode="h" 
d="M50 0v630h135v-215q17 17 31 25q44 25 99 25q76 0 125.5 -53.5t49.5 -141.5v-270h-135v245q0 44 -23 69.5t-62 25.5t-62 -25.5t-23 -69.5v-245h-135z" />
    <glyph glyph-name="i" unicode="i" horiz-adv-x="235" 
d="M50 0v460h135v-460h-135zM45 585q0 30 22.5 52.5t52.5 22.5t52.5 -22.5t22.5 -52.5t-22.5 -52.5t-52.5 -22.5t-52.5 22.5t-22.5 52.5z" />
    <glyph glyph-name="j" unicode="j" horiz-adv-x="235" 
d="M-45 -155v120l10 -3q14 -2 25 -2q27 0 43.5 17.5t16.5 47.5v435h135v-455q0 -83 -43 -126.5t-122 -43.5q-24 0 -46 5q-10 1 -19 5zM45 585q0 30 22.5 52.5t52.5 22.5t52.5 -22.5t22.5 -52.5t-22.5 -52.5t-52.5 -22.5t-52.5 22.5t-22.5 52.5z" />
    <glyph glyph-name="k" unicode="k" horiz-adv-x="470" 
d="M50 0v630h135v-355l125 185h155l-155 -220l170 -240h-155l-140 205v-205h-135z" />
    <glyph glyph-name="l" unicode="l" horiz-adv-x="235" 
d="M50 0v630h135v-630h-135z" />
    <glyph glyph-name="m" unicode="m" horiz-adv-x="760" 
d="M50 0v460h100l20 -45q17 17 31 25q42 25 84 25q59 0 101 -30q19 -14 29 -30q17 17 37 30q48 30 98 30q77 0 121 -49t44 -141v-275h-135v260q0 37 -19 58.5t-46 21.5t-46 -21.5t-19 -58.5v-260h-135v260q0 37 -19 58.5t-46 21.5t-46 -21.5t-19 -58.5v-260h-135z" />
    <glyph glyph-name="n" unicode="n" 
d="M50 0v460h100l20 -45q20 17 37 25q50 25 98 25q83 0 134 -53t51 -142v-270h-135v245q0 44 -23 69.5t-62 25.5t-62 -25.5t-23 -69.5v-245h-135z" />
    <glyph glyph-name="o" unicode="o" horiz-adv-x="530" 
d="M30 230q0 101 68.5 170.5t166.5 69.5t166.5 -69.5t68.5 -170.5t-68.5 -170.5t-166.5 -69.5t-166.5 69.5t-68.5 170.5zM365 230q0 52 -28.5 83.5t-71.5 31.5t-71.5 -31.5t-28.5 -83.5t28.5 -83.5t71.5 -31.5t71.5 31.5t28.5 83.5z" />
    <glyph glyph-name="p" unicode="p" horiz-adv-x="545" 
d="M50 -160v620h100l20 -45q17 15 35 25q48 25 95 25q88 0 151.5 -67.5t63.5 -167.5t-63.5 -167.5t-151.5 -67.5q-48 0 -84 20q-15 7 -31 20v-195h-135zM280 120q43 0 71.5 31t28.5 79t-28.5 79t-71.5 31t-71.5 -31t-28.5 -79t28.5 -79t71.5 -31z" />
    <glyph glyph-name="q" unicode="q" horiz-adv-x="545" 
d="M360 -160v195q-16 -13 -31 -20q-36 -20 -84 -20q-88 0 -151.5 67.5t-63.5 167.5t63.5 167.5t151.5 67.5q47 0 95 -25q13 -7 35 -25l20 45h100v-620h-135zM265 120q43 0 71.5 31t28.5 79t-28.5 79t-71.5 31t-71.5 -31t-28.5 -79t28.5 -79t71.5 -31z" />
    <glyph glyph-name="r" unicode="r" horiz-adv-x="340" 
d="M50 0v460h100l20 -50q11 14 29 27q35 28 81 28q8 0 29 -3l11 -2v-140l-14 5q-15 5 -36 5q-39 0 -62 -25.5t-23 -69.5v-235h-135z" />
    <glyph glyph-name="s" unicode="s" horiz-adv-x="445" 
d="M30 140l130 10q8 -50 60 -50q25 0 40 12t15 28q0 13 -24 22.5t-58.5 19t-69.5 24t-59 46.5t-24 78q0 58 48 99t127 41q86 0 134.5 -38t60.5 -102l-130 -10q-4 16 -18.5 28t-36.5 12q-45 0 -45 -35q0 -11 17.5 -20t43.5 -15t56.5 -17t56.5 -26t43.5 -44t17.5 -68
q0 -59 -50.5 -102t-134.5 -43q-175 0 -200 150z" />
    <glyph glyph-name="t" unicode="t" horiz-adv-x="365" 
d="M90 165v170h-70v115h35q55 0 55 55v65h115v-110h95v-125h-95v-150q0 -30 16.5 -47.5t43.5 -17.5q11 0 25 2l10 3v-120q-9 -4 -18 -5q-22 -5 -47 -5q-79 0 -122 43.5t-43 126.5z" />
    <glyph glyph-name="u" unicode="u" 
d="M45 190v270h135v-245q0 -44 23 -69.5t62 -25.5t62 25.5t23 69.5v245h135v-460h-100l-20 45q-19 -15 -38 -25q-46 -25 -97 -25q-83 0 -134 53t-51 142z" />
    <glyph glyph-name="v" unicode="v" horiz-adv-x="490" 
d="M175 0l-175 460h145l100 -300l100 300h145l-175 -460h-140z" />
    <glyph glyph-name="w" unicode="w" horiz-adv-x="700" 
d="M155 0l-155 460h140l80 -270l85 270h90l85 -270l80 270h140l-155 -460h-115l-80 255l-80 -255h-115z" />
    <glyph glyph-name="x" unicode="x" horiz-adv-x="460" 
d="M-5 0l150 235l-140 225h150l75 -130l75 130h150l-140 -225l150 -235h-150l-85 140l-85 -140h-150z" />
    <glyph glyph-name="y" unicode="y" horiz-adv-x="490" 
d="M80 -160v115q71 0 95 65l-175 440h145l100 -285l100 285h145l-185 -460q-36 -88 -77 -126.5t-103 -38.5q-12 0 -30 2z" />
    <glyph glyph-name="z" unicode="z" horiz-adv-x="435" 
d="M30 0v110l190 220h-190v130h365v-110l-190 -220h200v-130h-375z" />
    <glyph glyph-name="braceleft" unicode="{" horiz-adv-x="345" 
d="M90 -20v135q0 55 -55 55v110q55 0 55 55v135q0 83 38.5 121.5t121.5 38.5h70v-130h-40q-55 0 -55 -55v-125q0 -48 -30 -78q-14 -13 -30 -17q17 -6 30 -18q30 -30 30 -77v-125q0 -55 55 -55h40v-130h-70q-83 0 -121.5 38.5t-38.5 121.5z" />
    <glyph glyph-name="bar" unicode="|" horiz-adv-x="380" 
d="M120 -160v790h140v-790h-140z" />
    <glyph glyph-name="braceright" unicode="}" horiz-adv-x="345" 
d="M25 -180v130h40q55 0 55 55v125q0 47 30 77q14 12 30 18q-16 4 -30 17q-30 30 -30 78v125q0 55 -55 55h-40v130h70q83 0 121.5 -38.5t38.5 -121.5v-135q0 -55 55 -55v-110q-55 0 -55 -55v-135q0 -83 -38.5 -121.5t-121.5 -38.5h-70z" />
    <glyph glyph-name="asciitilde" unicode="~" horiz-adv-x="465" 
d="M115 180l-110 10q0 81 35.5 123t94.5 42q39 0 96.5 -25t73.5 -25q19 0 32 13.5t13 36.5l110 -10q0 -81 -35.5 -123t-94.5 -42q-39 0 -96.5 25t-73.5 25q-19 0 -32 -13.5t-13 -36.5z" />
    <glyph glyph-name="nbspace" unicode="&#xa0;" horiz-adv-x="230" 
 />
    <glyph glyph-name="exclamdown" unicode="&#xa1;" horiz-adv-x="280" 
d="M60 -160l15 430h130l15 -430h-160zM215 390q0 -30 -22.5 -52.5t-52.5 -22.5t-52.5 22.5t-22.5 52.5t22.5 52.5t52.5 22.5t52.5 -22.5t22.5 -52.5z" />
    <glyph glyph-name="cent" unicode="&#xa2;" horiz-adv-x="510" 
d="M200 -85v85q-75 23 -122.5 83t-47.5 147q0 89 50.5 151t119.5 79v75h135v-75q78 -24 122 -98q19 -32 28 -72l-135 -10q-8 19 -18 32q-27 33 -67 33q-43 0 -71.5 -31.5t-28.5 -83.5t28.5 -83.5t71.5 -31.5q41 0 67 32q10 13 18 33l135 -10q-9 -38 -28 -70
q-44 -75 -122 -100v-85h-135z" />
    <glyph glyph-name="sterling" unicode="&#xa3;" horiz-adv-x="540" 
d="M30 0v140q26 0 43 17t17 43v40h-50v120h50v75q0 91 57.5 145.5t157.5 54.5q89 0 147 -55t58 -135l-145 -10q0 33 -19 54t-46 21t-46 -21t-19 -54v-75h140v-120h-140v-40q0 -21 -15 -45q-8 -9 -15 -15h296v-140h-471z" />
    <glyph glyph-name="currency" unicode="&#xa4;" horiz-adv-x="580" 
d="M95 0v85h-70v115h70v45h-70v115h70v270h230q103 0 164 -55.5t61 -139.5q0 -81 -61.5 -135.5t-163.5 -54.5h-85v-45h170v-115h-170v-85h-145zM240 360h80q37 0 61 22t24 53t-24 53t-61 22h-80v-150z" />
    <glyph glyph-name="yen" unicode="&#xa5;" horiz-adv-x="565" 
d="M85 85v105h125v40h-125v105h75l-160 295h155l128 -250l127 250h155l-160 -295h75v-105h-125v-40h125v-105h-125v-85h-145v85h-125z" />
    <glyph glyph-name="brokenbar" unicode="&#xa6;" horiz-adv-x="380" 
d="M120 320v310h140v-310h-140zM120 -160v310h140v-310h-140z" />
    <glyph glyph-name="section" unicode="&#xa7;" horiz-adv-x="490" 
d="M55 30l120 10q1 -16 9 -30q16 -30 51 -30q25 0 40 13t15 32q0 21 -26 37.5t-62.5 30.5t-73 32.5t-62.5 54t-26 85.5q0 59 42 101q19 19 43 29q-16 12 -28 28q-27 34 -27 77q0 54 46.5 94.5t118.5 40.5q83 0 132 -41t58 -104l-120 -10q-3 15 -9 27q-15 28 -46 28
q-23 0 -36.5 -13t-13.5 -32q0 -21 26 -37.5t62.5 -30.5t73 -32.5t62.5 -54t26 -85.5q0 -58 -43 -101q-19 -19 -42 -29q16 -13 27 -28q28 -35 28 -77q0 -55 -47.5 -95t-122.5 -40q-170 0 -195 150zM220 335q-16 -9 -25 -18q-25 -21 -25 -47q0 -55 100 -90q18 10 25 17
q25 23 25 48q0 55 -100 90z" />
    <glyph glyph-name="dieresis" unicode="&#xa8;" horiz-adv-x="385" 
d="M30 570q0 30 20 50t50 20t50 -20t20 -50t-20 -50t-50 -20t-50 20t-20 50zM215 570q0 30 20 50t50 20t50 -20t20 -50t-20 -50t-50 -20t-50 20t-20 50z" />
    <glyph glyph-name="copyright" unicode="&#xa9;" horiz-adv-x="720" 
d="M360 75q98 0 166.5 69.5t68.5 170.5t-68.5 170.5t-166.5 69.5t-166.5 -69.5t-68.5 -170.5t68.5 -170.5t166.5 -69.5zM40 315q0 135 92.5 227.5t227.5 92.5t227.5 -92.5t92.5 -227.5t-92.5 -227.5t-227.5 -92.5t-227.5 92.5t-92.5 227.5zM430 275l90 -5q-11 -37 -31 -63
q-48 -62 -129 -62q-69 0 -117 49t-48 121t48 121t117 49q80 0 129 -63q20 -26 31 -62l-90 -5q-5 14 -14 25q-23 25 -51 25q-35 0 -57.5 -24.5t-22.5 -65.5t22.5 -65.5t57.5 -24.5q30 0 51 25q9 11 14 25z" />
    <glyph glyph-name="ordfeminine" unicode="&#xaa;" horiz-adv-x="320" 
d="M215 360l-15 30q-11 -11 -22 -18q-28 -17 -63 -17q-41 0 -65.5 22t-24.5 53q0 95 170 95q-2 12 -5 17q-10 18 -35 18q-16 0 -24 -10q-5 -5 -6 -10h-80q0 43 29.5 69t85.5 26t88 -30t32 -80v-165h-65zM195 465v15q-44 0 -64.5 -10.5t-20.5 -24.5q0 -25 35 -25
q23 0 36.5 13t13.5 32z" />
    <glyph glyph-name="guillemotleft" unicode="&#xab;" horiz-adv-x="510" 
d="M140 65l-110 160l110 160h135l-110 -160l110 -160h-135zM345 65l-110 160l110 160h135l-110 -160l110 -160h-135z" />
    <glyph glyph-name="logicalnot" unicode="&#xac;" horiz-adv-x="500" 
d="M35 280v120h425v-235h-130v115h-295z" />
    <glyph glyph-name="uni00AD" unicode="&#xad;" horiz-adv-x="375" 
d="M35 195v120h305v-120h-305z" />
    <glyph glyph-name="registered" unicode="&#xae;" horiz-adv-x="720" 
d="M360 75q98 0 166.5 69.5t68.5 170.5t-68.5 170.5t-166.5 69.5t-166.5 -69.5t-68.5 -170.5t68.5 -170.5t166.5 -69.5zM40 315q0 135 92.5 227.5t227.5 92.5t227.5 -92.5t92.5 -227.5t-92.5 -227.5t-227.5 -92.5t-227.5 92.5t-92.5 227.5zM240 150v330h135q51 0 85.5 -32.5
t34.5 -77.5q0 -40 -35 -71q-16 -12 -35 -19l95 -130h-95l-75 110h-25v-110h-85zM325 335h45q45 0 45 35t-45 35h-45v-70z" />
    <glyph glyph-name="overscore" unicode="&#xaf;" horiz-adv-x="325" 
d="M30 515v105h265v-105h-265z" />
    <glyph glyph-name="degree" unicode="&#xb0;" horiz-adv-x="320" 
d="M210 505q0 23 -13.5 36.5t-36.5 13.5t-36.5 -13.5t-13.5 -36.5t13.5 -36.5t36.5 -13.5t36.5 13.5t13.5 36.5zM30 505q0 57 36.5 93.5t93.5 36.5t93.5 -36.5t36.5 -93.5t-36.5 -93.5t-93.5 -36.5t-93.5 36.5t-36.5 93.5z" />
    <glyph glyph-name="plusminus" unicode="&#xb1;" horiz-adv-x="465" 
d="M30 5v120h140v115h-140v120h140v145h125v-145h140v-120h-140v-115h140v-120h-405z" />
    <glyph glyph-name="twosuperior" unicode="&#xb2;" horiz-adv-x="280" 
d="M25 420v60l90 80l25 23q25 27 25 42q0 25 -30 25q-15 0 -25 -10t-10 -25l-80 5q18 105 120 105q59 0 89.5 -27t30.5 -73q0 -24 -15 -48q-5 -7 -15 -17l-75 -65h100v-75h-230z" />
    <glyph glyph-name="threesuperior" unicode="&#xb3;" horiz-adv-x="285" 
d="M105 540v65h30q12 0 21 6t9 14q0 25 -30 25q-35 0 -35 -25l-80 5q4 44 34.5 69.5t85.5 25.5t85 -25t30 -65q0 -23 -18 -45q-7 -8 -17 -15q12 -6 22 -16q23 -23 23 -49q0 -39 -35 -67t-90 -28t-88 28t-37 72q1 1 43 3l42 2q0 -12 10.5 -21t25.5 -9q20 0 29.5 7.5t9.5 17.5
q0 25 -39 25h-31z" />
    <glyph glyph-name="acute" unicode="&#xb4;" horiz-adv-x="260" 
d="M30 505l65 130h135l-95 -130h-105z" />
    <glyph glyph-name="mu" unicode="&#xb5;" horiz-adv-x="540" 
d="M50 -160v620h135v-245q0 -44 23 -69.5t62 -25.5t62 25.5t23 69.5v245h135v-460h-100l-20 45q-12 -15 -26 -25q-37 -25 -79 -25q-31 0 -57 12q-10 4 -23 13v-180h-135z" />
    <glyph glyph-name="paragraph" unicode="&#xb6;" horiz-adv-x="540" 
d="M190 -90v390q-72 0 -121 48t-49 117t49 117t121 48h290v-720h-110v600h-70v-600h-110z" />
    <glyph glyph-name="middot" unicode="&#xb7;" horiz-adv-x="230" 
d="M40 315q0 30 22.5 52.5t52.5 22.5t52.5 -22.5t22.5 -52.5t-22.5 -52.5t-52.5 -22.5t-52.5 22.5t-22.5 52.5z" />
    <glyph glyph-name="cedilla" unicode="&#xb8;" horiz-adv-x="240" 
d="M30 -190v50l12 -3q14 -2 28 -2q50 0 50 35q0 12 -11.5 21t-33.5 9q-5 0 -11 -1t-10 -3l-4 -1l35 85h60l-20 -40q27 -5 42 -14q43 -23 43 -66q0 -36 -29.5 -58t-90.5 -22q-23 0 -43 5q-7 1 -17 5z" />
    <glyph glyph-name="onesuperior" unicode="&#xb9;" horiz-adv-x="250" 
d="M90 420v190l-35 -20l-40 65l105 65h60v-300h-90z" />
    <glyph glyph-name="ordmasculine" unicode="&#xba;" horiz-adv-x="330" 
d="M165 440q19 0 32 15t13 40t-13 40t-32 15t-32 -15t-13 -40t13 -40t32 -15zM25 495q0 56 42 98t98 42t98 -42t42 -98t-42 -98t-98 -42t-98 42t-42 98z" />
    <glyph glyph-name="guillemotright" unicode="&#xbb;" horiz-adv-x="510" 
d="M235 65l110 160l-110 160h135l110 -160l-110 -160h-135zM30 65l110 160l-110 160h135l110 -160l-110 -160h-135z" />
    <glyph glyph-name="onequarter" unicode="&#xbc;" horiz-adv-x="620" 
d="M60 0l385 630h115l-385 -630h-115zM90 330v190l-35 -20l-40 65l105 65h60v-300h-90zM340 55v55l120 190h105v-170h35v-75h-35v-55h-90v55h-135zM430 130h50v80z" />
    <glyph glyph-name="onehalf" unicode="&#xbd;" horiz-adv-x="640" 
d="M60 0l385 630h115l-385 -630h-115zM90 330v190l-35 -20l-40 65l105 65h60v-300h-90zM385 0v60l90 80l25 23q25 27 25 42q0 25 -30 25q-15 0 -25 -10t-10 -25l-80 5q18 105 120 105q59 0 89.5 -27t30.5 -73q0 -24 -15 -48q-5 -7 -15 -17l-75 -65h100v-75h-230z" />
    <glyph glyph-name="threequarters" unicode="&#xbe;" horiz-adv-x="665" 
d="M95 0l385 630h115l-385 -630h-115zM105 450v65h30q12 0 21 6t9 14q0 25 -30 25q-35 0 -35 -25l-80 5q4 44 34.5 69.5t85.5 25.5t85 -25t30 -65q0 -23 -18 -45q-7 -8 -17 -15q12 -6 22 -16q23 -23 23 -49q0 -39 -35 -67t-90 -28t-88 28t-37 72q1 1 43 3l42 2
q0 -12 10.5 -21t25.5 -9q20 0 29.5 7.5t9.5 17.5q0 25 -39 25h-31zM385 55v55l120 190h105v-170h35v-75h-35v-55h-90v55h-135zM475 130h50v80z" />
    <glyph glyph-name="questiondown" unicode="&#xbf;" horiz-adv-x="450" 
d="M295 50l145 -10q-8 -95 -64 -150t-146 -55q-98 0 -156.5 50.5t-58.5 124.5q0 37 14.5 66t35.5 48.5t42 38t36.5 46t16.5 61.5h140q0 -44 -14 -79t-33.5 -55.5t-39.5 -37.5t-34 -35t-14 -38q0 -27 17.5 -43.5t47.5 -16.5q28 0 46.5 22.5t18.5 62.5zM150 390
q0 30 22.5 52.5t52.5 22.5t52.5 -22.5t22.5 -52.5t-22.5 -52.5t-52.5 -22.5t-52.5 22.5t-22.5 52.5z" />
    <glyph glyph-name="Agrave" unicode="&#xc0;" horiz-adv-x="590" 
d="M225 245h140l-70 210zM-5 0l225 630h150l225 -630h-150l-40 120h-220l-40 -120h-150zM240 695l-95 130h135l65 -130h-105z" />
    <glyph glyph-name="Aacute" unicode="&#xc1;" horiz-adv-x="590" 
d="M225 245h140l-70 210zM-5 0l225 630h150l225 -630h-150l-40 120h-220l-40 -120h-150zM245 695l65 130h135l-95 -130h-105z" />
    <glyph glyph-name="Acircumflex" unicode="&#xc2;" horiz-adv-x="590" 
d="M225 245h140l-70 210zM-5 0l225 630h150l225 -630h-150l-40 120h-220l-40 -120h-150zM135 695l100 130h120l100 -130h-115l-45 60l-45 -60h-115z" />
    <glyph glyph-name="Atilde" unicode="&#xc3;" horiz-adv-x="590" 
d="M225 245h140l-70 210zM-5 0l225 630h150l225 -630h-150l-40 120h-220l-40 -120h-150zM220 685l-75 10q0 61 25 93t65 32q33 0 66 -22.5t44 -22.5q35 0 35 45l75 -10q0 -61 -25 -93t-65 -32q-34 0 -66 22.5t-44 22.5q-15 0 -25 -11.5t-10 -33.5z" />
    <glyph glyph-name="Adieresis" unicode="&#xc4;" horiz-adv-x="590" 
d="M225 245h140l-70 210zM-5 0l225 630h150l225 -630h-150l-40 120h-220l-40 -120h-150zM133 760q0 30 20 50t50 20t50 -20t20 -50t-20 -50t-50 -20t-50 20t-20 50zM318 760q0 30 20 50t50 20t50 -20t20 -50t-20 -50t-50 -20t-50 20t-20 50z" />
    <glyph glyph-name="Aring" unicode="&#xc5;" horiz-adv-x="590" 
d="M225 245h140l-70 210zM-5 0l225 630h150l225 -630h-150l-40 120h-220l-40 -120h-150zM330 770q0 15 -10 25t-25 10t-25 -10t-10 -25t10 -25t25 -10t25 10t10 25zM195 770q0 42 27.5 68.5t72.5 26.5t72.5 -26.5t27.5 -68.5t-27.5 -68.5t-72.5 -26.5t-72.5 26.5t-27.5 68.5
z" />
    <glyph glyph-name="AE" unicode="&#xc6;" horiz-adv-x="855" 
d="M-25 0l325 630h505v-140h-275v-100h250v-140h-250v-110h285v-140h-430v120h-185l-60 -120h-165zM270 260h115v230z" />
    <glyph glyph-name="Ccedilla" unicode="&#xc7;" horiz-adv-x="650" 
d="M250 -190v50l12 -3q14 -2 28 -2q50 0 50 35q0 12 -11.5 21t-33.5 9q-5 0 -11 -1t-10 -3l-4 -1l34 83q-117 12 -195.5 102t-78.5 215q0 134 90.5 227t219.5 93q107 0 184.5 -65t100.5 -160l-150 -10q-13 41 -47.5 68t-87.5 27q-69 0 -117 -51.5t-48 -128.5t48 -128.5
t117 -51.5q57 0 92.5 26.5t47.5 68.5l150 -10q-23 -90 -93.5 -153t-173.5 -71l-18 -36q27 -5 42 -14q43 -23 43 -66q0 -36 -29.5 -58t-90.5 -22q-23 0 -43 5q-7 1 -17 5z" />
    <glyph glyph-name="Egrave" unicode="&#xc8;" horiz-adv-x="560" 
d="M60 0v630h450v-140h-305v-100h280v-140h-280v-110h315v-140h-460zM250 695l-95 130h135l65 -130h-105z" />
    <glyph glyph-name="Eacute" unicode="&#xc9;" horiz-adv-x="560" 
d="M60 0v630h450v-140h-305v-100h280v-140h-280v-110h315v-140h-460zM230 695l65 130h135l-95 -130h-105z" />
    <glyph glyph-name="Ecircumflex" unicode="&#xca;" horiz-adv-x="560" 
d="M60 0v630h450v-140h-305v-100h280v-140h-280v-110h315v-140h-460zM130 695l100 130h120l100 -130h-115l-45 60l-45 -60h-115z" />
    <glyph glyph-name="Edieresis" unicode="&#xcb;" horiz-adv-x="560" 
d="M60 0v630h450v-140h-305v-100h280v-140h-280v-110h315v-140h-460zM130 760q0 30 20 50t50 20t50 -20t20 -50t-20 -50t-50 -20t-50 20t-20 50zM315 760q0 30 20 50t50 20t50 -20t20 -50t-20 -50t-50 -20t-50 20t-20 50z" />
    <glyph glyph-name="Igrave" unicode="&#xcc;" horiz-adv-x="265" 
d="M60 0v630h145v-630h-145zM80 695l-95 130h135l65 -130h-105z" />
    <glyph glyph-name="Iacute" unicode="&#xcd;" horiz-adv-x="265" 
d="M60 0v630h145v-630h-145zM80 695l65 130h135l-95 -130h-105z" />
    <glyph glyph-name="Icircumflex" unicode="&#xce;" horiz-adv-x="265" 
d="M60 0v630h145v-630h-145zM-30 695l100 130h120l100 -130h-115l-45 60l-45 -60h-115z" />
    <glyph glyph-name="Idieresis" unicode="&#xcf;" horiz-adv-x="265" 
d="M60 0v630h145v-630h-145zM-30 760q0 30 20 50t50 20t50 -20t20 -50t-20 -50t-50 -20t-50 20t-20 50zM155 760q0 30 20 50t50 20t50 -20t20 -50t-20 -50t-50 -20t-50 20t-20 50z" />
    <glyph glyph-name="Eth" unicode="&#xd0;" horiz-adv-x="650" 
d="M90 0v250h-70v120h70v260h215q131 0 223 -92t92 -223t-92 -223t-223 -92h-215zM235 140h70q72 0 121 50t49 125t-49 125t-121 50h-70v-120h100v-120h-100v-110z" />
    <glyph glyph-name="Ntilde" unicode="&#xd1;" horiz-adv-x="650" 
d="M60 0v630h130l255 -370v370h145v-630h-130l-255 370v-370h-145zM245 685l-75 10q0 61 25 93t65 32q33 0 66 -22.5t44 -22.5q35 0 35 45l75 -10q0 -61 -25 -93t-65 -32q-34 0 -66 22.5t-44 22.5q-15 0 -25 -11.5t-10 -33.5z" />
    <glyph glyph-name="Ograve" unicode="&#xd2;" horiz-adv-x="680" 
d="M340 135q69 0 117 51.5t48 128.5t-48 128.5t-117 51.5t-117 -51.5t-48 -128.5t48 -128.5t117 -51.5zM340 -5q-129 0 -219.5 93t-90.5 227t90.5 227t219.5 93t219.5 -93t90.5 -227t-90.5 -227t-219.5 -93zM290 695l-95 130h135l65 -130h-105z" />
    <glyph glyph-name="Oacute" unicode="&#xd3;" horiz-adv-x="680" 
d="M340 135q69 0 117 51.5t48 128.5t-48 128.5t-117 51.5t-117 -51.5t-48 -128.5t48 -128.5t117 -51.5zM340 -5q-129 0 -219.5 93t-90.5 227t90.5 227t219.5 93t219.5 -93t90.5 -227t-90.5 -227t-219.5 -93zM290 695l65 130h135l-95 -130h-105z" />
    <glyph glyph-name="Ocircumflex" unicode="&#xd4;" horiz-adv-x="680" 
d="M340 135q69 0 117 51.5t48 128.5t-48 128.5t-117 51.5t-117 -51.5t-48 -128.5t48 -128.5t117 -51.5zM340 -5q-129 0 -219.5 93t-90.5 227t90.5 227t219.5 93t219.5 -93t90.5 -227t-90.5 -227t-219.5 -93zM180 695l100 130h120l100 -130h-115l-45 60l-45 -60h-115z" />
    <glyph glyph-name="Otilde" unicode="&#xd5;" horiz-adv-x="680" 
d="M340 135q69 0 117 51.5t48 128.5t-48 128.5t-117 51.5t-117 -51.5t-48 -128.5t48 -128.5t117 -51.5zM340 -5q-129 0 -219.5 93t-90.5 227t90.5 227t219.5 93t219.5 -93t90.5 -227t-90.5 -227t-219.5 -93zM260 685l-75 10q0 61 25 93t65 32q33 0 66 -22.5t44 -22.5
q35 0 35 45l75 -10q0 -61 -25 -93t-65 -32q-34 0 -66 22.5t-44 22.5q-15 0 -25 -11.5t-10 -33.5z" />
    <glyph glyph-name="Odieresis" unicode="&#xd6;" horiz-adv-x="680" 
d="M340 135q69 0 117 51.5t48 128.5t-48 128.5t-117 51.5t-117 -51.5t-48 -128.5t48 -128.5t117 -51.5zM340 -5q-129 0 -219.5 93t-90.5 227t90.5 227t219.5 93t219.5 -93t90.5 -227t-90.5 -227t-219.5 -93zM180 760q0 30 20 50t50 20t50 -20t20 -50t-20 -50t-50 -20t-50 20
t-20 50zM365 760q0 30 20 50t50 20t50 -20t20 -50t-20 -50t-50 -20t-50 20t-20 50z" />
    <glyph glyph-name="multiply" unicode="&#xd7;" horiz-adv-x="470" 
d="M50 145l105 110l-105 110l85 80l100 -105l100 105l85 -80l-105 -110l105 -110l-85 -80l-100 105l-100 -105z" />
    <glyph glyph-name="Oslash" unicode="&#xd8;" horiz-adv-x="700" 
d="M120 0l-95 100l55 55q-11 20 -20 46q-20 53 -20 114q0 134 90.5 227t219.5 93q67 0 125 -28q29 -13 50 -27l55 50l95 -100l-55 -55q13 -24 20 -44q20 -51 20 -116q0 -134 -90.5 -227t-219.5 -93q-69 0 -125 27q-30 13 -50 28zM190 260l230 220l-18 7q-24 8 -52 8
q-69 0 -117 -51.5t-48 -128.5q0 -25 2 -43zM510 370l-230 -220q2 -1 18 -8q21 -7 52 -7q69 0 117 51.5t48 128.5q0 15 -3 42q0 2 -0.5 6.5t-1.5 6.5z" />
    <glyph glyph-name="Ugrave" unicode="&#xd9;" horiz-adv-x="620" 
d="M50 255v375h145v-375q0 -57 30.5 -88.5t84.5 -31.5t84.5 31.5t30.5 88.5v375h145v-375q0 -116 -72 -188t-188 -72t-188 72t-72 188zM265 695l-95 130h135l65 -130h-105z" />
    <glyph glyph-name="Uacute" unicode="&#xda;" horiz-adv-x="620" 
d="M50 255v375h145v-375q0 -57 30.5 -88.5t84.5 -31.5t84.5 31.5t30.5 88.5v375h145v-375q0 -116 -72 -188t-188 -72t-188 72t-72 188zM255 695l65 130h135l-95 -130h-105z" />
    <glyph glyph-name="Ucircumflex" unicode="&#xdb;" horiz-adv-x="620" 
d="M50 255v375h145v-375q0 -57 30.5 -88.5t84.5 -31.5t84.5 31.5t30.5 88.5v375h145v-375q0 -116 -72 -188t-188 -72t-188 72t-72 188zM150 695l100 130h120l100 -130h-115l-45 60l-45 -60h-115z" />
    <glyph glyph-name="Udieresis" unicode="&#xdc;" horiz-adv-x="620" 
d="M50 255v375h145v-375q0 -57 30.5 -88.5t84.5 -31.5t84.5 31.5t30.5 88.5v375h145v-375q0 -116 -72 -188t-188 -72t-188 72t-72 188zM150 760q0 30 20 50t50 20t50 -20t20 -50t-20 -50t-50 -20t-50 20t-20 50zM335 760q0 30 20 50t50 20t50 -20t20 -50t-20 -50t-50 -20
t-50 20t-20 50z" />
    <glyph glyph-name="Yacute" unicode="&#xdd;" horiz-adv-x="565" 
d="M210 0v235l-210 395h155l128 -250l127 250h155l-210 -395v-235h-145zM230 695l65 130h135l-95 -130h-105z" />
    <glyph glyph-name="Thorn" unicode="&#xde;" horiz-adv-x="600" 
d="M50 0v630h145v-95h150q97 0 161 -61t64 -149t-64 -149t-161 -61h-150v-115h-145zM195 255h150q33 0 56.5 21.5t23.5 48.5t-23.5 48.5t-56.5 21.5h-150v-140z" />
    <glyph glyph-name="germandbls" unicode="&#xdf;" horiz-adv-x="545" 
d="M60 0v440q0 83 58 139t147 56q91 0 148 -51t57 -124q0 -53 -28 -90q-12 -18 -27 -30q25 -12 50 -37q50 -54 50 -123q0 -76 -54 -128t-136 -52h-60v120h50q27 0 46 20t19 50t-19 50t-46 20h-50v120q33 0 51.5 17.5t18.5 47.5q0 70 -70 70q-30 0 -50 -21t-20 -54v-440h-135
z" />
    <glyph glyph-name="agrave" unicode="&#xe0;" horiz-adv-x="485" 
d="M340 0l-20 45q-19 -15 -38 -25q-46 -25 -97 -25q-73 0 -114 36t-41 94q0 74 63 114.5t212 40.5q0 33 -16.5 51.5t-43.5 18.5q-30 0 -49 -23q-8 -12 -11 -22l-135 10q13 72 63 113.5t137 41.5q82 0 136 -54t54 -136v-280h-100zM305 180v20q-81 0 -110.5 -15.5t-29.5 -44.5
q0 -19 15 -32t40 -13q38 0 61.5 23.5t23.5 61.5zM200 515l-95 130h135l65 -130h-105z" />
    <glyph glyph-name="aacute" unicode="&#xe1;" horiz-adv-x="485" 
d="M340 0l-20 45q-19 -15 -38 -25q-46 -25 -97 -25q-73 0 -114 36t-41 94q0 74 63 114.5t212 40.5q0 33 -16.5 51.5t-43.5 18.5q-30 0 -49 -23q-8 -12 -11 -22l-135 10q13 72 63 113.5t137 41.5q82 0 136 -54t54 -136v-280h-100zM305 180v20q-81 0 -110.5 -15.5t-29.5 -44.5
q0 -19 15 -32t40 -13q38 0 61.5 23.5t23.5 61.5zM195 520l65 130h135l-95 -130h-105z" />
    <glyph glyph-name="acircumflex" unicode="&#xe2;" horiz-adv-x="485" 
d="M340 0l-20 45q-19 -15 -38 -25q-46 -25 -97 -25q-73 0 -114 36t-41 94q0 74 63 114.5t212 40.5q0 33 -16.5 51.5t-43.5 18.5q-30 0 -49 -23q-8 -12 -11 -22l-135 10q13 72 63 113.5t137 41.5q82 0 136 -54t54 -136v-280h-100zM305 180v20q-81 0 -110.5 -15.5t-29.5 -44.5
q0 -19 15 -32t40 -13q38 0 61.5 23.5t23.5 61.5zM95 515l100 130h120l100 -130h-115l-45 60l-45 -60h-115z" />
    <glyph glyph-name="atilde" unicode="&#xe3;" horiz-adv-x="485" 
d="M340 0l-20 45q-19 -15 -38 -25q-46 -25 -97 -25q-73 0 -114 36t-41 94q0 74 63 114.5t212 40.5q0 33 -16.5 51.5t-43.5 18.5q-30 0 -49 -23q-8 -12 -11 -22l-135 10q13 72 63 113.5t137 41.5q82 0 136 -54t54 -136v-280h-100zM305 180v20q-81 0 -110.5 -15.5t-29.5 -44.5
q0 -19 15 -32t40 -13q38 0 61.5 23.5t23.5 61.5zM175 505l-75 10q0 61 25 93t65 32q33 0 66 -22.5t44 -22.5q35 0 35 45l75 -10q0 -61 -25 -93t-65 -32q-34 0 -66 22.5t-44 22.5q-15 0 -25 -11.5t-10 -33.5z" />
    <glyph glyph-name="adieresis" unicode="&#xe4;" horiz-adv-x="485" 
d="M340 0l-20 45q-19 -15 -38 -25q-46 -25 -97 -25q-73 0 -114 36t-41 94q0 74 63 114.5t212 40.5q0 33 -16.5 51.5t-43.5 18.5q-30 0 -49 -23q-8 -12 -11 -22l-135 10q13 72 63 113.5t137 41.5q82 0 136 -54t54 -136v-280h-100zM305 180v20q-81 0 -110.5 -15.5t-29.5 -44.5
q0 -19 15 -32t40 -13q38 0 61.5 23.5t23.5 61.5zM93 580q0 30 20 50t50 20t50 -20t20 -50t-20 -50t-50 -20t-50 20t-20 50zM278 580q0 30 20 50t50 20t50 -20t20 -50t-20 -50t-50 -20t-50 20t-20 50z" />
    <glyph glyph-name="aring" unicode="&#xe5;" horiz-adv-x="485" 
d="M340 0l-20 45q-19 -15 -38 -25q-46 -25 -97 -25q-73 0 -114 36t-41 94q0 74 63 114.5t212 40.5q0 33 -16.5 51.5t-43.5 18.5q-30 0 -49 -23q-8 -12 -11 -22l-135 10q13 72 63 113.5t137 41.5q82 0 136 -54t54 -136v-280h-100zM305 180v20q-81 0 -110.5 -15.5t-29.5 -44.5
q0 -19 15 -32t40 -13q38 0 61.5 23.5t23.5 61.5zM285 595q0 15 -10 25t-25 10t-25 -10t-10 -25t10 -25t25 -10t25 10t10 25zM150 595q0 42 27.5 68.5t72.5 26.5t72.5 -26.5t27.5 -68.5t-27.5 -68.5t-72.5 -26.5t-72.5 26.5t-27.5 68.5z" />
    <glyph glyph-name="ae" unicode="&#xe6;" horiz-adv-x="785" 
d="M185 305l-135 10q13 72 63 113.5t137 41.5q64 0 112 -25q17 -9 33 -25q15 14 34 25q48 25 106 25q95 0 160 -68t65 -172q0 -8 -3 -32l-2 -13h-315q8 -22 19 -35q28 -35 76 -35q33 0 54 15q10 6 16 15l140 -10q-19 -61 -76.5 -103t-138.5 -42q-62 0 -110 30q-22 14 -35 30
q-17 -16 -44 -30q-58 -30 -126 -30q-86 0 -135.5 39.5t-49.5 95.5q0 74 63 114.5t212 40.5q0 33 -16.5 51.5t-43.5 18.5q-30 0 -49 -23q-8 -12 -11 -22zM440 275h180q-4 31 -28.5 53t-61.5 22t-61.5 -22t-28.5 -53zM305 180v20q-81 0 -110.5 -15.5t-29.5 -44.5q0 -19 15 -32
t40 -13q38 0 61.5 23.5t23.5 61.5z" />
    <glyph glyph-name="ccedilla" unicode="&#xe7;" horiz-adv-x="510" 
d="M185 -190v50l12 -3q14 -2 28 -2q50 0 50 35q0 12 -11.5 21t-33.5 9q-5 0 -11 -1t-10 -3l-4 -1l31 77q-88 10 -147 77.5t-59 160.5q0 101 68.5 170.5t166.5 69.5q115 0 179 -90q27 -38 41 -90l-135 -10q-8 19 -18 32q-27 33 -67 33q-43 0 -71.5 -31.5t-28.5 -83.5
t28.5 -83.5t71.5 -31.5q41 0 67 32q10 13 18 33l135 -10q-10 -43 -35 -82q-55 -85 -154 -96l-16 -32q27 -5 42 -14q43 -23 43 -66q0 -36 -29.5 -58t-90.5 -22q-23 0 -43 5q-7 1 -17 5z" />
    <glyph glyph-name="egrave" unicode="&#xe8;" horiz-adv-x="515" 
d="M335 145l140 -10q-20 -62 -75.5 -103.5t-139.5 -41.5q-94 0 -162 70t-68 170q0 101 68.5 170.5t166.5 69.5q96 0 160.5 -66.5t64.5 -173.5q0 -3 -3 -30l-2 -15h-315q9 -29 34 -49.5t61 -20.5q33 0 54 15q10 6 16 15zM170 270h190q-9 32 -34 53.5t-61 21.5t-61 -21.5
t-34 -53.5zM215 515l-95 130h135l65 -130h-105z" />
    <glyph glyph-name="eacute" unicode="&#xe9;" horiz-adv-x="515" 
d="M335 145l140 -10q-20 -62 -75.5 -103.5t-139.5 -41.5q-94 0 -162 70t-68 170q0 101 68.5 170.5t166.5 69.5q96 0 160.5 -66.5t64.5 -173.5q0 -3 -3 -30l-2 -15h-315q9 -29 34 -49.5t61 -20.5q33 0 54 15q10 6 16 15zM170 270h190q-9 32 -34 53.5t-61 21.5t-61 -21.5
t-34 -53.5zM210 515l65 130h135l-95 -130h-105z" />
    <glyph glyph-name="ecircumflex" unicode="&#xea;" horiz-adv-x="515" 
d="M335 145l140 -10q-20 -62 -75.5 -103.5t-139.5 -41.5q-94 0 -162 70t-68 170q0 101 68.5 170.5t166.5 69.5q96 0 160.5 -66.5t64.5 -173.5q0 -3 -3 -30l-2 -15h-315q9 -29 34 -49.5t61 -20.5q33 0 54 15q10 6 16 15zM170 270h190q-9 32 -34 53.5t-61 21.5t-61 -21.5
t-34 -53.5zM105 515l100 130h120l100 -130h-115l-45 60l-45 -60h-115z" />
    <glyph glyph-name="edieresis" unicode="&#xeb;" horiz-adv-x="515" 
d="M335 145l140 -10q-20 -62 -75.5 -103.5t-139.5 -41.5q-94 0 -162 70t-68 170q0 101 68.5 170.5t166.5 69.5q96 0 160.5 -66.5t64.5 -173.5q0 -3 -3 -30l-2 -15h-315q9 -29 34 -49.5t61 -20.5q33 0 54 15q10 6 16 15zM170 270h190q-9 32 -34 53.5t-61 21.5t-61 -21.5
t-34 -53.5zM105 580q0 30 20 50t50 20t50 -20t20 -50t-20 -50t-50 -20t-50 20t-20 50zM290 580q0 30 20 50t50 20t50 -20t20 -50t-20 -50t-50 -20t-50 20t-20 50z" />
    <glyph glyph-name="igrave" unicode="&#xec;" horiz-adv-x="235" 
d="M50 0v460h135v-460h-135zM65 515l-95 130h135l65 -130h-105z" />
    <glyph glyph-name="iacute" unicode="&#xed;" horiz-adv-x="235" 
d="M50 0v460h135v-460h-135zM65 515l65 130h135l-95 -130h-105z" />
    <glyph glyph-name="icircumflex" unicode="&#xee;" horiz-adv-x="235" 
d="M50 0v460h135v-460h-135zM-45 515l100 130h120l100 -130h-115l-45 60l-45 -60h-115z" />
    <glyph glyph-name="idieresis" unicode="&#xef;" horiz-adv-x="235" 
d="M50 0v460h135v-460h-135zM-45 580q0 30 20 50t50 20t50 -20t20 -50t-20 -50t-50 -20t-50 20t-20 50zM140 580q0 30 20 50t50 20t50 -20t20 -50t-20 -50t-50 -20t-50 20t-20 50z" />
    <glyph glyph-name="eth" unicode="&#xf0;" horiz-adv-x="555" 
d="M225 470l-50 70l40 25q-12 7 -23 11q-28 13 -52 19l35 100q58 -15 102 -35q31 -15 38 -20l80 55l50 -70l-55 -40q36 -36 62 -81q63 -108 63 -234t-69 -200.5t-176 -74.5q-104 0 -172 65t-68 160q0 93 65 159t155 66q52 0 92 -23q20 -13 28 -22q-18 51 -49 86
q-17 19 -31 29zM165 220q0 -42 30 -71t75 -29t75 29t30 71t-30 71t-75 29t-75 -29t-30 -71z" />
    <glyph glyph-name="ntilde" unicode="&#xf1;" 
d="M50 0v460h100l20 -45q20 17 37 25q50 25 98 25q83 0 134 -53t51 -142v-270h-135v245q0 44 -23 69.5t-62 25.5t-62 -25.5t-23 -69.5v-245h-135zM195 505l-75 10q0 61 25 93t65 32q33 0 66 -22.5t44 -22.5q35 0 35 45l75 -10q0 -61 -25 -93t-65 -32q-34 0 -66 22.5
t-44 22.5q-15 0 -25 -11.5t-10 -33.5z" />
    <glyph glyph-name="ograve" unicode="&#xf2;" horiz-adv-x="530" 
d="M30 230q0 101 68.5 170.5t166.5 69.5t166.5 -69.5t68.5 -170.5t-68.5 -170.5t-166.5 -69.5t-166.5 69.5t-68.5 170.5zM365 230q0 52 -28.5 83.5t-71.5 31.5t-71.5 -31.5t-28.5 -83.5t28.5 -83.5t71.5 -31.5t71.5 31.5t28.5 83.5zM215 515l-95 130h135l65 -130h-105z" />
    <glyph glyph-name="oacute" unicode="&#xf3;" horiz-adv-x="530" 
d="M30 230q0 101 68.5 170.5t166.5 69.5t166.5 -69.5t68.5 -170.5t-68.5 -170.5t-166.5 -69.5t-166.5 69.5t-68.5 170.5zM365 230q0 52 -28.5 83.5t-71.5 31.5t-71.5 -31.5t-28.5 -83.5t28.5 -83.5t71.5 -31.5t71.5 31.5t28.5 83.5zM215 515l65 130h135l-95 -130h-105z" />
    <glyph glyph-name="ocircumflex" unicode="&#xf4;" horiz-adv-x="530" 
d="M30 230q0 101 68.5 170.5t166.5 69.5t166.5 -69.5t68.5 -170.5t-68.5 -170.5t-166.5 -69.5t-166.5 69.5t-68.5 170.5zM365 230q0 52 -28.5 83.5t-71.5 31.5t-71.5 -31.5t-28.5 -83.5t28.5 -83.5t71.5 -31.5t71.5 31.5t28.5 83.5zM105 515l100 130h120l100 -130h-115
l-45 60l-45 -60h-115z" />
    <glyph glyph-name="otilde" unicode="&#xf5;" horiz-adv-x="530" 
d="M30 230q0 101 68.5 170.5t166.5 69.5t166.5 -69.5t68.5 -170.5t-68.5 -170.5t-166.5 -69.5t-166.5 69.5t-68.5 170.5zM365 230q0 52 -28.5 83.5t-71.5 31.5t-71.5 -31.5t-28.5 -83.5t28.5 -83.5t71.5 -31.5t71.5 31.5t28.5 83.5zM185 505l-75 10q0 61 25 93t65 32
q33 0 66 -22.5t44 -22.5q35 0 35 45l75 -10q0 -61 -25 -93t-65 -32q-34 0 -66 22.5t-44 22.5q-15 0 -25 -11.5t-10 -33.5z" />
    <glyph glyph-name="odieresis" unicode="&#xf6;" horiz-adv-x="530" 
d="M30 230q0 101 68.5 170.5t166.5 69.5t166.5 -69.5t68.5 -170.5t-68.5 -170.5t-166.5 -69.5t-166.5 69.5t-68.5 170.5zM365 230q0 52 -28.5 83.5t-71.5 31.5t-71.5 -31.5t-28.5 -83.5t28.5 -83.5t71.5 -31.5t71.5 31.5t28.5 83.5zM105 580q0 30 20 50t50 20t50 -20t20 -50
t-20 -50t-50 -20t-50 20t-20 50zM290 580q0 30 20 50t50 20t50 -20t20 -50t-20 -50t-50 -20t-50 20t-20 50z" />
    <glyph glyph-name="divide" unicode="&#xf7;" horiz-adv-x="470" 
d="M35 195v120h400v-120h-400zM165 425q0 30 20 50t50 20t50 -20t20 -50t-20 -50t-50 -20t-50 20t-20 50zM165 85q0 30 20 50t50 20t50 -20t20 -50t-20 -50t-50 -20t-50 20t-20 50z" />
    <glyph glyph-name="oslash" unicode="&#xf8;" horiz-adv-x="540" 
d="M95 0l-70 75l40 35q-9 17 -15 34q-15 39 -15 86q0 101 68.5 170.5t166.5 69.5q51 0 99 -23q22 -12 36 -22l40 35l70 -75l-40 -35l15 -36q15 -49 15 -84q0 -101 -68.5 -170.5t-166.5 -69.5q-53 0 -99 22q-23 12 -36 23zM175 200l140 135l-11 5q-13 5 -34 5
q-43 0 -71.5 -31.5t-28.5 -83.5q0 -7 2 -21zM365 260l-140 -135q6 -4 11 -5q13 -5 34 -5q43 0 71.5 31.5t28.5 83.5q0 3 -0.5 6.5t-1.5 8t-1 6.5z" />
    <glyph glyph-name="ugrave" unicode="&#xf9;" 
d="M45 190v270h135v-245q0 -44 23 -69.5t62 -25.5t62 25.5t23 69.5v245h135v-460h-100l-20 45q-19 -15 -38 -25q-46 -25 -97 -25q-83 0 -134 53t-51 142zM220 515l-95 130h135l65 -130h-105z" />
    <glyph glyph-name="uacute" unicode="&#xfa;" 
d="M45 190v270h135v-245q0 -44 23 -69.5t62 -25.5t62 25.5t23 69.5v245h135v-460h-100l-20 45q-19 -15 -38 -25q-46 -25 -97 -25q-83 0 -134 53t-51 142zM210 515l65 130h135l-95 -130h-105z" />
    <glyph glyph-name="ucircumflex" unicode="&#xfb;" 
d="M45 190v270h135v-245q0 -44 23 -69.5t62 -25.5t62 25.5t23 69.5v245h135v-460h-100l-20 45q-19 -15 -38 -25q-46 -25 -97 -25q-83 0 -134 53t-51 142zM105 515l100 130h120l100 -130h-115l-45 60l-45 -60h-115z" />
    <glyph glyph-name="udieresis" unicode="&#xfc;" 
d="M45 190v270h135v-245q0 -44 23 -69.5t62 -25.5t62 25.5t23 69.5v245h135v-460h-100l-20 45q-19 -15 -38 -25q-46 -25 -97 -25q-83 0 -134 53t-51 142zM105 580q0 30 20 50t50 20t50 -20t20 -50t-20 -50t-50 -20t-50 20t-20 50zM290 580q0 30 20 50t50 20t50 -20t20 -50
t-20 -50t-50 -20t-50 20t-20 50z" />
    <glyph glyph-name="yacute" unicode="&#xfd;" horiz-adv-x="490" 
d="M80 -160v115q71 0 95 65l-175 440h145l100 -285l100 285h145l-185 -460q-36 -88 -77 -126.5t-103 -38.5q-12 0 -30 2zM195 515l65 130h135l-95 -130h-105z" />
    <glyph glyph-name="thorn" unicode="&#xfe;" horiz-adv-x="545" 
d="M50 -160v790h135v-205q16 13 31 20q36 20 84 20q88 0 151.5 -67.5t63.5 -167.5t-63.5 -167.5t-151.5 -67.5q-48 0 -84 20q-15 7 -31 20v-195h-135zM280 120q43 0 71.5 31t28.5 79t-28.5 79t-71.5 31t-71.5 -31t-28.5 -79t28.5 -79t71.5 -31z" />
    <glyph glyph-name="ydieresis" unicode="&#xff;" horiz-adv-x="490" 
d="M80 -160v115q71 0 95 65l-175 440h145l100 -285l100 285h145l-185 -460q-36 -88 -77 -126.5t-103 -38.5q-12 0 -30 2zM90 580q0 30 20 50t50 20t50 -20t20 -50t-20 -50t-50 -20t-50 20t-20 50zM275 580q0 30 20 50t50 20t50 -20t20 -50t-20 -50t-50 -20t-50 20t-20 50z
" />
    <glyph glyph-name="Amacron" unicode="&#x100;" horiz-adv-x="590" 
d="M225 245h140l-70 210zM-5 0l225 630h150l225 -630h-150l-40 120h-220l-40 -120h-150zM165 700v105h265v-105h-265z" />
    <glyph glyph-name="amacron" unicode="&#x101;" horiz-adv-x="485" 
d="M340 0l-20 45q-19 -15 -38 -25q-46 -25 -97 -25q-73 0 -114 36t-41 94q0 74 63 114.5t212 40.5q0 33 -16.5 51.5t-43.5 18.5q-30 0 -49 -23q-8 -12 -11 -22l-135 10q13 72 63 113.5t137 41.5q82 0 136 -54t54 -136v-280h-100zM305 180v20q-81 0 -110.5 -15.5t-29.5 -44.5
q0 -19 15 -32t40 -13q38 0 61.5 23.5t23.5 61.5zM120 520v105h265v-105h-265z" />
    <glyph glyph-name="Abreve" unicode="&#x102;" horiz-adv-x="590" 
d="M225 245h140l-70 210zM-5 0l225 630h150l225 -630h-150l-40 120h-220l-40 -120h-150zM150 820h95q4 -23 17.5 -36.5t32.5 -13.5t32.5 13.5t17.5 36.5h95q-8 -58 -47 -94t-98 -36t-98 36t-47 94z" />
    <glyph glyph-name="abreve" unicode="&#x103;" horiz-adv-x="485" 
d="M340 0l-20 45q-19 -15 -38 -25q-46 -25 -97 -25q-73 0 -114 36t-41 94q0 74 63 114.5t212 40.5q0 33 -16.5 51.5t-43.5 18.5q-30 0 -49 -23q-8 -12 -11 -22l-135 10q13 72 63 113.5t137 41.5q82 0 136 -54t54 -136v-280h-100zM305 180v20q-81 0 -110.5 -15.5t-29.5 -44.5
q0 -19 15 -32t40 -13q38 0 61.5 23.5t23.5 61.5zM110 640h95q4 -23 17.5 -36.5t32.5 -13.5t32.5 13.5t17.5 36.5h95q-8 -58 -47 -94t-98 -36t-98 36t-47 94z" />
    <glyph glyph-name="Aogonek" unicode="&#x104;" horiz-adv-x="590" 
d="M-5 0l225 630h150l225 -630h-75q-10 -15 -15 -25q-15 -28 -15 -50q0 -19 13 -32t32 -13q15 0 29 2l11 3v-65q-9 -4 -18 -5q-20 -5 -47 -5q-52 0 -81 25t-29 65q0 33 22 71q10 16 23 29l-40 120h-220l-40 -120h-150zM225 245h140l-70 210z" />
    <glyph glyph-name="aogonek" unicode="&#x105;" horiz-adv-x="485" 
d="M340 0l-20 45q-19 -15 -38 -25q-46 -25 -97 -25q-73 0 -114 36t-41 94q0 74 63 114.5t212 40.5q0 33 -16.5 51.5t-43.5 18.5q-30 0 -49 -23q-8 -12 -11 -22l-135 10q13 72 63 113.5t137 41.5q82 0 136 -54t54 -136v-280h-25q-10 -15 -15 -25q-15 -28 -15 -50
q0 -19 13 -32t32 -13q15 0 29 2l11 3v-65q-9 -4 -18 -5q-20 -5 -47 -5q-52 0 -81 25t-29 65q0 33 22 71q10 16 23 29zM305 180v20q-81 0 -110.5 -15.5t-29.5 -44.5q0 -19 15 -32t40 -13q38 0 61.5 23.5t23.5 61.5z" />
    <glyph glyph-name="Cacute" unicode="&#x106;" horiz-adv-x="650" 
d="M480 230l150 -10q-23 -95 -101 -160t-189 -65q-129 0 -219.5 93t-90.5 227t90.5 227t219.5 93q107 0 184.5 -65t100.5 -160l-150 -10q-13 41 -47.5 68t-87.5 27q-69 0 -117 -51.5t-48 -128.5t48 -128.5t117 -51.5q57 0 92.5 26.5t47.5 68.5zM290 695l65 130h135l-95 -130
h-105z" />
    <glyph glyph-name="cacute" unicode="&#x107;" horiz-adv-x="510" 
d="M350 180l135 -10q-14 -52 -41 -90q-64 -90 -179 -90q-98 0 -166.5 69.5t-68.5 170.5t68.5 170.5t166.5 69.5q115 0 179 -90q27 -38 41 -90l-135 -10q-8 19 -18 32q-27 33 -67 33q-43 0 -71.5 -31.5t-28.5 -83.5t28.5 -83.5t71.5 -31.5q41 0 67 32q10 13 18 33zM210 515
l65 130h135l-95 -130h-105z" />
    <glyph glyph-name="Ccircumflex" unicode="&#x108;" horiz-adv-x="650" 
d="M480 230l150 -10q-23 -95 -101 -160t-189 -65q-129 0 -219.5 93t-90.5 227t90.5 227t219.5 93q107 0 184.5 -65t100.5 -160l-150 -10q-13 41 -47.5 68t-87.5 27q-69 0 -117 -51.5t-48 -128.5t48 -128.5t117 -51.5q57 0 92.5 26.5t47.5 68.5zM185 695l100 130h120
l100 -130h-115l-45 60l-45 -60h-115z" />
    <glyph glyph-name="ccircumflex" unicode="&#x109;" horiz-adv-x="510" 
d="M350 180l135 -10q-14 -52 -41 -90q-64 -90 -179 -90q-98 0 -166.5 69.5t-68.5 170.5t68.5 170.5t166.5 69.5q115 0 179 -90q27 -38 41 -90l-135 -10q-8 19 -18 32q-27 33 -67 33q-43 0 -71.5 -31.5t-28.5 -83.5t28.5 -83.5t71.5 -31.5q41 0 67 32q10 13 18 33zM105 515
l100 130h120l100 -130h-115l-45 60l-45 -60h-115z" />
    <glyph glyph-name="Cdotaccent" unicode="&#x10a;" horiz-adv-x="650" 
d="M480 230l150 -10q-23 -95 -101 -160t-189 -65q-129 0 -219.5 93t-90.5 227t90.5 227t219.5 93q107 0 184.5 -65t100.5 -160l-150 -10q-13 41 -47.5 68t-87.5 27q-69 0 -117 -51.5t-48 -128.5t48 -128.5t117 -51.5q57 0 92.5 26.5t47.5 68.5zM265 765q0 30 22.5 52.5
t52.5 22.5t52.5 -22.5t22.5 -52.5t-22.5 -52.5t-52.5 -22.5t-52.5 22.5t-22.5 52.5z" />
    <glyph glyph-name="cdotaccent" unicode="&#x10b;" horiz-adv-x="510" 
d="M350 180l135 -10q-14 -52 -41 -90q-64 -90 -179 -90q-98 0 -166.5 69.5t-68.5 170.5t68.5 170.5t166.5 69.5q115 0 179 -90q27 -38 41 -90l-135 -10q-8 19 -18 32q-27 33 -67 33q-43 0 -71.5 -31.5t-28.5 -83.5t28.5 -83.5t71.5 -31.5q41 0 67 32q10 13 18 33zM190 585
q0 30 22.5 52.5t52.5 22.5t52.5 -22.5t22.5 -52.5t-22.5 -52.5t-52.5 -22.5t-52.5 22.5t-22.5 52.5z" />
    <glyph glyph-name="Ccaron" unicode="&#x10c;" horiz-adv-x="650" 
d="M480 230l150 -10q-23 -95 -101 -160t-189 -65q-129 0 -219.5 93t-90.5 227t90.5 227t219.5 93q107 0 184.5 -65t100.5 -160l-150 -10q-13 41 -47.5 68t-87.5 27q-69 0 -117 -51.5t-48 -128.5t48 -128.5t117 -51.5q57 0 92.5 26.5t47.5 68.5zM285 695l-100 130h115l45 -60
l45 60h115l-100 -130h-120z" />
    <glyph glyph-name="ccaron" unicode="&#x10d;" horiz-adv-x="510" 
d="M350 180l135 -10q-14 -52 -41 -90q-64 -90 -179 -90q-98 0 -166.5 69.5t-68.5 170.5t68.5 170.5t166.5 69.5q115 0 179 -90q27 -38 41 -90l-135 -10q-8 19 -18 32q-27 33 -67 33q-43 0 -71.5 -31.5t-28.5 -83.5t28.5 -83.5t71.5 -31.5q41 0 67 32q10 13 18 33zM205 515
l-100 130h115l45 -60l45 60h115l-100 -130h-120z" />
    <glyph glyph-name="Dcaron" unicode="&#x10e;" horiz-adv-x="620" 
d="M205 140h70q72 0 121 50t49 125t-49 125t-121 50h-70v-350zM60 0v630h215q131 0 223 -92t92 -223t-92 -223t-223 -92h-215zM244 695l-100 130h115l45 -60l45 60h115l-100 -130h-120z" />
    <glyph glyph-name="dcaron" unicode="&#x10f;" horiz-adv-x="660" 
d="M545 500l35 130h125l-65 -130h-95zM395 0l-20 45q-22 -18 -35 -25q-44 -25 -95 -25q-88 0 -151.5 67.5t-63.5 167.5t63.5 167.5t151.5 67.5q48 0 84 -20q15 -7 31 -20v205h135v-630h-100zM265 120q43 0 71.5 31t28.5 79t-28.5 79t-71.5 31t-71.5 -31t-28.5 -79t28.5 -79
t71.5 -31z" />
    <glyph glyph-name="Dcroat" unicode="&#x110;" horiz-adv-x="650" 
d="M90 0v250h-70v120h70v260h215q131 0 223 -92t92 -223t-92 -223t-223 -92h-215zM235 140h70q72 0 121 50t49 125t-49 125t-121 50h-70v-120h100v-120h-100v-110z" />
    <glyph glyph-name="dslash" unicode="&#x111;" horiz-adv-x="560" 
d="M385 0l-20 45q-22 -18 -35 -25q-44 -25 -95 -25q-83 0 -144 63t-61 152t61 152t144 63q51 0 86 -20q16 -9 29 -20v75h-115v110h115v60h135v-60h65v-110h-65v-460h-100zM355 210q0 39 -26.5 64.5t-68.5 25.5t-68.5 -25.5t-26.5 -64.5t26.5 -64.5t68.5 -25.5t68.5 25.5
t26.5 64.5z" />
    <glyph glyph-name="Emacron" unicode="&#x112;" horiz-adv-x="560" 
d="M60 0v630h450v-140h-305v-100h280v-140h-280v-110h315v-140h-460zM160 700v105h265v-105h-265z" />
    <glyph glyph-name="emacron" unicode="&#x113;" horiz-adv-x="515" 
d="M335 145l140 -10q-20 -62 -75.5 -103.5t-139.5 -41.5q-94 0 -162 70t-68 170q0 101 68.5 170.5t166.5 69.5q96 0 160.5 -66.5t64.5 -173.5q0 -3 -3 -30l-2 -15h-315q9 -29 34 -49.5t61 -20.5q33 0 54 15q10 6 16 15zM170 270h190q-9 32 -34 53.5t-61 21.5t-61 -21.5
t-34 -53.5zM135 520v105h265v-105h-265z" />
    <glyph glyph-name="Ebreve" unicode="&#x114;" horiz-adv-x="560" 
d="M60 0v630h450v-140h-305v-100h280v-140h-280v-110h315v-140h-460zM145 820h95q4 -23 17.5 -36.5t32.5 -13.5t32.5 13.5t17.5 36.5h95q-8 -58 -47 -94t-98 -36t-98 36t-47 94z" />
    <glyph glyph-name="ebreve" unicode="&#x115;" horiz-adv-x="515" 
d="M335 145l140 -10q-20 -62 -75.5 -103.5t-139.5 -41.5q-94 0 -162 70t-68 170q0 101 68.5 170.5t166.5 69.5q96 0 160.5 -66.5t64.5 -173.5q0 -3 -3 -30l-2 -15h-315q9 -29 34 -49.5t61 -20.5q33 0 54 15q10 6 16 15zM170 270h190q-9 32 -34 53.5t-61 21.5t-61 -21.5
t-34 -53.5zM120 640h95q4 -23 17.5 -36.5t32.5 -13.5t32.5 13.5t17.5 36.5h95q-8 -58 -47 -94t-98 -36t-98 36t-47 94z" />
    <glyph glyph-name="Edotaccent" unicode="&#x116;" horiz-adv-x="560" 
d="M60 0v630h450v-140h-305v-100h280v-140h-280v-110h315v-140h-460zM215 765q0 30 22.5 52.5t52.5 22.5t52.5 -22.5t22.5 -52.5t-22.5 -52.5t-52.5 -22.5t-52.5 22.5t-22.5 52.5z" />
    <glyph glyph-name="edotaccent" unicode="&#x117;" horiz-adv-x="515" 
d="M335 145l140 -10q-20 -62 -75.5 -103.5t-139.5 -41.5q-94 0 -162 70t-68 170q0 101 68.5 170.5t166.5 69.5q96 0 160.5 -66.5t64.5 -173.5q0 -3 -3 -30l-2 -15h-315q9 -29 34 -49.5t61 -20.5q33 0 54 15q10 6 16 15zM170 270h190q-9 32 -34 53.5t-61 21.5t-61 -21.5
t-34 -53.5zM190 585q0 30 22.5 52.5t52.5 22.5t52.5 -22.5t22.5 -52.5t-22.5 -52.5t-52.5 -22.5t-52.5 22.5t-22.5 52.5z" />
    <glyph glyph-name="Eogonek" unicode="&#x118;" horiz-adv-x="560" 
d="M60 0v630h450v-140h-305v-100h280v-140h-280v-110h315v-140q-10 -15 -15 -25q-15 -28 -15 -50q0 -19 13 -32t32 -13q15 0 29 2l11 3v-65q-9 -4 -18 -5q-20 -5 -47 -5q-52 0 -81 25t-29 65q0 33 22 71q10 16 23 29h-385z" />
    <glyph glyph-name="eogonek" unicode="&#x119;" horiz-adv-x="515" 
d="M365 -115v-65q-9 -4 -18 -5q-20 -5 -47 -5q-52 0 -81 25t-29 65q0 48 38 92q-84 12 -141 79t-57 159q0 101 68.5 170.5t166.5 69.5q96 0 160.5 -66.5t64.5 -173.5q0 -3 -3 -30l-2 -15h-315q9 -29 34 -49.5t61 -20.5q33 0 54 15q10 6 16 15l140 -10q-18 -53 -60.5 -91.5
t-109.5 -49.5q-25 -41 -25 -69q0 -19 13 -32t32 -13q15 0 29 2zM170 270h190q-9 32 -34 53.5t-61 21.5t-61 -21.5t-34 -53.5z" />
    <glyph glyph-name="Ecaron" unicode="&#x11a;" horiz-adv-x="560" 
d="M60 0v630h450v-140h-305v-100h280v-140h-280v-110h315v-140h-460zM230 695l-100 130h115l45 -60l45 60h115l-100 -130h-120z" />
    <glyph glyph-name="ecaron" unicode="&#x11b;" horiz-adv-x="515" 
d="M335 145l140 -10q-20 -62 -75.5 -103.5t-139.5 -41.5q-94 0 -162 70t-68 170q0 101 68.5 170.5t166.5 69.5q96 0 160.5 -66.5t64.5 -173.5q0 -3 -3 -30l-2 -15h-315q9 -29 34 -49.5t61 -20.5q33 0 54 15q10 6 16 15zM170 270h190q-9 32 -34 53.5t-61 21.5t-61 -21.5
t-34 -53.5zM205 515l-100 130h115l45 -60l45 60h115l-100 -130h-120z" />
    <glyph glyph-name="Gcircumflex" unicode="&#x11c;" horiz-adv-x="695" 
d="M545 0l-25 60q-23 -20 -49 -33q-62 -32 -131 -32q-129 0 -219.5 93t-90.5 227t90.5 227t219.5 93q107 0 184 -64t101 -156l-150 -10q-13 38 -48 64t-87 26q-69 0 -117 -51.5t-48 -128.5t48 -128.5t117 -51.5q56 0 91 25t49 60h-140v120h305v-340h-100zM190 695l100 130
h120l100 -130h-115l-45 60l-45 -60h-115z" />
    <glyph glyph-name="gcircumflex" unicode="&#x11d;" horiz-adv-x="540" 
d="M45 -15l135 10q5 -11 17 -23q24 -22 63 -22q42 0 68.5 25.5t26.5 64.5v25q-10 -10 -28 -20q-35 -20 -87 -20q-87 0 -148.5 63.5t-61.5 156.5t61.5 156.5t148.5 63.5q47 0 95 -25q13 -7 35 -25l20 45h100v-420q0 -91 -63.5 -150.5t-166.5 -59.5q-108 0 -171 77
q-29 36 -44 78zM165 245q0 -42 26.5 -68.5t68.5 -26.5t68.5 26.5t26.5 68.5t-26.5 68.5t-68.5 26.5t-68.5 -26.5t-26.5 -68.5zM110 515l100 130h120l100 -130h-115l-45 60l-45 -60h-115z" />
    <glyph glyph-name="Gbreve" unicode="&#x11e;" horiz-adv-x="695" 
d="M545 0l-25 60q-23 -20 -49 -33q-62 -32 -131 -32q-129 0 -219.5 93t-90.5 227t90.5 227t219.5 93q107 0 184 -64t101 -156l-150 -10q-13 38 -48 64t-87 26q-69 0 -117 -51.5t-48 -128.5t48 -128.5t117 -51.5q56 0 91 25t49 60h-140v120h305v-340h-100zM205 820h95
q4 -23 17.5 -36.5t32.5 -13.5t32.5 13.5t17.5 36.5h95q-8 -58 -47 -94t-98 -36t-98 36t-47 94z" />
    <glyph glyph-name="gbreve" unicode="&#x11f;" horiz-adv-x="540" 
d="M45 -15l135 10q5 -11 17 -23q24 -22 63 -22q42 0 68.5 25.5t26.5 64.5v25q-10 -10 -28 -20q-35 -20 -87 -20q-87 0 -148.5 63.5t-61.5 156.5t61.5 156.5t148.5 63.5q47 0 95 -25q13 -7 35 -25l20 45h100v-420q0 -91 -63.5 -150.5t-166.5 -59.5q-108 0 -171 77
q-29 36 -44 78zM165 245q0 -42 26.5 -68.5t68.5 -26.5t68.5 26.5t26.5 68.5t-26.5 68.5t-68.5 26.5t-68.5 -26.5t-26.5 -68.5zM125 640h95q4 -23 17.5 -36.5t32.5 -13.5t32.5 13.5t17.5 36.5h95q-8 -58 -47 -94t-98 -36t-98 36t-47 94z" />
    <glyph glyph-name="Gdotaccent" unicode="&#x120;" horiz-adv-x="695" 
d="M545 0l-25 60q-23 -20 -49 -33q-62 -32 -131 -32q-129 0 -219.5 93t-90.5 227t90.5 227t219.5 93q107 0 184 -64t101 -156l-150 -10q-13 38 -48 64t-87 26q-69 0 -117 -51.5t-48 -128.5t48 -128.5t117 -51.5q56 0 91 25t49 60h-140v120h305v-340h-100zM270 765
q0 30 22.5 52.5t52.5 22.5t52.5 -22.5t22.5 -52.5t-22.5 -52.5t-52.5 -22.5t-52.5 22.5t-22.5 52.5z" />
    <glyph glyph-name="gdotaccent" unicode="&#x121;" horiz-adv-x="540" 
d="M45 -15l135 10q5 -11 17 -23q24 -22 63 -22q42 0 68.5 25.5t26.5 64.5v25q-10 -10 -28 -20q-35 -20 -87 -20q-87 0 -148.5 63.5t-61.5 156.5t61.5 156.5t148.5 63.5q47 0 95 -25q13 -7 35 -25l20 45h100v-420q0 -91 -63.5 -150.5t-166.5 -59.5q-108 0 -171 77
q-29 36 -44 78zM165 245q0 -42 26.5 -68.5t68.5 -26.5t68.5 26.5t26.5 68.5t-26.5 68.5t-68.5 26.5t-68.5 -26.5t-26.5 -68.5zM195 585q0 30 22.5 52.5t52.5 22.5t52.5 -22.5t22.5 -52.5t-22.5 -52.5t-52.5 -22.5t-52.5 22.5t-22.5 52.5z" />
    <glyph glyph-name="Gcommaaccent" unicode="&#x122;" horiz-adv-x="695" 
d="M545 0l-25 60q-23 -20 -49 -33q-62 -32 -131 -32q-129 0 -219.5 93t-90.5 227t90.5 227t219.5 93q107 0 184 -64t101 -156l-150 -10q-13 38 -48 64t-87 26q-69 0 -117 -51.5t-48 -128.5t48 -128.5t117 -51.5q56 0 91 25t49 60h-140v120h305v-340h-100zM320 -290l-20 30
q14 10 21 17q23 23 29 48q-30 0 -50 20t-20 50t20 50t50 20t50 -21t20 -54q0 -65 -50 -119q-25 -26 -50 -41z" />
    <glyph glyph-name="gcommaaccent" unicode="&#x123;" horiz-adv-x="540" 
d="M301 745l20 -30q-11 -7 -21 -18q-23 -23 -29 -47q30 0 50 -20t20 -50t-20 -50t-50 -20t-50 21t-20 54q0 65 50 119q25 26 50 41zM45 -15l135 10q5 -11 17 -23q24 -22 63 -22q42 0 68.5 25.5t26.5 64.5v25q-10 -10 -28 -20q-35 -20 -87 -20q-87 0 -148.5 63.5t-61.5 156.5
t61.5 156.5t148.5 63.5q47 0 95 -25q13 -7 35 -25l20 45h100v-420q0 -91 -63.5 -150.5t-166.5 -59.5q-108 0 -171 77q-29 36 -44 78zM165 245q0 -42 26.5 -68.5t68.5 -26.5t68.5 26.5t26.5 68.5t-26.5 68.5t-68.5 26.5t-68.5 -26.5t-26.5 -68.5z" />
    <glyph glyph-name="Hcircumflex" unicode="&#x124;" horiz-adv-x="650" 
d="M60 0v630h145v-240h240v240h145v-630h-145v250h-240v-250h-145zM165 695l100 130h120l100 -130h-115l-45 60l-45 -60h-115z" />
    <glyph glyph-name="hcircumflex" unicode="&#x125;" 
d="M50 0v630h135v-215q17 17 31 25q44 25 99 25q76 0 125.5 -53.5t49.5 -141.5v-270h-135v245q0 44 -23 69.5t-62 25.5t-62 -25.5t-23 -69.5v-245h-135zM110 695l100 130h120l100 -130h-115l-45 60l-45 -60h-115z" />
    <glyph glyph-name="Hbar" unicode="&#x126;" horiz-adv-x="700" 
d="M85 0v440h-70v120h70v70h145v-70h240v70h145v-70h70v-120h-70v-440h-145v250h-240v-250h-145zM230 390h240v50h-240v-50z" />
    <glyph glyph-name="hbar" unicode="&#x127;" horiz-adv-x="560" 
d="M75 0v460h-70v110h70v60h135v-60h110v-110h-110v-90q17 17 31 25q44 25 99 25q76 0 125.5 -53t49.5 -142v-225h-135v200q0 44 -23 69.5t-62 25.5t-62 -25.5t-23 -69.5v-200h-135z" />
    <glyph glyph-name="uni0128" unicode="&#x128;" horiz-adv-x="265" 
d="M60 0v630h145v-630h-145zM50 685l-75 10q0 61 25 93t65 32q33 0 66 -22.5t44 -22.5q35 0 35 45l75 -10q0 -61 -25 -93t-65 -32q-34 0 -66 22.5t-44 22.5q-15 0 -25 -11.5t-10 -33.5z" />
    <glyph glyph-name="uni0129" unicode="&#x129;" horiz-adv-x="235" 
d="M50 0v460h135v-460h-135zM35 510l-75 10q0 61 25 93t65 32q33 0 66 -22.5t44 -22.5q35 0 35 45l75 -10q0 -61 -25 -93t-65 -32q-34 0 -66 22.5t-44 22.5q-15 0 -25 -11.5t-10 -33.5z" />
    <glyph glyph-name="Imacron" unicode="&#x12a;" horiz-adv-x="265" 
d="M60 0v630h145v-630h-145zM0 700v105h265v-105h-265z" />
    <glyph glyph-name="imacron" unicode="&#x12b;" horiz-adv-x="235" 
d="M50 0v460h135v-460h-135zM-15 520v105h265v-105h-265z" />
    <glyph glyph-name="Ibreve" unicode="&#x12c;" horiz-adv-x="265" 
d="M60 0v630h145v-630h-145zM-10 820h95q4 -23 17.5 -36.5t32.5 -13.5t32.5 13.5t17.5 36.5h95q-8 -58 -47 -94t-98 -36t-98 36t-47 94z" />
    <glyph glyph-name="ibreve" unicode="&#x12d;" horiz-adv-x="235" 
d="M50 0v460h135v-460h-135zM-30 640h95q4 -23 17.5 -36.5t32.5 -13.5t32.5 13.5t17.5 36.5h95q-8 -58 -47 -94t-98 -36t-98 36t-47 94z" />
    <glyph glyph-name="Iogonek" unicode="&#x12e;" horiz-adv-x="265" 
d="M60 0v630h145v-630h-70q-10 -15 -15 -25q-15 -28 -15 -50q0 -19 13 -32t32 -13q15 0 29 2l11 3v-65q-9 -4 -18 -5q-20 -5 -47 -5q-52 0 -81 25t-29 65q0 33 22 71q10 16 23 29z" />
    <glyph glyph-name="iogonek" unicode="&#x12f;" horiz-adv-x="235" 
d="M50 0v460h135v-460h-60q-10 -15 -15 -25q-15 -28 -15 -50q0 -19 13 -32t32 -13q15 0 29 2l11 3v-65q-9 -4 -18 -5q-20 -5 -47 -5q-52 0 -81 25t-29 65q0 33 22 71q11 16 23 29zM45 585q0 30 22.5 52.5t52.5 22.5t52.5 -22.5t22.5 -52.5t-22.5 -52.5t-52.5 -22.5
t-52.5 22.5t-22.5 52.5z" />
    <glyph glyph-name="Idot" unicode="&#x130;" horiz-adv-x="265" 
d="M60 0v630h145v-630h-145zM60 765q0 30 22.5 52.5t52.5 22.5t52.5 -22.5t22.5 -52.5t-22.5 -52.5t-52.5 -22.5t-52.5 22.5t-22.5 52.5z" />
    <glyph glyph-name="dotlessi" unicode="&#x131;" horiz-adv-x="235" 
d="M50 0v460h135v-460h-135z" />
    <glyph glyph-name="uni0132" unicode="&#x132;" horiz-adv-x="730" 
d="M60 0v630h145v-630h-145zM535 210v420h145v-420q0 -98 -59 -156.5t-156 -58.5t-156 57t-59 148q49 2 90 6l55 4q0 -33 20 -54t50 -21t50 21t20 54z" />
    <glyph glyph-name="uni0133" unicode="&#x133;" horiz-adv-x="480" 
d="M50 0v460h135v-460h-135zM45 585q0 30 22.5 52.5t52.5 22.5t52.5 -22.5t22.5 -52.5t-22.5 -52.5t-52.5 -22.5t-52.5 22.5t-22.5 52.5zM200 -155v120l10 -3q14 -2 25 -2q27 0 43.5 17.5t16.5 47.5v435h135v-455q0 -83 -43 -126.5t-122 -43.5q-24 0 -46 5q-10 1 -19 5z
M290 585q0 30 22.5 52.5t52.5 22.5t52.5 -22.5t22.5 -52.5t-22.5 -52.5t-52.5 -22.5t-52.5 22.5t-22.5 52.5z" />
    <glyph glyph-name="Jcircumflex" unicode="&#x134;" horiz-adv-x="485" 
d="M290 210v420h145v-420q0 -98 -58.5 -156.5t-156.5 -58.5q-97 0 -156 57t-59 148q49 2 90 6l55 4q0 -33 20 -54t50 -21t50 21t20 54zM200 695l100 130h120l100 -130h-115l-45 60l-45 -60h-115z" />
    <glyph glyph-name="jcircumflex" unicode="&#x135;" horiz-adv-x="235" 
d="M-45 -155v120l10 -3q14 -2 25 -2q27 0 43.5 17.5t16.5 47.5v435h135v-455q0 -83 -43 -126.5t-122 -43.5q-24 0 -46 5q-10 1 -19 5zM-45 515l100 130h120l100 -130h-115l-45 60l-45 -60h-115z" />
    <glyph glyph-name="Kcommaaccent" unicode="&#x136;" horiz-adv-x="565" 
d="M60 0v630h145v-270l190 270h165l-222 -310l237 -320h-165l-205 280v-280h-145zM270 -290l-20 30q14 10 21 17q23 23 29 48q-30 0 -50 20t-20 50t20 50t50 20t50 -21t20 -54q0 -65 -50 -119q-25 -26 -50 -41z" />
    <glyph glyph-name="kcommaaccent" unicode="&#x137;" horiz-adv-x="470" 
d="M50 0v630h135v-355l125 185h155l-155 -220l170 -240h-155l-140 205v-205h-135zM225 -290l-20 30q14 10 21 17q23 23 29 48q-30 0 -50 20t-20 50t20 50t50 20t50 -21t20 -54q0 -65 -50 -119q-25 -26 -50 -41z" />
    <glyph glyph-name="Lacute" unicode="&#x139;" horiz-adv-x="500" 
d="M60 0v630h145v-490h285v-140h-430zM80 695l65 130h135l-95 -130h-105z" />
    <glyph glyph-name="lacute" unicode="&#x13a;" horiz-adv-x="240" 
d="M50 0v630h135v-630h-135zM65 695l65 130h135l-95 -130h-105z" />
    <glyph glyph-name="Lcommaaccent" unicode="&#x13b;" horiz-adv-x="500" 
d="M60 0v630h145v-490h285v-140h-430zM255 -290l-20 30q14 10 21 17q23 23 29 48q-30 0 -50 20t-20 50t20 50t50 20t50 -21t20 -54q0 -65 -50 -119q-25 -26 -50 -41z" />
    <glyph glyph-name="lcommaaccent" unicode="&#x13c;" horiz-adv-x="240" 
d="M50 0v630h135v-630h-135zM90 -290l-20 30q14 10 21 17q23 23 29 48q-30 0 -50 20t-20 50t20 50t50 20t50 -21t20 -54q0 -65 -50 -119q-25 -26 -50 -41z" />
    <glyph glyph-name="Lcaron" unicode="&#x13d;" horiz-adv-x="500" 
d="M255 500l35 130h125l-65 -130h-95zM60 0v630h145v-490h285v-140h-430z" />
    <glyph glyph-name="lcaron" unicode="&#x13e;" horiz-adv-x="350" 
d="M235 500l35 130h125l-65 -130h-95zM50 0v630h135v-630h-135z" />
    <glyph glyph-name="Ldot" unicode="&#x13f;" horiz-adv-x="500" 
d="M60 0v630h145v-490h285v-140h-430zM310 355q0 30 22.5 52.5t52.5 22.5t52.5 -22.5t22.5 -52.5t-22.5 -52.5t-52.5 -22.5t-52.5 22.5t-22.5 52.5z" />
    <glyph glyph-name="ldot" unicode="&#x140;" horiz-adv-x="400" 
d="M50 0v630h135v-630h-135zM245 310q0 30 22.5 52.5t52.5 22.5t52.5 -22.5t22.5 -52.5t-22.5 -52.5t-52.5 -22.5t-52.5 22.5t-22.5 52.5z" />
    <glyph glyph-name="Lslash" unicode="&#x141;" horiz-adv-x="520" 
d="M80 0v165l-70 -45v130l70 45v335h145v-240l125 80v-130l-125 -80v-120h285v-140h-430z" />
    <glyph glyph-name="lslash" unicode="&#x142;" horiz-adv-x="315" 
d="M90 0v210l-75 -50v130l75 50v290h135v-195l75 50v-130l-75 -50v-305h-135z" />
    <glyph glyph-name="Nacute" unicode="&#x143;" horiz-adv-x="650" 
d="M60 0v630h130l255 -370v370h145v-630h-130l-255 370v-370h-145zM270 695l65 130h135l-95 -130h-105z" />
    <glyph glyph-name="nacute" unicode="&#x144;" 
d="M50 0v460h100l20 -45q20 17 37 25q50 25 98 25q83 0 134 -53t51 -142v-270h-135v245q0 44 -23 69.5t-62 25.5t-62 -25.5t-23 -69.5v-245h-135zM220 515l65 130h135l-95 -130h-105z" />
    <glyph glyph-name="Ncommaaccent" unicode="&#x145;" horiz-adv-x="650" 
d="M60 0v630h130l255 -370v370h145v-630h-130l-255 370v-370h-145zM300 -290l-20 30q14 10 21 17q23 23 29 48q-30 0 -50 20t-20 50t20 50t50 20t50 -21t20 -54q0 -65 -50 -119q-25 -26 -50 -41z" />
    <glyph glyph-name="ncommaaccent" unicode="&#x146;" 
d="M50 0v460h100l20 -45q20 17 37 25q50 25 98 25q83 0 134 -53t51 -142v-270h-135v245q0 44 -23 69.5t-62 25.5t-62 -25.5t-23 -69.5v-245h-135zM240 -290l-20 30q14 10 21 17q23 23 29 48q-30 0 -50 20t-20 50t20 50t50 20t50 -21t20 -54q0 -65 -50 -119q-25 -26 -50 -41z
" />
    <glyph glyph-name="Ncaron" unicode="&#x147;" horiz-adv-x="650" 
d="M60 0v630h130l255 -370v370h145v-630h-130l-255 370v-370h-145zM265 695l-100 130h115l45 -60l45 60h115l-100 -130h-120z" />
    <glyph glyph-name="ncaron" unicode="&#x148;" 
d="M50 0v460h100l20 -45q20 17 37 25q50 25 98 25q83 0 134 -53t51 -142v-270h-135v245q0 44 -23 69.5t-62 25.5t-62 -25.5t-23 -69.5v-245h-135zM220 515l-100 130h115l45 -60l45 60h115l-100 -130h-120z" />
    <glyph glyph-name="napostrophe" unicode="&#x149;" horiz-adv-x="605" 
d="M120 0v460h100l20 -45q20 17 37 25q50 25 98 25q83 0 134 -53t51 -142v-270h-135v245q0 44 -23 69.5t-62 25.5t-62 -25.5t-23 -69.5v-245h-135zM30 395l-20 30q14 10 21 17q23 23 29 48q-30 0 -50 20t-20 50t20 50t50 20t50 -21t20 -54q0 -65 -50 -119q-25 -26 -50 -41z
" />
    <glyph glyph-name="Eng" unicode="&#x14a;" horiz-adv-x="650" 
d="M60 0v630h130l255 -370v370h145v-670q0 -87 -58.5 -143.5t-151.5 -56.5q-86 0 -143.5 55t-61.5 135l145 10q0 -30 16.5 -47.5t43.5 -17.5q30 0 47.5 17.5t17.5 47.5v62l-240 348v-370h-145z" />
    <glyph glyph-name="eng" unicode="&#x14b;" 
d="M50 0v460h100l20 -45q20 17 37 25q50 25 98 25q83 0 134 -53t51 -142v-265q0 -82 -44.5 -128.5t-120.5 -46.5q-30 0 -48 7q-13 6 -17 8v110l9 -3q14 -2 21 -2q30 0 47.5 17.5t17.5 47.5v230q0 44 -23 69.5t-62 25.5t-62 -25.5t-23 -69.5v-245h-135z" />
    <glyph glyph-name="Omacron" unicode="&#x14c;" horiz-adv-x="680" 
d="M340 135q69 0 117 51.5t48 128.5t-48 128.5t-117 51.5t-117 -51.5t-48 -128.5t48 -128.5t117 -51.5zM340 -5q-129 0 -219.5 93t-90.5 227t90.5 227t219.5 93t219.5 -93t90.5 -227t-90.5 -227t-219.5 -93zM210 700v105h265v-105h-265z" />
    <glyph glyph-name="omacron" unicode="&#x14d;" horiz-adv-x="530" 
d="M30 230q0 101 68.5 170.5t166.5 69.5t166.5 -69.5t68.5 -170.5t-68.5 -170.5t-166.5 -69.5t-166.5 69.5t-68.5 170.5zM365 230q0 52 -28.5 83.5t-71.5 31.5t-71.5 -31.5t-28.5 -83.5t28.5 -83.5t71.5 -31.5t71.5 31.5t28.5 83.5zM135 520v105h265v-105h-265z" />
    <glyph glyph-name="Obreve" unicode="&#x14e;" horiz-adv-x="680" 
d="M340 135q69 0 117 51.5t48 128.5t-48 128.5t-117 51.5t-117 -51.5t-48 -128.5t48 -128.5t117 -51.5zM340 -5q-129 0 -219.5 93t-90.5 227t90.5 227t219.5 93t219.5 -93t90.5 -227t-90.5 -227t-219.5 -93zM195 820h95q4 -23 17.5 -36.5t32.5 -13.5t32.5 13.5t17.5 36.5h95
q-8 -58 -47 -94t-98 -36t-98 36t-47 94z" />
    <glyph glyph-name="obreve" unicode="&#x14f;" horiz-adv-x="530" 
d="M30 230q0 101 68.5 170.5t166.5 69.5t166.5 -69.5t68.5 -170.5t-68.5 -170.5t-166.5 -69.5t-166.5 69.5t-68.5 170.5zM365 230q0 52 -28.5 83.5t-71.5 31.5t-71.5 -31.5t-28.5 -83.5t28.5 -83.5t71.5 -31.5t71.5 31.5t28.5 83.5zM120 640h95q4 -23 17.5 -36.5t32.5 -13.5
t32.5 13.5t17.5 36.5h95q-8 -58 -47 -94t-98 -36t-98 36t-47 94z" />
    <glyph glyph-name="Ohungarumlaut" unicode="&#x150;" horiz-adv-x="680" 
d="M340 135q69 0 117 51.5t48 128.5t-48 128.5t-117 51.5t-117 -51.5t-48 -128.5t48 -128.5t117 -51.5zM340 -5q-129 0 -219.5 93t-90.5 227t90.5 227t219.5 93t219.5 -93t90.5 -227t-90.5 -227t-219.5 -93zM200 695l70 130h135l-100 -130h-105zM375 695l70 130h135
l-100 -130h-105z" />
    <glyph glyph-name="ohungarumlaut" unicode="&#x151;" horiz-adv-x="530" 
d="M30 230q0 101 68.5 170.5t166.5 69.5t166.5 -69.5t68.5 -170.5t-68.5 -170.5t-166.5 -69.5t-166.5 69.5t-68.5 170.5zM365 230q0 52 -28.5 83.5t-71.5 31.5t-71.5 -31.5t-28.5 -83.5t28.5 -83.5t71.5 -31.5t71.5 31.5t28.5 83.5zM125 515l70 130h135l-100 -130h-105z
M300 515l70 130h135l-100 -130h-105z" />
    <glyph glyph-name="OE" unicode="&#x152;" horiz-adv-x="855" 
d="M535 140h280v-140h-470q-131 0 -223 92t-92 223t92 223t223 92h460v-140h-270v-100h245v-140h-245v-110zM345 140h45v350h-45q-72 0 -121 -50t-49 -125t49 -125t121 -50z" />
    <glyph glyph-name="oe" unicode="&#x153;" horiz-adv-x="830" 
d="M650 145l140 -10q-20 -61 -74.5 -103t-135.5 -42q-64 0 -117 37q-23 17 -38 38q-18 -21 -44 -38q-56 -37 -126 -37q-95 0 -160 68t-65 172t65 172t160 68q72 0 128 -38q24 -15 42 -37q17 20 40 37q54 38 115 38q95 0 160 -68t65 -172q0 -8 -3 -32l-2 -13h-315
q8 -22 19 -35q28 -35 76 -35q33 0 54 15q10 6 16 15zM255 115q40 0 67.5 31.5t27.5 83.5t-27.5 83.5t-67.5 31.5t-67.5 -31.5t-27.5 -83.5t27.5 -83.5t67.5 -31.5zM485 275h180q-4 31 -28.5 53t-61.5 22t-61.5 -22t-28.5 -53z" />
    <glyph glyph-name="Racute" unicode="&#x154;" horiz-adv-x="580" 
d="M60 0v630h255q96 0 158 -58t62 -142q0 -39 -12 -73.5t-29.5 -55t-36 -35t-29.5 -20.5t-13 -6l140 -240h-160l-115 210h-75v-210h-145zM205 350h110q37 0 58.5 19.5t21.5 50.5t-21.5 50.5t-58.5 19.5h-110v-140zM235 695l65 130h135l-95 -130h-105z" />
    <glyph glyph-name="racute" unicode="&#x155;" horiz-adv-x="340" 
d="M50 0v460h100l20 -50q11 14 29 27q35 28 81 28q8 0 29 -3l11 -2v-140l-14 5q-15 5 -36 5q-39 0 -62 -25.5t-23 -69.5v-235h-135zM135 515l65 130h135l-95 -130h-105z" />
    <glyph glyph-name="Rcommaaccent" unicode="&#x156;" horiz-adv-x="580" 
d="M60 0v630h255q96 0 158 -58t62 -142q0 -39 -12 -73.5t-29.5 -55t-36 -35t-29.5 -20.5t-13 -6l140 -240h-160l-115 210h-75v-210h-145zM205 350h110q37 0 58.5 19.5t21.5 50.5t-21.5 50.5t-58.5 19.5h-110v-140zM275 -290l-20 30q14 10 21 17q23 23 29 48q-30 0 -50 20
t-20 50t20 50t50 20t50 -21t20 -54q0 -65 -50 -119q-25 -26 -50 -41z" />
    <glyph glyph-name="rcommaaccent" unicode="&#x157;" horiz-adv-x="340" 
d="M50 0v460h100l20 -50q11 14 29 27q35 28 81 28q8 0 29 -3l11 -2v-140l-14 5q-15 5 -36 5q-39 0 -62 -25.5t-23 -69.5v-235h-135zM90 -290l-20 30q14 10 21 17q23 23 29 48q-30 0 -50 20t-20 50t20 50t50 20t50 -21t20 -54q0 -65 -50 -119q-25 -26 -50 -41z" />
    <glyph glyph-name="Rcaron" unicode="&#x158;" horiz-adv-x="580" 
d="M60 0v630h255q96 0 158 -58t62 -142q0 -39 -12 -73.5t-29.5 -55t-36 -35t-29.5 -20.5t-13 -6l140 -240h-160l-115 210h-75v-210h-145zM205 350h110q37 0 58.5 19.5t21.5 50.5t-21.5 50.5t-58.5 19.5h-110v-140zM235 695l-100 130h115l45 -60l45 60h115l-100 -130h-120z
" />
    <glyph glyph-name="rcaron" unicode="&#x159;" horiz-adv-x="340" 
d="M50 0v460h100l20 -50q11 14 29 27q35 28 81 28q8 0 29 -3l11 -2v-140l-14 5q-15 5 -36 5q-39 0 -62 -25.5t-23 -69.5v-235h-135zM130 515l-100 130h115l45 -60l45 60h115l-100 -130h-120z" />
    <glyph glyph-name="Sacute" unicode="&#x15a;" horiz-adv-x="525" 
d="M30 200l140 10q0 -85 90 -85q40 0 62.5 18.5t22.5 46.5q0 22 -23 37t-57.5 23.5t-74.5 23.5t-74.5 33.5t-57.5 56.5t-23 91q0 74 62 127t163 53q100 0 160 -56t60 -144l-140 -10q0 38 -21 59t-59 21q-33 0 -54 -18t-21 -42q0 -21 23 -35.5t57.5 -22t74.5 -22.5t74.5 -34
t57.5 -58t23 -93q0 -78 -63 -131.5t-172 -53.5q-107 0 -168.5 56.5t-61.5 148.5zM210 695l65 130h135l-95 -130h-105z" />
    <glyph glyph-name="sacute" unicode="&#x15b;" horiz-adv-x="445" 
d="M30 140l130 10q8 -50 60 -50q25 0 40 12t15 28q0 13 -24 22.5t-58.5 19t-69.5 24t-59 46.5t-24 78q0 58 48 99t127 41q86 0 134.5 -38t60.5 -102l-130 -10q-4 16 -18.5 28t-36.5 12q-45 0 -45 -35q0 -11 17.5 -20t43.5 -15t56.5 -17t56.5 -26t43.5 -44t17.5 -68
q0 -59 -50.5 -102t-134.5 -43q-175 0 -200 150zM165 515l65 130h135l-95 -130h-105z" />
    <glyph glyph-name="Scircumflex" unicode="&#x15c;" horiz-adv-x="525" 
d="M30 200l140 10q0 -85 90 -85q40 0 62.5 18.5t22.5 46.5q0 22 -23 37t-57.5 23.5t-74.5 23.5t-74.5 33.5t-57.5 56.5t-23 91q0 74 62 127t163 53q100 0 160 -56t60 -144l-140 -10q0 38 -21 59t-59 21q-33 0 -54 -18t-21 -42q0 -21 23 -35.5t57.5 -22t74.5 -22.5t74.5 -34
t57.5 -58t23 -93q0 -78 -63 -131.5t-172 -53.5q-107 0 -168.5 56.5t-61.5 148.5zM100 695l100 130h120l100 -130h-115l-45 60l-45 -60h-115z" />
    <glyph glyph-name="scircumflex" unicode="&#x15d;" horiz-adv-x="445" 
d="M30 140l130 10q8 -50 60 -50q25 0 40 12t15 28q0 13 -24 22.5t-58.5 19t-69.5 24t-59 46.5t-24 78q0 58 48 99t127 41q86 0 134.5 -38t60.5 -102l-130 -10q-4 16 -18.5 28t-36.5 12q-45 0 -45 -35q0 -11 17.5 -20t43.5 -15t56.5 -17t56.5 -26t43.5 -44t17.5 -68
q0 -59 -50.5 -102t-134.5 -43q-175 0 -200 150zM65 515l100 130h120l100 -130h-115l-45 60l-45 -60h-115z" />
    <glyph glyph-name="Scedilla" unicode="&#x15e;" horiz-adv-x="525" 
d="M175 -190v50l12 -3q14 -2 28 -2q50 0 50 35q0 12 -11.5 21t-33.5 9q-5 0 -11 -1t-10 -3l-4 -1l33 82q-92 8 -145 63.5t-53 139.5l140 10q0 -85 90 -85q40 0 62.5 18.5t22.5 46.5q0 22 -23 37t-57.5 23.5t-74.5 23.5t-74.5 33.5t-57.5 56.5t-23 91q0 74 62 127t163 53
q100 0 160 -56t60 -144l-140 -10q0 38 -21 59t-59 21q-33 0 -54 -18t-21 -42q0 -21 23 -35.5t57.5 -22t74.5 -22.5t74.5 -34t57.5 -58t23 -93q0 -73 -55.5 -124.5t-151.5 -59.5l-18 -36q27 -5 42 -14q43 -23 43 -66q0 -36 -29.5 -58t-90.5 -22q-23 0 -43 5q-7 1 -17 5z" />
    <glyph glyph-name="scedilla" unicode="&#x15f;" horiz-adv-x="445" 
d="M145 -190v50l12 -3q14 -2 28 -2q50 0 50 35q0 12 -11.5 21t-33.5 9q-5 0 -11 -1t-10 -3l-4 -1l31 77q-145 16 -166 148l130 10q8 -50 60 -50q25 0 40 12t15 28q0 13 -24 22.5t-58.5 19t-69.5 24t-59 46.5t-24 78q0 58 48 99t127 41q86 0 134.5 -38t60.5 -102l-130 -10
q-4 16 -18.5 28t-36.5 12q-45 0 -45 -35q0 -11 17.5 -20t43.5 -15t56.5 -17t56.5 -26t43.5 -44t17.5 -68q0 -54 -44 -96t-116 -48l-15 -31q27 -5 42 -14q43 -23 43 -66q0 -36 -29.5 -58t-90.5 -22q-23 0 -43 5q-7 1 -17 5z" />
    <glyph glyph-name="Scaron" unicode="&#x160;" horiz-adv-x="525" 
d="M30 200l140 10q0 -85 90 -85q40 0 62.5 18.5t22.5 46.5q0 22 -23 37t-57.5 23.5t-74.5 23.5t-74.5 33.5t-57.5 56.5t-23 91q0 74 62 127t163 53q100 0 160 -56t60 -144l-140 -10q0 38 -21 59t-59 21q-33 0 -54 -18t-21 -42q0 -21 23 -35.5t57.5 -22t74.5 -22.5t74.5 -34
t57.5 -58t23 -93q0 -78 -63 -131.5t-172 -53.5q-107 0 -168.5 56.5t-61.5 148.5zM200 695l-100 130h115l45 -60l45 60h115l-100 -130h-120z" />
    <glyph glyph-name="scaron" unicode="&#x161;" horiz-adv-x="445" 
d="M30 140l130 10q8 -50 60 -50q25 0 40 12t15 28q0 13 -24 22.5t-58.5 19t-69.5 24t-59 46.5t-24 78q0 58 48 99t127 41q86 0 134.5 -38t60.5 -102l-130 -10q-4 16 -18.5 28t-36.5 12q-45 0 -45 -35q0 -11 17.5 -20t43.5 -15t56.5 -17t56.5 -26t43.5 -44t17.5 -68
q0 -59 -50.5 -102t-134.5 -43q-175 0 -200 150zM165 515l-100 130h115l45 -60l45 60h115l-100 -130h-120z" />
    <glyph glyph-name="Tcommaaccent" unicode="&#x162;" horiz-adv-x="525" 
d="M190 0v490h-180v140h505v-140h-180v-490h-145zM235 -290l-20 30q14 10 21 17q23 23 29 48q-30 0 -50 20t-20 50t20 50t50 20t50 -21t20 -54q0 -65 -50 -119q-25 -26 -50 -41z" />
    <glyph glyph-name="tcommaaccent" unicode="&#x163;" horiz-adv-x="365" 
d="M90 165v170h-70v115h35q55 0 55 55v65h115v-110h95v-125h-95v-150q0 -30 16.5 -47.5t43.5 -17.5q11 0 25 2l10 3v-120q-9 -4 -18 -5q-22 -5 -47 -5q-79 0 -122 43.5t-43 126.5zM180 -290l-20 30q14 10 21 17q23 23 29 48q-30 0 -50 20t-20 50t20 50t50 20t50 -21t20 -54
q0 -65 -50 -119q-25 -26 -50 -41z" />
    <glyph glyph-name="Tcaron" unicode="&#x164;" horiz-adv-x="525" 
d="M190 0v490h-180v140h505v-140h-180v-490h-145zM200 695l-100 130h115l45 -60l45 60h115l-100 -130h-120z" />
    <glyph glyph-name="tcaron" unicode="&#x165;" horiz-adv-x="412" 
d="M302 500l35 130h125l-65 -130h-95zM90 165v170h-70v115h35q55 0 55 55v65h115v-110h95v-125h-95v-150q0 -30 16.5 -47.5t43.5 -17.5q11 0 25 2l10 3v-120q-9 -4 -18 -5q-22 -5 -47 -5q-79 0 -122 43.5t-43 126.5z" />
    <glyph glyph-name="Tbar" unicode="&#x166;" horiz-adv-x="525" 
d="M190 0v265h-90v115h90v110h-180v140h505v-140h-180v-110h90v-115h-90v-265h-145z" />
    <glyph glyph-name="tbar" unicode="&#x167;" horiz-adv-x="365" 
d="M20 220v95h70v40h-70v95h35q55 0 55 55v65h115v-110h95v-105h-95v-40h95v-95h-95v-35q0 -30 16.5 -47.5t43.5 -17.5q11 0 25 2l10 3v-120q-9 -4 -18 -5q-22 -5 -47 -5q-79 0 -122 43.5t-43 126.5v55h-70z" />
    <glyph glyph-name="uni0168" unicode="&#x168;" horiz-adv-x="620" 
d="M50 255v375h145v-375q0 -57 30.5 -88.5t84.5 -31.5t84.5 31.5t30.5 88.5v375h145v-375q0 -116 -72 -188t-188 -72t-188 72t-72 188zM230 685l-75 10q0 61 25 93t65 32q33 0 66 -22.5t44 -22.5q35 0 35 45l75 -10q0 -61 -25 -93t-65 -32q-34 0 -66 22.5t-44 22.5
q-15 0 -25 -11.5t-10 -33.5z" />
    <glyph glyph-name="uni0169" unicode="&#x169;" 
d="M45 190v270h135v-245q0 -44 23 -69.5t62 -25.5t62 25.5t23 69.5v245h135v-460h-100l-20 45q-19 -15 -38 -25q-46 -25 -97 -25q-83 0 -134 53t-51 142zM185 510l-75 10q0 61 25 93t65 32q33 0 66 -22.5t44 -22.5q35 0 35 45l75 -10q0 -61 -25 -93t-65 -32q-34 0 -66 22.5
t-44 22.5q-15 0 -25 -11.5t-10 -33.5z" />
    <glyph glyph-name="Umacron" unicode="&#x16a;" horiz-adv-x="620" 
d="M50 255v375h145v-375q0 -57 30.5 -88.5t84.5 -31.5t84.5 31.5t30.5 88.5v375h145v-375q0 -116 -72 -188t-188 -72t-188 72t-72 188zM180 700v105h265v-105h-265z" />
    <glyph glyph-name="umacron" unicode="&#x16b;" 
d="M45 190v270h135v-245q0 -44 23 -69.5t62 -25.5t62 25.5t23 69.5v245h135v-460h-100l-20 45q-19 -15 -38 -25q-46 -25 -97 -25q-83 0 -134 53t-51 142zM135 520v105h265v-105h-265z" />
    <glyph glyph-name="Ubreve" unicode="&#x16c;" horiz-adv-x="620" 
d="M50 255v375h145v-375q0 -57 30.5 -88.5t84.5 -31.5t84.5 31.5t30.5 88.5v375h145v-375q0 -116 -72 -188t-188 -72t-188 72t-72 188zM165 820h95q4 -23 17.5 -36.5t32.5 -13.5t32.5 13.5t17.5 36.5h95q-8 -58 -47 -94t-98 -36t-98 36t-47 94z" />
    <glyph glyph-name="ubreve" unicode="&#x16d;" 
d="M45 190v270h135v-245q0 -44 23 -69.5t62 -25.5t62 25.5t23 69.5v245h135v-460h-100l-20 45q-19 -15 -38 -25q-46 -25 -97 -25q-83 0 -134 53t-51 142zM120 640h95q4 -23 17.5 -36.5t32.5 -13.5t32.5 13.5t17.5 36.5h95q-8 -58 -47 -94t-98 -36t-98 36t-47 94z" />
    <glyph glyph-name="Uring" unicode="&#x16e;" horiz-adv-x="620" 
d="M50 255v375h145v-375q0 -57 30.5 -88.5t84.5 -31.5t84.5 31.5t30.5 88.5v375h145v-375q0 -116 -72 -188t-188 -72t-188 72t-72 188zM345 770q0 15 -10 25t-25 10t-25 -10t-10 -25t10 -25t25 -10t25 10t10 25zM210 770q0 42 27.5 68.5t72.5 26.5t72.5 -26.5t27.5 -68.5
t-27.5 -68.5t-72.5 -26.5t-72.5 26.5t-27.5 68.5z" />
    <glyph glyph-name="uring" unicode="&#x16f;" 
d="M45 190v270h135v-245q0 -44 23 -69.5t62 -25.5t62 25.5t23 69.5v245h135v-460h-100l-20 45q-19 -15 -38 -25q-46 -25 -97 -25q-83 0 -134 53t-51 142zM300 595q0 15 -10 25t-25 10t-25 -10t-10 -25t10 -25t25 -10t25 10t10 25zM165 595q0 42 27.5 68.5t72.5 26.5
t72.5 -26.5t27.5 -68.5t-27.5 -68.5t-72.5 -26.5t-72.5 26.5t-27.5 68.5z" />
    <glyph glyph-name="Uhungarumlaut" unicode="&#x170;" horiz-adv-x="620" 
d="M50 255v375h145v-375q0 -57 30.5 -88.5t84.5 -31.5t84.5 31.5t30.5 88.5v375h145v-375q0 -116 -72 -188t-188 -72t-188 72t-72 188zM165 695l70 130h135l-100 -130h-105zM340 695l70 130h135l-100 -130h-105z" />
    <glyph glyph-name="uhungarumlaut" unicode="&#x171;" 
d="M45 190v270h135v-245q0 -44 23 -69.5t62 -25.5t62 25.5t23 69.5v245h135v-460h-100l-20 45q-19 -15 -38 -25q-46 -25 -97 -25q-83 0 -134 53t-51 142zM120 515l70 130h135l-100 -130h-105zM295 515l70 130h135l-100 -130h-105z" />
    <glyph glyph-name="Uogonek" unicode="&#x172;" horiz-adv-x="620" 
d="M415 -115v-65q-9 -4 -18 -5q-20 -5 -47 -5q-52 0 -81 25t-29 65q0 29 14 56t27 40q-104 8 -167.5 79t-63.5 180v375h145v-375q0 -57 30.5 -88.5t84.5 -31.5t84.5 31.5t30.5 88.5v375h145v-375q0 -102 -57.5 -172t-153.5 -84q-29 -41 -29 -74q0 -19 13 -32t32 -13
q15 0 29 2z" />
    <glyph glyph-name="uogonek" unicode="&#x173;" 
d="M45 190v270h135v-245q0 -44 23 -69.5t62 -25.5t62 25.5t23 69.5v245h135v-460h-25q-10 -15 -15 -25q-15 -28 -15 -50q0 -19 13 -32t32 -13q15 0 29 2l11 3v-65q-9 -4 -18 -5q-20 -5 -47 -5q-52 0 -81 25t-29 65q0 33 22 71q11 16 23 29l-20 45q-19 -15 -38 -25
q-46 -25 -97 -25q-83 0 -134 53t-51 142z" />
    <glyph glyph-name="Wcircumflex" unicode="&#x174;" horiz-adv-x="860" 
d="M205 0l-200 630h140l120 -390l120 390h90l120 -390l120 390h140l-200 -630h-110l-115 370l-115 -370h-110zM270 695l100 130h120l100 -130h-115l-45 60l-45 -60h-115z" />
    <glyph glyph-name="wcircumflex" unicode="&#x175;" horiz-adv-x="700" 
d="M155 0l-155 460h140l80 -270l85 270h90l85 -270l80 270h140l-155 -460h-115l-80 255l-80 -255h-115zM190 515l100 130h120l100 -130h-115l-45 60l-45 -60h-115z" />
    <glyph glyph-name="Ycircumflex" unicode="&#x176;" horiz-adv-x="565" 
d="M210 0v235l-210 395h155l128 -250l127 250h155l-210 -395v-235h-145zM125 695l100 130h120l100 -130h-115l-45 60l-45 -60h-115z" />
    <glyph glyph-name="ycircumflex" unicode="&#x177;" horiz-adv-x="490" 
d="M80 -160v115q71 0 95 65l-175 440h145l100 -285l100 285h145l-185 -460q-36 -88 -77 -126.5t-103 -38.5q-12 0 -30 2zM90 515l100 130h120l100 -130h-115l-45 60l-45 -60h-115z" />
    <glyph glyph-name="Ydieresis" unicode="&#x178;" horiz-adv-x="565" 
d="M210 0v235l-210 395h155l128 -250l127 250h155l-210 -395v-235h-145zM120 760q0 30 20 50t50 20t50 -20t20 -50t-20 -50t-50 -20t-50 20t-20 50zM305 760q0 30 20 50t50 20t50 -20t20 -50t-20 -50t-50 -20t-50 20t-20 50z" />
    <glyph glyph-name="Zacute" unicode="&#x179;" horiz-adv-x="530" 
d="M30 0v120l270 370h-260v140h445v-120l-270 -370h285v-140h-470zM210 695l65 130h135l-95 -130h-105z" />
    <glyph glyph-name="zacute" unicode="&#x17a;" horiz-adv-x="435" 
d="M30 0v110l190 220h-190v130h365v-110l-190 -220h200v-130h-375zM160 515l65 130h135l-95 -130h-105z" />
    <glyph glyph-name="Zdotaccent" unicode="&#x17b;" horiz-adv-x="530" 
d="M30 0v120l270 370h-260v140h445v-120l-270 -370h285v-140h-470zM190 765q0 30 22.5 52.5t52.5 22.5t52.5 -22.5t22.5 -52.5t-22.5 -52.5t-52.5 -22.5t-52.5 22.5t-22.5 52.5z" />
    <glyph glyph-name="zdotaccent" unicode="&#x17c;" horiz-adv-x="435" 
d="M30 0v110l190 220h-190v130h365v-110l-190 -220h200v-130h-375zM145 585q0 30 22.5 52.5t52.5 22.5t52.5 -22.5t22.5 -52.5t-22.5 -52.5t-52.5 -22.5t-52.5 22.5t-22.5 52.5z" />
    <glyph glyph-name="Zcaron" unicode="&#x17d;" horiz-adv-x="530" 
d="M30 0v120l270 370h-260v140h445v-120l-270 -370h285v-140h-470zM205 695l-100 130h115l45 -60l45 60h115l-100 -130h-120z" />
    <glyph glyph-name="zcaron" unicode="&#x17e;" horiz-adv-x="435" 
d="M30 0v110l190 220h-190v130h365v-110l-190 -220h200v-130h-375zM155 515l-100 130h115l45 -60l45 60h115l-100 -130h-120z" />
    <glyph glyph-name="uni018F" unicode="&#x18f;" horiz-adv-x="675" 
d="M35 350h465q-12 65 -57.5 107.5t-107.5 42.5q-90 0 -135 -75l-155 10q29 86 103 143t187 57q129 0 219.5 -93t90.5 -227t-90.5 -227t-219.5 -93q-133 0 -219 89.5t-86 230.5q0 11 2 25zM490 250h-305q9 -51 48.5 -85.5t101.5 -34.5q57 0 97 33.5t58 86.5z" />
    <glyph glyph-name="florin" unicode="&#x192;" horiz-adv-x="385" 
d="M-55 -155l30 120l10 -3q14 -2 25 -2q50 0 65 60l45 245h-75l25 130h75l6 33q7 43 9 52q15 77 59.5 116t125.5 39q26 0 48 -5q13 -4 22 -5l-30 -120l-10 2q-21 3 -25 3q-50 0 -65 -60q-2 -5 -4 -17t-3 -17l-3 -21h95l-25 -130h-95l-50 -275q-29 -155 -185 -155
q-23 0 -48 5q-9 1 -22 5z" />
    <glyph glyph-name="uni01A0" unicode="&#x1a0;" horiz-adv-x="680" 
d="M520 575h25q18 0 29 10t11 25q0 17 -8 39l-7 16h85q5 -6 10 -18q10 -22 10 -47q0 -52 -43 -79q-21 -12 -42 -16q15 -21 30 -52q30 -66 30 -138q0 -134 -90.5 -227t-219.5 -93t-219.5 93t-90.5 227t90.5 227t219.5 93q69 0 131 -30q25 -13 49 -30zM340 135q69 0 117 51.5
t48 128.5t-48 128.5t-117 51.5t-117 -51.5t-48 -128.5t48 -128.5t117 -51.5z" />
    <glyph glyph-name="uni01A1" unicode="&#x1a1;" horiz-adv-x="550" 
d="M415 415h15q18 0 29 10t11 25q0 17 -8 39l-7 16h85q5 -6 10 -18q10 -22 10 -47q0 -54 -45 -79q-22 -12 -45 -16q8 -15 15 -31q15 -43 15 -84q0 -101 -68.5 -170.5t-166.5 -69.5t-166.5 69.5t-68.5 170.5t68.5 170.5t166.5 69.5q61 0 111 -28q22 -12 39 -27zM265 115
q43 0 71.5 31.5t28.5 83.5t-28.5 83.5t-71.5 31.5t-71.5 -31.5t-28.5 -83.5t28.5 -83.5t71.5 -31.5z" />
    <glyph glyph-name="uni01AF" unicode="&#x1af;" horiz-adv-x="705" 
d="M50 255v375h145v-375q0 -57 30.5 -88.5t84.5 -31.5t84.5 31.5t30.5 88.5v375h145v-55h15q18 0 29 10t11 25q0 17 -8 39l-7 16h85q5 -6 10 -18q10 -22 10 -47q0 -43 -29 -69t-81 -26q-9 0 -23 2l-12 3v-255q0 -116 -72 -188t-188 -72t-188 72t-72 188z" />
    <glyph glyph-name="uni01B0" unicode="&#x1b0;" horiz-adv-x="620" 
d="M45 190v270h135v-245q0 -44 23 -69.5t62 -25.5t62 25.5t23 69.5v245h135v-45h15q18 0 29 10t11 25q0 17 -8 39l-7 16h85q5 -6 10 -18q10 -22 10 -47q0 -43 -29 -69t-81 -26q-9 0 -23 2l-12 3v-350h-100l-20 45q-19 -15 -38 -25q-46 -25 -97 -25q-83 0 -134 53t-51 142z
" />
    <glyph glyph-name="Aringacute" unicode="&#x1fa;" horiz-adv-x="590" 
d="M-5 0l225 630h10q-35 27 -35 75q0 42 27.5 68.5t72.5 26.5t72.5 -26.5t27.5 -68.5q0 -48 -36 -75h11l225 -630h-150l-40 120h-220l-40 -120h-150zM225 245h140l-70 210zM260 820l55 110h135l-85 -110h-105zM295 670q15 0 25 10t10 25t-10 25t-25 10t-25 -10t-10 -25
t10 -25t25 -10z" />
    <glyph glyph-name="aringacute" unicode="&#x1fb;" horiz-adv-x="485" 
d="M340 0l-20 45q-19 -15 -38 -25q-46 -25 -97 -25q-73 0 -114 36t-41 94q0 74 63 114.5t212 40.5q0 33 -16.5 51.5t-43.5 18.5q-30 0 -49 -23q-8 -12 -11 -22l-135 10q10 64 53 104.5t117 48.5q-33 8 -51.5 32.5t-18.5 59.5q0 42 27.5 68.5t72.5 26.5t72.5 -26.5
t27.5 -68.5q0 -35 -19.5 -59.5t-53.5 -32.5q72 -10 117.5 -61.5t45.5 -126.5v-280h-100zM195 670l60 120h140l-90 -120h-110zM305 180v20q-81 0 -110.5 -15.5t-29.5 -44.5q0 -19 15 -32t40 -13q38 0 61.5 23.5t23.5 61.5zM250 525q15 0 25 10t10 25t-10 25t-25 10t-25 -10
t-10 -25t10 -25t25 -10z" />
    <glyph glyph-name="AEacute" unicode="&#x1fc;" horiz-adv-x="855" 
d="M-25 0l325 630h505v-140h-275v-100h250v-140h-250v-110h285v-140h-430v120h-185l-60 -120h-165zM270 260h115v230zM410 695l65 130h135l-95 -130h-105z" />
    <glyph glyph-name="aeacute" unicode="&#x1fd;" horiz-adv-x="785" 
d="M185 305l-135 10q13 72 63 113.5t137 41.5q64 0 112 -25q17 -9 33 -25q15 14 34 25q48 25 106 25q95 0 160 -68t65 -172q0 -8 -3 -32l-2 -13h-315q8 -22 19 -35q28 -35 76 -35q33 0 54 15q10 6 16 15l140 -10q-19 -61 -76.5 -103t-138.5 -42q-62 0 -110 30q-22 14 -35 30
q-17 -16 -44 -30q-58 -30 -126 -30q-86 0 -135.5 39.5t-49.5 95.5q0 74 63 114.5t212 40.5q0 33 -16.5 51.5t-43.5 18.5q-30 0 -49 -23q-8 -12 -11 -22zM440 275h180q-4 31 -28.5 53t-61.5 22t-61.5 -22t-28.5 -53zM305 180v20q-81 0 -110.5 -15.5t-29.5 -44.5q0 -19 15 -32
t40 -13q38 0 61.5 23.5t23.5 61.5zM330 515l65 130h135l-95 -130h-105z" />
    <glyph glyph-name="Oslashacute" unicode="&#x1fe;" horiz-adv-x="700" 
d="M120 0l-95 100l55 55q-11 20 -20 46q-20 53 -20 114q0 134 90.5 227t219.5 93q67 0 125 -28q29 -13 50 -27l55 50l95 -100l-55 -55q13 -24 20 -44q20 -51 20 -116q0 -134 -90.5 -227t-219.5 -93q-69 0 -125 27q-30 13 -50 28zM190 260l230 220l-18 7q-24 8 -52 8
q-69 0 -117 -51.5t-48 -128.5q0 -25 2 -43zM510 370l-230 -220q2 -1 18 -8q21 -7 52 -7q69 0 117 51.5t48 128.5q0 15 -3 42q0 2 -0.5 6.5t-1.5 6.5zM300 695l65 130h135l-95 -130h-105z" />
    <glyph glyph-name="oslashacute" unicode="&#x1ff;" horiz-adv-x="540" 
d="M95 0l-70 75l40 35q-9 17 -15 34q-15 39 -15 86q0 101 68.5 170.5t166.5 69.5q51 0 99 -23q22 -12 36 -22l40 35l70 -75l-40 -35l15 -36q15 -49 15 -84q0 -101 -68.5 -170.5t-166.5 -69.5q-53 0 -99 22q-23 12 -36 23zM175 200l140 135l-11 5q-13 5 -34 5
q-43 0 -71.5 -31.5t-28.5 -83.5q0 -7 2 -21zM365 260l-140 -135q6 -4 11 -5q13 -5 34 -5q43 0 71.5 31.5t28.5 83.5q0 3 -0.5 6.5t-1.5 8t-1 6.5zM220 515l65 130h135l-95 -130h-105z" />
    <glyph glyph-name="Scommaaccent" unicode="&#x218;" horiz-adv-x="525" 
d="M30 200l140 10q0 -85 90 -85q40 0 62.5 18.5t22.5 46.5q0 22 -23 37t-57.5 23.5t-74.5 23.5t-74.5 33.5t-57.5 56.5t-23 91q0 74 62 127t163 53q100 0 160 -56t60 -144l-140 -10q0 38 -21 59t-59 21q-33 0 -54 -18t-21 -42q0 -21 23 -35.5t57.5 -22t74.5 -22.5t74.5 -34
t57.5 -58t23 -93q0 -78 -63 -131.5t-172 -53.5q-107 0 -168.5 56.5t-61.5 148.5zM240 -290l-20 30q14 10 21 17q23 23 29 48q-30 0 -50 20t-20 50t20 50t50 20t50 -21t20 -54q0 -65 -50 -119q-25 -26 -50 -41z" />
    <glyph glyph-name="scommaaccent" unicode="&#x219;" horiz-adv-x="445" 
d="M30 140l130 10q8 -50 60 -50q25 0 40 12t15 28q0 13 -24 22.5t-58.5 19t-69.5 24t-59 46.5t-24 78q0 58 48 99t127 41q86 0 134.5 -38t60.5 -102l-130 -10q-4 16 -18.5 28t-36.5 12q-45 0 -45 -35q0 -11 17.5 -20t43.5 -15t56.5 -17t56.5 -26t43.5 -44t17.5 -68
q0 -59 -50.5 -102t-134.5 -43q-175 0 -200 150zM195 -290l-20 30q14 10 21 17q23 23 29 48q-30 0 -50 20t-20 50t20 50t50 20t50 -21t20 -54q0 -65 -50 -119q-25 -26 -50 -41z" />
    <glyph glyph-name="uni021A" unicode="&#x21a;" horiz-adv-x="525" 
d="M190 0v490h-180v140h505v-140h-180v-490h-145zM235 -290l-20 30q14 10 21 17q23 23 29 48q-30 0 -50 20t-20 50t20 50t50 20t50 -21t20 -54q0 -65 -50 -119q-25 -26 -50 -41z" />
    <glyph glyph-name="uni021B" unicode="&#x21b;" horiz-adv-x="365" 
d="M90 165v170h-70v115h35q55 0 55 55v65h115v-110h95v-125h-95v-150q0 -30 16.5 -47.5t43.5 -17.5q11 0 25 2l10 3v-120q-9 -4 -18 -5q-22 -5 -47 -5q-79 0 -122 43.5t-43 126.5zM180 -290l-20 30q14 10 21 17q23 23 29 48q-30 0 -50 20t-20 50t20 50t50 20t50 -21t20 -54
q0 -65 -50 -119q-25 -26 -50 -41z" />
    <glyph glyph-name="uni0232" unicode="&#x232;" horiz-adv-x="565" 
d="M210 0v235l-210 395h155l128 -250l127 250h155l-210 -395v-235h-145zM150 700v105h265v-105h-265z" />
    <glyph glyph-name="uni0233" unicode="&#x233;" horiz-adv-x="490" 
d="M80 -160v115q71 0 95 65l-175 440h145l100 -285l100 285h145l-185 -460q-36 -88 -77 -126.5t-103 -38.5q-12 0 -30 2zM115 520v105h265v-105h-265z" />
    <glyph glyph-name="uni0244" unicode="&#x244;" horiz-adv-x="680" 
d="M10 325v115h70v190h145v-190h230v190h145v-190h70v-115h-70v-70q0 -116 -72 -188t-188 -72t-188 72t-72 188v70h-70zM225 325v-70q0 -57 30.5 -88.5t84.5 -31.5t84.5 31.5t30.5 88.5v70h-230z" />
    <glyph glyph-name="uni0259" unicode="&#x259;" horiz-adv-x="515" 
d="M30 275h315q-9 29 -34 49.5t-61 20.5q-30 0 -54 -15q-9 -7 -16 -15l-140 10q20 62 75.5 103.5t139.5 41.5q94 0 162 -70t68 -170q0 -101 -68.5 -170.5t-166.5 -69.5q-96 0 -160.5 66.5t-64.5 173.5q0 12 2 30zM345 190h-190q9 -32 34 -53.5t61 -21.5t61 21.5t34 53.5z
" />
    <glyph glyph-name="uni0289" unicode="&#x289;" horiz-adv-x="560" 
d="M10 230v100h50v130h135v-130h170v130h135v-130h50v-100h-50v-230h-100l-20 45q-19 -15 -38 -25q-46 -25 -97 -25q-83 0 -134 53t-51 142v40h-50zM195 230v-15q0 -44 23 -69.5t62 -25.5t62 25.5t23 69.5v15h-170z" />
    <glyph glyph-name="afii57929" unicode="&#x2bc;" horiz-adv-x="200" 
d="M70 405l-20 30q14 10 21 17q23 23 29 48q-30 0 -50 20t-20 50t20 50t50 20t50 -21t20 -54q0 -65 -50 -119q-25 -26 -50 -41z" />
    <glyph glyph-name="circumflex" unicode="&#x2c6;" horiz-adv-x="380" 
d="M30 505l100 130h120l100 -130h-115l-45 60l-45 -60h-115z" />
    <glyph glyph-name="caron" unicode="&#x2c7;" horiz-adv-x="380" 
d="M130 505l-100 130h115l45 -60l45 60h115l-100 -130h-120z" />
    <glyph glyph-name="breve" unicode="&#x2d8;" horiz-adv-x="350" 
d="M30 635h95q4 -23 17.5 -36.5t32.5 -13.5t32.5 13.5t17.5 36.5h95q-8 -58 -47 -94t-98 -36t-98 36t-47 94z" />
    <glyph glyph-name="dotaccent" unicode="&#x2d9;" horiz-adv-x="210" 
d="M30 580q0 30 22.5 52.5t52.5 22.5t52.5 -22.5t22.5 -52.5t-22.5 -52.5t-52.5 -22.5t-52.5 22.5t-22.5 52.5z" />
    <glyph glyph-name="ring" unicode="&#x2da;" horiz-adv-x="260" 
d="M165 580q0 15 -10 25t-25 10t-25 -10t-10 -25t10 -25t25 -10t25 10t10 25zM30 580q0 42 27.5 68.5t72.5 26.5t72.5 -26.5t27.5 -68.5t-27.5 -68.5t-72.5 -26.5t-72.5 26.5t-27.5 68.5z" />
    <glyph glyph-name="ogonek" unicode="&#x2db;" horiz-adv-x="235" 
d="M75 0h75q-10 -15 -15 -25q-15 -28 -15 -50q0 -19 13 -32t32 -13q15 0 29 2l11 3v-65q-9 -4 -18 -5q-20 -5 -47 -5q-52 0 -81 25t-29 65q0 33 22 71q10 16 23 29z" />
    <glyph glyph-name="tilde" unicode="&#x2dc;" horiz-adv-x="370" 
d="M105 505l-75 10q0 61 25 93t65 32q33 0 66 -22.5t44 -22.5q35 0 35 45l75 -10q0 -61 -25 -93t-65 -32q-34 0 -66 22.5t-44 22.5q-15 0 -25 -11.5t-10 -33.5z" />
    <glyph glyph-name="hungarumlaut" unicode="&#x2dd;" horiz-adv-x="440" 
d="M30 505l70 130h135l-100 -130h-105zM205 505l70 130h135l-100 -130h-105z" />
    <glyph glyph-name="acutecomb" unicode="&#x301;" horiz-adv-x="0" 
d="M-380 695l65 130h135l-95 -130h-105z" />
    <glyph glyph-name="uni0309" unicode="&#x309;" horiz-adv-x="225" 
d="M30 620v65l14 5q15 5 41 5q52 0 81 -25t29 -65q0 -36 -20 -63q-6 -8 -20 -22h-75q8 10 12 19q13 20 13 41q0 19 -13.5 32t-36.5 13q-6 0 -18 -3z" />
    <glyph glyph-name="uni030A" unicode="&#x30a;" horiz-adv-x="0" 
d="M-425 765q0 42 27.5 68.5t72.5 26.5t72.5 -26.5t27.5 -68.5t-27.5 -68.5t-72.5 -26.5t-72.5 26.5t-27.5 68.5zM-325 730q15 0 25 10t10 25t-10 25t-25 10t-25 -10t-10 -25t10 -25t25 -10z" />
    <glyph glyph-name="uni031B" unicode="&#x31b;" horiz-adv-x="205" 
d="M30 350v65h15q18 0 29 10t11 25q0 17 -8 39l-7 16h85q5 -6 10 -18q10 -22 10 -47q0 -43 -29 -69t-81 -26q-9 0 -23 2z" />
    <glyph glyph-name="uni0323" unicode="&#x323;" horiz-adv-x="210" 
d="M30 -110q0 30 22.5 52.5t52.5 22.5t52.5 -22.5t22.5 -52.5t-22.5 -52.5t-52.5 -22.5t-52.5 22.5t-22.5 52.5z" />
    <glyph glyph-name="uni0400" unicode="&#x400;" horiz-adv-x="560" 
d="M60 0v630h450v-140h-305v-100h280v-140h-280v-110h315v-140h-460zM250 695l-95 130h135l65 -130h-105z" />
    <glyph glyph-name="afii10023" unicode="&#x401;" horiz-adv-x="560" 
d="M60 0v630h450v-140h-305v-100h280v-140h-280v-110h315v-140h-460zM130 760q0 30 20 50t50 20t50 -20t20 -50t-20 -50t-50 -20t-50 20t-20 50zM315 760q0 30 20 50t50 20t50 -20t20 -50t-20 -50t-50 -20t-50 20t-20 50z" />
    <glyph glyph-name="afii10051" unicode="&#x402;" horiz-adv-x="660" 
d="M140 0v490h-135v140h420v-140h-140v-130q12 14 34 27q43 28 101 28q95 0 152.5 -61.5t57.5 -168.5q0 -111 -67 -173t-193 -62v135q56 0 85.5 27t29.5 73q0 45 -27.5 72.5t-72.5 27.5t-72.5 -27.5t-27.5 -72.5v-185h-145z" />
    <glyph glyph-name="afii10052" unicode="&#x403;" horiz-adv-x="480" 
d="M60 0v630h410v-140h-265v-490h-145zM210 695l65 130h135l-95 -130h-105z" />
    <glyph glyph-name="afii10053" unicode="&#x404;" horiz-adv-x="645" 
d="M185 375h205v-120h-205q15 -51 56.5 -85.5t98.5 -34.5q95 0 135 80l150 -10q-23 -88 -99 -149t-186 -61q-129 0 -219.5 93t-90.5 227t90.5 227t219.5 93q107 0 182 -62t98 -153l-150 -10q-38 85 -130 85q-58 0 -100 -35.5t-55 -84.5z" />
    <glyph glyph-name="afii10054" unicode="&#x405;" horiz-adv-x="525" 
d="M30 200l140 10q0 -85 90 -85q40 0 62.5 18.5t22.5 46.5q0 22 -23 37t-57.5 23.5t-74.5 23.5t-74.5 33.5t-57.5 56.5t-23 91q0 74 62 127t163 53q100 0 160 -56t60 -144l-140 -10q0 38 -21 59t-59 21q-33 0 -54 -18t-21 -42q0 -21 23 -35.5t57.5 -22t74.5 -22.5t74.5 -34
t57.5 -58t23 -93q0 -78 -63 -131.5t-172 -53.5q-107 0 -168.5 56.5t-61.5 148.5z" />
    <glyph glyph-name="afii10055" unicode="&#x406;" horiz-adv-x="265" 
d="M60 0v630h145v-630h-145z" />
    <glyph glyph-name="afii10056" unicode="&#x407;" horiz-adv-x="265" 
d="M60 0v630h145v-630h-145zM-30 760q0 30 20 50t50 20t50 -20t20 -50t-20 -50t-50 -20t-50 20t-20 50zM155 760q0 30 20 50t50 20t50 -20t20 -50t-20 -50t-50 -20t-50 20t-20 50z" />
    <glyph glyph-name="afii10057" unicode="&#x408;" horiz-adv-x="485" 
d="M290 210v420h145v-420q0 -98 -58.5 -156.5t-156.5 -58.5q-97 0 -156 57t-59 148q49 2 90 6l55 4q0 -33 20 -54t50 -21t50 21t20 54z" />
    <glyph glyph-name="afii10058" unicode="&#x409;" horiz-adv-x="920" 
d="M0 0v125h20q34 0 57.5 25.5t27.5 69.5l35 410h430v-200h105q97 0 161 -62t64 -153t-64 -153t-161 -62h-250v490h-155l-25 -300q-8 -93 -57 -144t-128 -51q-20 0 -42 2zM570 140h105q33 0 56.5 22.5t23.5 52.5t-23.5 52.5t-56.5 22.5h-105v-150z" />
    <glyph glyph-name="afii10059" unicode="&#x40a;" horiz-adv-x="925" 
d="M60 0v630h145v-200h225v200h145v-200h105q97 0 161 -62t64 -153t-64 -153t-161 -62h-250v290h-225v-290h-145zM575 140h105q33 0 56.5 22.5t23.5 52.5t-23.5 52.5t-56.5 22.5h-105v-150z" />
    <glyph glyph-name="afii10060" unicode="&#x40b;" horiz-adv-x="665" 
d="M140 0v490h-135v140h420v-140h-140v-130q12 14 34 27q43 28 101 28q88 0 144 -61.5t56 -168.5v-185h-145v185q0 45 -26.5 72.5t-68.5 27.5t-68.5 -27.5t-26.5 -72.5v-185h-145z" />
    <glyph glyph-name="afii10061" unicode="&#x40c;" horiz-adv-x="565" 
d="M60 0v630h145v-270l190 270h165l-222 -310l237 -320h-165l-205 280v-280h-145zM245 695l65 130h135l-95 -130h-105z" />
    <glyph glyph-name="uni040D" unicode="&#x40d;" horiz-adv-x="650" 
d="M60 0v630h145v-375l255 375h130v-630h-145v375l-255 -375h-130zM285 695l-95 130h135l65 -130h-105z" />
    <glyph glyph-name="afii10062" unicode="&#x40e;" horiz-adv-x="545" 
d="M75 0v130l13 -3q16 -2 32 -2q38 0 65 27q13 13 20 28l-205 450h150l125 -280l125 280h150l-200 -450q-49 -109 -93 -149.5t-117 -40.5q-24 0 -46 5q-10 1 -19 5zM130 820h95q4 -23 17.5 -36.5t32.5 -13.5t32.5 13.5t17.5 36.5h95q-8 -58 -47 -94t-98 -36t-98 36t-47 94z
" />
    <glyph glyph-name="afii10145" unicode="&#x40f;" horiz-adv-x="645" 
d="M60 0v630h145v-490h235v490h145v-630h-190v-120h-145v120h-190z" />
    <glyph glyph-name="afii10017" unicode="&#x410;" horiz-adv-x="590" 
d="M225 245h140l-70 210zM-5 0l225 630h150l225 -630h-150l-40 120h-220l-40 -120h-150z" />
    <glyph glyph-name="afii10018" unicode="&#x411;" horiz-adv-x="580" 
d="M60 0v630h440v-140h-295v-90h125q96 0 158 -58t62 -142t-62 -142t-158 -58h-270zM205 125h120q33 0 56.5 22.5t23.5 52.5t-23.5 52.5t-56.5 22.5h-120v-150z" />
    <glyph glyph-name="afii10019" unicode="&#x412;" horiz-adv-x="580" 
d="M60 0v630h270q85 0 140 -51t55 -124q0 -54 -38 -92q-17 -18 -37 -28q28 -13 50 -34q50 -48 50 -116q0 -76 -58.5 -130.5t-146.5 -54.5h-285zM205 380h110q30 0 50 19t20 46t-20 46t-50 19h-110v-130zM205 120h125q33 0 56.5 22.5t23.5 52.5t-23.5 52.5t-56.5 22.5h-125
v-150z" />
    <glyph glyph-name="afii10020" unicode="&#x413;" horiz-adv-x="480" 
d="M60 0v630h410v-140h-265v-490h-145z" />
    <glyph glyph-name="afii10021" unicode="&#x414;" horiz-adv-x="655" 
d="M0 -120v260h40q16 7 29 20q30 30 36 80l45 390h420v-490h70v-260h-145v120h-350v-120h-145zM195 140h230v350h-150l-30 -250q-6 -49 -29 -80q-9 -11 -21 -20z" />
    <glyph glyph-name="afii10022" unicode="&#x415;" horiz-adv-x="560" 
d="M60 0v630h450v-140h-305v-100h280v-140h-280v-110h315v-140h-460z" />
    <glyph glyph-name="afii10024" unicode="&#x416;" horiz-adv-x="815" 
d="M-10 0l212 320l-197 310h165l165 -270v270h145v-270l165 270h165l-197 -310l212 -320h-165l-180 280v-280h-145v280l-180 -280h-165z" />
    <glyph glyph-name="afii10025" unicode="&#x417;" horiz-adv-x="525" 
d="M20 190l145 10q9 -32 34 -53.5t61 -21.5q41 0 63 19.5t22 50.5q0 28 -22.5 46.5t-62.5 18.5h-65v120h60q80 0 80 60q0 27 -21.5 46t-58.5 19q-33 0 -54.5 -19.5t-25.5 -50.5l-145 10q4 82 66 136t164 54q98 0 159 -52t61 -123q0 -57 -42 -99q-17 -17 -42 -31
q27 -14 49 -34q50 -48 50 -121q0 -75 -62.5 -127.5t-167.5 -52.5q-109 0 -172.5 54.5t-72.5 140.5z" />
    <glyph glyph-name="afii10026" unicode="&#x418;" horiz-adv-x="650" 
d="M60 0v630h145v-375l255 375h130v-630h-145v375l-255 -375h-130z" />
    <glyph glyph-name="afii10027" unicode="&#x419;" horiz-adv-x="650" 
d="M60 0v630h145v-375l255 375h130v-630h-145v375l-255 -375h-130zM180 820h95q4 -23 17.5 -36.5t32.5 -13.5t32.5 13.5t17.5 36.5h95q-8 -58 -47 -94t-98 -36t-98 36t-47 94z" />
    <glyph glyph-name="afii10028" unicode="&#x41a;" horiz-adv-x="565" 
d="M60 0v630h145v-270l190 270h165l-222 -310l237 -320h-165l-205 280v-280h-145z" />
    <glyph glyph-name="afii10029" unicode="&#x41b;" horiz-adv-x="645" 
d="M0 0v125h20q34 0 57.5 25.5t27.5 69.5l35 410h445v-630h-145v490h-170l-25 -300q-8 -93 -57 -144t-128 -51q-20 0 -42 2z" />
    <glyph glyph-name="afii10030" unicode="&#x41c;" horiz-adv-x="790" 
d="M60 0v630h130l205 -445l205 445h130v-630h-145v315l-145 -315h-90l-145 315v-315h-145z" />
    <glyph glyph-name="afii10031" unicode="&#x41d;" horiz-adv-x="650" 
d="M60 0v630h145v-240h240v240h145v-630h-145v250h-240v-250h-145z" />
    <glyph glyph-name="afii10032" unicode="&#x41e;" horiz-adv-x="680" 
d="M340 135q69 0 117 51.5t48 128.5t-48 128.5t-117 51.5t-117 -51.5t-48 -128.5t48 -128.5t117 -51.5zM340 -5q-129 0 -219.5 93t-90.5 227t90.5 227t219.5 93t219.5 -93t90.5 -227t-90.5 -227t-219.5 -93z" />
    <glyph glyph-name="afii10033" unicode="&#x41f;" horiz-adv-x="655" 
d="M60 0v630h535v-630h-145v490h-245v-490h-145z" />
    <glyph glyph-name="afii10034" unicode="&#x420;" horiz-adv-x="560" 
d="M60 0v630h245q97 0 161 -62t64 -153t-64 -153t-161 -62h-100v-200h-145zM205 340h100q33 0 56.5 22.5t23.5 52.5t-23.5 52.5t-56.5 22.5h-100v-150z" />
    <glyph glyph-name="afii10035" unicode="&#x421;" horiz-adv-x="650" 
d="M480 230l150 -10q-23 -95 -101 -160t-189 -65q-129 0 -219.5 93t-90.5 227t90.5 227t219.5 93q107 0 184.5 -65t100.5 -160l-150 -10q-13 41 -47.5 68t-87.5 27q-69 0 -117 -51.5t-48 -128.5t48 -128.5t117 -51.5q57 0 92.5 26.5t47.5 68.5z" />
    <glyph glyph-name="afii10036" unicode="&#x422;" horiz-adv-x="525" 
d="M190 0v490h-180v140h505v-140h-180v-490h-145z" />
    <glyph glyph-name="afii10037" unicode="&#x423;" horiz-adv-x="545" 
d="M75 0v130l13 -3q16 -2 32 -2q38 0 65 27q13 13 20 28l-205 450h150l125 -280l125 280h150l-200 -450q-49 -109 -93 -149.5t-117 -40.5q-24 0 -46 5q-10 1 -19 5z" />
    <glyph glyph-name="afii10038" unicode="&#x424;" horiz-adv-x="755" 
d="M305 -5v75q-126 8 -203 80t-77 175t77 175t203 80v55h145v-55q126 -8 203 -80t77 -175t-77 -175t-203 -80v-75h-145zM305 205v240q-63 -4 -99 -37t-36 -83t36 -83t99 -37zM450 445v-240q63 4 99 37t36 83t-36 83t-99 37z" />
    <glyph glyph-name="afii10039" unicode="&#x425;" horiz-adv-x="580" 
d="M0 0l200 320l-190 310h160l120 -205l120 205h160l-190 -310l200 -320h-160l-130 215l-130 -215h-160z" />
    <glyph glyph-name="afii10040" unicode="&#x426;" horiz-adv-x="660" 
d="M60 0v630h145v-490h225v490h145v-490h70v-260h-145v120h-440z" />
    <glyph glyph-name="afii10041" unicode="&#x427;" horiz-adv-x="615" 
d="M410 0v210q-18 -10 -39 -18q-45 -17 -96 -17q-102 0 -163.5 61.5t-61.5 163.5v230h145v-220q0 -105 105 -105q40 0 77 15q18 6 33 15v295h145v-630h-145z" />
    <glyph glyph-name="afii10042" unicode="&#x428;" horiz-adv-x="875" 
d="M60 0v630h145v-490h160v490h145v-490h160v490h145v-630h-755z" />
    <glyph glyph-name="afii10043" unicode="&#x429;" horiz-adv-x="900" 
d="M60 0v630h145v-490h160v490h145v-490h160v490h145v-490h70v-260h-145v120h-680z" />
    <glyph glyph-name="afii10044" unicode="&#x42a;" horiz-adv-x="620" 
d="M125 0v490h-125v140h270v-200h105q97 0 161 -62t64 -153t-64 -153t-161 -62h-250zM270 140h105q33 0 56.5 22.5t23.5 52.5t-23.5 52.5t-56.5 22.5h-105v-150z" />
    <glyph glyph-name="afii10045" unicode="&#x42b;" horiz-adv-x="790" 
d="M60 0v630h145v-200h95q97 0 161 -62t64 -153t-64 -153t-161 -62h-240zM205 140h95q33 0 56.5 22.5t23.5 52.5t-23.5 52.5t-56.5 22.5h-95v-150zM585 0v630h145v-630h-145z" />
    <glyph glyph-name="afii10046" unicode="&#x42c;" horiz-adv-x="555" 
d="M60 0v630h145v-200h105q97 0 161 -62t64 -153t-64 -153t-161 -62h-250zM205 140h105q33 0 56.5 22.5t23.5 52.5t-23.5 52.5t-56.5 22.5h-105v-150z" />
    <glyph glyph-name="afii10047" unicode="&#x42d;" horiz-adv-x="645" 
d="M20 205l150 10q40 -80 135 -80q57 0 97 33.5t58 86.5h-205v120h205q-13 49 -55.5 84.5t-99.5 35.5q-92 0 -130 -85l-150 10q23 91 98 153t182 62q129 0 219.5 -93t90.5 -227t-90.5 -227t-219.5 -93q-110 0 -186 61t-99 149z" />
    <glyph glyph-name="afii10048" unicode="&#x42e;" horiz-adv-x="885" 
d="M60 0v630h145v-250h65q18 108 99 181.5t191 73.5q122 0 208.5 -91.5t86.5 -228.5t-86.5 -228.5t-208.5 -91.5q-108 0 -185 70t-100 175h-70v-240h-145zM560 135q62 0 106 50t44 130t-44 130t-106 50t-106 -50t-44 -130t44 -130t106 -50z" />
    <glyph glyph-name="afii10049" unicode="&#x42f;" horiz-adv-x="575" 
d="M15 0l145 245q-5 2 -12.5 6t-27.5 19t-35 34t-27.5 53t-12.5 73q0 84 62 142t158 58h250v-630h-145v210h-75l-120 -210h-160zM265 350h105v140h-105q-37 0 -58.5 -19.5t-21.5 -50.5t21.5 -50.5t58.5 -19.5z" />
    <glyph glyph-name="afii10065" unicode="&#x430;" horiz-adv-x="485" 
d="M340 0l-20 45q-19 -15 -38 -25q-46 -25 -97 -25q-73 0 -114 36t-41 94q0 74 63 114.5t212 40.5q0 33 -16.5 51.5t-43.5 18.5q-30 0 -49 -23q-8 -12 -11 -22l-135 10q13 72 63 113.5t137 41.5q82 0 136 -54t54 -136v-280h-100zM305 180v20q-81 0 -110.5 -15.5t-29.5 -44.5
q0 -19 15 -32t40 -13q38 0 61.5 23.5t23.5 61.5z" />
    <glyph glyph-name="afii10066" unicode="&#x431;" horiz-adv-x="540" 
d="M445 650v-120q-142 -4 -201.5 -39t-78.5 -111q12 15 34 30q46 30 101 30q91 0 150.5 -62t59.5 -163q0 -95 -67 -160t-168 -65q-104 0 -172 78t-68 212q0 197 92 281.5t318 88.5zM275 115q42 0 71 29t29 71t-29 71t-71 29t-71 -29t-29 -71t29 -71t71 -29z" />
    <glyph glyph-name="afii10067" unicode="&#x432;" horiz-adv-x="475" 
d="M50 0v460h235q70 0 110 -35t40 -90q0 -42 -28 -72q-13 -15 -27 -23q18 -10 35 -25q35 -39 35 -85q0 -53 -42 -91.5t-108 -38.5h-250zM185 280h70q45 0 45 40t-45 40h-70v-80zM185 100h85q19 0 32 13t13 32t-13 32t-32 13h-85v-90z" />
    <glyph glyph-name="afii10068" unicode="&#x433;" horiz-adv-x="390" 
d="M50 0v460h330v-130h-195v-330h-135z" />
    <glyph glyph-name="afii10069" unicode="&#x434;" horiz-adv-x="525" 
d="M0 -100v230h32q13 5 22 14q22 22 26 56l30 260h345v-330h60v-230h-135v100h-245v-100h-135zM175 130h145v200h-95l-15 -130q-4 -33 -20 -56q-6 -9 -15 -14z" />
    <glyph glyph-name="afii10070" unicode="&#x435;" horiz-adv-x="515" 
d="M335 145l140 -10q-20 -62 -75.5 -103.5t-139.5 -41.5q-94 0 -162 70t-68 170q0 101 68.5 170.5t166.5 69.5q96 0 160.5 -66.5t64.5 -173.5q0 -3 -3 -30l-2 -15h-315q9 -29 34 -49.5t61 -20.5q33 0 54 15q10 6 16 15zM170 270h190q-9 32 -34 53.5t-61 21.5t-61 -21.5
t-34 -53.5z" />
    <glyph glyph-name="afii10072" unicode="&#x436;" horiz-adv-x="685" 
d="M-5 0l165 240l-155 220h155l115 -185v185h135v-185l115 185h155l-155 -220l165 -240h-155l-125 205v-205h-135v205l-125 -205h-155z" />
    <glyph glyph-name="afii10073" unicode="&#x437;" horiz-adv-x="440" 
d="M165 185v95h45q22 0 36 12t14 28t-14 28t-36 12q-51 0 -60 -45l-125 10q33 145 195 145q79 0 129.5 -42.5t50.5 -97.5q0 -46 -30 -76q-12 -11 -30 -19q17 -9 35 -24q35 -33 35 -76q0 -59 -52 -102t-138 -43q-87 0 -139 44t-61 111q13 0 20 1q39 3 43 4l62 5
q4 -24 21.5 -39.5t43.5 -15.5q29 0 44.5 12.5t15.5 32.5q0 16 -16 28t-44 12h-45z" />
    <glyph glyph-name="afii10074" unicode="&#x438;" 
d="M50 0v460h135v-255l175 255h125v-460h-135v255l-175 -255h-125z" />
    <glyph glyph-name="afii10075" unicode="&#x439;" 
d="M50 0v460h135v-255l175 255h125v-460h-135v255l-175 -255h-125zM125 635h95q4 -23 17.5 -36.5t32.5 -13.5t32.5 13.5t17.5 36.5h95q-8 -58 -47 -94t-98 -36t-98 36t-47 94z" />
    <glyph glyph-name="afii10076" unicode="&#x43a;" horiz-adv-x="475" 
d="M50 0v460h135v-185l125 185h155l-155 -220l170 -240h-155l-140 205v-205h-135z" />
    <glyph glyph-name="afii10077" unicode="&#x43b;" horiz-adv-x="510" 
d="M0 0v115h15q30 0 43 13.5t17 51.5l25 280h360v-460h-135v330h-105l-15 -180q-6 -75 -48 -115t-117 -40q-15 0 -29 2z" />
    <glyph glyph-name="afii10078" unicode="&#x43c;" horiz-adv-x="630" 
d="M50 0v460h135l130 -275l130 275h135v-460h-135v220l-105 -220h-50l-105 220v-220h-135z" />
    <glyph glyph-name="afii10079" unicode="&#x43d;" horiz-adv-x="530" 
d="M50 0v460h135v-165h160v165h135v-460h-135v165h-160v-165h-135z" />
    <glyph glyph-name="afii10080" unicode="&#x43e;" horiz-adv-x="530" 
d="M30 230q0 101 68.5 170.5t166.5 69.5t166.5 -69.5t68.5 -170.5t-68.5 -170.5t-166.5 -69.5t-166.5 69.5t-68.5 170.5zM365 230q0 52 -28.5 83.5t-71.5 31.5t-71.5 -31.5t-28.5 -83.5t28.5 -83.5t71.5 -31.5t71.5 31.5t28.5 83.5z" />
    <glyph glyph-name="afii10081" unicode="&#x43f;" horiz-adv-x="530" 
d="M50 0v460h430v-460h-135v330h-160v-330h-135z" />
    <glyph glyph-name="afii10082" unicode="&#x440;" horiz-adv-x="545" 
d="M50 -160v620h100l20 -45q17 15 35 25q48 25 95 25q88 0 151.5 -67.5t63.5 -167.5t-63.5 -167.5t-151.5 -67.5q-48 0 -84 20q-15 7 -31 20v-195h-135zM280 120q43 0 71.5 31t28.5 79t-28.5 79t-71.5 31t-71.5 -31t-28.5 -79t28.5 -79t71.5 -31z" />
    <glyph glyph-name="afii10083" unicode="&#x441;" horiz-adv-x="510" 
d="M350 180l135 -10q-14 -52 -41 -90q-64 -90 -179 -90q-98 0 -166.5 69.5t-68.5 170.5t68.5 170.5t166.5 69.5q115 0 179 -90q27 -38 41 -90l-135 -10q-8 19 -18 32q-27 33 -67 33q-43 0 -71.5 -31.5t-28.5 -83.5t28.5 -83.5t71.5 -31.5q41 0 67 32q10 13 18 33z" />
    <glyph glyph-name="afii10084" unicode="&#x442;" horiz-adv-x="425" 
d="M145 0v330h-135v130h405v-130h-135v-330h-135z" />
    <glyph glyph-name="afii10085" unicode="&#x443;" horiz-adv-x="490" 
d="M80 -160v115q71 0 95 65l-175 440h145l100 -285l100 285h145l-185 -460q-36 -88 -77 -126.5t-103 -38.5q-12 0 -30 2z" />
    <glyph glyph-name="afii10086" unicode="&#x444;" horiz-adv-x="755" 
d="M310 -160v180q-13 -9 -24 -13q-27 -12 -66 -12q-78 0 -134 65t-56 170t56 170t134 65q36 0 66 -13q14 -4 24 -12v190h135v-190q11 8 24 12q30 13 66 13q78 0 134 -65t56 -170t-56 -170t-134 -65q-39 0 -66 12q-11 4 -24 13v-180h-135zM445 320v-180q7 -6 17 -10
q22 -10 43 -10q36 0 60.5 29.5t24.5 80.5t-24.5 80.5t-60.5 29.5q-21 0 -43 -10q-10 -4 -17 -10zM310 140v180q-7 6 -17 10q-22 10 -43 10q-36 0 -60.5 -29.5t-24.5 -80.5t24.5 -80.5t60.5 -29.5q21 0 43 10q10 4 17 10z" />
    <glyph glyph-name="afii10087" unicode="&#x445;" horiz-adv-x="460" 
d="M-5 0l150 235l-140 225h150l75 -130l75 130h150l-140 -225l150 -235h-150l-85 140l-85 -140h-150z" />
    <glyph glyph-name="afii10088" unicode="&#x446;" horiz-adv-x="540" 
d="M50 0v460h135v-330h150v330h135v-330h60v-230h-135v100h-345z" />
    <glyph glyph-name="afii10089" unicode="&#x447;" horiz-adv-x="505" 
d="M320 0v145q-19 -9 -33 -13q-34 -12 -77 -12q-76 0 -123 49t-47 131v160h135v-140q0 -33 20 -54t50 -21q32 0 54 12q7 3 21 13v190h135v-460h-135z" />
    <glyph glyph-name="afii10090" unicode="&#x448;" horiz-adv-x="715" 
d="M50 0v460h135v-330h105v330h135v-330h105v330h135v-460h-615z" />
    <glyph glyph-name="afii10091" unicode="&#x449;" horiz-adv-x="735" 
d="M50 0v460h135v-330h105v330h135v-330h105v330h135v-330h60v-230h-135v100h-540z" />
    <glyph glyph-name="afii10092" unicode="&#x44a;" horiz-adv-x="520" 
d="M105 0v330h-95v130h230v-140h95q71 0 118 -46t47 -114t-47 -114t-118 -46h-230zM240 110h70q26 0 40.5 13.5t14.5 36.5t-14.5 36.5t-40.5 13.5h-70v-100z" />
    <glyph glyph-name="afii10093" unicode="&#x44b;" horiz-adv-x="660" 
d="M475 0v460h135v-460h-135zM50 0v460h135v-140h85q71 0 118 -46t47 -114t-47 -114t-118 -46h-220zM185 110h60q26 0 40.5 13.5t14.5 36.5t-14.5 36.5t-40.5 13.5h-60v-100z" />
    <glyph glyph-name="afii10094" unicode="&#x44c;" horiz-adv-x="465" 
d="M50 0v460h135v-140h95q71 0 118 -46t47 -114t-47 -114t-118 -46h-230zM185 110h70q26 0 40.5 13.5t14.5 36.5t-14.5 36.5t-40.5 13.5h-70v-100z" />
    <glyph glyph-name="afii10095" unicode="&#x44d;" horiz-adv-x="505" 
d="M25 160l135 10q5 -15 17 -28q22 -27 63 -27q11 0 21.5 2t18.5 6t15 9t12 10.5t9 10.5t6.5 10l4.5 9l3 6v2h-130v95h130q-5 16 -17 35q-27 35 -73 35q-41 0 -63 -28q-11 -13 -17 -27l-135 10q14 49 40 85q63 85 175 85q98 0 166.5 -69.5t68.5 -170.5t-68.5 -170.5
t-166.5 -69.5q-110 0 -175 85q-26 37 -40 85z" />
    <glyph glyph-name="afii10096" unicode="&#x44e;" horiz-adv-x="705" 
d="M50 0v460h135v-174h45q15 73 77.5 128.5t142.5 55.5q91 0 158 -70t67 -170t-67 -170t-158 -70q-79 0 -137.5 50.5t-77.5 124.5h-50v-165h-135zM450 115q36 0 63 32.5t27 82.5t-27 82.5t-63 32.5t-63 -32.5t-27 -82.5t27 -82.5t63 -32.5z" />
    <glyph glyph-name="afii10097" unicode="&#x44f;" horiz-adv-x="485" 
d="M15 0l105 165q-21 11 -40 30q-40 42 -40 105q0 68 47 114t118 46h230v-460h-135v140h-55l-85 -140h-145zM230 250h80v100h-80q-26 0 -40.5 -13.5t-14.5 -36.5t14.5 -36.5t40.5 -13.5z" />
    <glyph glyph-name="uni0450" unicode="&#x450;" horiz-adv-x="515" 
d="M335 145l140 -10q-20 -62 -75.5 -103.5t-139.5 -41.5q-94 0 -162 70t-68 170q0 101 68.5 170.5t166.5 69.5q96 0 160.5 -66.5t64.5 -173.5q0 -3 -3 -30l-2 -15h-315q9 -29 34 -49.5t61 -20.5q33 0 54 15q10 6 16 15zM170 270h190q-9 32 -34 53.5t-61 21.5t-61 -21.5
t-34 -53.5zM215 515l-95 130h135l65 -130h-105z" />
    <glyph glyph-name="afii10071" unicode="&#x451;" horiz-adv-x="515" 
d="M335 145l140 -10q-20 -62 -75.5 -103.5t-139.5 -41.5q-94 0 -162 70t-68 170q0 101 68.5 170.5t166.5 69.5q96 0 160.5 -66.5t64.5 -173.5q0 -3 -3 -30l-2 -15h-315q9 -29 34 -49.5t61 -20.5q33 0 54 15q10 6 16 15zM170 270h190q-9 32 -34 53.5t-61 21.5t-61 -21.5
t-34 -53.5zM100 580q0 30 20 50t50 20t50 -20t20 -50t-20 -50t-50 -20t-50 20t-20 50zM285 580q0 30 20 50t50 20t50 -20t20 -50t-20 -50t-50 -20t-50 20t-20 50z" />
    <glyph glyph-name="afii10099" unicode="&#x452;" horiz-adv-x="550" 
d="M75 0v460h-70v110h70v60h135v-60h110v-110h-110v-90q17 17 31 25q44 25 99 25q81 0 130.5 -58.5t49.5 -171.5q0 -120 -63 -185t-177 -65v130q46 0 73 30.5t27 89.5q0 52 -23 78.5t-62 26.5t-62 -25.5t-23 -69.5v-200h-135z" />
    <glyph glyph-name="afii10100" unicode="&#x453;" horiz-adv-x="390" 
d="M50 0v460h330v-130h-195v-330h-135zM160 515l65 130h135l-95 -130h-105z" />
    <glyph glyph-name="afii10101" unicode="&#x454;" horiz-adv-x="505" 
d="M175 275h130v-95h-130q8 -20 19 -33q30 -32 71 -32q39 0 62 27q11 13 18 28l135 -10q-14 -48 -40 -85q-65 -85 -175 -85q-98 0 -166.5 69.5t-68.5 170.5t68.5 170.5t166.5 69.5q112 0 175 -85q26 -36 40 -85l-135 -10q-7 15 -18 27q-24 28 -62 28q-46 0 -73 -35
q-12 -19 -17 -35z" />
    <glyph glyph-name="afii10102" unicode="&#x455;" horiz-adv-x="445" 
d="M30 140l130 10q8 -50 60 -50q25 0 40 12t15 28q0 13 -24 22.5t-58.5 19t-69.5 24t-59 46.5t-24 78q0 58 48 99t127 41q86 0 134.5 -38t60.5 -102l-130 -10q-4 16 -18.5 28t-36.5 12q-45 0 -45 -35q0 -11 17.5 -20t43.5 -15t56.5 -17t56.5 -26t43.5 -44t17.5 -68
q0 -59 -50.5 -102t-134.5 -43q-175 0 -200 150z" />
    <glyph glyph-name="afii10103" unicode="&#x456;" horiz-adv-x="235" 
d="M50 0v460h135v-460h-135zM45 585q0 30 22.5 52.5t52.5 22.5t52.5 -22.5t22.5 -52.5t-22.5 -52.5t-52.5 -22.5t-52.5 22.5t-22.5 52.5z" />
    <glyph glyph-name="afii10104" unicode="&#x457;" horiz-adv-x="235" 
d="M60 0v460h135v-460h-135zM-35 580q0 30 20 50t50 20t50 -20t20 -50t-20 -50t-50 -20t-50 20t-20 50zM150 580q0 30 20 50t50 20t50 -20t20 -50t-20 -50t-50 -20t-50 20t-20 50z" />
    <glyph glyph-name="afii10105" unicode="&#x458;" horiz-adv-x="235" 
d="M-45 -155v120l10 -3q14 -2 25 -2q27 0 43.5 17.5t16.5 47.5v435h135v-455q0 -83 -43 -126.5t-122 -43.5q-24 0 -46 5q-10 1 -19 5zM45 585q0 30 22.5 52.5t52.5 22.5t52.5 -22.5t22.5 -52.5t-22.5 -52.5t-52.5 -22.5t-52.5 22.5t-22.5 52.5z" />
    <glyph glyph-name="afii10106" unicode="&#x459;" horiz-adv-x="715" 
d="M0 0v115h15q30 0 43 13.5t17 51.5l25 280h340v-150h90q70 0 117.5 -45.5t47.5 -109.5t-47.5 -109.5t-117.5 -45.5h-225v330h-85l-15 -180q-6 -75 -48 -115t-117 -40q-15 0 -29 2zM440 110h65q25 0 40 13t15 32t-15 32t-40 13h-65v-90z" />
    <glyph glyph-name="afii10107" unicode="&#x45a;" horiz-adv-x="755" 
d="M50 0v460h135v-150h160v150h135v-150h90q70 0 117.5 -45.5t47.5 -109.5t-47.5 -109.5t-117.5 -45.5h-225v180h-160v-180h-135zM480 110h65q25 0 40 13t15 32t-15 32t-40 13h-65v-90z" />
    <glyph glyph-name="afii10108" unicode="&#x45b;" horiz-adv-x="560" 
d="M75 0v460h-70v110h70v60h135v-60h110v-110h-110v-90q17 17 31 25q44 25 99 25q76 0 125.5 -53t49.5 -142v-225h-135v200q0 44 -23 69.5t-62 25.5t-62 -25.5t-23 -69.5v-200h-135z" />
    <glyph glyph-name="afii10109" unicode="&#x45c;" horiz-adv-x="450" 
d="M50 0v460h135v-185l125 185h155l-155 -220l170 -240h-155l-140 205v-205h-135zM190 515l65 130h135l-95 -130h-105z" />
    <glyph glyph-name="uni045D" unicode="&#x45d;" 
d="M50 0v460h135v-255l175 255h125v-460h-135v255l-175 -255h-125zM225 515l-95 130h135l65 -130h-105z" />
    <glyph glyph-name="afii10110" unicode="&#x45e;" horiz-adv-x="490" 
d="M80 -160v115q71 0 95 65l-175 440h145l100 -285l100 285h145l-185 -460q-36 -88 -77 -126.5t-103 -38.5q-12 0 -30 2zM100 635h95q4 -23 17.5 -36.5t32.5 -13.5t32.5 13.5t17.5 36.5h95q-8 -58 -47 -94t-98 -36t-98 36t-47 94z" />
    <glyph glyph-name="afii10193" unicode="&#x45f;" horiz-adv-x="525" 
d="M50 0v460h135v-330h155v330h135v-460h-145v-100h-135v100h-145z" />
    <glyph glyph-name="afii10050" unicode="&#x490;" horiz-adv-x="480" 
d="M60 0v630h265v110h145v-250h-265v-490h-145z" />
    <glyph glyph-name="afii10098" unicode="&#x491;" horiz-adv-x="390" 
d="M50 0v460h195v85h135v-215h-195v-330h-135z" />
    <glyph glyph-name="uni0492" unicode="&#x492;" horiz-adv-x="515" 
d="M90 0v235h-70v125h70v270h410v-140h-265v-130h195v-125h-195v-235h-145z" />
    <glyph glyph-name="uni0493" unicode="&#x493;" horiz-adv-x="405" 
d="M60 0v145h-55v105h55v210h330v-130h-195v-80h140v-105h-140v-145h-135z" />
    <glyph glyph-name="uni0494" unicode="&#x494;" horiz-adv-x="580" 
d="M60 0v630h410v-135h-265v-135q12 14 34 27q43 28 101 28q95 0 152.5 -61.5t57.5 -168.5q0 -111 -67 -173t-193 -62v135q56 0 85.5 27t29.5 73q0 45 -27.5 72.5t-72.5 27.5t-72.5 -27.5t-27.5 -72.5v-185h-145z" />
    <glyph glyph-name="uni0495" unicode="&#x495;" horiz-adv-x="485" 
d="M50 0v460h330v-130h-195v-105q12 9 26 15q36 15 79 15q74 0 124.5 -57.5t50.5 -152.5q0 -106 -59.5 -165.5t-165.5 -59.5v130q42 0 66 24t24 66q0 36 -21.5 60.5t-48.5 24.5q-34 0 -54.5 -20.5t-20.5 -54.5v-50h-135z" />
    <glyph glyph-name="uni0496" unicode="&#x496;" horiz-adv-x="815" 
d="M-10 0l212 320l-197 310h165l165 -270v270h145v-270l165 270h165l-197 -310l119 -180h103v-260h-145v120h-30l-180 280v-280h-145v280l-180 -280h-165z" />
    <glyph glyph-name="uni0497" unicode="&#x497;" horiz-adv-x="700" 
d="M-5 0l165 240l-155 220h155l115 -185v185h135v-185l115 185h155l-155 -220l75 -110h95v-230h-135v100h-25l-125 205v-205h-135v205l-125 -205h-155z" />
    <glyph glyph-name="uni049A" unicode="&#x49a;" horiz-adv-x="570" 
d="M60 0v630h145v-270l190 270h165l-222 -310l133 -180h109v-260h-145v120h-25l-205 280v-280h-145z" />
    <glyph glyph-name="uni049B" unicode="&#x49b;" horiz-adv-x="490" 
d="M50 0v460h135v-185l125 185h155l-155 -220l78 -110h97v-230h-135v100h-25l-140 205v-205h-135z" />
    <glyph glyph-name="uni049C" unicode="&#x49c;" horiz-adv-x="655" 
d="M60 0v630h145v-255h30v80h80v-80h15l145 255h165l-190 -310l215 -320h-165l-170 255h-15v-75h-80v75h-30v-255h-145z" />
    <glyph glyph-name="uni049D" unicode="&#x49d;" horiz-adv-x="525" 
d="M50 0v460h135v-165h20v75h60v-75h10l85 165h150l-130 -220l150 -240h-150l-105 180h-10v-75h-60v75h-20v-180h-135z" />
    <glyph glyph-name="uni04A2" unicode="&#x4a2;" horiz-adv-x="680" 
d="M60 0v630h145v-240h240v240h145v-490h70v-260h-145v120h-70v250h-240v-250h-145z" />
    <glyph glyph-name="uni04A3" unicode="&#x4a3;" horiz-adv-x="550" 
d="M50 0v460h135v-165h160v165h135v-330h60v-230h-135v100h-60v165h-160v-165h-135z" />
    <glyph glyph-name="uni04AE" unicode="&#x4ae;" horiz-adv-x="565" 
d="M210 0v235l-210 395h155l128 -250l127 250h155l-210 -395v-235h-145z" />
    <glyph glyph-name="uni04AF" unicode="&#x4af;" horiz-adv-x="490" 
d="M177 -160v170l-177 450h145l100 -300l100 300h145l-178 -450v-170h-135z" />
    <glyph glyph-name="uni04B0" unicode="&#x4b0;" horiz-adv-x="565" 
d="M210 0v155h-135v115h116l-191 360h155l128 -250l127 250h155l-192 -360h117v-115h-135v-155h-145z" />
    <glyph glyph-name="uni04B1" unicode="&#x4b1;" horiz-adv-x="490" 
d="M75 -80v90h102l-177 450h145l100 -300l100 300h145l-178 -450h103v-90h-103v-80h-135v80h-102z" />
    <glyph glyph-name="uni04B2" unicode="&#x4b2;" horiz-adv-x="585" 
d="M0 0l200 320l-190 310h160l120 -205l120 205h160l-190 -310l112 -180h93v-260h-145v120h-20l-130 215l-130 -215h-160z" />
    <glyph glyph-name="uni04B3" unicode="&#x4b3;" horiz-adv-x="480" 
d="M-5 0l150 235l-140 225h150l75 -130l75 130h150l-140 -225l67 -105h93v-230h-135v100h-25l-85 140l-85 -140h-150z" />
    <glyph glyph-name="uni04B6" unicode="&#x4b6;" horiz-adv-x="640" 
d="M480 -120v120h-70v210q-18 -10 -39 -18q-45 -17 -96 -17q-102 0 -163.5 61.5t-61.5 163.5v230h145v-220q0 -105 105 -105q40 0 77 15q18 6 33 15v295h145v-490h70v-260h-145z" />
    <glyph glyph-name="uni04B7" unicode="&#x4b7;" horiz-adv-x="525" 
d="M380 -100v100h-60v145q-19 -9 -33 -13q-34 -12 -77 -12q-76 0 -123 49t-47 131v160h135v-140q0 -33 20 -54t50 -21q32 0 54 12q7 3 21 13v190h135v-330h60v-230h-135z" />
    <glyph glyph-name="uni04B8" unicode="&#x4b8;" horiz-adv-x="621" 
d="M260 85v90q-95 4 -152.5 65.5t-57.5 159.5v230h145v-220q0 -83 65 -101v86h80v-86q32 6 50 16q14 6 20 10v295h145v-630h-145v210q-6 -4 -20 -10q-19 -10 -50 -17v-98h-80z" />
    <glyph glyph-name="uni04B9" unicode="&#x4b9;" horiz-adv-x="505" 
d="M215 55v65h-5q-76 0 -123 49t-47 131v160h135v-140q0 -51 40 -69v74h65v-75q11 3 29 13l11 7v190h135v-460h-135v145l-11 -5q-13 -6 -29 -10v-75h-65z" />
    <glyph glyph-name="uni04BA" unicode="&#x4ba;" horiz-adv-x="615" 
d="M60 0v630h145v-210q22 11 39 17q48 18 96 18q102 0 163.5 -61.5t61.5 -163.5v-230h-145v220q0 105 -105 105q-35 0 -78 -15q-20 -8 -32 -15v-295h-145z" />
    <glyph glyph-name="uni04BB" unicode="&#x4bb;" 
d="M50 0v630h135v-215q17 17 31 25q44 25 99 25q76 0 125.5 -53.5t49.5 -141.5v-270h-135v245q0 44 -23 69.5t-62 25.5t-62 -25.5t-23 -69.5v-245h-135z" />
    <glyph glyph-name="uni04C1" unicode="&#x4c1;" horiz-adv-x="815" 
d="M-10 0l212 320l-197 310h165l165 -270v270h145v-270l165 270h165l-197 -310l212 -320h-165l-180 280v-280h-145v280l-180 -280h-165zM265 820h95q4 -23 17.5 -36.5t32.5 -13.5t32.5 13.5t17.5 36.5h95q-8 -58 -47 -94t-98 -36t-98 36t-47 94z" />
    <glyph glyph-name="uni04C2" unicode="&#x4c2;" horiz-adv-x="685" 
d="M-5 0l165 240l-155 220h155l115 -185v185h135v-185l115 185h155l-155 -220l165 -240h-155l-125 205v-205h-135v205l-125 -205h-155zM195 640h95q4 -23 17.5 -36.5t32.5 -13.5t32.5 13.5t17.5 36.5h95q-8 -58 -47 -94t-98 -36t-98 36t-47 94z" />
    <glyph glyph-name="uni04D2" unicode="&#x4d2;" horiz-adv-x="590" 
d="M225 245h140l-70 210zM-5 0l225 630h150l225 -630h-150l-40 120h-220l-40 -120h-150zM133 760q0 30 20 50t50 20t50 -20t20 -50t-20 -50t-50 -20t-50 20t-20 50zM318 760q0 30 20 50t50 20t50 -20t20 -50t-20 -50t-50 -20t-50 20t-20 50z" />
    <glyph glyph-name="uni04D3" unicode="&#x4d3;" horiz-adv-x="485" 
d="M340 0l-20 45q-19 -15 -38 -25q-46 -25 -97 -25q-73 0 -114 36t-41 94q0 74 63 114.5t212 40.5q0 33 -16.5 51.5t-43.5 18.5q-30 0 -49 -23q-8 -12 -11 -22l-135 10q13 72 63 113.5t137 41.5q82 0 136 -54t54 -136v-280h-100zM305 180v20q-81 0 -110.5 -15.5t-29.5 -44.5
q0 -19 15 -32t40 -13q38 0 61.5 23.5t23.5 61.5zM93 580q0 30 20 50t50 20t50 -20t20 -50t-20 -50t-50 -20t-50 20t-20 50zM278 580q0 30 20 50t50 20t50 -20t20 -50t-20 -50t-50 -20t-50 20t-20 50z" />
    <glyph glyph-name="uni04D8" unicode="&#x4d8;" horiz-adv-x="675" 
d="M35 350h465q-12 65 -57.5 107.5t-107.5 42.5q-90 0 -135 -75l-155 10q29 86 103 143t187 57q129 0 219.5 -93t90.5 -227t-90.5 -227t-219.5 -93q-133 0 -219 89.5t-86 230.5q0 11 2 25zM490 250h-305q9 -51 48.5 -85.5t101.5 -34.5q57 0 97 33.5t58 86.5z" />
    <glyph glyph-name="uni04D9" unicode="&#x4d9;" horiz-adv-x="515" 
d="M30 275h315q-9 29 -34 49.5t-61 20.5q-30 0 -54 -15q-9 -7 -16 -15l-140 10q20 62 75.5 103.5t139.5 41.5q94 0 162 -70t68 -170q0 -101 -68.5 -170.5t-166.5 -69.5q-96 0 -160.5 66.5t-64.5 173.5q0 12 2 30zM345 190h-190q9 -32 34 -53.5t61 -21.5t61 21.5t34 53.5z
" />
    <glyph glyph-name="uni04E0" unicode="&#x4e0;" horiz-adv-x="530" 
d="M15 190l145 10q5 -28 29.5 -51.5t70.5 -23.5q41 0 65.5 22t24.5 53t-26.5 55.5t-63.5 24.5h-95v95l130 120h-250v135h430v-120l-130 -115q59 -9 109.5 -66t50.5 -129q0 -81 -70 -143t-175 -62q-109 0 -172.5 54.5t-72.5 140.5z" />
    <glyph glyph-name="uni04E1" unicode="&#x4e1;" horiz-adv-x="460" 
d="M5 5l135 10q4 -31 25.5 -50.5t54.5 -19.5q38 0 61.5 23t23.5 57q0 39 -24 62t-66 23h-95v85l140 140h-235v125h395v-120l-130 -130q64 -17 107 -66.5t43 -118.5q0 -84 -60.5 -139.5t-159.5 -55.5q-91 0 -146.5 48.5t-68.5 126.5z" />
    <glyph glyph-name="uni04E2" unicode="&#x4e2;" horiz-adv-x="650" 
d="M60 0v630h145v-375l255 375h130v-630h-145v375l-255 -375h-130zM195 700v105h265v-105h-265z" />
    <glyph glyph-name="uni04E3" unicode="&#x4e3;" 
d="M50 0v460h135v-255l175 255h125v-460h-135v255l-175 -255h-125zM130 520v105h265v-105h-265z" />
    <glyph glyph-name="uni04E6" unicode="&#x4e6;" horiz-adv-x="680" 
d="M340 135q69 0 117 51.5t48 128.5t-48 128.5t-117 51.5t-117 -51.5t-48 -128.5t48 -128.5t117 -51.5zM340 -5q-129 0 -219.5 93t-90.5 227t90.5 227t219.5 93t219.5 -93t90.5 -227t-90.5 -227t-219.5 -93zM180 760q0 30 20 50t50 20t50 -20t20 -50t-20 -50t-50 -20t-50 20
t-20 50zM365 760q0 30 20 50t50 20t50 -20t20 -50t-20 -50t-50 -20t-50 20t-20 50z" />
    <glyph glyph-name="uni04E7" unicode="&#x4e7;" horiz-adv-x="530" 
d="M30 230q0 101 68.5 170.5t166.5 69.5t166.5 -69.5t68.5 -170.5t-68.5 -170.5t-166.5 -69.5t-166.5 69.5t-68.5 170.5zM365 230q0 52 -28.5 83.5t-71.5 31.5t-71.5 -31.5t-28.5 -83.5t28.5 -83.5t71.5 -31.5t71.5 31.5t28.5 83.5zM105 580q0 30 20 50t50 20t50 -20t20 -50
t-20 -50t-50 -20t-50 20t-20 50zM290 580q0 30 20 50t50 20t50 -20t20 -50t-20 -50t-50 -20t-50 20t-20 50z" />
    <glyph glyph-name="uni04E8" unicode="&#x4e8;" horiz-adv-x="680" 
d="M340 -5q-129 0 -219.5 93t-90.5 227t90.5 227t219.5 93t219.5 -93t90.5 -227t-90.5 -227t-219.5 -93zM180 370h320q-13 52 -55.5 88.5t-104.5 36.5t-104.5 -36.5t-55.5 -88.5zM500 260h-320q13 -52 55.5 -88.5t104.5 -36.5t104.5 36.5t55.5 88.5z" />
    <glyph glyph-name="uni04E9" unicode="&#x4e9;" horiz-adv-x="530" 
d="M165 270h200q-9 36 -34.5 58t-65.5 22t-65.5 -22t-34.5 -58zM365 190h-200q9 -36 34.5 -58t65.5 -22t65.5 22t34.5 58zM30 230q0 101 68.5 170.5t166.5 69.5t166.5 -69.5t68.5 -170.5t-68.5 -170.5t-166.5 -69.5t-166.5 69.5t-68.5 170.5z" />
    <glyph glyph-name="uni04EE" unicode="&#x4ee;" horiz-adv-x="552" 
d="M75 0v130l13 -3q16 -2 32 -2q38 0 65 27q13 13 20 28l-205 450h150l125 -280l125 280h150l-200 -450q-49 -109 -93 -149.5t-117 -40.5q-24 0 -46 5q-10 1 -19 5zM145 700v105h265v-105h-265z" />
    <glyph glyph-name="uni04EF" unicode="&#x4ef;" horiz-adv-x="490" 
d="M80 -160v115q71 0 95 65l-175 440h145l100 -285l100 285h145l-185 -460q-36 -88 -77 -126.5t-103 -38.5q-12 0 -30 2zM115 520v105h265v-105h-265z" />
    <glyph glyph-name="uni04F0" unicode="&#x4f0;" horiz-adv-x="552" 
d="M75 0v130l13 -3q16 -2 32 -2q38 0 65 27q13 13 20 28l-205 450h150l125 -280l125 280h150l-200 -450q-49 -109 -93 -149.5t-117 -40.5q-24 0 -46 5q-10 1 -19 5zM115 760q0 30 20 50t50 20t50 -20t20 -50t-20 -50t-50 -20t-50 20t-20 50zM300 760q0 30 20 50t50 20
t50 -20t20 -50t-20 -50t-50 -20t-50 20t-20 50z" />
    <glyph glyph-name="uni04F1" unicode="&#x4f1;" horiz-adv-x="490" 
d="M80 -160v115q71 0 95 65l-175 440h145l100 -285l100 285h145l-185 -460q-36 -88 -77 -126.5t-103 -38.5q-12 0 -30 2zM90 580q0 30 20 50t50 20t50 -20t20 -50t-20 -50t-50 -20t-50 20t-20 50zM275 580q0 30 20 50t50 20t50 -20t20 -50t-20 -50t-50 -20t-50 20t-20 50z
" />
    <glyph glyph-name="Wgrave" unicode="&#x1e80;" horiz-adv-x="860" 
d="M205 0l-200 630h140l120 -390l120 390h90l120 -390l120 390h140l-200 -630h-110l-115 370l-115 -370h-110zM375 695l-95 130h135l65 -130h-105z" />
    <glyph glyph-name="wgrave" unicode="&#x1e81;" horiz-adv-x="700" 
d="M155 0l-155 460h140l80 -270l85 270h90l85 -270l80 270h140l-155 -460h-115l-80 255l-80 -255h-115zM295 515l-95 130h135l65 -130h-105z" />
    <glyph glyph-name="Wacute" unicode="&#x1e82;" horiz-adv-x="860" 
d="M205 0l-200 630h140l120 -390l120 390h90l120 -390l120 390h140l-200 -630h-110l-115 370l-115 -370h-110zM375 695l65 130h135l-95 -130h-105z" />
    <glyph glyph-name="wacute" unicode="&#x1e83;" horiz-adv-x="700" 
d="M155 0l-155 460h140l80 -270l85 270h90l85 -270l80 270h140l-155 -460h-115l-80 255l-80 -255h-115zM300 515l65 130h135l-95 -130h-105z" />
    <glyph glyph-name="Wdieresis" unicode="&#x1e84;" horiz-adv-x="860" 
d="M205 0l-200 630h140l120 -390l120 390h90l120 -390l120 390h140l-200 -630h-110l-115 370l-115 -370h-110zM265 760q0 30 20 50t50 20t50 -20t20 -50t-20 -50t-50 -20t-50 20t-20 50zM450 760q0 30 20 50t50 20t50 -20t20 -50t-20 -50t-50 -20t-50 20t-20 50z" />
    <glyph glyph-name="wdieresis" unicode="&#x1e85;" horiz-adv-x="700" 
d="M155 0l-155 460h140l80 -270l85 270h90l85 -270l80 270h140l-155 -460h-115l-80 255l-80 -255h-115zM190 580q0 30 20 50t50 20t50 -20t20 -50t-20 -50t-50 -20t-50 20t-20 50zM375 580q0 30 20 50t50 20t50 -20t20 -50t-20 -50t-50 -20t-50 20t-20 50z" />
    <glyph glyph-name="uni1E9E" unicode="&#x1e9e;" horiz-adv-x="635" 
d="M60 0v420q0 91 62 150.5t163 59.5h275v-130l-105 -130q39 -9 72 -32q73 -55 73 -148q0 -84 -56.5 -137t-150.5 -53h-83v130h70q27 0 46 20t19 50t-19 50t-46 20h-70v95l100 125h-125q-30 0 -50 -20t-20 -50v-420h-155z" />
    <glyph glyph-name="uni1EA0" unicode="&#x1ea0;" horiz-adv-x="590" 
d="M225 245h140l-70 210zM-5 0l225 630h150l225 -630h-150l-40 120h-220l-40 -120h-150zM220 -130q0 30 22.5 52.5t52.5 22.5t52.5 -22.5t22.5 -52.5t-22.5 -52.5t-52.5 -22.5t-52.5 22.5t-22.5 52.5z" />
    <glyph glyph-name="uni1EA1" unicode="&#x1ea1;" horiz-adv-x="485" 
d="M340 0l-20 45q-19 -15 -38 -25q-46 -25 -97 -25q-73 0 -114 36t-41 94q0 74 63 114.5t212 40.5q0 33 -16.5 51.5t-43.5 18.5q-30 0 -49 -23q-8 -12 -11 -22l-135 10q13 72 63 113.5t137 41.5q82 0 136 -54t54 -136v-280h-100zM305 180v20q-81 0 -110.5 -15.5t-29.5 -44.5
q0 -19 15 -32t40 -13q38 0 61.5 23.5t23.5 61.5zM160 -130q0 30 22.5 52.5t52.5 22.5t52.5 -22.5t22.5 -52.5t-22.5 -52.5t-52.5 -22.5t-52.5 22.5t-22.5 52.5z" />
    <glyph glyph-name="uni1EA2" unicode="&#x1ea2;" horiz-adv-x="590" 
d="M225 245h140l-70 210zM-5 0l225 630h150l225 -630h-150l-40 120h-220l-40 -120h-150zM205 790v65l14 5q15 5 41 5q52 0 81 -25t29 -65q0 -36 -20 -63q-6 -8 -20 -22h-75q8 10 12 19q13 20 13 41q0 19 -13.5 32t-36.5 13q-6 0 -18 -3z" />
    <glyph glyph-name="uni1EA3" unicode="&#x1ea3;" horiz-adv-x="485" 
d="M340 0l-20 45q-19 -15 -38 -25q-46 -25 -97 -25q-73 0 -114 36t-41 94q0 74 63 114.5t212 40.5q0 33 -16.5 51.5t-43.5 18.5q-30 0 -49 -23q-8 -12 -11 -22l-135 10q13 72 63 113.5t137 41.5q82 0 136 -54t54 -136v-280h-100zM305 180v20q-81 0 -110.5 -15.5t-29.5 -44.5
q0 -19 15 -32t40 -13q38 0 61.5 23.5t23.5 61.5zM165 610v65l14 5q15 5 41 5q52 0 81 -25t29 -65q0 -36 -20 -63q-6 -8 -20 -22h-75q8 10 12 19q13 20 13 41q0 19 -13.5 32t-36.5 13q-6 0 -18 -3z" />
    <glyph glyph-name="uni1EA4" unicode="&#x1ea4;" horiz-adv-x="590" 
d="M225 245h140l-70 210zM-5 0l225 630h150l225 -630h-150l-40 120h-220l-40 -120h-150zM150 700l85 130h120l85 -130h-115l-30 60l-30 -60h-115zM410 780l60 110h125l-90 -110h-95z" />
    <glyph glyph-name="uni1EA5" unicode="&#x1ea5;" horiz-adv-x="485" 
d="M340 0l-20 45q-19 -15 -38 -25q-46 -25 -97 -25q-73 0 -114 36t-41 94q0 74 63 114.5t212 40.5q0 33 -16.5 51.5t-43.5 18.5q-30 0 -49 -23q-8 -12 -11 -22l-135 10q13 72 63 113.5t137 41.5q82 0 136 -54t54 -136v-280h-100zM305 180v20q-81 0 -110.5 -15.5t-29.5 -44.5
q0 -19 15 -32t40 -13q38 0 61.5 23.5t23.5 61.5zM110 520l85 130h120l85 -130h-115l-30 60l-30 -60h-115zM370 600l60 110h125l-90 -110h-95z" />
    <glyph glyph-name="uni1EA6" unicode="&#x1ea6;" horiz-adv-x="590" 
d="M225 245h140l-70 210zM-5 0l225 630h150l225 -630h-150l-40 120h-220l-40 -120h-150zM150 700l85 130h120l85 -130h-115l-30 60l-30 -60h-115zM440 780l-90 110h125l60 -110h-95z" />
    <glyph glyph-name="uni1EA7" unicode="&#x1ea7;" horiz-adv-x="485" 
d="M340 0l-20 45q-19 -15 -38 -25q-46 -25 -97 -25q-73 0 -114 36t-41 94q0 74 63 114.5t212 40.5q0 33 -16.5 51.5t-43.5 18.5q-30 0 -49 -23q-8 -12 -11 -22l-135 10q13 72 63 113.5t137 41.5q82 0 136 -54t54 -136v-280h-100zM305 180v20q-81 0 -110.5 -15.5t-29.5 -44.5
q0 -19 15 -32t40 -13q38 0 61.5 23.5t23.5 61.5zM110 520l85 130h120l85 -130h-115l-30 60l-30 -60h-115zM400 600l-90 110h125l60 -110h-95z" />
    <glyph glyph-name="uni1EA8" unicode="&#x1ea8;" horiz-adv-x="590" 
d="M225 245h140l-70 210zM-5 0l225 630h150l225 -630h-150l-40 120h-220l-40 -120h-150zM150 700l85 130h120l85 -130h-115l-30 60l-30 -60h-115zM370 870v65l14 5q15 5 41 5q47 0 73.5 -22.5t26.5 -57.5q0 -36 -20 -63q-6 -8 -20 -22h-75q8 10 12 19q13 20 13 41
q0 15 -11 25t-29 10q-6 0 -18 -3z" />
    <glyph glyph-name="uni1EA9" unicode="&#x1ea9;" horiz-adv-x="485" 
d="M340 0l-20 45q-19 -15 -38 -25q-46 -25 -97 -25q-73 0 -114 36t-41 94q0 74 63 114.5t212 40.5q0 33 -16.5 51.5t-43.5 18.5q-30 0 -49 -23q-8 -12 -11 -22l-135 10q13 72 63 113.5t137 41.5q82 0 136 -54t54 -136v-280h-100zM305 180v20q-81 0 -110.5 -15.5t-29.5 -44.5
q0 -19 15 -32t40 -13q38 0 61.5 23.5t23.5 61.5zM110 520l85 130h120l85 -130h-115l-30 60l-30 -60h-115zM330 690v65l14 5q15 5 41 5q47 0 73.5 -22.5t26.5 -57.5q0 -36 -20 -63q-6 -8 -20 -22h-75q8 10 12 19q13 20 13 41q0 15 -11 25t-29 10q-6 0 -18 -3z" />
    <glyph glyph-name="uni1EAA" unicode="&#x1eaa;" horiz-adv-x="590" 
d="M225 245h140l-70 210zM-5 0l225 630h150l225 -630h-150l-40 120h-220l-40 -120h-150zM150 700l85 120h120l85 -120h-115l-30 50l-30 -50h-115zM225 840l-75 10q0 115 90 115q27 0 62.5 -20t47.5 -20q25 0 25 40l75 -10q0 -115 -90 -115q-27 0 -62.5 20t-47.5 20
q-25 0 -25 -40z" />
    <glyph glyph-name="uni1EAB" unicode="&#x1eab;" horiz-adv-x="485" 
d="M340 0l-20 45q-19 -15 -38 -25q-46 -25 -97 -25q-73 0 -114 36t-41 94q0 74 63 114.5t212 40.5q0 33 -16.5 51.5t-43.5 18.5q-30 0 -49 -23q-8 -12 -11 -22l-135 10q13 72 63 113.5t137 41.5q82 0 136 -54t54 -136v-280h-100zM305 180v20q-81 0 -110.5 -15.5t-29.5 -44.5
q0 -19 15 -32t40 -13q38 0 61.5 23.5t23.5 61.5zM110 520l85 120h120l85 -120h-115l-30 50l-30 -50h-115zM185 660l-75 10q0 115 90 115q27 0 62.5 -20t47.5 -20q25 0 25 40l75 -10q0 -115 -90 -115q-27 0 -62.5 20t-47.5 20q-25 0 -25 -40z" />
    <glyph glyph-name="uni1EAC" unicode="&#x1eac;" horiz-adv-x="590" 
d="M135 700l100 130h120l100 -130h-115l-45 60l-45 -60h-115zM225 245h140l-70 210zM-5 0l225 630h150l225 -630h-150l-40 120h-220l-40 -120h-150zM220 -130q0 30 22.5 52.5t52.5 22.5t52.5 -22.5t22.5 -52.5t-22.5 -52.5t-52.5 -22.5t-52.5 22.5t-22.5 52.5z" />
    <glyph glyph-name="uni1EAD" unicode="&#x1ead;" horiz-adv-x="485" 
d="M95 520l100 130h120l100 -130h-115l-45 60l-45 -60h-115zM340 0l-20 45q-19 -15 -38 -25q-46 -25 -97 -25q-73 0 -114 36t-41 94q0 74 63 114.5t212 40.5q0 33 -16.5 51.5t-43.5 18.5q-30 0 -49 -23q-8 -12 -11 -22l-135 10q13 72 63 113.5t137 41.5q82 0 136 -54
t54 -136v-280h-100zM305 180v20q-81 0 -110.5 -15.5t-29.5 -44.5q0 -19 15 -32t40 -13q38 0 61.5 23.5t23.5 61.5zM160 -130q0 30 22.5 52.5t52.5 22.5t52.5 -22.5t22.5 -52.5t-22.5 -52.5t-52.5 -22.5t-52.5 22.5t-22.5 52.5z" />
    <glyph glyph-name="uni1EAE" unicode="&#x1eae;" horiz-adv-x="590" 
d="M225 245h140l-70 210zM-5 0l225 630h150l225 -630h-150l-40 120h-220l-40 -120h-150zM150 820h85q4 -26 20.5 -43t39.5 -17t39.5 17t20.5 43h85q-8 -58 -47 -94t-98 -36t-98 36t-47 94zM245 805l50 110h115l-80 -110h-85z" />
    <glyph glyph-name="uni1EAF" unicode="&#x1eaf;" horiz-adv-x="485" 
d="M340 0l-20 45q-19 -15 -38 -25q-46 -25 -97 -25q-73 0 -114 36t-41 94q0 74 63 114.5t212 40.5q0 33 -16.5 51.5t-43.5 18.5q-30 0 -49 -23q-8 -12 -11 -22l-135 10q13 72 63 113.5t137 41.5q82 0 136 -54t54 -136v-280h-100zM305 180v20q-81 0 -110.5 -15.5t-29.5 -44.5
q0 -19 15 -32t40 -13q38 0 61.5 23.5t23.5 61.5zM110 640h85q4 -26 20.5 -43t39.5 -17t39.5 17t20.5 43h85q-8 -58 -47 -94t-98 -36t-98 36t-47 94zM205 625l50 110h115l-80 -110h-85z" />
    <glyph glyph-name="uni1EB0" unicode="&#x1eb0;" horiz-adv-x="590" 
d="M225 245h140l-70 210zM-5 0l225 630h150l225 -630h-150l-40 120h-220l-40 -120h-150zM150 820h85q4 -26 20.5 -43t39.5 -17t39.5 17t20.5 43h85q-8 -58 -47 -94t-98 -36t-98 36t-47 94zM260 805l-80 110h115l50 -110h-85z" />
    <glyph glyph-name="uni1EB1" unicode="&#x1eb1;" horiz-adv-x="485" 
d="M340 0l-20 45q-19 -15 -38 -25q-46 -25 -97 -25q-73 0 -114 36t-41 94q0 74 63 114.5t212 40.5q0 33 -16.5 51.5t-43.5 18.5q-30 0 -49 -23q-8 -12 -11 -22l-135 10q13 72 63 113.5t137 41.5q82 0 136 -54t54 -136v-280h-100zM305 180v20q-81 0 -110.5 -15.5t-29.5 -44.5
q0 -19 15 -32t40 -13q38 0 61.5 23.5t23.5 61.5zM110 640h85q4 -26 20.5 -43t39.5 -17t39.5 17t20.5 43h85q-8 -58 -47 -94t-98 -36t-98 36t-47 94zM220 625l-80 110h115l50 -110h-85z" />
    <glyph glyph-name="uni1EB2" unicode="&#x1eb2;" horiz-adv-x="590" 
d="M225 245h140l-70 210zM-5 0l225 630h150l225 -630h-150l-40 120h-220l-40 -120h-150zM150 820h85q4 -26 20.5 -43t39.5 -17t39.5 17t20.5 43h85q-8 -58 -47 -94t-98 -36t-98 36t-47 94zM210 895v65l14 5q15 5 41 5q47 0 73.5 -22.5t26.5 -57.5q0 -36 -20 -63
q-6 -8 -20 -22h-75q8 10 12 19q13 20 13 41q0 15 -11 25t-29 10q-6 0 -18 -3z" />
    <glyph glyph-name="uni1EB3" unicode="&#x1eb3;" horiz-adv-x="485" 
d="M340 0l-20 45q-19 -15 -38 -25q-46 -25 -97 -25q-73 0 -114 36t-41 94q0 74 63 114.5t212 40.5q0 33 -16.5 51.5t-43.5 18.5q-30 0 -49 -23q-8 -12 -11 -22l-135 10q13 72 63 113.5t137 41.5q82 0 136 -54t54 -136v-280h-100zM305 180v20q-81 0 -110.5 -15.5t-29.5 -44.5
q0 -19 15 -32t40 -13q38 0 61.5 23.5t23.5 61.5zM110 640h85q4 -26 20.5 -43t39.5 -17t39.5 17t20.5 43h85q-8 -58 -47 -94t-98 -36t-98 36t-47 94zM170 715v65l14 5q15 5 41 5q47 0 73.5 -22.5t26.5 -57.5q0 -36 -20 -63q-6 -8 -20 -22h-75q8 10 12 19q13 20 13 41
q0 15 -11 25t-29 10q-6 0 -18 -3z" />
    <glyph glyph-name="uni1EB4" unicode="&#x1eb4;" horiz-adv-x="590" 
d="M225 245h140l-70 210zM-5 0l225 630h150l225 -630h-150l-40 120h-220l-40 -120h-150zM150 820h85q4 -26 20.5 -43t39.5 -17t39.5 17t20.5 43h85q-8 -58 -47 -94t-98 -36t-98 36t-47 94zM225 840l-75 10q0 115 90 115q27 0 62.5 -20t47.5 -20q25 0 25 40l75 -10
q0 -115 -90 -115q-27 0 -62.5 20t-47.5 20q-25 0 -25 -40z" />
    <glyph glyph-name="uni1EB5" unicode="&#x1eb5;" horiz-adv-x="485" 
d="M340 0l-20 45q-19 -15 -38 -25q-46 -25 -97 -25q-73 0 -114 36t-41 94q0 74 63 114.5t212 40.5q0 33 -16.5 51.5t-43.5 18.5q-30 0 -49 -23q-8 -12 -11 -22l-135 10q13 72 63 113.5t137 41.5q82 0 136 -54t54 -136v-280h-100zM305 180v20q-81 0 -110.5 -15.5t-29.5 -44.5
q0 -19 15 -32t40 -13q38 0 61.5 23.5t23.5 61.5zM110 640h85q4 -26 20.5 -43t39.5 -17t39.5 17t20.5 43h85q-8 -58 -47 -94t-98 -36t-98 36t-47 94zM185 660l-75 10q0 115 90 115q27 0 62.5 -20t47.5 -20q25 0 25 40l75 -10q0 -115 -90 -115q-27 0 -62.5 20t-47.5 20
q-25 0 -25 -40z" />
    <glyph glyph-name="uni1EB6" unicode="&#x1eb6;" horiz-adv-x="590" 
d="M150 820h95q4 -23 17.5 -36.5t32.5 -13.5t32.5 13.5t17.5 36.5h95q-8 -58 -47 -94t-98 -36t-98 36t-47 94zM225 245h140l-70 210zM-5 0l225 630h150l225 -630h-150l-40 120h-220l-40 -120h-150zM220 -130q0 30 22.5 52.5t52.5 22.5t52.5 -22.5t22.5 -52.5t-22.5 -52.5
t-52.5 -22.5t-52.5 22.5t-22.5 52.5z" />
    <glyph glyph-name="uni1EB7" unicode="&#x1eb7;" horiz-adv-x="485" 
d="M110 640h95q4 -23 17.5 -36.5t32.5 -13.5t32.5 13.5t17.5 36.5h95q-8 -58 -47 -94t-98 -36t-98 36t-47 94zM340 0l-20 45q-19 -15 -38 -25q-46 -25 -97 -25q-73 0 -114 36t-41 94q0 74 63 114.5t212 40.5q0 33 -16.5 51.5t-43.5 18.5q-30 0 -49 -23q-8 -12 -11 -22
l-135 10q13 72 63 113.5t137 41.5q82 0 136 -54t54 -136v-280h-100zM305 180v20q-81 0 -110.5 -15.5t-29.5 -44.5q0 -19 15 -32t40 -13q38 0 61.5 23.5t23.5 61.5zM160 -130q0 30 22.5 52.5t52.5 22.5t52.5 -22.5t22.5 -52.5t-22.5 -52.5t-52.5 -22.5t-52.5 22.5t-22.5 52.5
z" />
    <glyph glyph-name="uni1EB8" unicode="&#x1eb8;" horiz-adv-x="560" 
d="M60 0v630h450v-140h-305v-100h280v-140h-280v-110h315v-140h-460zM215 -130q0 30 22.5 52.5t52.5 22.5t52.5 -22.5t22.5 -52.5t-22.5 -52.5t-52.5 -22.5t-52.5 22.5t-22.5 52.5z" />
    <glyph glyph-name="uni1EB9" unicode="&#x1eb9;" horiz-adv-x="515" 
d="M335 145l140 -10q-20 -62 -75.5 -103.5t-139.5 -41.5q-94 0 -162 70t-68 170q0 101 68.5 170.5t166.5 69.5q96 0 160.5 -66.5t64.5 -173.5q0 -3 -3 -30l-2 -15h-315q9 -29 34 -49.5t61 -20.5q33 0 54 15q10 6 16 15zM170 270h190q-9 32 -34 53.5t-61 21.5t-61 -21.5
t-34 -53.5zM185 -130q0 30 22.5 52.5t52.5 22.5t52.5 -22.5t22.5 -52.5t-22.5 -52.5t-52.5 -22.5t-52.5 22.5t-22.5 52.5z" />
    <glyph glyph-name="uni1EBA" unicode="&#x1eba;" horiz-adv-x="560" 
d="M60 0v630h450v-140h-305v-100h280v-140h-280v-110h315v-140h-460zM210 790v65l14 5q15 5 41 5q52 0 81 -25t29 -65q0 -36 -20 -63q-6 -8 -20 -22h-75q8 10 12 19q13 20 13 41q0 19 -13.5 32t-36.5 13q-6 0 -18 -3z" />
    <glyph glyph-name="uni1EBB" unicode="&#x1ebb;" horiz-adv-x="515" 
d="M335 145l140 -10q-20 -62 -75.5 -103.5t-139.5 -41.5q-94 0 -162 70t-68 170q0 101 68.5 170.5t166.5 69.5q96 0 160.5 -66.5t64.5 -173.5q0 -3 -3 -30l-2 -15h-315q9 -29 34 -49.5t61 -20.5q33 0 54 15q10 6 16 15zM170 270h190q-9 32 -34 53.5t-61 21.5t-61 -21.5
t-34 -53.5zM180 610v65l14 5q15 5 41 5q52 0 81 -25t29 -65q0 -36 -20 -63q-6 -8 -20 -22h-75q8 10 12 19q13 20 13 41q0 19 -13.5 32t-36.5 13q-6 0 -18 -3z" />
    <glyph glyph-name="uni1EBC" unicode="&#x1ebc;" horiz-adv-x="560" 
d="M60 0v630h450v-140h-305v-100h280v-140h-280v-110h315v-140h-460zM210 685l-75 10q0 61 25 93t65 32q33 0 66 -22.5t44 -22.5q35 0 35 45l75 -10q0 -61 -25 -93t-65 -32q-34 0 -66 22.5t-44 22.5q-15 0 -25 -11.5t-10 -33.5z" />
    <glyph glyph-name="uni1EBD" unicode="&#x1ebd;" horiz-adv-x="515" 
d="M335 145l140 -10q-20 -62 -75.5 -103.5t-139.5 -41.5q-94 0 -162 70t-68 170q0 101 68.5 170.5t166.5 69.5q96 0 160.5 -66.5t64.5 -173.5q0 -3 -3 -30l-2 -15h-315q9 -29 34 -49.5t61 -20.5q33 0 54 15q10 6 16 15zM170 270h190q-9 32 -34 53.5t-61 21.5t-61 -21.5
t-34 -53.5zM185 510l-75 10q0 61 25 93t65 32q33 0 66 -22.5t44 -22.5q35 0 35 45l75 -10q0 -61 -25 -93t-65 -32q-34 0 -66 22.5t-44 22.5q-15 0 -25 -11.5t-10 -33.5z" />
    <glyph glyph-name="uni1EBE" unicode="&#x1ebe;" horiz-adv-x="560" 
d="M60 0v630h450v-140h-305v-100h280v-140h-280v-110h315v-140h-460zM140 700l85 130h120l85 -130h-115l-30 60l-30 -60h-115zM400 780l60 110h125l-90 -110h-95z" />
    <glyph glyph-name="uni1EBF" unicode="&#x1ebf;" horiz-adv-x="515" 
d="M335 145l140 -10q-20 -62 -75.5 -103.5t-139.5 -41.5q-94 0 -162 70t-68 170q0 101 68.5 170.5t166.5 69.5q96 0 160.5 -66.5t64.5 -173.5q0 -3 -3 -30l-2 -15h-315q9 -29 34 -49.5t61 -20.5q33 0 54 15q10 6 16 15zM170 270h190q-9 32 -34 53.5t-61 21.5t-61 -21.5
t-34 -53.5zM120 520l85 130h120l85 -130h-115l-30 60l-30 -60h-115zM380 600l60 110h125l-90 -110h-95z" />
    <glyph glyph-name="uni1EC0" unicode="&#x1ec0;" horiz-adv-x="560" 
d="M60 0v630h450v-140h-305v-100h280v-140h-280v-110h315v-140h-460zM140 700l85 130h120l85 -130h-115l-30 60l-30 -60h-115zM430 780l-90 110h125l60 -110h-95z" />
    <glyph glyph-name="uni1EC1" unicode="&#x1ec1;" horiz-adv-x="515" 
d="M335 145l140 -10q-20 -62 -75.5 -103.5t-139.5 -41.5q-94 0 -162 70t-68 170q0 101 68.5 170.5t166.5 69.5q96 0 160.5 -66.5t64.5 -173.5q0 -3 -3 -30l-2 -15h-315q9 -29 34 -49.5t61 -20.5q33 0 54 15q10 6 16 15zM170 270h190q-9 32 -34 53.5t-61 21.5t-61 -21.5
t-34 -53.5zM120 520l85 130h120l85 -130h-115l-30 60l-30 -60h-115zM410 600l-90 110h125l60 -110h-95z" />
    <glyph glyph-name="uni1EC2" unicode="&#x1ec2;" horiz-adv-x="560" 
d="M60 0v630h450v-140h-305v-100h280v-140h-280v-110h315v-140h-460zM140 700l85 130h120l85 -130h-115l-30 60l-30 -60h-115zM360 870v65l14 5q15 5 41 5q47 0 73.5 -22.5t26.5 -57.5q0 -36 -20 -63q-6 -8 -20 -22h-75q8 10 12 19q13 20 13 41q0 15 -11 25t-29 10
q-6 0 -18 -3z" />
    <glyph glyph-name="uni1EC3" unicode="&#x1ec3;" horiz-adv-x="515" 
d="M335 145l140 -10q-20 -62 -75.5 -103.5t-139.5 -41.5q-94 0 -162 70t-68 170q0 101 68.5 170.5t166.5 69.5q96 0 160.5 -66.5t64.5 -173.5q0 -3 -3 -30l-2 -15h-315q9 -29 34 -49.5t61 -20.5q33 0 54 15q10 6 16 15zM170 270h190q-9 32 -34 53.5t-61 21.5t-61 -21.5
t-34 -53.5zM120 520l85 130h120l85 -130h-115l-30 60l-30 -60h-115zM340 690v65l14 5q15 5 41 5q47 0 73.5 -22.5t26.5 -57.5q0 -36 -20 -63q-6 -8 -20 -22h-75q8 10 12 19q13 20 13 41q0 15 -11 25t-29 10q-6 0 -18 -3z" />
    <glyph glyph-name="uni1EC4" unicode="&#x1ec4;" horiz-adv-x="560" 
d="M60 0v630h450v-140h-305v-100h280v-140h-280v-110h315v-140h-460zM140 700l85 120h120l85 -120h-115l-30 50l-30 -50h-115zM215 840l-75 10q0 115 90 115q27 0 62.5 -20t47.5 -20q25 0 25 40l75 -10q0 -115 -90 -115q-27 0 -62.5 20t-47.5 20q-25 0 -25 -40z" />
    <glyph glyph-name="uni1EC5" unicode="&#x1ec5;" horiz-adv-x="515" 
d="M335 145l140 -10q-20 -62 -75.5 -103.5t-139.5 -41.5q-94 0 -162 70t-68 170q0 101 68.5 170.5t166.5 69.5q96 0 160.5 -66.5t64.5 -173.5q0 -3 -3 -30l-2 -15h-315q9 -29 34 -49.5t61 -20.5q33 0 54 15q10 6 16 15zM170 270h190q-9 32 -34 53.5t-61 21.5t-61 -21.5
t-34 -53.5zM120 520l85 120h120l85 -120h-115l-30 50l-30 -50h-115zM195 660l-75 10q0 115 90 115q27 0 62.5 -20t47.5 -20q25 0 25 40l75 -10q0 -115 -90 -115q-27 0 -62.5 20t-47.5 20q-25 0 -25 -40z" />
    <glyph glyph-name="uni1EC6" unicode="&#x1ec6;" horiz-adv-x="560" 
d="M125 700l100 130h120l100 -130h-115l-45 60l-45 -60h-115zM60 0v630h450v-140h-305v-100h280v-140h-280v-110h315v-140h-460zM215 -130q0 30 22.5 52.5t52.5 22.5t52.5 -22.5t22.5 -52.5t-22.5 -52.5t-52.5 -22.5t-52.5 22.5t-22.5 52.5z" />
    <glyph glyph-name="uni1EC7" unicode="&#x1ec7;" horiz-adv-x="515" 
d="M105 520l100 130h120l100 -130h-115l-45 60l-45 -60h-115zM335 145l140 -10q-20 -62 -75.5 -103.5t-139.5 -41.5q-94 0 -162 70t-68 170q0 101 68.5 170.5t166.5 69.5q96 0 160.5 -66.5t64.5 -173.5q0 -3 -3 -30l-2 -15h-315q9 -29 34 -49.5t61 -20.5q33 0 54 15
q10 6 16 15zM170 270h190q-9 32 -34 53.5t-61 21.5t-61 -21.5t-34 -53.5zM185 -130q0 30 22.5 52.5t52.5 22.5t52.5 -22.5t22.5 -52.5t-22.5 -52.5t-52.5 -22.5t-52.5 22.5t-22.5 52.5z" />
    <glyph glyph-name="uni1EC8" unicode="&#x1ec8;" horiz-adv-x="265" 
d="M60 0v630h145v-630h-145zM45 790v65l14 5q15 5 41 5q52 0 81 -25t29 -65q0 -36 -20 -63q-6 -8 -20 -22h-75q8 10 12 19q13 20 13 41q0 19 -13.5 32t-36.5 13q-6 0 -18 -3z" />
    <glyph glyph-name="uni1EC9" unicode="&#x1ec9;" horiz-adv-x="235" 
d="M50 0v460h135v-460h-135zM30 610v65l14 5q15 5 41 5q52 0 81 -25t29 -65q0 -36 -20 -63q-6 -8 -20 -22h-75q8 10 12 19q13 20 13 41q0 19 -13.5 32t-36.5 13q-6 0 -18 -3z" />
    <glyph glyph-name="uni1ECA" unicode="&#x1eca;" horiz-adv-x="265" 
d="M60 0v630h145v-630h-145zM55 -130q0 30 22.5 52.5t52.5 22.5t52.5 -22.5t22.5 -52.5t-22.5 -52.5t-52.5 -22.5t-52.5 22.5t-22.5 52.5z" />
    <glyph glyph-name="uni1ECB" unicode="&#x1ecb;" horiz-adv-x="235" 
d="M50 0v460h135v-460h-135zM45 585q0 30 22.5 52.5t52.5 22.5t52.5 -22.5t22.5 -52.5t-22.5 -52.5t-52.5 -22.5t-52.5 22.5t-22.5 52.5zM50 -130q0 30 22.5 52.5t52.5 22.5t52.5 -22.5t22.5 -52.5t-22.5 -52.5t-52.5 -22.5t-52.5 22.5t-22.5 52.5z" />
    <glyph glyph-name="uni1ECC" unicode="&#x1ecc;" horiz-adv-x="680" 
d="M340 135q69 0 117 51.5t48 128.5t-48 128.5t-117 51.5t-117 -51.5t-48 -128.5t48 -128.5t117 -51.5zM340 -5q-129 0 -219.5 93t-90.5 227t90.5 227t219.5 93t219.5 -93t90.5 -227t-90.5 -227t-219.5 -93zM265 -130q0 30 22.5 52.5t52.5 22.5t52.5 -22.5t22.5 -52.5
t-22.5 -52.5t-52.5 -22.5t-52.5 22.5t-22.5 52.5z" />
    <glyph glyph-name="uni1ECD" unicode="&#x1ecd;" horiz-adv-x="530" 
d="M30 230q0 101 68.5 170.5t166.5 69.5t166.5 -69.5t68.5 -170.5t-68.5 -170.5t-166.5 -69.5t-166.5 69.5t-68.5 170.5zM365 230q0 52 -28.5 83.5t-71.5 31.5t-71.5 -31.5t-28.5 -83.5t28.5 -83.5t71.5 -31.5t71.5 31.5t28.5 83.5zM190 -130q0 30 22.5 52.5t52.5 22.5
t52.5 -22.5t22.5 -52.5t-22.5 -52.5t-52.5 -22.5t-52.5 22.5t-22.5 52.5z" />
    <glyph glyph-name="uni1ECE" unicode="&#x1ece;" horiz-adv-x="680" 
d="M340 135q69 0 117 51.5t48 128.5t-48 128.5t-117 51.5t-117 -51.5t-48 -128.5t48 -128.5t117 -51.5zM340 -5q-129 0 -219.5 93t-90.5 227t90.5 227t219.5 93t219.5 -93t90.5 -227t-90.5 -227t-219.5 -93zM265 790v65l14 5q15 5 41 5q52 0 81 -25t29 -65q0 -36 -20 -63
q-6 -8 -20 -22h-75q8 10 12 19q13 20 13 41q0 19 -13.5 32t-36.5 13q-6 0 -18 -3z" />
    <glyph glyph-name="uni1ECF" unicode="&#x1ecf;" horiz-adv-x="530" 
d="M30 230q0 101 68.5 170.5t166.5 69.5t166.5 -69.5t68.5 -170.5t-68.5 -170.5t-166.5 -69.5t-166.5 69.5t-68.5 170.5zM365 230q0 52 -28.5 83.5t-71.5 31.5t-71.5 -31.5t-28.5 -83.5t28.5 -83.5t71.5 -31.5t71.5 31.5t28.5 83.5zM175 610v65l14 5q15 5 41 5q52 0 81 -25
t29 -65q0 -36 -20 -63q-6 -8 -20 -22h-75q8 10 12 19q13 20 13 41q0 19 -13.5 32t-36.5 13q-6 0 -18 -3z" />
    <glyph glyph-name="uni1ED0" unicode="&#x1ed0;" horiz-adv-x="680" 
d="M340 135q69 0 117 51.5t48 128.5t-48 128.5t-117 51.5t-117 -51.5t-48 -128.5t48 -128.5t117 -51.5zM340 -5q-129 0 -219.5 93t-90.5 227t90.5 227t219.5 93t219.5 -93t90.5 -227t-90.5 -227t-219.5 -93zM195 700l85 130h120l85 -130h-115l-30 60l-30 -60h-115zM455 780
l60 110h125l-90 -110h-95z" />
    <glyph glyph-name="uni1ED1" unicode="&#x1ed1;" horiz-adv-x="530" 
d="M30 230q0 101 68.5 170.5t166.5 69.5t166.5 -69.5t68.5 -170.5t-68.5 -170.5t-166.5 -69.5t-166.5 69.5t-68.5 170.5zM365 230q0 52 -28.5 83.5t-71.5 31.5t-71.5 -31.5t-28.5 -83.5t28.5 -83.5t71.5 -31.5t71.5 31.5t28.5 83.5zM120 520l85 130h120l85 -130h-115l-30 60
l-30 -60h-115zM380 600l60 110h125l-90 -110h-95z" />
    <glyph glyph-name="uni1ED2" unicode="&#x1ed2;" horiz-adv-x="680" 
d="M340 135q69 0 117 51.5t48 128.5t-48 128.5t-117 51.5t-117 -51.5t-48 -128.5t48 -128.5t117 -51.5zM340 -5q-129 0 -219.5 93t-90.5 227t90.5 227t219.5 93t219.5 -93t90.5 -227t-90.5 -227t-219.5 -93zM195 700l85 130h120l85 -130h-115l-30 60l-30 -60h-115zM485 780
l-90 110h125l60 -110h-95z" />
    <glyph glyph-name="uni1ED3" unicode="&#x1ed3;" horiz-adv-x="530" 
d="M30 230q0 101 68.5 170.5t166.5 69.5t166.5 -69.5t68.5 -170.5t-68.5 -170.5t-166.5 -69.5t-166.5 69.5t-68.5 170.5zM365 230q0 52 -28.5 83.5t-71.5 31.5t-71.5 -31.5t-28.5 -83.5t28.5 -83.5t71.5 -31.5t71.5 31.5t28.5 83.5zM120 520l85 130h120l85 -130h-115l-30 60
l-30 -60h-115zM410 600l-90 110h125l60 -110h-95z" />
    <glyph glyph-name="uni1ED4" unicode="&#x1ed4;" horiz-adv-x="680" 
d="M340 135q69 0 117 51.5t48 128.5t-48 128.5t-117 51.5t-117 -51.5t-48 -128.5t48 -128.5t117 -51.5zM340 -5q-129 0 -219.5 93t-90.5 227t90.5 227t219.5 93t219.5 -93t90.5 -227t-90.5 -227t-219.5 -93zM195 700l85 130h120l85 -130h-115l-30 60l-30 -60h-115zM415 870
v65l14 5q15 5 41 5q47 0 73.5 -22.5t26.5 -57.5q0 -36 -20 -63q-6 -8 -20 -22h-75q8 10 12 19q13 20 13 41q0 15 -11 25t-29 10q-6 0 -18 -3z" />
    <glyph glyph-name="uni1ED5" unicode="&#x1ed5;" horiz-adv-x="530" 
d="M30 230q0 101 68.5 170.5t166.5 69.5t166.5 -69.5t68.5 -170.5t-68.5 -170.5t-166.5 -69.5t-166.5 69.5t-68.5 170.5zM365 230q0 52 -28.5 83.5t-71.5 31.5t-71.5 -31.5t-28.5 -83.5t28.5 -83.5t71.5 -31.5t71.5 31.5t28.5 83.5zM120 520l85 130h120l85 -130h-115l-30 60
l-30 -60h-115zM340 690v65l14 5q15 5 41 5q47 0 73.5 -22.5t26.5 -57.5q0 -36 -20 -63q-6 -8 -20 -22h-75q8 10 12 19q13 20 13 41q0 15 -11 25t-29 10q-6 0 -18 -3z" />
    <glyph glyph-name="uni1ED6" unicode="&#x1ed6;" horiz-adv-x="680" 
d="M340 135q69 0 117 51.5t48 128.5t-48 128.5t-117 51.5t-117 -51.5t-48 -128.5t48 -128.5t117 -51.5zM340 -5q-129 0 -219.5 93t-90.5 227t90.5 227t219.5 93t219.5 -93t90.5 -227t-90.5 -227t-219.5 -93zM195 700l85 120h120l85 -120h-115l-30 50l-30 -50h-115zM270 840
l-75 10q0 115 90 115q27 0 62.5 -20t47.5 -20q25 0 25 40l75 -10q0 -115 -90 -115q-27 0 -62.5 20t-47.5 20q-25 0 -25 -40z" />
    <glyph glyph-name="uni1ED7" unicode="&#x1ed7;" horiz-adv-x="530" 
d="M30 230q0 101 68.5 170.5t166.5 69.5t166.5 -69.5t68.5 -170.5t-68.5 -170.5t-166.5 -69.5t-166.5 69.5t-68.5 170.5zM365 230q0 52 -28.5 83.5t-71.5 31.5t-71.5 -31.5t-28.5 -83.5t28.5 -83.5t71.5 -31.5t71.5 31.5t28.5 83.5zM120 520l85 120h120l85 -120h-115l-30 50
l-30 -50h-115zM195 660l-75 10q0 115 90 115q27 0 62.5 -20t47.5 -20q25 0 25 40l75 -10q0 -115 -90 -115q-27 0 -62.5 20t-47.5 20q-25 0 -25 -40z" />
    <glyph glyph-name="uni1ED8" unicode="&#x1ed8;" horiz-adv-x="680" 
d="M180 700l100 130h120l100 -130h-115l-45 60l-45 -60h-115zM340 135q69 0 117 51.5t48 128.5t-48 128.5t-117 51.5t-117 -51.5t-48 -128.5t48 -128.5t117 -51.5zM340 -5q-129 0 -219.5 93t-90.5 227t90.5 227t219.5 93t219.5 -93t90.5 -227t-90.5 -227t-219.5 -93z
M265 -130q0 30 22.5 52.5t52.5 22.5t52.5 -22.5t22.5 -52.5t-22.5 -52.5t-52.5 -22.5t-52.5 22.5t-22.5 52.5z" />
    <glyph glyph-name="uni1ED9" unicode="&#x1ed9;" horiz-adv-x="530" 
d="M105 520l100 130h120l100 -130h-115l-45 60l-45 -60h-115zM30 230q0 101 68.5 170.5t166.5 69.5t166.5 -69.5t68.5 -170.5t-68.5 -170.5t-166.5 -69.5t-166.5 69.5t-68.5 170.5zM365 230q0 52 -28.5 83.5t-71.5 31.5t-71.5 -31.5t-28.5 -83.5t28.5 -83.5t71.5 -31.5
t71.5 31.5t28.5 83.5zM190 -130q0 30 22.5 52.5t52.5 22.5t52.5 -22.5t22.5 -52.5t-22.5 -52.5t-52.5 -22.5t-52.5 22.5t-22.5 52.5z" />
    <glyph glyph-name="uni1EDA" unicode="&#x1eda;" horiz-adv-x="680" 
d="M520 575h25q18 0 29 10t11 25q0 17 -8 39l-7 16h85q5 -6 10 -18q10 -22 10 -47q0 -52 -43 -79q-21 -12 -42 -16q15 -21 30 -52q30 -66 30 -138q0 -134 -90.5 -227t-219.5 -93t-219.5 93t-90.5 227t90.5 227t219.5 93q69 0 131 -30q25 -13 49 -30zM340 135q69 0 117 51.5
t48 128.5t-48 128.5t-117 51.5t-117 -51.5t-48 -128.5t48 -128.5t117 -51.5zM290 700l65 130h135l-95 -130h-105z" />
    <glyph glyph-name="uni1EDB" unicode="&#x1edb;" horiz-adv-x="550" 
d="M415 415h15q18 0 29 10t11 25q0 17 -8 39l-7 16h85q5 -6 10 -18q10 -22 10 -47q0 -54 -45 -79q-22 -12 -45 -16q8 -15 15 -31q15 -43 15 -84q0 -101 -68.5 -170.5t-166.5 -69.5t-166.5 69.5t-68.5 170.5t68.5 170.5t166.5 69.5q61 0 111 -28q22 -12 39 -27zM265 115
q43 0 71.5 31.5t28.5 83.5t-28.5 83.5t-71.5 31.5t-71.5 -31.5t-28.5 -83.5t28.5 -83.5t71.5 -31.5zM215 520l65 130h135l-95 -130h-105z" />
    <glyph glyph-name="uni1EDC" unicode="&#x1edc;" horiz-adv-x="680" 
d="M520 575h25q18 0 29 10t11 25q0 17 -8 39l-7 16h85q5 -6 10 -18q10 -22 10 -47q0 -52 -43 -79q-21 -12 -42 -16q15 -21 30 -52q30 -66 30 -138q0 -134 -90.5 -227t-219.5 -93t-219.5 93t-90.5 227t90.5 227t219.5 93q69 0 131 -30q25 -13 49 -30zM340 135q69 0 117 51.5
t48 128.5t-48 128.5t-117 51.5t-117 -51.5t-48 -128.5t48 -128.5t117 -51.5zM290 700l-95 130h135l65 -130h-105z" />
    <glyph glyph-name="uni1EDD" unicode="&#x1edd;" horiz-adv-x="550" 
d="M415 415h15q18 0 29 10t11 25q0 17 -8 39l-7 16h85q5 -6 10 -18q10 -22 10 -47q0 -54 -45 -79q-22 -12 -45 -16q8 -15 15 -31q15 -43 15 -84q0 -101 -68.5 -170.5t-166.5 -69.5t-166.5 69.5t-68.5 170.5t68.5 170.5t166.5 69.5q61 0 111 -28q22 -12 39 -27zM265 115
q43 0 71.5 31.5t28.5 83.5t-28.5 83.5t-71.5 31.5t-71.5 -31.5t-28.5 -83.5t28.5 -83.5t71.5 -31.5zM220 520l-95 130h135l65 -130h-105z" />
    <glyph glyph-name="uni1EDE" unicode="&#x1ede;" horiz-adv-x="680" 
d="M520 575h25q18 0 29 10t11 25q0 17 -8 39l-7 16h85q5 -6 10 -18q10 -22 10 -47q0 -52 -43 -79q-21 -12 -42 -16q15 -21 30 -52q30 -66 30 -138q0 -134 -90.5 -227t-219.5 -93t-219.5 93t-90.5 227t90.5 227t219.5 93q69 0 131 -30q25 -13 49 -30zM340 135q69 0 117 51.5
t48 128.5t-48 128.5t-117 51.5t-117 -51.5t-48 -128.5t48 -128.5t117 -51.5zM265 790v65l14 5q15 5 41 5q52 0 81 -25t29 -65q0 -36 -20 -63q-6 -8 -20 -22h-75q8 10 12 19q13 20 13 41q0 19 -13.5 32t-36.5 13q-6 0 -18 -3z" />
    <glyph glyph-name="uni1EDF" unicode="&#x1edf;" horiz-adv-x="550" 
d="M415 415h15q18 0 29 10t11 25q0 17 -8 39l-7 16h85q5 -6 10 -18q10 -22 10 -47q0 -54 -45 -79q-22 -12 -45 -16q8 -15 15 -31q15 -43 15 -84q0 -101 -68.5 -170.5t-166.5 -69.5t-166.5 69.5t-68.5 170.5t68.5 170.5t166.5 69.5q61 0 111 -28q22 -12 39 -27zM265 115
q43 0 71.5 31.5t28.5 83.5t-28.5 83.5t-71.5 31.5t-71.5 -31.5t-28.5 -83.5t28.5 -83.5t71.5 -31.5zM175 610v65l14 5q15 5 41 5q52 0 81 -25t29 -65q0 -36 -20 -63q-6 -8 -20 -22h-75q8 10 12 19q13 20 13 41q0 19 -13.5 32t-36.5 13q-6 0 -18 -3z" />
    <glyph glyph-name="uni1EE0" unicode="&#x1ee0;" horiz-adv-x="680" 
d="M520 575h25q18 0 29 10t11 25q0 17 -8 39l-7 16h85q5 -6 10 -18q10 -22 10 -47q0 -52 -43 -79q-21 -12 -42 -16q15 -21 30 -52q30 -66 30 -138q0 -134 -90.5 -227t-219.5 -93t-219.5 93t-90.5 227t90.5 227t219.5 93q69 0 131 -30q25 -13 49 -30zM340 135q69 0 117 51.5
t48 128.5t-48 128.5t-117 51.5t-117 -51.5t-48 -128.5t48 -128.5t117 -51.5zM260 685l-75 10q0 61 25 93t65 32q33 0 66 -22.5t44 -22.5q35 0 35 45l75 -10q0 -61 -25 -93t-65 -32q-34 0 -66 22.5t-44 22.5q-15 0 -25 -11.5t-10 -33.5z" />
    <glyph glyph-name="uni1EE1" unicode="&#x1ee1;" horiz-adv-x="550" 
d="M415 415h15q18 0 29 10t11 25q0 17 -8 39l-7 16h85q5 -6 10 -18q10 -22 10 -47q0 -54 -45 -79q-22 -12 -45 -16q8 -15 15 -31q15 -43 15 -84q0 -101 -68.5 -170.5t-166.5 -69.5t-166.5 69.5t-68.5 170.5t68.5 170.5t166.5 69.5q61 0 111 -28q22 -12 39 -27zM265 115
q43 0 71.5 31.5t28.5 83.5t-28.5 83.5t-71.5 31.5t-71.5 -31.5t-28.5 -83.5t28.5 -83.5t71.5 -31.5zM185 510l-75 10q0 61 25 93t65 32q33 0 66 -22.5t44 -22.5q35 0 35 45l75 -10q0 -61 -25 -93t-65 -32q-34 0 -66 22.5t-44 22.5q-15 0 -25 -11.5t-10 -33.5z" />
    <glyph glyph-name="uni1EE2" unicode="&#x1ee2;" horiz-adv-x="680" 
d="M520 575h25q18 0 29 10t11 25q0 17 -8 39l-7 16h85q5 -6 10 -18q10 -22 10 -47q0 -52 -43 -79q-21 -12 -42 -16q15 -21 30 -52q30 -66 30 -138q0 -134 -90.5 -227t-219.5 -93t-219.5 93t-90.5 227t90.5 227t219.5 93q69 0 131 -30q25 -13 49 -30zM340 135q69 0 117 51.5
t48 128.5t-48 128.5t-117 51.5t-117 -51.5t-48 -128.5t48 -128.5t117 -51.5zM265 -130q0 30 22.5 52.5t52.5 22.5t52.5 -22.5t22.5 -52.5t-22.5 -52.5t-52.5 -22.5t-52.5 22.5t-22.5 52.5z" />
    <glyph glyph-name="uni1EE3" unicode="&#x1ee3;" horiz-adv-x="550" 
d="M415 415h15q18 0 29 10t11 25q0 17 -8 39l-7 16h85q5 -6 10 -18q10 -22 10 -47q0 -54 -45 -79q-22 -12 -45 -16q8 -15 15 -31q15 -43 15 -84q0 -101 -68.5 -170.5t-166.5 -69.5t-166.5 69.5t-68.5 170.5t68.5 170.5t166.5 69.5q61 0 111 -28q22 -12 39 -27zM265 115
q43 0 71.5 31.5t28.5 83.5t-28.5 83.5t-71.5 31.5t-71.5 -31.5t-28.5 -83.5t28.5 -83.5t71.5 -31.5zM190 -130q0 30 22.5 52.5t52.5 22.5t52.5 -22.5t22.5 -52.5t-22.5 -52.5t-52.5 -22.5t-52.5 22.5t-22.5 52.5z" />
    <glyph glyph-name="uni1EE4" unicode="&#x1ee4;" horiz-adv-x="620" 
d="M50 255v375h145v-375q0 -57 30.5 -88.5t84.5 -31.5t84.5 31.5t30.5 88.5v375h145v-375q0 -116 -72 -188t-188 -72t-188 72t-72 188zM235 -130q0 30 22.5 52.5t52.5 22.5t52.5 -22.5t22.5 -52.5t-22.5 -52.5t-52.5 -22.5t-52.5 22.5t-22.5 52.5z" />
    <glyph glyph-name="uni1EE5" unicode="&#x1ee5;" 
d="M45 190v270h135v-245q0 -44 23 -69.5t62 -25.5t62 25.5t23 69.5v245h135v-460h-100l-20 45q-19 -15 -38 -25q-46 -25 -97 -25q-83 0 -134 53t-51 142zM190 -130q0 30 22.5 52.5t52.5 22.5t52.5 -22.5t22.5 -52.5t-22.5 -52.5t-52.5 -22.5t-52.5 22.5t-22.5 52.5z" />
    <glyph glyph-name="uni1EE6" unicode="&#x1ee6;" horiz-adv-x="620" 
d="M50 255v375h145v-375q0 -57 30.5 -88.5t84.5 -31.5t84.5 31.5t30.5 88.5v375h145v-375q0 -116 -72 -188t-188 -72t-188 72t-72 188zM230 790v65l14 5q15 5 41 5q52 0 81 -25t29 -65q0 -36 -20 -63q-6 -8 -20 -22h-75q8 10 12 19q13 20 13 41q0 19 -13.5 32t-36.5 13
q-6 0 -18 -3z" />
    <glyph glyph-name="uni1EE7" unicode="&#x1ee7;" 
d="M45 190v270h135v-245q0 -44 23 -69.5t62 -25.5t62 25.5t23 69.5v245h135v-460h-100l-20 45q-19 -15 -38 -25q-46 -25 -97 -25q-83 0 -134 53t-51 142zM180 610v65l14 5q15 5 41 5q52 0 81 -25t29 -65q0 -36 -20 -63q-6 -8 -20 -22h-75q8 10 12 19q13 20 13 41
q0 19 -13.5 32t-36.5 13q-6 0 -18 -3z" />
    <glyph glyph-name="uni1EE8" unicode="&#x1ee8;" horiz-adv-x="705" 
d="M50 255v375h145v-375q0 -57 30.5 -88.5t84.5 -31.5t84.5 31.5t30.5 88.5v375h145v-55h15q18 0 29 10t11 25q0 17 -8 39l-7 16h85q5 -6 10 -18q10 -22 10 -47q0 -43 -29 -69t-81 -26q-9 0 -23 2l-12 3v-255q0 -116 -72 -188t-188 -72t-188 72t-72 188zM255 700l65 130h135
l-95 -130h-105z" />
    <glyph glyph-name="uni1EE9" unicode="&#x1ee9;" horiz-adv-x="620" 
d="M45 190v270h135v-245q0 -44 23 -69.5t62 -25.5t62 25.5t23 69.5v245h135v-45h15q18 0 29 10t11 25q0 17 -8 39l-7 16h85q5 -6 10 -18q10 -22 10 -47q0 -43 -29 -69t-81 -26q-9 0 -23 2l-12 3v-350h-100l-20 45q-19 -15 -38 -25q-46 -25 -97 -25q-83 0 -134 53t-51 142z
M210 520l65 130h135l-95 -130h-105z" />
    <glyph glyph-name="uni1EEA" unicode="&#x1eea;" horiz-adv-x="705" 
d="M50 255v375h145v-375q0 -57 30.5 -88.5t84.5 -31.5t84.5 31.5t30.5 88.5v375h145v-55h15q18 0 29 10t11 25q0 17 -8 39l-7 16h85q5 -6 10 -18q10 -22 10 -47q0 -43 -29 -69t-81 -26q-9 0 -23 2l-12 3v-255q0 -116 -72 -188t-188 -72t-188 72t-72 188zM265 700l-95 130
h135l65 -130h-105z" />
    <glyph glyph-name="uni1EEB" unicode="&#x1eeb;" horiz-adv-x="620" 
d="M45 190v270h135v-245q0 -44 23 -69.5t62 -25.5t62 25.5t23 69.5v245h135v-45h15q18 0 29 10t11 25q0 17 -8 39l-7 16h85q5 -6 10 -18q10 -22 10 -47q0 -43 -29 -69t-81 -26q-9 0 -23 2l-12 3v-350h-100l-20 45q-19 -15 -38 -25q-46 -25 -97 -25q-83 0 -134 53t-51 142z
M225 520l-95 130h135l65 -130h-105z" />
    <glyph glyph-name="uni1EEC" unicode="&#x1eec;" horiz-adv-x="705" 
d="M50 255v375h145v-375q0 -57 30.5 -88.5t84.5 -31.5t84.5 31.5t30.5 88.5v375h145v-55h15q18 0 29 10t11 25q0 17 -8 39l-7 16h85q5 -6 10 -18q10 -22 10 -47q0 -43 -29 -69t-81 -26q-9 0 -23 2l-12 3v-255q0 -116 -72 -188t-188 -72t-188 72t-72 188zM230 790v65l14 5
q15 5 41 5q52 0 81 -25t29 -65q0 -36 -20 -63q-6 -8 -20 -22h-75q8 10 12 19q13 20 13 41q0 19 -13.5 32t-36.5 13q-6 0 -18 -3z" />
    <glyph glyph-name="uni1EED" unicode="&#x1eed;" horiz-adv-x="620" 
d="M45 190v270h135v-245q0 -44 23 -69.5t62 -25.5t62 25.5t23 69.5v245h135v-45h15q18 0 29 10t11 25q0 17 -8 39l-7 16h85q5 -6 10 -18q10 -22 10 -47q0 -43 -29 -69t-81 -26q-9 0 -23 2l-12 3v-350h-100l-20 45q-19 -15 -38 -25q-46 -25 -97 -25q-83 0 -134 53t-51 142z
M180 610v65l14 5q15 5 41 5q52 0 81 -25t29 -65q0 -36 -20 -63q-6 -8 -20 -22h-75q8 10 12 19q13 20 13 41q0 19 -13.5 32t-36.5 13q-6 0 -18 -3z" />
    <glyph glyph-name="uni1EEE" unicode="&#x1eee;" horiz-adv-x="705" 
d="M50 255v375h145v-375q0 -57 30.5 -88.5t84.5 -31.5t84.5 31.5t30.5 88.5v375h145v-55h15q18 0 29 10t11 25q0 17 -8 39l-7 16h85q5 -6 10 -18q10 -22 10 -47q0 -43 -29 -69t-81 -26q-9 0 -23 2l-12 3v-255q0 -116 -72 -188t-188 -72t-188 72t-72 188zM230 685l-75 10
q0 61 25 93t65 32q33 0 66 -22.5t44 -22.5q35 0 35 45l75 -10q0 -61 -25 -93t-65 -32q-34 0 -66 22.5t-44 22.5q-15 0 -25 -11.5t-10 -33.5z" />
    <glyph glyph-name="uni1EEF" unicode="&#x1eef;" horiz-adv-x="620" 
d="M45 190v270h135v-245q0 -44 23 -69.5t62 -25.5t62 25.5t23 69.5v245h135v-45h15q18 0 29 10t11 25q0 17 -8 39l-7 16h85q5 -6 10 -18q10 -22 10 -47q0 -43 -29 -69t-81 -26q-9 0 -23 2l-12 3v-350h-100l-20 45q-19 -15 -38 -25q-46 -25 -97 -25q-83 0 -134 53t-51 142z
M185 510l-75 10q0 61 25 93t65 32q33 0 66 -22.5t44 -22.5q35 0 35 45l75 -10q0 -61 -25 -93t-65 -32q-34 0 -66 22.5t-44 22.5q-15 0 -25 -11.5t-10 -33.5z" />
    <glyph glyph-name="uni1EF0" unicode="&#x1ef0;" horiz-adv-x="705" 
d="M50 255v375h145v-375q0 -57 30.5 -88.5t84.5 -31.5t84.5 31.5t30.5 88.5v375h145v-55h15q18 0 29 10t11 25q0 17 -8 39l-7 16h85q5 -6 10 -18q10 -22 10 -47q0 -43 -29 -69t-81 -26q-9 0 -23 2l-12 3v-255q0 -116 -72 -188t-188 -72t-188 72t-72 188zM235 -130
q0 30 22.5 52.5t52.5 22.5t52.5 -22.5t22.5 -52.5t-22.5 -52.5t-52.5 -22.5t-52.5 22.5t-22.5 52.5z" />
    <glyph glyph-name="uni1EF1" unicode="&#x1ef1;" horiz-adv-x="620" 
d="M45 190v270h135v-245q0 -44 23 -69.5t62 -25.5t62 25.5t23 69.5v245h135v-45h15q18 0 29 10t11 25q0 17 -8 39l-7 16h85q5 -6 10 -18q10 -22 10 -47q0 -43 -29 -69t-81 -26q-9 0 -23 2l-12 3v-350h-100l-20 45q-19 -15 -38 -25q-46 -25 -97 -25q-83 0 -134 53t-51 142z
M190 -130q0 30 22.5 52.5t52.5 22.5t52.5 -22.5t22.5 -52.5t-22.5 -52.5t-52.5 -22.5t-52.5 22.5t-22.5 52.5z" />
    <glyph glyph-name="uni1EF2" unicode="&#x1ef2;" horiz-adv-x="565" 
d="M210 0v235l-210 395h155l128 -250l127 250h155l-210 -395v-235h-145zM230 700l-95 130h135l65 -130h-105z" />
    <glyph glyph-name="uni1EF3" unicode="&#x1ef3;" horiz-adv-x="490" 
d="M80 -160v115q71 0 95 65l-175 440h145l100 -285l100 285h145l-185 -460q-36 -88 -77 -126.5t-103 -38.5q-12 0 -30 2zM195 520l-95 130h135l65 -130h-105z" />
    <glyph glyph-name="uni1EF4" unicode="&#x1ef4;" horiz-adv-x="565" 
d="M210 0v235l-210 395h155l128 -250l127 250h155l-210 -395v-235h-145zM205 -130q0 30 22.5 52.5t52.5 22.5t52.5 -22.5t22.5 -52.5t-22.5 -52.5t-52.5 -22.5t-52.5 22.5t-22.5 52.5z" />
    <glyph glyph-name="uni1EF5" unicode="&#x1ef5;" horiz-adv-x="490" 
d="M80 -160v115q71 0 95 65l-175 440h145l100 -285l100 285h145l-185 -460q-36 -88 -77 -126.5t-103 -38.5q-12 0 -30 2zM300 -130q0 30 22.5 52.5t52.5 22.5t52.5 -22.5t22.5 -52.5t-22.5 -52.5t-52.5 -22.5t-52.5 22.5t-22.5 52.5z" />
    <glyph glyph-name="uni1EF6" unicode="&#x1ef6;" horiz-adv-x="565" 
d="M210 0v235l-210 395h155l128 -250l127 250h155l-210 -395v-235h-145zM200 790v65l14 5q15 5 41 5q52 0 81 -25t29 -65q0 -36 -20 -63q-6 -8 -20 -22h-75q8 10 12 19q13 20 13 41q0 19 -13.5 32t-36.5 13q-6 0 -18 -3z" />
    <glyph glyph-name="uni1EF7" unicode="&#x1ef7;" horiz-adv-x="490" 
d="M80 -160v115q71 0 95 65l-175 440h145l100 -285l100 285h145l-185 -460q-36 -88 -77 -126.5t-103 -38.5q-12 0 -30 2zM160 610v65l14 5q15 5 41 5q52 0 81 -25t29 -65q0 -36 -20 -63q-6 -8 -20 -22h-75q8 10 12 19q13 20 13 41q0 19 -13.5 32t-36.5 13q-6 0 -18 -3z" />
    <glyph glyph-name="uni1EF8" unicode="&#x1ef8;" horiz-adv-x="565" 
d="M210 0v235l-210 395h155l128 -250l127 250h155l-210 -395v-235h-145zM200 685l-75 10q0 61 25 93t65 32q33 0 66 -22.5t44 -22.5q35 0 35 45l75 -10q0 -61 -25 -93t-65 -32q-34 0 -66 22.5t-44 22.5q-15 0 -25 -11.5t-10 -33.5z" />
    <glyph glyph-name="uni1EF9" unicode="&#x1ef9;" horiz-adv-x="490" 
d="M80 -160v115q71 0 95 65l-175 440h145l100 -285l100 285h145l-185 -460q-36 -88 -77 -126.5t-103 -38.5q-12 0 -30 2zM165 510l-75 10q0 61 25 93t65 32q33 0 66 -22.5t44 -22.5q35 0 35 45l75 -10q0 -61 -25 -93t-65 -32q-34 0 -66 22.5t-44 22.5q-15 0 -25 -11.5
t-10 -33.5z" />
    <glyph glyph-name="endash" unicode="&#x2013;" horiz-adv-x="495" 
d="M35 195v120h425v-120h-425z" />
    <glyph glyph-name="emdash" unicode="&#x2014;" horiz-adv-x="740" 
d="M35 195v120h670v-120h-670z" />
    <glyph glyph-name="quoteleft" unicode="&#x2018;" horiz-adv-x="210" 
d="M130 660l25 -35q-11 -7 -21 -18q-23 -25 -29 -52q30 0 52.5 -22.5t22.5 -52.5t-22.5 -52.5t-52.5 -22.5t-52.5 23.5t-22.5 56.5q0 78 50 134q22 25 50 41z" />
    <glyph glyph-name="quoteright" unicode="&#x2019;" horiz-adv-x="210" 
d="M80 405l-25 35q11 8 21 18q23 25 29 52q-30 0 -52.5 22.5t-22.5 52.5t22.5 52.5t52.5 22.5t52.5 -23.5t22.5 -56.5q0 -78 -50 -134q-22 -25 -50 -41z" />
    <glyph glyph-name="quotesinglbase" unicode="&#x201a;" horiz-adv-x="210" 
d="M80 -110l-25 35q11 7 21 18q23 25 29 52q-30 0 -52.5 22.5t-22.5 52.5t22.5 52.5t52.5 22.5t52.5 -23.5t22.5 -56.5q0 -78 -50 -134q-22 -25 -50 -41z" />
    <glyph glyph-name="quotedblleft" unicode="&#x201c;" horiz-adv-x="395" 
d="M315 660l25 -35q-10 -7 -21 -18q-23 -25 -29 -52q30 0 52.5 -22.5t22.5 -52.5t-22.5 -52.5t-52.5 -22.5t-52.5 23.5t-22.5 56.5q0 78 50 134q22 25 50 41zM130 660l25 -35q-11 -7 -21 -18q-23 -25 -29 -52q30 0 52.5 -22.5t22.5 -52.5t-22.5 -52.5t-52.5 -22.5
t-52.5 23.5t-22.5 56.5q0 78 50 134q22 25 50 41z" />
    <glyph glyph-name="quotedblright" unicode="&#x201d;" horiz-adv-x="395" 
d="M80 405l-25 35q11 8 21 18q23 25 29 52q-30 0 -52.5 22.5t-22.5 52.5t22.5 52.5t52.5 22.5t52.5 -23.5t22.5 -56.5q0 -78 -50 -134q-22 -25 -50 -41zM265 405l-25 35q10 8 21 18q23 25 29 52q-30 0 -52.5 22.5t-22.5 52.5t22.5 52.5t52.5 22.5t52.5 -23.5t22.5 -56.5
q0 -78 -50 -134q-22 -25 -50 -41z" />
    <glyph glyph-name="quotedblbase" unicode="&#x201e;" horiz-adv-x="395" 
d="M80 -110l-25 35q11 7 21 18q23 25 29 52q-30 0 -52.5 22.5t-22.5 52.5t22.5 52.5t52.5 22.5t52.5 -23.5t22.5 -56.5q0 -78 -50 -134q-22 -25 -50 -41zM265 -110l-25 35q10 7 21 18q23 25 29 52q-30 0 -52.5 22.5t-22.5 52.5t22.5 52.5t52.5 22.5t52.5 -23.5t22.5 -56.5
q0 -78 -50 -134q-22 -25 -50 -41z" />
    <glyph glyph-name="dagger" unicode="&#x2020;" horiz-adv-x="400" 
d="M140 165v240h-105v115h105v110h120v-110h105v-115h-105v-240h-120z" />
    <glyph glyph-name="daggerdbl" unicode="&#x2021;" horiz-adv-x="400" 
d="M35 260v100h105v75h-105v100h105v95h120v-95h105v-100h-105v-75h105v-100h-105v-95h-120v95h-105z" />
    <glyph glyph-name="bullet" unicode="&#x2022;" horiz-adv-x="380" 
d="M85 270q0 45 30 75t75 30t75 -30t30 -75t-30 -75t-75 -30t-75 30t-30 75z" />
    <glyph glyph-name="ellipsis" unicode="&#x2026;" horiz-adv-x="610" 
d="M30 70q0 30 22.5 52.5t52.5 22.5t52.5 -22.5t22.5 -52.5t-22.5 -52.5t-52.5 -22.5t-52.5 22.5t-22.5 52.5zM230 70q0 30 22.5 52.5t52.5 22.5t52.5 -22.5t22.5 -52.5t-22.5 -52.5t-52.5 -22.5t-52.5 22.5t-22.5 52.5zM430 70q0 30 22.5 52.5t52.5 22.5t52.5 -22.5
t22.5 -52.5t-22.5 -52.5t-52.5 -22.5t-52.5 22.5t-22.5 52.5z" />
    <glyph glyph-name="perthousand" unicode="&#x2030;" horiz-adv-x="980" 
d="M80 0l385 630h115l-385 -630h-115zM170 440q23 0 39 16t16 39t-16 39t-39 16t-39 -16t-16 -39t16 -39t39 -16zM30 495q0 60 40 100t100 40t100 -40t40 -100t-40 -100t-100 -40t-100 40t-40 100zM490 80q23 0 39 16t16 39t-16 39t-39 16t-39 -16t-16 -39t16 -39t39 -16z
M350 135q0 60 40 100t100 40t100 -40t40 -100t-40 -100t-100 -40t-100 40t-40 100zM810 80q23 0 39 16t16 39t-16 39t-39 16t-39 -16t-16 -39t16 -39t39 -16zM670 135q0 60 40 100t100 40t100 -40t40 -100t-40 -100t-100 -40t-100 40t-40 100z" />
    <glyph glyph-name="guilsinglleft" unicode="&#x2039;" horiz-adv-x="305" 
d="M140 65l-110 160l110 160h135l-110 -160l110 -160h-135z" />
    <glyph glyph-name="guilsinglright" unicode="&#x203a;" horiz-adv-x="305" 
d="M30 65l110 160l-110 160h135l110 -160l-110 -160h-135z" />
    <glyph glyph-name="uni203D" unicode="&#x203d;" horiz-adv-x="465" 
d="M155 190l-10 230l-130 10q8 95 64 150t146 55q98 0 156.5 -50.5t58.5 -124.5q0 -37 -14.5 -66t-35.5 -49l-42 -40t-36.5 -49t-16.5 -66h-140zM155 70q0 30 22.5 52.5t52.5 22.5t52.5 -22.5t22.5 -52.5t-22.5 -52.5t-52.5 -22.5t-52.5 22.5t-22.5 52.5zM230 505l-5 -150
q65 46 65 90q0 26 -17 43t-43 17z" />
    <glyph glyph-name="fraction" unicode="&#x2044;" horiz-adv-x="120" 
d="M-190 0l385 630h115l-385 -630h-115z" />
    <glyph glyph-name="zerosuperior" unicode="&#x2070;" horiz-adv-x="310" 
d="M115 570q0 -75 40 -75t40 75t-40 75t-40 -75zM25 570q0 73 36 114t94 41t94 -41t36 -114t-36 -114t-94 -41t-94 41t-36 114z" />
    <glyph glyph-name="foursuperior" unicode="&#x2074;" horiz-adv-x="280" 
d="M0 475v55l120 190h105v-170h35v-75h-35v-55h-90v55h-135zM90 550h50v80z" />
    <glyph glyph-name="fivesuperior" unicode="&#x2075;" horiz-adv-x="280" 
d="M30 537l20 183h190v-75h-115l-5 -35l11 5q12 5 29 5q39 0 69.5 -27.5t30.5 -67.5q0 -47 -32.5 -78.5t-87.5 -31.5q-45 0 -77 24t-43 66l90 5q3 -6 7 -10q10 -10 23 -10q12 0 21 10t9 25t-9 25t-21 10q-17 0 -24 -12q-4 -4 -6 -11h-80z" />
    <glyph glyph-name="sixsuperior" unicode="&#x2076;" horiz-adv-x="285" 
d="M65 630l65 90h95l-65 -90q44 0 77 -31.5t33 -73.5q0 -47 -35 -78.5t-90 -31.5t-90 31.5t-35 78.5q0 31 22 71q12 21 23 34zM110 525q0 -18 10 -29t25 -11t25 11t10 29t-10 29t-25 11t-25 -11t-10 -29z" />
    <glyph glyph-name="sevensuperior" unicode="&#x2077;" horiz-adv-x="255" 
d="M45 420l100 220h-120v80h220v-65l-105 -235h-95z" />
    <glyph glyph-name="eightsuperior" unicode="&#x2078;" horiz-adv-x="290" 
d="M145 475q15 0 25 10t10 25t-10 25t-25 10t-25 -10t-10 -25t10 -25t25 -10zM20 505q0 32 22 54q10 10 23 16q-11 6 -18 15q-17 21 -17 45q0 40 30 65t85 25t85 -25t30 -65q0 -23 -18 -45q-7 -8 -17 -15q12 -6 22 -16q23 -23 23 -54q0 -36 -34 -63t-91 -27t-91 27t-34 63z
M145 605q11 0 20.5 9.5t9.5 20.5t-9.5 20.5t-20.5 9.5t-20.5 -9.5t-9.5 -20.5t9.5 -20.5t20.5 -9.5z" />
    <glyph glyph-name="ninesuperior" unicode="&#x2079;" horiz-adv-x="285" 
d="M60 420l65 90q-45 0 -77.5 31.5t-32.5 73.5q0 45 35 77.5t90 32.5t90 -32.5t35 -77.5q0 -29 -23 -71q-11 -19 -22 -34l-65 -90h-95zM175 615q0 18 -10 29t-25 11t-25 -11t-10 -29t10 -29t25 -11t25 11t10 29z" />
    <glyph glyph-name="zeroinferior" unicode="&#x2080;" horiz-adv-x="310" 
d="M115 55q0 -75 40 -75t40 75t-40 75t-40 -75zM25 55q0 73 36 114t94 41t94 -41t36 -114t-36 -114t-94 -41t-94 41t-36 114z" />
    <glyph glyph-name="oneinferior" unicode="&#x2081;" horiz-adv-x="250" 
d="M90 -95v190l-35 -20l-40 65l105 65h60v-300h-90z" />
    <glyph glyph-name="twoinferior" unicode="&#x2082;" horiz-adv-x="280" 
d="M25 -95v60l90 80l25 23q25 27 25 42q0 25 -30 25q-15 0 -25 -10t-10 -25l-80 5q18 105 120 105q59 0 89.5 -27t30.5 -73q0 -24 -15 -48q-5 -7 -15 -17l-75 -65h100v-75h-230z" />
    <glyph glyph-name="threeinferior" unicode="&#x2083;" horiz-adv-x="285" 
d="M105 25v65h30q12 0 21 6t9 14q0 25 -30 25q-35 0 -35 -25l-80 5q4 44 34.5 69.5t85.5 25.5t85 -25t30 -65q0 -23 -18 -45q-7 -8 -17 -15q12 -6 22 -16q23 -23 23 -49q0 -39 -35 -67t-90 -28t-88 28t-37 72q1 0 43 2t42 3q0 -12 10.5 -21t25.5 -9q20 0 29.5 7.5t9.5 17.5
q0 25 -39 25h-31z" />
    <glyph glyph-name="fourinferior" unicode="&#x2084;" horiz-adv-x="280" 
d="M0 -40v55l120 190h105v-170h35v-75h-35v-55h-90v55h-135zM90 35h50v80z" />
    <glyph glyph-name="fiveinferior" unicode="&#x2085;" horiz-adv-x="280" 
d="M30 22l20 183h190v-75h-115l-5 -35l11 5q12 5 29 5q39 0 69.5 -27.5t30.5 -67.5q0 -47 -32.5 -78.5t-87.5 -31.5q-45 0 -77 24t-43 66l90 5q3 -6 7 -10q10 -10 23 -10q12 0 21 10t9 25t-9 25t-21 10q-17 0 -24 -12q-4 -4 -6 -11h-80z" />
    <glyph glyph-name="sixinferior" unicode="&#x2086;" horiz-adv-x="285" 
d="M65 115l65 90h95l-65 -90q44 0 77 -31.5t33 -73.5q0 -47 -35 -78.5t-90 -31.5t-90 31.5t-35 78.5q0 31 22 71q12 21 23 34zM110 10q0 -18 10 -29t25 -11t25 11t10 29t-10 29t-25 11t-25 -11t-10 -29z" />
    <glyph glyph-name="seveninferior" unicode="&#x2087;" horiz-adv-x="255" 
d="M45 -95l100 220h-120v80h220v-65l-105 -235h-95z" />
    <glyph glyph-name="eightinferior" unicode="&#x2088;" horiz-adv-x="290" 
d="M145 -40q15 0 25 10t10 25t-10 25t-25 10t-25 -10t-10 -25t10 -25t25 -10zM20 -10q0 32 22 54q10 10 23 16q-11 6 -18 15q-17 21 -17 45q0 40 30 65t85 25t85 -25t30 -65q0 -23 -18 -45q-7 -8 -17 -15q12 -6 22 -16q23 -23 23 -54q0 -36 -34 -63t-91 -27t-91 27t-34 63z
M145 90q11 0 20.5 9.5t9.5 20.5t-9.5 20.5t-20.5 9.5t-20.5 -9.5t-9.5 -20.5t9.5 -20.5t20.5 -9.5z" />
    <glyph glyph-name="nineinferior" unicode="&#x2089;" horiz-adv-x="285" 
d="M60 -95l65 90q-45 0 -77.5 31.5t-32.5 73.5q0 46 35 78t90 32t90 -32t35 -78q0 -29 -23 -71q-11 -19 -22 -34l-65 -90h-95zM175 100q0 18 -10 29t-25 11t-25 -11t-10 -29t10 -29t25 -11t25 11t10 29z" />
    <glyph glyph-name="uni20A9" unicode="&#x20a9;" horiz-adv-x="850" 
d="M5 190v90h114l-16 60h-98v90h74l-54 200h145l55 -200h97l53 200h100l52 -200h98l55 200h145l-54 -200h74v-90h-99l-16 -60h115v-90h-139l-51 -190h-130l-50 190h-100l-50 -190h-130l-51 190h-139zM398 280h53l-16 60h-21zM266 280h17l16 60h-49zM567 280h16l17 60h-49z
" />
    <glyph glyph-name="uni20AB" unicode="&#x20ab;" horiz-adv-x="475" 
d="M330 115l-15 35q-12 -12 -27 -20q-35 -20 -83 -20q-75 0 -125 50t-50 125t50 125t125 50q38 0 72 -15q15 -8 23 -15v60h-95v90h95v50h115v-50h55v-90h-55v-375h-85zM145 285q0 -30 23.5 -52.5t56.5 -22.5t56.5 22.5t23.5 52.5t-23.5 52.5t-56.5 22.5t-56.5 -22.5
t-23.5 -52.5zM60 0v80h350v-80h-350z" />
    <glyph glyph-name="Euro" unicode="&#x20ac;" horiz-adv-x="700" 
d="M20 205v80h60v50h-60v80h75q19 61 59 110q84 110 231 110q111 0 184.5 -61t100.5 -159l-145 -10q-12 45 -47.5 72.5t-92.5 27.5q-58 0 -103 -45q-17 -17 -32 -45h150v-80h-170v-50h170v-80h-150q14 -23 32 -40q46 -40 103 -40t92.5 27.5t47.5 72.5l145 -10
q-27 -98 -100.5 -159t-184.5 -61q-146 0 -231 105q-40 47 -59 105h-75z" />
    <glyph glyph-name="uni20B4" unicode="&#x20b4;" horiz-adv-x="555" 
d="M35 210v80h485v-80h-260q-14 -8 -20 -13q-20 -15 -20 -37q0 -20 18 -35t47 -15q33 0 51.5 16.5t18.5 43.5l135 -10q-9 -75 -63 -120t-152 -45q-96 0 -150.5 44.5t-54.5 105.5q0 30 12 49q4 9 13 16h-60zM35 340v80h260q14 8 20 13q20 15 20 37q0 20 -18 35t-47 15
q-33 0 -51.5 -16.5t-18.5 -43.5l-135 10q9 75 63 120t152 45q96 0 150.5 -44.5t54.5 -105.5q0 -29 -13 -49q-4 -10 -12 -16h60v-80h-485z" />
    <glyph glyph-name="uni20B8" unicode="&#x20b8;" 
d="M195 0v340h-170v120h485v-120h-170v-340h-145zM25 510v120h485v-120h-485z" />
    <glyph glyph-name="uni20B9" unicode="&#x20b9;" horiz-adv-x="525" 
d="M35 220v110h145q62 0 90 50h-235v90h235q-28 50 -90 50h-145v110h450v-110h-85l8 -16q8 -18 12 -34h65v-90h-65q-12 -62 -61 -107t-119 -53l260 -220h-205z" />
    <glyph glyph-name="uni20BA" unicode="&#x20ba;" horiz-adv-x="540" 
d="M85 0v204l-65 -24v110l65 24v40l-65 -24v110l65 24v166h145v-113l130 48v-110l-130 -48v-40l130 48v-110l-130 -48v-117q83 0 119 29t36 91h135q0 -133 -69 -196.5t-221 -63.5h-145z" />
    <glyph glyph-name="uni20BD" unicode="&#x20bd;" horiz-adv-x="580" 
d="M95 0v85h-70v115h70v45h-70v115h70v270h230q103 0 164 -55.5t61 -139.5q0 -81 -61.5 -135.5t-163.5 -54.5h-85v-45h170v-115h-170v-85h-145zM240 360h80q37 0 61 22t24 53t-24 53t-61 22h-80v-150z" />
    <glyph glyph-name="uni20BF" unicode="&#x20bf;" horiz-adv-x="580" 
d="M60 0v630h90v85h105v-85h40v85h105v-96q57 -19 91 -63.5t34 -100.5q0 -54 -38 -92q-17 -18 -37 -28q28 -13 50 -34q50 -48 50 -116q0 -63 -41.5 -113t-108.5 -66v-91h-105v85h-40v-85h-105v85h-90zM205 120h125q33 0 56.5 22.5t23.5 52.5t-23.5 52.5t-56.5 22.5h-125
v-150zM205 380h110q30 0 50 19t20 46t-20 46t-50 19h-110v-130z" />
    <glyph glyph-name="uni2113" unicode="&#x2113;" horiz-adv-x="360" 
d="M5 175v90q31 0 54 7l21 8v220q0 67 32.5 103.5t87.5 36.5t90 -41t35 -114q0 -159 -155 -260v-95q0 -55 55 -55q26 0 41 7l7 3.5t7 4.5v-80q-5 -4 -19 -10q-26 -10 -56 -10q-58 0 -91.5 36.5t-33.5 103.5v60q-4 -2 -12 -4.5t-11 -3.5q-26 -7 -52 -7zM170 500v-160
q65 54 65 145q0 31 -11 48t-24 17q-12 0 -21 -12.5t-9 -37.5z" />
    <glyph glyph-name="afii61352" unicode="&#x2116;" horiz-adv-x="1003" 
d="M678 0v110h280v-110h-280zM868 315q0 23 -13.5 36.5t-36.5 13.5t-36.5 -13.5t-13.5 -36.5t13.5 -36.5t36.5 -13.5t36.5 13.5t13.5 36.5zM668 315q0 64 43 107t107 43t107 -43t43 -107t-43 -107t-107 -43t-107 43t-43 107zM60 0v630h130l255 -370v370h145v-630h-130
l-255 370v-370h-145z" />
    <glyph glyph-name="uni2117" unicode="&#x2117;" horiz-adv-x="720" 
d="M340 325h40q40 0 40 40t-40 40h-40v-80zM255 150v330h130q53 0 86.5 -33t33.5 -82t-33.5 -82t-86.5 -33h-45v-100h-85zM360 75q98 0 166.5 69.5t68.5 170.5t-68.5 170.5t-166.5 69.5t-166.5 -69.5t-68.5 -170.5t68.5 -170.5t166.5 -69.5zM40 315q0 135 92.5 227.5
t227.5 92.5t227.5 -92.5t92.5 -227.5t-92.5 -227.5t-227.5 -92.5t-227.5 92.5t-92.5 227.5z" />
    <glyph glyph-name="trademark" unicode="&#x2122;" horiz-adv-x="595" 
d="M265 370v260h75l70 -105l70 105h75v-260h-85v135l-45 -65h-30l-45 65v-135h-85zM80 370v180h-70v80h225v-80h-70v-180h-85z" />
    <glyph glyph-name="uni2126" unicode="&#x2126;" horiz-adv-x="750" 
d="M75 0v90h115q-36 25 -65 61q-65 81 -65 184q0 128 90.5 216.5t224.5 88.5t224.5 -88.5t90.5 -216.5q0 -101 -65 -184q-27 -34 -65 -61h115v-90h-250v90q49 21 87 55q88 82 88 190q0 90 -66 155t-159 65t-159 -65t-66 -155q0 -113 87 -190q38 -34 88 -55v-90h-250z" />
    <glyph glyph-name="estimated" unicode="&#x212e;" horiz-adv-x="770" 
d="M200 340h380v200q-79 70 -190 70t-190 -70v-200zM200 310v-220q22 -20 50 -35q59 -35 140 -35q113 0 195 70q37 32 60 70h35q-25 -47 -66 -85q-91 -85 -224 -85q-135 0 -230 95t-95 230t95 230t230 95t230 -95t95 -230v-5h-515z" />
    <glyph glyph-name="uni2150" unicode="&#x2150;" horiz-adv-x="625" 
d="M60 0l385 630h115l-385 -630h-115zM90 330v190l-35 -20l-40 65l105 65h60v-300h-90zM415 0l100 220h-120v80h220v-65l-105 -235h-95z" />
    <glyph glyph-name="uni2151" unicode="&#x2151;" horiz-adv-x="645" 
d="M60 0l385 630h115l-385 -630h-115zM90 330v190l-35 -20l-40 65l105 65h60v-300h-90zM420 2l65 90q-45 0 -77.5 31.5t-32.5 73.5q0 45 35 77.5t90 32.5t90 -32.5t35 -77.5q0 -29 -23 -71q-11 -19 -22 -34l-65 -90h-95zM535 197q0 18 -10 29t-25 11t-25 -11t-10 -29t10 -29
t25 -11t25 11t10 29z" />
    <glyph glyph-name="uni2152" unicode="&#x2152;" horiz-adv-x="870" 
d="M60 0l385 630h115l-385 -630h-115zM90 330v190l-35 -20l-40 65l105 65h60v-300h-90zM450 0v190l-35 -20l-40 65l105 65h60v-300h-90zM675 150q0 -75 40 -75t40 75t-40 75t-40 -75zM585 150q0 73 36 114t94 41t94 -41t36 -114t-36 -114t-94 -41t-94 41t-36 114z" />
    <glyph glyph-name="onethird" unicode="&#x2153;" horiz-adv-x="645" 
d="M60 0l385 630h115l-385 -630h-115zM90 330v190l-35 -20l-40 65l105 65h60v-300h-90zM465 120v65h30q12 0 21 6t9 14q0 25 -30 25q-35 0 -35 -25l-80 5q4 44 34.5 69.5t85.5 25.5t85 -25t30 -65q0 -23 -18 -45q-7 -8 -17 -15q12 -6 22 -16q23 -23 23 -49q0 -39 -35 -67
t-90 -28t-88 28t-37 72q1 1 43 3l42 2q0 -12 10.5 -21t25.5 -9q20 0 29.5 7.5t9.5 17.5q0 25 -39 25h-31z" />
    <glyph glyph-name="twothirds" unicode="&#x2154;" horiz-adv-x="670" 
d="M90 0l385 630h115l-385 -630h-115zM25 330v60l90 80l25 23q25 27 25 42q0 25 -30 25q-15 0 -25 -10t-10 -25l-80 5q18 105 120 105q59 0 89.5 -27t30.5 -73q0 -24 -15 -48q-5 -7 -15 -17l-75 -65h100v-75h-230zM525 55q15 0 25 10t10 25t-10 25t-25 10t-25 -10t-10 -25
t10 -25t25 -10zM400 85q0 32 22 54q10 10 23 16q-11 6 -18 15q-17 21 -17 45q0 40 30 65t85 25t85 -25t30 -65q0 -23 -18 -45q-7 -8 -17 -15q12 -6 22 -16q23 -23 23 -54q0 -36 -34 -63t-91 -27t-91 27t-34 63zM525 185q11 0 20.5 9.5t9.5 20.5t-9.5 20.5t-20.5 9.5
t-20.5 -9.5t-9.5 -20.5t9.5 -20.5t20.5 -9.5z" />
    <glyph glyph-name="uni2155" unicode="&#x2155;" horiz-adv-x="640" 
d="M60 0l385 630h115l-385 -630h-115zM90 330v190l-35 -20l-40 65l105 65h60v-300h-90zM390 117l20 183h190v-75h-115l-5 -35l11 5q12 5 29 5q39 0 69.5 -27.5t30.5 -67.5q0 -47 -32.5 -78.5t-87.5 -31.5q-45 0 -77 24t-43 66l90 5q3 -6 7 -10q10 -10 23 -10q12 0 21 10
t9 25t-9 25t-21 10q-17 0 -24 -12q-4 -4 -6 -11h-80z" />
    <glyph glyph-name="uni2156" unicode="&#x2156;" horiz-adv-x="660" 
d="M90 0l385 630h115l-385 -630h-115zM25 330v60l90 80l25 23q25 27 25 42q0 25 -30 25q-15 0 -25 -10t-10 -25l-80 5q18 105 120 105q59 0 89.5 -27t30.5 -73q0 -24 -15 -48q-5 -7 -15 -17l-75 -65h100v-75h-230zM410 117l20 183h190v-75h-115l-5 -35l11 5q12 5 29 5
q39 0 69.5 -27.5t30.5 -67.5q0 -47 -32.5 -78.5t-87.5 -31.5q-45 0 -77 24t-43 66l90 5q3 -6 7 -10q10 -10 23 -10q12 0 21 10t9 25t-9 25t-21 10q-17 0 -24 -12q-4 -4 -6 -11h-80z" />
    <glyph glyph-name="uni2157" unicode="&#x2157;" horiz-adv-x="675" 
d="M95 0l385 630h115l-385 -630h-115zM105 450v65h30q12 0 21 6t9 14q0 25 -30 25q-35 0 -35 -25l-80 5q4 44 34.5 69.5t85.5 25.5t85 -25t30 -65q0 -23 -18 -45q-7 -8 -17 -15q12 -6 22 -16q23 -23 23 -49q0 -39 -35 -67t-90 -28t-88 28t-37 72q1 1 43 3l42 2
q0 -12 10.5 -21t25.5 -9q20 0 29.5 7.5t9.5 17.5q0 25 -39 25h-31zM425 117l20 183h190v-75h-115l-5 -35l11 5q12 5 29 5q39 0 69.5 -27.5t30.5 -67.5q0 -47 -32.5 -78.5t-87.5 -31.5q-45 0 -77 24t-43 66l90 5q3 -6 7 -10q10 -10 23 -10q12 0 21 10t9 25t-9 25t-21 10
q-17 0 -24 -12q-4 -4 -6 -11h-80z" />
    <glyph glyph-name="uni2158" unicode="&#x2158;" horiz-adv-x="670" 
d="M90 0l385 630h115l-385 -630h-115zM0 385v55l120 190h105v-170h35v-75h-35v-55h-90v55h-135zM90 460h50v80zM420 117l20 183h190v-75h-115l-5 -35l11 5q12 5 29 5q39 0 69.5 -27.5t30.5 -67.5q0 -47 -32.5 -78.5t-87.5 -31.5q-45 0 -77 24t-43 66l90 5q3 -6 7 -10
q10 -10 23 -10q12 0 21 10t9 25t-9 25t-21 10q-17 0 -24 -12q-4 -4 -6 -11h-80z" />
    <glyph glyph-name="uni2159" unicode="&#x2159;" horiz-adv-x="625" 
d="M60 0l385 630h115l-385 -630h-115zM90 330v190l-35 -20l-40 65l105 65h60v-300h-90zM405 210l65 90h95l-65 -90q44 0 77 -31.5t33 -73.5q0 -47 -35 -78.5t-90 -31.5t-90 31.5t-35 78.5q0 31 22 71q12 21 23 34zM450 105q0 -18 10 -29t25 -11t25 11t10 29t-10 29t-25 11
t-25 -11t-10 -29z" />
    <glyph glyph-name="uni215A" unicode="&#x215a;" horiz-adv-x="655" 
d="M90 0l385 630h115l-385 -630h-115zM30 447l20 183h190v-75h-115l-5 -35l11 5q12 5 29 5q39 0 69.5 -27.5t30.5 -67.5q0 -47 -32.5 -78.5t-87.5 -31.5q-45 0 -77 24t-43 66l90 5q3 -6 7 -10q10 -10 23 -10q12 0 21 10t9 25t-9 25t-21 10q-17 0 -24 -12q-4 -4 -6 -11h-80z
M435 210l65 90h95l-65 -90q44 0 77 -31.5t33 -73.5q0 -47 -35 -78.5t-90 -31.5t-90 31.5t-35 78.5q0 31 22 71q12 21 23 34zM480 105q0 -18 10 -29t25 -11t25 11t10 29t-10 29t-25 11t-25 -11t-10 -29z" />
    <glyph glyph-name="oneeighth" unicode="&#x215b;" horiz-adv-x="640" 
d="M60 0l385 630h115l-385 -630h-115zM90 330v190l-35 -20l-40 65l105 65h60v-300h-90zM495 55q15 0 25 10t10 25t-10 25t-25 10t-25 -10t-10 -25t10 -25t25 -10zM370 85q0 32 22 54q10 10 23 16q-11 6 -18 15q-17 21 -17 45q0 40 30 65t85 25t85 -25t30 -65q0 -23 -18 -45
q-7 -8 -17 -15q12 -6 22 -16q23 -23 23 -54q0 -36 -34 -63t-91 -27t-91 27t-34 63zM495 185q11 0 20.5 9.5t9.5 20.5t-9.5 20.5t-20.5 9.5t-20.5 -9.5t-9.5 -20.5t9.5 -20.5t20.5 -9.5z" />
    <glyph glyph-name="threeeighths" unicode="&#x215c;" horiz-adv-x="675" 
d="M95 0l385 630h115l-385 -630h-115zM105 450v65h30q12 0 21 6t9 14q0 25 -30 25q-35 0 -35 -25l-80 5q4 44 34.5 69.5t85.5 25.5t85 -25t30 -65q0 -23 -18 -45q-7 -8 -17 -15q12 -6 22 -16q23 -23 23 -49q0 -39 -35 -67t-90 -28t-88 28t-37 72q1 1 43 3l42 2
q0 -12 10.5 -21t25.5 -9q20 0 29.5 7.5t9.5 17.5q0 25 -39 25h-31zM530 55q15 0 25 10t10 25t-10 25t-25 10t-25 -10t-10 -25t10 -25t25 -10zM405 85q0 32 22 54q10 10 23 16q-10 6 -18 15q-17 21 -17 45q0 40 30 65t85 25t85 -25t30 -65q0 -23 -18 -45q-7 -8 -17 -15
q12 -6 22 -16q23 -23 23 -54q0 -36 -34 -63t-91 -27t-91 27t-34 63zM530 185q11 0 20.5 9.5t9.5 20.5t-9.5 20.5t-20.5 9.5t-20.5 -9.5t-9.5 -20.5t9.5 -20.5t20.5 -9.5z" />
    <glyph glyph-name="fiveeighths" unicode="&#x215d;" horiz-adv-x="680" 
d="M90 0l385 630h115l-385 -630h-115zM30 447l20 183h190v-75h-115l-5 -35l11 5q12 5 29 5q39 0 69.5 -27.5t30.5 -67.5q0 -47 -32.5 -78.5t-87.5 -31.5q-45 0 -77 24t-43 66l90 5q3 -6 7 -10q10 -10 23 -10q12 0 21 10t9 25t-9 25t-21 10q-17 0 -24 -12q-4 -4 -6 -11h-80z
M535 55q15 0 25 10t10 25t-10 25t-25 10t-25 -10t-10 -25t10 -25t25 -10zM410 85q0 32 22 54q10 10 23 16q-11 6 -18 15q-17 21 -17 45q0 40 30 65t85 25t85 -25t30 -65q0 -23 -18 -45q-7 -8 -17 -15q12 -6 22 -16q23 -23 23 -54q0 -36 -34 -63t-91 -27t-91 27t-34 63z
M535 185q11 0 20.5 9.5t9.5 20.5t-9.5 20.5t-20.5 9.5t-20.5 -9.5t-9.5 -20.5t9.5 -20.5t20.5 -9.5z" />
    <glyph glyph-name="seveneighths" unicode="&#x215e;" horiz-adv-x="635" 
d="M65 0l385 630h115l-385 -630h-115zM45 330l100 220h-120v80h220v-65l-105 -235h-95zM490 55q15 0 25 10t10 25t-10 25t-25 10t-25 -10t-10 -25t10 -25t25 -10zM365 85q0 32 22 54q10 10 23 16q-10 6 -18 15q-17 21 -17 45q0 40 30 65t85 25t85 -25t30 -65q0 -23 -18 -45
q-7 -8 -17 -15q12 -6 22 -16q23 -23 23 -54q0 -36 -34 -63t-91 -27t-91 27t-34 63zM490 185q11 0 20.5 9.5t9.5 20.5t-9.5 20.5t-20.5 9.5t-20.5 -9.5t-9.5 -20.5t9.5 -20.5t20.5 -9.5z" />
    <glyph glyph-name="uni215F" unicode="&#x215f;" horiz-adv-x="370" 
d="M60 0l385 630h115l-385 -630h-115zM90 330v190l-35 -20l-40 65l105 65h60v-300h-90z" />
    <glyph glyph-name="arrowleft" unicode="&#x2190;" horiz-adv-x="1000" 
d="M85 310l255 255l85 -85l-110 -110h600v-120h-600l110 -110l-85 -85z" />
    <glyph glyph-name="arrowup" unicode="&#x2191;" horiz-adv-x="1000" 
d="M440 -95v600l-110 -110l-85 85l255 255l255 -255l-85 -85l-110 110v-600h-120z" />
    <glyph glyph-name="arrowright" unicode="&#x2192;" horiz-adv-x="1000" 
d="M85 250v120h600l-110 110l85 85l255 -255l-255 -255l-85 85l110 110h-600z" />
    <glyph glyph-name="arrowdown" unicode="&#x2193;" horiz-adv-x="1000" 
d="M245 160l85 85l110 -110v600h120v-600l110 110l85 -85l-255 -255z" />
    <glyph glyph-name="arrowboth" unicode="&#x2194;" horiz-adv-x="1000" 
d="M85 310l255 255l85 -85l-110 -110h370l-110 110l85 85l255 -255l-255 -255l-85 85l110 110h-370l110 -110l-85 -85z" />
    <glyph glyph-name="arrowupdn" unicode="&#x2195;" horiz-adv-x="1000" 
d="M245 160l85 85l110 -110v370l-110 -110l-85 85l255 255l255 -255l-85 -85l-110 110v-370l110 110l85 -85l-255 -255z" />
    <glyph glyph-name="uni2196" unicode="&#x2196;" horiz-adv-x="1000" 
d="M185 260v365h365v-120h-160l425 -425l-85 -85l-425 425v-160h-120z" />
    <glyph glyph-name="uni2197" unicode="&#x2197;" horiz-adv-x="1000" 
d="M185 80l425 425h-160v120h365v-365h-120v160l-425 -425z" />
    <glyph glyph-name="uni2198" unicode="&#x2198;" horiz-adv-x="1000" 
d="M450 -5v120h160l-425 425l85 85l425 -425v160h120v-365h-365z" />
    <glyph glyph-name="uni2199" unicode="&#x2199;" horiz-adv-x="1000" 
d="M185 -5v365h120v-160l425 425l85 -85l-425 -425h160v-120h-365z" />
    <glyph glyph-name="partialdiff" unicode="&#x2202;" 
d="M95 510v85q15 11 37 22q50 23 103 23q111 0 175.5 -84.5t64.5 -260.5q0 -151 -61 -228t-159 -77q-86 0 -145.5 59.5t-59.5 145.5q0 93 59 152t151 59q45 0 87 -18q18 -8 33 -18q-8 91 -48 138t-102 47q-46 0 -96 -23q-24 -12 -39 -22zM385 270q-17 17 -31 25
q-44 25 -94 25q-57 0 -88.5 -32.5t-31.5 -92.5q0 -53 33 -86.5t82 -33.5q60 0 95 47.5t35 147.5z" />
    <glyph glyph-name="emptyset" unicode="&#x2205;" horiz-adv-x="790" 
d="M50 -10l99 112q-79 92 -79 213q0 134 95.5 229.5t229.5 95.5q100 0 180 -55l45 50h120l-97 -110q77 -91 77 -210q0 -134 -95.5 -229.5t-229.5 -95.5q-96 0 -178 53l-47 -53h-120zM209 170l306 347q-55 33 -120 33q-97 0 -166 -69t-69 -166q0 -82 49 -145zM582 456
l-305 -345q52 -31 118 -31q97 0 166 69t69 166q0 81 -48 141z" />
    <glyph glyph-name="uni2206" unicode="&#x2206;" horiz-adv-x="630" 
d="M40 0l235 630h80l235 -630h-550zM170 90h290l-145 380z" />
    <glyph glyph-name="product" unicode="&#x220f;" horiz-adv-x="690" 
d="M115 -100v730h460v-730h-90v645h-280v-645h-90z" />
    <glyph glyph-name="summation" unicode="&#x2211;" horiz-adv-x="520" 
d="M60 -100v60l210 325l-210 285v60h410v-90h-280l190 -255l-195 -295h285v-90h-410z" />
    <glyph glyph-name="minus" unicode="&#x2212;" horiz-adv-x="470" 
d="M35 195v120h400v-120h-400z" />
    <glyph glyph-name="radical" unicode="&#x221a;" horiz-adv-x="580" 
d="M205 -100l-90 240h-100v90h160l70 -185l235 675h95l-285 -820h-85z" />
    <glyph glyph-name="infinity" unicode="&#x221e;" horiz-adv-x="770" 
d="M323 280q-25 26 -38 37.5t-33.5 22t-41.5 10.5q-29 0 -49.5 -20.5t-20.5 -49.5t20.5 -49.5t49.5 -20.5q21 0 41.5 10.5t33.5 22t38 37.5zM447 280q25 -26 38 -37.5t33.5 -22t41.5 -10.5q29 0 49.5 20.5t20.5 49.5t-20.5 49.5t-49.5 20.5q-21 0 -41.5 -10.5t-33.5 -22
t-38 -37.5zM385 220q-31 -33 -50 -50t-53.5 -33.5t-71.5 -16.5q-68 0 -114 46t-46 114t46 114t114 46q37 0 71.5 -16.5t53.5 -33.5t50 -50q31 33 50 50t53.5 33.5t71.5 16.5q68 0 114 -46t46 -114t-46 -114t-114 -46q-37 0 -71.5 16.5t-53.5 33.5t-50 50z" />
    <glyph glyph-name="integral" unicode="&#x222b;" horiz-adv-x="345" 
d="M35 -110v90h35q26 0 43 17t17 43v550q0 72 39 111t111 39h35v-90h-35q-26 0 -43 -17t-17 -43v-550q0 -72 -39 -111t-111 -39h-35z" />
    <glyph glyph-name="approxequal" unicode="&#x2248;" horiz-adv-x="525" 
d="M145 280l-110 10q0 81 35.5 123t94.5 42q39 0 96.5 -25t73.5 -25q19 0 32 13.5t13 36.5l110 -10q0 -81 -35.5 -123t-94.5 -42q-39 0 -96.5 25t-73.5 25q-19 0 -32 -13.5t-13 -36.5zM145 75l-110 10q0 81 35.5 123t94.5 42q39 0 96.5 -25t73.5 -25q19 0 32 13.5t13 36.5
l110 -10q0 -81 -35.5 -123t-94.5 -42q-39 0 -96.5 25t-73.5 25q-19 0 -32 -13.5t-13 -36.5z" />
    <glyph glyph-name="notequal" unicode="&#x2260;" horiz-adv-x="460" 
d="M70 5l34 85h-69v125h119l32 80h-151v125h201l34 85h120l-34 -85h69v-125h-119l-32 -80h151v-125h-201l-34 -85h-120z" />
    <glyph glyph-name="lessequal" unicode="&#x2264;" horiz-adv-x="470" 
d="M40 0v105h390v-105h-390zM45 270v100l385 140v-115l-225 -75l225 -75v-115z" />
    <glyph glyph-name="greaterequal" unicode="&#x2265;" horiz-adv-x="470" 
d="M40 0v105h390v-105h-390zM40 130v115l225 75l-225 75v115l385 -140v-100z" />
    <glyph glyph-name="uni2318" unicode="&#x2318;" horiz-adv-x="730" 
d="M180 265h45v100h-45q-60 0 -100 39t-40 96q0 56 42 98t98 42q57 0 96 -40t39 -100v-45h100v45q0 60 39 100t96 40q56 0 98 -42t42 -98q0 -57 -40 -96t-100 -39h-45v-100h45q60 0 100 -39t40 -96q0 -56 -42 -98t-98 -42q-57 0 -96 40t-39 100v45h-100v-45q0 -60 -39 -100
t-96 -40q-56 0 -98 42t-42 98q0 57 40 96t100 39zM225 130v45h-45q-19 0 -32 -13t-13 -32t13 -32t32 -13t32 13t13 32zM315 265h100v100h-100v-100zM505 175v-45q0 -19 13 -32t32 -13t32 13t13 32t-13 32t-32 13h-45zM180 455h45v45q0 19 -13 32t-32 13t-32 -13t-13 -32
t13 -32t32 -13zM505 455h45q19 0 32 13t13 32t-13 32t-32 13t-32 -13t-13 -32v-45z" />
    <glyph glyph-name="uni2460" unicode="&#x2460;" horiz-adv-x="1000" 
d="M470 120v280l-50 -35l-50 75l115 80h85v-400h-100zM70 320q0 180 125 305t305 125t305 -125t125 -305t-125 -305t-305 -125t-305 125t-125 305zM180 320q0 -133 93.5 -226.5t226.5 -93.5t226.5 93.5t93.5 226.5t-93.5 226.5t-226.5 93.5t-226.5 -93.5t-93.5 -226.5z" />
    <glyph glyph-name="uni2461" unicode="&#x2461;" horiz-adv-x="1000" 
d="M70 320q0 180 125 305t305 125t305 -125t125 -305t-125 -305t-305 -125t-305 125t-125 305zM360 120v65l140 144q35 35 35 61q0 15 -10 25t-25 10q-38 0 -45 -40l-100 10q4 53 45 91.5t100 38.5q62 0 103.5 -37.5t41.5 -87.5q0 -37 -14 -62.5t-41 -52.5l-70 -70h125v-95
h-285zM180 320q0 -133 93.5 -226.5t226.5 -93.5t226.5 93.5t93.5 226.5t-93.5 226.5t-226.5 93.5t-226.5 -93.5t-93.5 -226.5z" />
    <glyph glyph-name="uni2462" unicode="&#x2462;" horiz-adv-x="1000" 
d="M345 240l105 10q8 -40 50 -40q19 0 32 9.5t13 26.5q0 14 -13 24t-32 10h-40v90h40q35 0 35 30t-35 30q-36 0 -45 -35l-105 10q4 51 44 85.5t106 34.5q65 0 105 -33t40 -77q0 -43 -28 -67q-12 -10 -27 -18q20 -8 32 -19q33 -31 33 -76q0 -47 -43.5 -83.5t-111.5 -36.5
q-66 0 -108.5 37t-46.5 88zM70 320q0 180 125 305t305 125t305 -125t125 -305t-125 -305t-305 -125t-305 125t-125 305zM180 320q0 -133 93.5 -226.5t226.5 -93.5t226.5 93.5t93.5 226.5t-93.5 226.5t-226.5 93.5t-226.5 -93.5t-93.5 -226.5z" />
    <glyph glyph-name="uni2463" unicode="&#x2463;" horiz-adv-x="1000" 
d="M330 190v85l155 245h115v-235h40v-95h-40v-70h-100v70h-170zM440 285h60v95zM70 320q0 180 125 305t305 125t305 -125t125 -305t-125 -305t-305 -125t-305 125t-125 305zM180 320q0 -133 93.5 -226.5t226.5 -93.5t226.5 93.5t93.5 226.5t-93.5 226.5t-226.5 93.5
t-226.5 -93.5t-93.5 -226.5z" />
    <glyph glyph-name="uni2464" unicode="&#x2464;" horiz-adv-x="1000" 
d="M350 235l105 10q9 -35 45 -35q19 0 32 13t13 32t-13 32t-32 13q-17 0 -31 -10l-9 -10h-105l32 240h238v-95h-150l-5 -45l14 5q15 5 36 5q57 0 96 -38t39 -97q0 -63 -43 -101.5t-112 -38.5q-66 0 -103.5 32t-46.5 88zM70 320q0 180 125 305t305 125t305 -125t125 -305
t-125 -305t-305 -125t-305 125t-125 305zM180 320q0 -133 93.5 -226.5t226.5 -93.5t226.5 93.5t93.5 226.5t-93.5 226.5t-226.5 93.5t-226.5 -93.5t-93.5 -226.5z" />
    <glyph glyph-name="uni2465" unicode="&#x2465;" horiz-adv-x="1000" 
d="M390 380l95 140h110l-85 -125q63 -4 104 -43.5t41 -96.5q0 -58 -44 -99t-111 -41t-111 41t-44 99q0 41 22 87q14 26 23 38zM455 255q0 -19 13 -32t32 -13t32 13t13 32t-13 32t-32 13t-32 -13t-13 -32zM70 320q0 180 125 305t305 125t305 -125t125 -305t-125 -305
t-305 -125t-305 125t-125 305zM180 320q0 -133 93.5 -226.5t226.5 -93.5t226.5 93.5t93.5 226.5t-93.5 226.5t-226.5 93.5t-226.5 -93.5t-93.5 -226.5z" />
    <glyph glyph-name="uni2466" unicode="&#x2466;" horiz-adv-x="1000" 
d="M380 120l150 305h-160v95h275v-85l-150 -315h-115zM70 320q0 180 125 305t305 125t305 -125t125 -305t-125 -305t-305 -125t-305 125t-125 305zM180 320q0 -133 93.5 -226.5t226.5 -93.5t226.5 93.5t93.5 226.5t-93.5 226.5t-226.5 93.5t-226.5 -93.5t-93.5 -226.5z" />
    <glyph glyph-name="uni2467" unicode="&#x2467;" horiz-adv-x="1000" 
d="M455 240q0 -18 13 -29t32 -11t32 11t13 29t-13 29t-32 11t-32 -11t-13 -29zM465 407q0 -13 10 -22.5t25 -9.5t25 9.5t10 22.5q0 14 -10 23.5t-25 9.5t-25 -9.5t-10 -23.5zM340 240q0 48 35 72q14 10 35 18q-15 7 -28 20q-27 27 -27 65q0 44 40 77t105 33t105 -33t40 -77
q0 -37 -28 -65q-13 -13 -27 -20q19 -7 35 -19q35 -31 35 -71q0 -51 -44 -88t-116 -37t-116 37t-44 88zM70 320q0 180 125 305t305 125t305 -125t125 -305t-125 -305t-305 -125t-305 125t-125 305zM180 320q0 -133 93.5 -226.5t226.5 -93.5t226.5 93.5t93.5 226.5
t-93.5 226.5t-226.5 93.5t-226.5 -93.5t-93.5 -226.5z" />
    <glyph glyph-name="uni2468" unicode="&#x2468;" horiz-adv-x="1000" 
d="M500 -110q-180 0 -305 125t-125 305t125 305t305 125t305 -125t125 -305t-125 -305t-305 -125zM180 320q0 -133 93.5 -226.5t226.5 -93.5t226.5 93.5t93.5 226.5t-93.5 226.5t-226.5 93.5t-226.5 -93.5t-93.5 -226.5zM405 120l85 125q-64 4 -104.5 43.5t-40.5 96.5
q0 58 44 99t111 41t111 -41t44 -99q0 -39 -23 -87q-14 -26 -22 -38l-95 -140h-110zM500 340q19 0 32 13t13 32t-13 32t-32 13t-32 -13t-13 -32t13 -32t32 -13z" />
    </font>
</defs>
</svg>
